%TF.GenerationSoftware,KiCad,Pcbnew,10.0.1*%
%TF.CreationDate,2026-06-03T20:29:48+02:00*%
%TF.ProjectId,WirelessBERA,57697265-6c65-4737-9342-4552412e6b69,rev?*%
%TF.SameCoordinates,Original*%
%TF.FileFunction,Legend,Bot*%
%TF.FilePolarity,Positive*%
%FSLAX46Y46*%
G04 Gerber Fmt 4.6, Leading zero omitted, Abs format (unit mm)*
G04 Created by KiCad (PCBNEW 10.0.1) date 2026-06-03 20:29:48*
%MOMM*%
%LPD*%
G01*
G04 APERTURE LIST*
%ADD10C,0.203200*%
%ADD11C,0.350000*%
%ADD12C,0.200000*%
%ADD13O,1.400000X0.400000*%
%ADD14O,0.400000X1.400000*%
%ADD15C,0.300000*%
%ADD16O,1.700000X0.600000*%
%ADD17O,1.400000X0.600000*%
G04 APERTURE END LIST*
D10*
X34900000Y-94000000D03*
X35950000Y-94000000D03*
X37000000Y-94000000D03*
X34900000Y-92900002D03*
X35950000Y-92900002D03*
X37000000Y-92900002D03*
D11*
X85000000Y-42000000D03*
X71511846Y-74688154D03*
X73307897Y-72892103D03*
X75103948Y-71096052D03*
X76900000Y-69300000D03*
X76311846Y-41311846D03*
X78107897Y-43107897D03*
X79903948Y-44903948D03*
X81700000Y-46700000D03*
X66300000Y-76600000D03*
X63760000Y-76600000D03*
X78000000Y-57500000D03*
X30500000Y-112100000D03*
X30500000Y-118900000D03*
X43000000Y-117000000D03*
X47100000Y-90500000D03*
D12*
X85700000Y-89600000D03*
X84300000Y-89600000D03*
X86400000Y-90300000D03*
X85000000Y-90300000D03*
X83600000Y-90300000D03*
X85700000Y-91000000D03*
X84300000Y-91000000D03*
X86400000Y-91700000D03*
X85000000Y-91700000D03*
X83600000Y-91700000D03*
X85700000Y-92400000D03*
X84300000Y-92400000D03*
D11*
X33000000Y-38000000D03*
X30500000Y-38000000D03*
X38000000Y-43000000D03*
X33000000Y-48000000D03*
X30500000Y-48000000D03*
D13*
X38000000Y-38000000D03*
D14*
X33000000Y-43000000D03*
D13*
X38000000Y-48000000D03*
D10*
X53500000Y-79150000D03*
X52549999Y-78575000D03*
X54450001Y-78575000D03*
X53500000Y-78000000D03*
D11*
X58360000Y-57800000D03*
X60900000Y-57800000D03*
X63440000Y-57800000D03*
X68000000Y-41600000D03*
X68000000Y-44140000D03*
X68000000Y-46680000D03*
X68000000Y-49220000D03*
X56700000Y-40600000D03*
X56700000Y-43140000D03*
X56700000Y-45680000D03*
X56700000Y-48220000D03*
D15*
X35450000Y-81350001D03*
X36950000Y-81350001D03*
X36200000Y-80850001D03*
X35450000Y-80350001D03*
X36950000Y-80350001D03*
D11*
X97475000Y-127475000D03*
X47100000Y-82600000D03*
D12*
X46000000Y-99000000D03*
X45425000Y-99950000D03*
X45425000Y-98050000D03*
X44850000Y-99000000D03*
D11*
X32000000Y-55000000D03*
X97000000Y-48000000D03*
X99500000Y-48000000D03*
X92000000Y-43000000D03*
X97000000Y-38000000D03*
X99500000Y-38000000D03*
D13*
X92000000Y-48000000D03*
D14*
X97000000Y-43000000D03*
D13*
X92000000Y-38000000D03*
D11*
X95000000Y-61500000D03*
X95000000Y-55720000D03*
D16*
X94500000Y-62930000D03*
D17*
X98680000Y-62930000D03*
D16*
X94500000Y-54290000D03*
D17*
X98680000Y-54290000D03*
M02*
