%TF.GenerationSoftware,KiCad,Pcbnew,10.0.1*%
%TF.CreationDate,2026-05-30T11:47:09+02:00*%
%TF.ProjectId,WirelessBERA,57697265-6c65-4737-9342-4552412e6b69,rev?*%
%TF.SameCoordinates,Original*%
%TF.FileFunction,Copper,L4,Bot*%
%TF.FilePolarity,Positive*%
%FSLAX46Y46*%
G04 Gerber Fmt 4.6, Leading zero omitted, Abs format (unit mm)*
G04 Created by KiCad (PCBNEW 10.0.1) date 2026-05-30 11:47:09*
%MOMM*%
%LPD*%
G01*
G04 APERTURE LIST*
%TA.AperFunction,EtchedComponent*%
%ADD10C,0.000000*%
%TD*%
%TA.AperFunction,ComponentPad*%
%ADD11C,1.800000*%
%TD*%
%TA.AperFunction,ComponentPad*%
%ADD12C,0.499999*%
%TD*%
%TA.AperFunction,HeatsinkPad*%
%ADD13C,0.600000*%
%TD*%
%TA.AperFunction,ComponentPad*%
%ADD14O,2.200000X1.200000*%
%TD*%
%TA.AperFunction,ComponentPad*%
%ADD15O,1.200000X2.200000*%
%TD*%
%TA.AperFunction,ComponentPad*%
%ADD16C,0.600000*%
%TD*%
%TA.AperFunction,SMDPad,CuDef*%
%ADD17R,2.800000X2.300000*%
%TD*%
%TA.AperFunction,ComponentPad*%
%ADD18C,0.500000*%
%TD*%
%TA.AperFunction,ComponentPad*%
%ADD19O,2.100000X1.000000*%
%TD*%
%TA.AperFunction,ComponentPad*%
%ADD20O,1.800000X1.000000*%
%TD*%
%TA.AperFunction,SMDPad,CuDef*%
%ADD21C,2.000000*%
%TD*%
%TA.AperFunction,ViaPad*%
%ADD22C,0.600000*%
%TD*%
%TA.AperFunction,Conductor*%
%ADD23C,0.350000*%
%TD*%
%TA.AperFunction,Conductor*%
%ADD24C,0.200000*%
%TD*%
%TA.AperFunction,Conductor*%
%ADD25C,0.400000*%
%TD*%
%TA.AperFunction,Conductor*%
%ADD26C,0.800000*%
%TD*%
%TA.AperFunction,Conductor*%
%ADD27C,0.250000*%
%TD*%
%TA.AperFunction,Conductor*%
%ADD28C,0.300000*%
%TD*%
%TA.AperFunction,Conductor*%
%ADD29C,0.500000*%
%TD*%
G04 APERTURE END LIST*
D10*
%TA.AperFunction,EtchedComponent*%
%TO.C,NT1*%
G36*
X37200000Y-88500000D02*
G01*
X35200000Y-88500000D01*
X35200000Y-84500000D01*
X37200000Y-84500000D01*
X37200000Y-88500000D01*
G37*
%TD.AperFunction*%
%TD*%
D11*
%TO.P,TP25,1,1_1*%
%TO.N,/Analog/OUT_2_P*%
X78000000Y-42500000D03*
%TD*%
D12*
%TO.P,U5,21,PAD_21*%
%TO.N,GNDD*%
X34900000Y-94000000D03*
X35950000Y-94000000D03*
X37000000Y-94000000D03*
X34900000Y-92900002D03*
X35950000Y-92900002D03*
X37000000Y-92900002D03*
%TD*%
D11*
%TO.P,TP31,1,1_1*%
%TO.N,I2S_DOUT*%
X72200000Y-70100000D03*
%TD*%
%TO.P,TP40,1,1_1*%
%TO.N,I2C_SDA*%
X67110000Y-76500000D03*
%TD*%
%TO.P,TP22,1,1_1*%
%TO.N,/Analog/LTC6373_OUT_N*%
X68100000Y-38500000D03*
%TD*%
%TO.P,TP21,1,1_1*%
%TO.N,/Analog/LTC6373_OUT_P*%
X68100000Y-46500000D03*
%TD*%
%TO.P,TP27,1,1_1*%
%TO.N,/Analog/OUT_1_N*%
X83000000Y-49500000D03*
%TD*%
%TO.P,TP3,1,1_1*%
%TO.N,GNDD*%
X45500000Y-90500000D03*
%TD*%
%TO.P,TP32,1,1_1*%
%TO.N,I2S_DIN*%
X76200000Y-70100000D03*
%TD*%
%TO.P,TP23,1,1_1*%
%TO.N,Net-(U10-IN-)*%
X55500000Y-46500000D03*
%TD*%
D13*
%TO.P,U7,41,GND_41*%
%TO.N,GNDD*%
X85700000Y-89600000D03*
X84300000Y-89600000D03*
X86400000Y-90300000D03*
X85000000Y-90300000D03*
X83600000Y-90300000D03*
X85700000Y-91000000D03*
X84300000Y-91000000D03*
X86400000Y-91700000D03*
X85000000Y-91700000D03*
X83600000Y-91700000D03*
X85700000Y-92400000D03*
X84300000Y-92400000D03*
%TD*%
D14*
%TO.P,J4,R*%
%TO.N,/Analog/Electrode+*%
X38000000Y-38000000D03*
D15*
%TO.P,J4,S*%
%TO.N,/Analog/Electrode-*%
X33000000Y-43000000D03*
D14*
%TO.P,J4,T*%
%TO.N,/Analog/ElectrodeDRL*%
X38000000Y-48000000D03*
%TD*%
D12*
%TO.P,U3,11,Thermal_Pad_11*%
%TO.N,GNDA*%
X53500000Y-79150000D03*
X52549999Y-78575000D03*
X54450001Y-78575000D03*
X53500000Y-78000000D03*
%TD*%
D11*
%TO.P,TP7,1,1_1*%
%TO.N,GNDA*%
X55500000Y-50500000D03*
%TD*%
%TO.P,TP24,1,1_1*%
%TO.N,/Analog/OUT_2_N*%
X75000000Y-39500000D03*
%TD*%
%TO.P,TP28,1,1_1*%
%TO.N,I2S_BCLK*%
X64200000Y-70100000D03*
%TD*%
%TO.P,TP26,1,1_1*%
%TO.N,/Analog/OUT_1_P*%
X80500000Y-46000000D03*
%TD*%
%TO.P,TP4,1,1_1*%
%TO.N,+5V_InAmp*%
X68100000Y-50500000D03*
%TD*%
D16*
%TO.P,U4,11,GND_11*%
%TO.N,GNDA*%
X35450000Y-81350001D03*
X36950000Y-81350001D03*
X36200000Y-80850001D03*
D17*
X36200000Y-80850001D03*
D16*
X35450000Y-80350001D03*
X36950000Y-80350001D03*
%TD*%
D11*
%TO.P,TP35,1,1_1*%
%TO.N,I2C_SCL*%
X63110000Y-76500000D03*
%TD*%
%TO.P,TP20,1,1_1*%
%TO.N,Net-(U10-IN+)*%
X55500000Y-42500000D03*
%TD*%
%TO.P,TP5,1,1_1*%
%TO.N,-5V_InAmp*%
X68100000Y-42500000D03*
%TD*%
D18*
%TO.P,U6,11,PGND_11*%
%TO.N,GNDD*%
X46000000Y-99000000D03*
X45425000Y-99950000D03*
X45425000Y-98050000D03*
X44850000Y-99000000D03*
%TD*%
D14*
%TO.P,J5,R*%
%TO.N,Net-(J5-PadR)*%
X92000000Y-48000000D03*
D15*
%TO.P,J5,S*%
%TO.N,GNDA*%
X97000000Y-43000000D03*
D14*
%TO.P,J5,T*%
%TO.N,Net-(J5-PadT)*%
X92000000Y-38000000D03*
%TD*%
D11*
%TO.P,TP29,1,1_1*%
%TO.N,I2S_FSYNC*%
X68200000Y-70100000D03*
%TD*%
D19*
%TO.P,J3,SH,SHIELD_SH*%
%TO.N,GNDD*%
X94500000Y-62930000D03*
D20*
X98680000Y-62930000D03*
D19*
X94500000Y-54290000D03*
D20*
X98680000Y-54290000D03*
%TD*%
D21*
%TO.P,NT1,1,1_1*%
%TO.N,GNDD*%
X36200000Y-88500000D03*
%TO.P,NT1,2,2_2*%
%TO.N,GNDA*%
X36200000Y-84500000D03*
%TD*%
D22*
%TO.N,+5V_DRL*%
X48600000Y-56300000D03*
X48600000Y-49200000D03*
%TO.N,/Analog/OUT_2_P*%
X72900000Y-55100000D03*
%TO.N,Net-(FB1-Pad2)*%
X66100000Y-68600000D03*
X62200000Y-84100000D03*
%TO.N,+5V*%
X33600000Y-79375001D03*
X43500000Y-76400000D03*
X50500000Y-82100000D03*
%TO.N,GNDD*%
X100900000Y-53500000D03*
X61000000Y-72500000D03*
X93500000Y-88000000D03*
X93500000Y-95500000D03*
X79896446Y-111500000D03*
X61000000Y-77000000D03*
X61000000Y-80000000D03*
X67200000Y-81900000D03*
X50100000Y-107500000D03*
X60250000Y-123500000D03*
X29100000Y-103500000D03*
X85000000Y-55000000D03*
X29100000Y-112500000D03*
X39500000Y-108300000D03*
X39062500Y-108750000D03*
X75000000Y-60500000D03*
X85000000Y-62500000D03*
X29100000Y-100500000D03*
X56500000Y-98500000D03*
X60000000Y-92500000D03*
X31500000Y-88500000D03*
X29100000Y-117000000D03*
X46000000Y-95000000D03*
X81900000Y-103300000D03*
X29100000Y-114000000D03*
X93500000Y-100000000D03*
X76400000Y-108100000D03*
X93500000Y-69500000D03*
X29100000Y-111000000D03*
X29100000Y-97500000D03*
X91500000Y-117000000D03*
X61000000Y-74000000D03*
X29100000Y-102000000D03*
X100000000Y-129900000D03*
X51000000Y-87000000D03*
X99500000Y-68000000D03*
X77600000Y-71400000D03*
X72000000Y-129900000D03*
X67800000Y-83600000D03*
X77800000Y-81800000D03*
X61700000Y-116600000D03*
X58500000Y-87000000D03*
X54500000Y-98500000D03*
X39000000Y-87000000D03*
X54000000Y-87000000D03*
X33100000Y-94200000D03*
X65500000Y-85000000D03*
X32000000Y-99000000D03*
X35000000Y-100500000D03*
X77500000Y-99500000D03*
X73500000Y-117000000D03*
X69000000Y-98500000D03*
X52500000Y-87000000D03*
X91500000Y-109500000D03*
X92500000Y-52500000D03*
X58500000Y-123600000D03*
X69500000Y-86000000D03*
X75000000Y-62500000D03*
X39500000Y-101000000D03*
X29100000Y-126000000D03*
X87500000Y-52500000D03*
X59400000Y-110300000D03*
X56000000Y-129900000D03*
X29100000Y-109500000D03*
X54500000Y-110500000D03*
X100900000Y-59500000D03*
X77500000Y-65000000D03*
X42500000Y-97000000D03*
X34500000Y-95700000D03*
X36900000Y-91300000D03*
X80000000Y-117000000D03*
X100900000Y-117000000D03*
X29100000Y-99000000D03*
X99000000Y-117000000D03*
X64000000Y-62000000D03*
X84800000Y-112000000D03*
X29100000Y-94500000D03*
X93500000Y-74500000D03*
X88500000Y-117000000D03*
X29100000Y-121500000D03*
X65750000Y-114750000D03*
X29100000Y-106500000D03*
X91500000Y-114500000D03*
X65500000Y-100500000D03*
X84500000Y-103300000D03*
X88700000Y-80900000D03*
X52000000Y-126000000D03*
X93500000Y-85500000D03*
X100000000Y-52500000D03*
X32000000Y-97500000D03*
X29100000Y-120000000D03*
X91500000Y-112000000D03*
X90637500Y-58500000D03*
X100900000Y-128000000D03*
X71800000Y-72000000D03*
X64900000Y-66600000D03*
X69000000Y-100500000D03*
X29100000Y-91500000D03*
X93500000Y-90500000D03*
X30000000Y-129900000D03*
X74000000Y-72800000D03*
X29100000Y-127500000D03*
X97000000Y-117000000D03*
X40000000Y-129900000D03*
X40000000Y-97000000D03*
X46500000Y-87000000D03*
X72000000Y-67500000D03*
X62000000Y-91000000D03*
X85000000Y-65000000D03*
X72000000Y-64200000D03*
X64200000Y-116000000D03*
X92000000Y-123000000D03*
X70000000Y-122000000D03*
X70000000Y-126000000D03*
X81250000Y-105500000D03*
X100900000Y-57500000D03*
X38000000Y-94900000D03*
X41500000Y-99000000D03*
X29100000Y-123000000D03*
X66548527Y-111400000D03*
X80000000Y-129900000D03*
X55500000Y-87000000D03*
X45000000Y-87000000D03*
X100900000Y-61500000D03*
X100900000Y-65500000D03*
X29100000Y-90000000D03*
X38000000Y-129900000D03*
X76500000Y-117000000D03*
X39500000Y-109200000D03*
X93500000Y-98000000D03*
X42000000Y-87000000D03*
X97500000Y-52500000D03*
X61000000Y-75500000D03*
X61000000Y-83000000D03*
X34500000Y-87000000D03*
X85000000Y-117000000D03*
X65500000Y-98500000D03*
X31500000Y-87000000D03*
X66500000Y-61900000D03*
X68000000Y-129900000D03*
X69048528Y-112700000D03*
X66200000Y-60100000D03*
X77500000Y-87500000D03*
X64000000Y-129900000D03*
X88000000Y-129900000D03*
X100900000Y-67500000D03*
X88250000Y-109500000D03*
X33000000Y-129900000D03*
X46800000Y-107500000D03*
X90000000Y-52500000D03*
X36200000Y-87600000D03*
X96000000Y-129900000D03*
X63100000Y-114000000D03*
X61000000Y-84500000D03*
X55000000Y-122000000D03*
X83200000Y-103300000D03*
X29100000Y-115500000D03*
X34000000Y-99000000D03*
X55000000Y-126000000D03*
X100900000Y-63500000D03*
X52000000Y-129900000D03*
X95000000Y-117000000D03*
X85000000Y-60000000D03*
X40500000Y-87000000D03*
X53100000Y-90600000D03*
X71400000Y-83600000D03*
X31500000Y-90000000D03*
X84500000Y-107500000D03*
X36000000Y-101500000D03*
X79400000Y-81800000D03*
X61000000Y-81500000D03*
X100900000Y-120000000D03*
X38600000Y-108300000D03*
X37400000Y-97500000D03*
X64000000Y-89000000D03*
X93500000Y-93000000D03*
X29100000Y-118500000D03*
X85000000Y-57500000D03*
X32000000Y-96500000D03*
X100900000Y-55500000D03*
X92000000Y-129900000D03*
X77500000Y-92500000D03*
X58500000Y-114898528D03*
X87000000Y-103300000D03*
X82500000Y-65000000D03*
X38500000Y-89500000D03*
X93500000Y-76500000D03*
X82750000Y-107250000D03*
X85700000Y-103300000D03*
X100900000Y-124000000D03*
X44000000Y-129900000D03*
X56500000Y-97000000D03*
X65000000Y-61000000D03*
X29100000Y-105000000D03*
X38600000Y-109200000D03*
X29100000Y-129000000D03*
X33900000Y-92000000D03*
X74300000Y-71000000D03*
X49500000Y-87000000D03*
X62000000Y-111500000D03*
X85000000Y-52500000D03*
X48000000Y-129900000D03*
X43500000Y-87000000D03*
X48000000Y-87000000D03*
X29100000Y-88500000D03*
X61700000Y-121700000D03*
X72500000Y-86000000D03*
X60000000Y-129900000D03*
X61000000Y-78500000D03*
X59500000Y-114200000D03*
X75000000Y-65000000D03*
X96000000Y-68000000D03*
X55000000Y-117000000D03*
X29100000Y-108000000D03*
X37500000Y-99500000D03*
X70000000Y-117000000D03*
X95000000Y-52500000D03*
X80250000Y-109000000D03*
X84000000Y-129900000D03*
X77500000Y-97500000D03*
X38500000Y-91900000D03*
X29100000Y-93000000D03*
X30000000Y-87000000D03*
X29100000Y-124500000D03*
X48000000Y-126000000D03*
X76000000Y-129900000D03*
X56000000Y-112000000D03*
X53100000Y-94200000D03*
X57000000Y-87000000D03*
X80000000Y-65000000D03*
X29100000Y-96000000D03*
X93500000Y-72500000D03*
%TO.N,V_IN*%
X39000000Y-103000000D03*
X41600000Y-109500000D03*
X39050000Y-106150000D03*
%TO.N,I2C_SDA*%
X88500000Y-82400000D03*
X69700000Y-82000000D03*
X71200000Y-63200000D03*
X39500000Y-95100000D03*
%TO.N,I2C_SCL*%
X68800000Y-82600000D03*
X70500000Y-62300000D03*
X87300000Y-82400000D03*
X39500000Y-94300000D03*
%TO.N,Net-(C24-Pad1)*%
X35307619Y-91212953D03*
X33100000Y-91900000D03*
%TO.N,+3.5V_ESP*%
X89800000Y-76600000D03*
X65850000Y-82050000D03*
X55000000Y-108500000D03*
X62219778Y-112269222D03*
X66200000Y-113900000D03*
%TO.N,GNDA*%
X74100000Y-56900000D03*
X30000000Y-86000000D03*
X29100000Y-74500000D03*
X29100000Y-46000000D03*
X57500000Y-66000000D03*
X67500000Y-58500000D03*
X29100000Y-58000000D03*
X64100000Y-45600000D03*
X43100000Y-71400000D03*
X29100000Y-64000000D03*
X70000000Y-51800000D03*
X42000000Y-37100000D03*
X65000000Y-37100000D03*
X29100000Y-56500000D03*
X29100000Y-37100000D03*
X80500000Y-61500000D03*
X59500000Y-65500000D03*
X59500000Y-62500000D03*
X55000000Y-40000000D03*
X50300000Y-75400000D03*
X29100000Y-70000000D03*
X58300000Y-45500000D03*
X29100000Y-85000000D03*
X84000000Y-54000000D03*
X58000000Y-56000000D03*
X50000000Y-37100000D03*
X45500000Y-48000000D03*
X60000000Y-77000000D03*
X74100000Y-61100000D03*
X95000000Y-37100000D03*
X29100000Y-59500000D03*
X77000000Y-44500000D03*
X29100000Y-55000000D03*
X100900000Y-51500000D03*
X60000000Y-74000000D03*
X55000000Y-37100000D03*
X68000000Y-55600000D03*
X45000000Y-37100000D03*
X55500000Y-86000000D03*
X29100000Y-76000000D03*
X29100000Y-40000000D03*
X69900000Y-56900000D03*
X29100000Y-47500000D03*
X58300000Y-48000000D03*
X91500000Y-51500000D03*
X77500000Y-53500000D03*
X80000000Y-63500000D03*
X69900000Y-61100000D03*
X100900000Y-45000000D03*
X40000000Y-59000000D03*
X63400000Y-47400000D03*
X63700000Y-52400000D03*
X56000000Y-59000000D03*
X52500000Y-86000000D03*
X80000000Y-37100000D03*
X29100000Y-67000000D03*
X29100000Y-38500000D03*
X94000000Y-51500000D03*
X29100000Y-77500000D03*
X36500000Y-66000000D03*
X51000000Y-86000000D03*
X66000000Y-48500000D03*
X60000000Y-78500000D03*
X57000000Y-86000000D03*
X99000000Y-51500000D03*
X60541942Y-40658058D03*
X70000000Y-37100000D03*
X43500000Y-86000000D03*
X75000000Y-37100000D03*
X54500000Y-56000000D03*
X100900000Y-37100000D03*
X84000000Y-59500000D03*
X36500000Y-71500000D03*
X60000000Y-86000000D03*
X49500000Y-86000000D03*
X46500000Y-86000000D03*
X29100000Y-62500000D03*
X29100000Y-61000000D03*
X48000000Y-86000000D03*
X63300000Y-40700000D03*
X69500000Y-49400000D03*
X42000000Y-86000000D03*
X100900000Y-49000000D03*
X95000000Y-40000000D03*
X49500000Y-59000000D03*
X74700000Y-48800000D03*
X63700000Y-50500000D03*
X38000000Y-41000000D03*
X60000000Y-84500000D03*
X35000000Y-59000000D03*
X72000000Y-51900000D03*
X55200000Y-75500000D03*
X58300000Y-43200000D03*
X38000000Y-45500000D03*
X96500000Y-51500000D03*
X71400000Y-43700000D03*
X76500000Y-63500000D03*
X65900000Y-51400000D03*
X29100000Y-71500000D03*
X29100000Y-82000000D03*
X29100000Y-83500000D03*
X29100000Y-52000000D03*
X60000000Y-37100000D03*
X88000000Y-51500000D03*
X66000000Y-59000000D03*
X36200000Y-84700000D03*
X50500000Y-66000000D03*
X29100000Y-79000000D03*
X83500000Y-63500000D03*
X58500000Y-86000000D03*
X73500000Y-50300000D03*
X31500000Y-86000000D03*
X64500000Y-59500000D03*
X60000000Y-80000000D03*
X43500000Y-66000000D03*
X63500000Y-60500000D03*
X29100000Y-50500000D03*
X60000000Y-72500000D03*
X29100000Y-73000000D03*
X78300000Y-59400000D03*
X59500000Y-67000000D03*
X45500000Y-44000000D03*
X84000000Y-62000000D03*
X45000000Y-86000000D03*
X51000000Y-55500000D03*
X57000000Y-71500000D03*
X59500000Y-64000000D03*
X72000000Y-59000000D03*
X29100000Y-43000000D03*
X39000000Y-86000000D03*
X29100000Y-41500000D03*
X50500000Y-71500000D03*
X40500000Y-86000000D03*
X65000000Y-42900000D03*
X82500000Y-40000000D03*
X29100000Y-65500000D03*
X29100000Y-49000000D03*
X54000000Y-86000000D03*
X45100000Y-52100000D03*
X87000000Y-40000000D03*
X29100000Y-44500000D03*
X33000000Y-86000000D03*
X76500000Y-62000000D03*
X60000000Y-83000000D03*
X54000000Y-80900000D03*
X74300000Y-53900000D03*
X70800000Y-47900000D03*
X68000000Y-53800000D03*
X76500000Y-50000000D03*
X60000000Y-69500000D03*
X100900000Y-40500000D03*
X84000000Y-57000000D03*
X29100000Y-68500000D03*
X55100000Y-77600000D03*
X84000000Y-51500000D03*
X60000000Y-81500000D03*
X60000000Y-71000000D03*
X53700000Y-44300000D03*
X29100000Y-80500000D03*
X29100000Y-53500000D03*
X60000000Y-75500000D03*
%TO.N,/MCU/USB_D_2_N*%
X77425000Y-79900000D03*
X84200000Y-70425000D03*
%TO.N,/MCU/USB_D_2_P*%
X76575000Y-79900000D03*
X84200000Y-69575000D03*
%TO.N,/Analog/A1*%
X62500000Y-49500000D03*
X62500000Y-55800000D03*
%TO.N,/Analog/DRL_IN*%
X50800000Y-44300000D03*
X50800000Y-49700000D03*
%TO.N,+3.3V_TAC_D*%
X70030593Y-67342352D03*
X66100000Y-65200000D03*
%TO.N,-5V_DRL*%
X44900000Y-51000000D03*
X48700000Y-60300000D03*
%TO.N,/Analog/A0*%
X61000000Y-55800000D03*
X61000000Y-49500000D03*
%TO.N,/Analog/A2*%
X59500000Y-49500000D03*
X59500000Y-40700000D03*
X59500000Y-55800000D03*
%TO.N,-5V_InAmp*%
X70400000Y-50200000D03*
X71800000Y-48800000D03*
%TO.N,MICBIAS*%
X79455000Y-60350000D03*
X76316590Y-59935160D03*
%TO.N,/Analog/OUT_1_N*%
X74061037Y-56100949D03*
%TO.N,5V_USB*%
X90000000Y-62500000D03*
X89500000Y-54500000D03*
X34000000Y-106500000D03*
X87000000Y-58500000D03*
%TO.N,GAIN_A2*%
X60400000Y-68600000D03*
X62000000Y-68600000D03*
%TO.N,/MCU/SD_CLK*%
X62500000Y-110000000D03*
X60500000Y-116250000D03*
%TO.N,/Analog/OUT_2_N*%
X72249685Y-55600000D03*
%TO.N,/Analog/OUT_1_P*%
X73514579Y-54587851D03*
%TD*%
%TO.N,+5V_DRL*%
D23*
X48600000Y-49200000D02*
X48600000Y-56300000D01*
%TO.N,/Analog/OUT_2_P*%
D24*
X72900000Y-53100000D02*
X74800000Y-51200000D01*
X78000000Y-49800000D02*
X78000000Y-42500000D01*
X76600000Y-51200000D02*
X78000000Y-49800000D01*
X74800000Y-51200000D02*
X76600000Y-51200000D01*
X72900000Y-55100000D02*
X72900000Y-53100000D01*
%TO.N,Net-(FB1-Pad2)*%
D25*
X63000000Y-74600000D02*
X64400000Y-74600000D01*
X61810000Y-75790000D02*
X63000000Y-74600000D01*
X64400000Y-74600000D02*
X66100000Y-72900000D01*
X61810000Y-77110000D02*
X61810000Y-75790000D01*
X62200000Y-77500000D02*
X61810000Y-77110000D01*
X62200000Y-84100000D02*
X62200000Y-77500000D01*
X66100000Y-72900000D02*
X66100000Y-68600000D01*
%TO.N,+5V*%
D23*
X47000000Y-78600000D02*
X50500000Y-82100000D01*
X33600000Y-79375001D02*
X34375001Y-78600000D01*
X34375001Y-78600000D02*
X43500000Y-78600000D01*
X43500000Y-76400000D02*
X43500000Y-78600000D01*
X43500000Y-78600000D02*
X47000000Y-78600000D01*
%TO.N,V_IN*%
D26*
X39000000Y-103000000D02*
X39000000Y-106100000D01*
D27*
X41600000Y-109500000D02*
X41600000Y-107900000D01*
D23*
X39000000Y-106100000D02*
X39050000Y-106150000D01*
D27*
X41600000Y-107900000D02*
X39850000Y-106150000D01*
X39850000Y-106150000D02*
X39050000Y-106150000D01*
%TO.N,I2C_SDA*%
D24*
X40500000Y-95100000D02*
X39500000Y-95100000D01*
X70800000Y-72810000D02*
X67110000Y-76500000D01*
X80000000Y-82600000D02*
X70300000Y-82600000D01*
X43500000Y-92100000D02*
X40500000Y-95100000D01*
X56200000Y-92100000D02*
X43500000Y-92100000D01*
X70800000Y-69000000D02*
X70800000Y-72810000D01*
X80750000Y-81850000D02*
X80000000Y-82600000D01*
X70300000Y-82600000D02*
X69700000Y-82000000D01*
X71200000Y-63200000D02*
X71200000Y-68600000D01*
X63800000Y-79810000D02*
X63800000Y-84500000D01*
X87950000Y-81850000D02*
X80750000Y-81850000D01*
X63800000Y-84500000D02*
X56200000Y-92100000D01*
X67110000Y-76500000D02*
X63800000Y-79810000D01*
X88500000Y-82400000D02*
X87950000Y-81850000D01*
X71200000Y-68600000D02*
X70800000Y-69000000D01*
%TO.N,I2C_SCL*%
X87300000Y-82400000D02*
X81000000Y-82400000D01*
X70500000Y-63277818D02*
X70500000Y-62300000D01*
X39700000Y-93500000D02*
X39700000Y-94100000D01*
X63110000Y-76500000D02*
X64700000Y-76500000D01*
X58200000Y-89000000D02*
X44200000Y-89000000D01*
X81000000Y-82400000D02*
X80400000Y-83000000D01*
X70450000Y-71850000D02*
X70450000Y-68855026D01*
X70450000Y-68855026D02*
X70850000Y-68455026D01*
X63110000Y-84090000D02*
X58200000Y-89000000D01*
X69200000Y-83000000D02*
X68800000Y-82600000D01*
X64700000Y-76500000D02*
X66200000Y-75000000D01*
X44200000Y-89000000D02*
X39700000Y-93500000D01*
X80400000Y-83000000D02*
X69200000Y-83000000D01*
X67300000Y-75000000D02*
X70450000Y-71850000D01*
X70850000Y-63627818D02*
X70500000Y-63277818D01*
X39700000Y-94100000D02*
X39500000Y-94300000D01*
X66200000Y-75000000D02*
X67300000Y-75000000D01*
X70850000Y-68455026D02*
X70850000Y-63627818D01*
X63110000Y-76500000D02*
X63110000Y-84090000D01*
%TO.N,Net-(C24-Pad1)*%
X35171979Y-91348593D02*
X33651407Y-91348593D01*
X35307619Y-91212953D02*
X35171979Y-91348593D01*
X33651407Y-91348593D02*
X33100000Y-91900000D01*
%TO.N,+3.5V_ESP*%
D26*
X67200000Y-84700000D02*
X67200000Y-102900000D01*
X89700000Y-80500000D02*
X89700000Y-83100000D01*
X89800000Y-76600000D02*
X88200000Y-78200000D01*
X88200000Y-78200000D02*
X88200000Y-79000000D01*
D28*
X61848529Y-108500000D02*
X63100000Y-109751471D01*
X62950556Y-113000000D02*
X64600000Y-113000000D01*
D26*
X67200000Y-102900000D02*
X61600000Y-108500000D01*
D28*
X64600000Y-113000000D02*
X65500000Y-113900000D01*
X62219778Y-112269222D02*
X62950556Y-113000000D01*
X55000000Y-108500000D02*
X61848529Y-108500000D01*
D26*
X61600000Y-108500000D02*
X55000000Y-108500000D01*
D28*
X65850000Y-83350000D02*
X67200000Y-84700000D01*
D26*
X88200000Y-79000000D02*
X89700000Y-80500000D01*
D28*
X65850000Y-82050000D02*
X65850000Y-83350000D01*
X63100000Y-109751471D02*
X63100000Y-111389000D01*
D26*
X89700000Y-83100000D02*
X88700000Y-84100000D01*
X73200000Y-84700000D02*
X67200000Y-84700000D01*
X73800000Y-84100000D02*
X73200000Y-84700000D01*
X88700000Y-84100000D02*
X73800000Y-84100000D01*
D28*
X65500000Y-113900000D02*
X66200000Y-113900000D01*
X63100000Y-111389000D02*
X62219778Y-112269222D01*
%TO.N,GNDA*%
D29*
X72000000Y-59000000D02*
X69900000Y-61100000D01*
X72000000Y-59000000D02*
X74100000Y-61100000D01*
%TO.N,/MCU/USB_D_2_N*%
D24*
X84200000Y-70425000D02*
X84000001Y-70225001D01*
X77225001Y-76793197D02*
X77225001Y-79700001D01*
X77225001Y-79700001D02*
X77425000Y-79900000D01*
X83793197Y-70225001D02*
X77225001Y-76793197D01*
X84000001Y-70225001D02*
X83793197Y-70225001D01*
%TO.N,/MCU/USB_D_2_P*%
X76774999Y-76606803D02*
X76774999Y-79700001D01*
X76774999Y-79700001D02*
X76575000Y-79900000D01*
X83606803Y-69774999D02*
X76774999Y-76606803D01*
X84200000Y-69575000D02*
X84000001Y-69774999D01*
X84000001Y-69774999D02*
X83606803Y-69774999D01*
%TO.N,/Analog/A1*%
X62500000Y-55800000D02*
X62500000Y-49500000D01*
%TO.N,/Analog/DRL_IN*%
X50800000Y-44300000D02*
X50800000Y-49700000D01*
%TO.N,+3.3V_TAC_D*%
D25*
X67942352Y-67342352D02*
X70030593Y-67342352D01*
X67000000Y-65200000D02*
X67500000Y-65700000D01*
X67500000Y-65700000D02*
X67500000Y-66900000D01*
X66100000Y-65200000D02*
X67000000Y-65200000D01*
X67500000Y-66900000D02*
X67942352Y-67342352D01*
%TO.N,-5V_DRL*%
X44751471Y-51000000D02*
X44100000Y-51651471D01*
X44900000Y-51000000D02*
X44751471Y-51000000D01*
X44100000Y-51651471D02*
X44100000Y-53900000D01*
X44100000Y-53900000D02*
X48700000Y-58500000D01*
X48700000Y-58500000D02*
X48700000Y-60300000D01*
%TO.N,/Analog/A0*%
D24*
X61000000Y-55800000D02*
X61000000Y-49500000D01*
%TO.N,/Analog/A2*%
D27*
X59500000Y-40700000D02*
X59500000Y-49500000D01*
D24*
X59500000Y-55800000D02*
X59500000Y-49500000D01*
%TO.N,-5V_InAmp*%
D23*
X70400000Y-50200000D02*
X71800000Y-48800000D01*
%TO.N,MICBIAS*%
D24*
X76731430Y-60350000D02*
X76316590Y-59935160D01*
X79455000Y-60350000D02*
X76731430Y-60350000D01*
%TO.N,/Analog/OUT_1_N*%
X76400000Y-56100000D02*
X83000000Y-49500000D01*
X74061037Y-56100949D02*
X76099051Y-56100949D01*
X76100000Y-56100000D02*
X76400000Y-56100000D01*
X76099051Y-56100949D02*
X76100000Y-56100000D01*
%TO.N,5V_USB*%
D29*
X87000000Y-58500000D02*
X87000000Y-57000000D01*
X79000000Y-81000000D02*
X65600000Y-81000000D01*
X87000000Y-59500000D02*
X87000000Y-58500000D01*
X87000000Y-57000000D02*
X89500000Y-54500000D01*
X87000000Y-73000000D02*
X79000000Y-81000000D01*
X34000000Y-105400000D02*
X34000000Y-106500000D01*
X90000000Y-62500000D02*
X87000000Y-59500000D01*
X64700000Y-81900000D02*
X64700000Y-86300000D01*
X64700000Y-86300000D02*
X49000000Y-102000000D01*
X65600000Y-81000000D02*
X64700000Y-81900000D01*
X37400000Y-102000000D02*
X34000000Y-105400000D01*
X49000000Y-102000000D02*
X37400000Y-102000000D01*
X87000000Y-58500000D02*
X87000000Y-73000000D01*
%TO.N,GAIN_A2*%
D24*
X60400000Y-68600000D02*
X62000000Y-68600000D01*
%TO.N,/MCU/SD_CLK*%
X62500000Y-110000000D02*
X60500000Y-112000000D01*
X60500000Y-112000000D02*
X60500000Y-116250000D01*
%TO.N,/Analog/OUT_2_N*%
X76400000Y-48600000D02*
X76400000Y-43000000D01*
X76400000Y-43000000D02*
X75000000Y-41600000D01*
X72249685Y-52750315D02*
X76400000Y-48600000D01*
X72249685Y-55600000D02*
X72249685Y-52750315D01*
X75000000Y-41600000D02*
X75000000Y-39500000D01*
%TO.N,/Analog/OUT_1_P*%
X80500000Y-49900000D02*
X80500000Y-46000000D01*
X73514579Y-54587851D02*
X73514579Y-53485421D01*
X78300000Y-52100000D02*
X80500000Y-49900000D01*
X73514579Y-53485421D02*
X74900000Y-52100000D01*
X74900000Y-52100000D02*
X78300000Y-52100000D01*
%TD*%
%TA.AperFunction,Conductor*%
%TO.N,GNDD*%
G36*
X101092512Y-52493315D02*
G01*
X101107527Y-52497712D01*
X101122542Y-52507347D01*
X101139664Y-52512366D01*
X101166307Y-52535430D01*
X101166326Y-52535443D01*
X101167519Y-52536817D01*
X101194997Y-52591650D01*
X101196654Y-52599251D01*
X101199499Y-52625662D01*
X101199499Y-68358170D01*
X101194474Y-68393114D01*
X101190069Y-68408112D01*
X101180438Y-68423101D01*
X101175431Y-68440175D01*
X101152326Y-68466855D01*
X101150957Y-68468042D01*
X101096096Y-68495518D01*
X101088538Y-68497163D01*
X101062167Y-68500000D01*
X94210000Y-68500000D01*
X94210000Y-116500000D01*
X101057670Y-116500000D01*
X101092605Y-116505023D01*
X101107603Y-116509427D01*
X101166354Y-116547172D01*
X101166378Y-116547200D01*
X101166381Y-116547202D01*
X101166382Y-116547204D01*
X101167541Y-116548541D01*
X101195017Y-116603402D01*
X101196662Y-116610960D01*
X101199499Y-116637331D01*
X101199499Y-129909943D01*
X101199498Y-129909949D01*
X101199499Y-129909952D01*
X101194474Y-129944887D01*
X101190069Y-129959885D01*
X101152312Y-130018640D01*
X101152291Y-130018657D01*
X101152290Y-130018660D01*
X101152287Y-130018661D01*
X101150788Y-130019961D01*
X101096309Y-130047345D01*
X101089100Y-130048937D01*
X101063127Y-130051852D01*
X77156972Y-130199496D01*
X77156648Y-130199497D01*
X77156087Y-130199499D01*
X77155645Y-130199500D01*
X28942330Y-130199500D01*
X28907389Y-130194475D01*
X28892390Y-130190070D01*
X28833644Y-130152327D01*
X28832457Y-130150958D01*
X28804977Y-130096083D01*
X28803332Y-130088521D01*
X28800500Y-130062168D01*
X28800500Y-127368707D01*
X96124500Y-127368707D01*
X96124500Y-127581291D01*
X96157752Y-127791239D01*
X96223445Y-127993418D01*
X96316532Y-128176111D01*
X96319951Y-128182820D01*
X96444890Y-128354786D01*
X96444892Y-128354788D01*
X96595216Y-128505112D01*
X96767169Y-128630042D01*
X96767177Y-128630047D01*
X96767179Y-128630048D01*
X96767181Y-128630049D01*
X96767182Y-128630050D01*
X96767200Y-128630060D01*
X96767442Y-128630182D01*
X96956588Y-128726557D01*
X97158757Y-128792246D01*
X97368713Y-128825500D01*
X97368714Y-128825500D01*
X97581286Y-128825500D01*
X97581287Y-128825500D01*
X97791243Y-128792246D01*
X97993412Y-128726557D01*
X98182816Y-128630051D01*
X98204789Y-128614086D01*
X98354786Y-128505109D01*
X98354786Y-128505108D01*
X98354844Y-128505066D01*
X98355605Y-128504290D01*
X98505104Y-128354792D01*
X98505106Y-128354788D01*
X98505109Y-128354786D01*
X98630048Y-128182820D01*
X98630047Y-128182820D01*
X98630051Y-128182816D01*
X98630053Y-128182810D01*
X98650445Y-128154744D01*
X98658730Y-128126529D01*
X98726557Y-127993412D01*
X98792246Y-127791243D01*
X98825500Y-127581287D01*
X98825500Y-127368713D01*
X98792246Y-127158757D01*
X98726557Y-126956588D01*
X98630051Y-126767184D01*
X98630049Y-126767181D01*
X98630048Y-126767179D01*
X98629702Y-126766703D01*
X98629700Y-126766699D01*
X98505112Y-126595216D01*
X98354788Y-126444892D01*
X98354786Y-126444890D01*
X98182820Y-126319951D01*
X98169167Y-126312994D01*
X98015245Y-126234567D01*
X98015240Y-126234565D01*
X97993414Y-126223444D01*
X97993413Y-126223443D01*
X97993412Y-126223443D01*
X97896550Y-126191970D01*
X97800074Y-126160623D01*
X97795552Y-126158770D01*
X97786362Y-126156600D01*
X97781599Y-126156226D01*
X97629957Y-126132208D01*
X97610489Y-126129124D01*
X97581290Y-126124500D01*
X97581287Y-126124500D01*
X97368713Y-126124500D01*
X97368709Y-126124500D01*
X97329776Y-126130666D01*
X97320042Y-126132208D01*
X97282654Y-126138129D01*
X97158763Y-126157752D01*
X96956582Y-126223445D01*
X96767182Y-126319949D01*
X96595210Y-126444892D01*
X96444892Y-126595210D01*
X96319949Y-126767182D01*
X96223445Y-126956580D01*
X96157752Y-127158759D01*
X96124500Y-127368707D01*
X28800500Y-127368707D01*
X28800500Y-118942546D01*
X29794237Y-118942546D01*
X29826416Y-119104315D01*
X29826417Y-119104319D01*
X29826418Y-119104322D01*
X29826421Y-119104332D01*
X29826424Y-119104340D01*
X29826429Y-119104354D01*
X29879217Y-119231797D01*
X29879222Y-119231806D01*
X29879232Y-119231823D01*
X29955886Y-119346543D01*
X29955887Y-119346544D01*
X29955892Y-119346550D01*
X30053448Y-119444106D01*
X30053454Y-119444111D01*
X30053458Y-119444114D01*
X30168182Y-119520771D01*
X30168195Y-119520778D01*
X30295667Y-119573578D01*
X30295672Y-119573580D01*
X30295676Y-119573580D01*
X30295677Y-119573581D01*
X30339957Y-119582389D01*
X30431002Y-119600500D01*
X30568995Y-119600500D01*
X30568996Y-119600500D01*
X30614518Y-119591444D01*
X30660041Y-119582389D01*
X30704328Y-119573580D01*
X30831811Y-119520775D01*
X30946542Y-119444114D01*
X31044114Y-119346542D01*
X31120775Y-119231811D01*
X31173580Y-119104328D01*
X31200500Y-118968993D01*
X31200500Y-118831007D01*
X31200500Y-118831004D01*
X31200500Y-118831001D01*
X31173640Y-118695975D01*
X31173639Y-118695970D01*
X31173340Y-118694469D01*
X31171260Y-118690072D01*
X31120778Y-118568195D01*
X31120771Y-118568182D01*
X31044114Y-118453458D01*
X31044111Y-118453454D01*
X31044106Y-118453448D01*
X30946550Y-118355892D01*
X30946544Y-118355887D01*
X30946543Y-118355886D01*
X30831823Y-118279232D01*
X30831822Y-118279231D01*
X30831817Y-118279228D01*
X30831804Y-118279221D01*
X30831797Y-118279217D01*
X30704354Y-118226429D01*
X30704340Y-118226424D01*
X30704332Y-118226421D01*
X30704322Y-118226418D01*
X30704319Y-118226417D01*
X30704315Y-118226416D01*
X30568998Y-118199500D01*
X30568995Y-118199500D01*
X30568993Y-118199500D01*
X30431007Y-118199500D01*
X30431005Y-118199500D01*
X30431000Y-118199500D01*
X30295683Y-118226416D01*
X30295677Y-118226418D01*
X30295667Y-118226421D01*
X30295662Y-118226422D01*
X30295644Y-118226429D01*
X30168201Y-118279217D01*
X30168192Y-118279222D01*
X30168175Y-118279232D01*
X30053455Y-118355886D01*
X30053454Y-118355887D01*
X30053448Y-118355892D01*
X29955892Y-118453448D01*
X29955887Y-118453454D01*
X29955886Y-118453455D01*
X29879232Y-118568175D01*
X29879222Y-118568192D01*
X29879217Y-118568201D01*
X29826429Y-118695644D01*
X29826416Y-118695683D01*
X29799500Y-118831000D01*
X29799500Y-118924626D01*
X29794237Y-118942546D01*
X28800500Y-118942546D01*
X28800500Y-116893707D01*
X41649500Y-116893707D01*
X41649500Y-117106291D01*
X41682752Y-117316239D01*
X41748445Y-117518418D01*
X41841532Y-117701111D01*
X41844951Y-117707820D01*
X41969890Y-117879786D01*
X41969892Y-117879788D01*
X42120216Y-118030112D01*
X42292169Y-118155042D01*
X42292177Y-118155047D01*
X42292179Y-118155048D01*
X42292181Y-118155049D01*
X42292182Y-118155050D01*
X42292200Y-118155060D01*
X42292442Y-118155182D01*
X42481588Y-118251557D01*
X42683757Y-118317246D01*
X42893713Y-118350500D01*
X42893714Y-118350500D01*
X43106286Y-118350500D01*
X43106287Y-118350500D01*
X43316243Y-118317246D01*
X43518412Y-118251557D01*
X43707816Y-118155051D01*
X43729789Y-118139086D01*
X43879786Y-118030109D01*
X43879786Y-118030108D01*
X43879844Y-118030066D01*
X43880605Y-118029290D01*
X44030104Y-117879792D01*
X44030106Y-117879788D01*
X44030109Y-117879786D01*
X44155048Y-117707820D01*
X44155047Y-117707820D01*
X44155051Y-117707816D01*
X44155053Y-117707810D01*
X44175445Y-117679744D01*
X44183730Y-117651529D01*
X44251557Y-117518412D01*
X44317246Y-117316243D01*
X44350500Y-117106287D01*
X44350500Y-116893713D01*
X44317246Y-116683757D01*
X44251557Y-116481588D01*
X44155051Y-116292184D01*
X44155049Y-116292181D01*
X44155048Y-116292179D01*
X44154702Y-116291703D01*
X44154700Y-116291699D01*
X44030112Y-116120216D01*
X43879788Y-115969892D01*
X43879786Y-115969890D01*
X43707820Y-115844951D01*
X43694167Y-115837994D01*
X43540245Y-115759567D01*
X43540240Y-115759565D01*
X43518414Y-115748444D01*
X43518413Y-115748443D01*
X43518412Y-115748443D01*
X43421550Y-115716970D01*
X43325074Y-115685623D01*
X43320552Y-115683770D01*
X43311362Y-115681600D01*
X43306599Y-115681226D01*
X43237199Y-115670234D01*
X43154957Y-115657208D01*
X43135489Y-115654124D01*
X43106290Y-115649500D01*
X43106287Y-115649500D01*
X42893713Y-115649500D01*
X42893709Y-115649500D01*
X42854776Y-115655666D01*
X42845042Y-115657208D01*
X42807654Y-115663129D01*
X42683763Y-115682752D01*
X42481582Y-115748445D01*
X42292182Y-115844949D01*
X42292179Y-115844950D01*
X42292179Y-115844951D01*
X42206196Y-115907420D01*
X42120210Y-115969892D01*
X41969892Y-116120210D01*
X41844949Y-116292182D01*
X41748445Y-116481580D01*
X41682752Y-116683759D01*
X41649500Y-116893707D01*
X28800500Y-116893707D01*
X28800500Y-112142546D01*
X29794237Y-112142546D01*
X29826416Y-112304315D01*
X29826417Y-112304319D01*
X29826418Y-112304322D01*
X29826421Y-112304332D01*
X29826424Y-112304340D01*
X29826429Y-112304354D01*
X29879217Y-112431797D01*
X29879221Y-112431804D01*
X29879226Y-112431814D01*
X29879232Y-112431823D01*
X29955886Y-112546543D01*
X29955887Y-112546544D01*
X29955892Y-112546550D01*
X30053448Y-112644106D01*
X30053454Y-112644111D01*
X30053458Y-112644114D01*
X30168182Y-112720771D01*
X30168195Y-112720778D01*
X30295667Y-112773578D01*
X30295672Y-112773580D01*
X30295676Y-112773580D01*
X30295677Y-112773581D01*
X30351472Y-112784679D01*
X30431002Y-112800500D01*
X30568995Y-112800500D01*
X30568996Y-112800500D01*
X30674516Y-112779510D01*
X30704328Y-112773580D01*
X30831811Y-112720775D01*
X30946542Y-112644114D01*
X31044114Y-112546542D01*
X31120775Y-112431811D01*
X31124204Y-112423534D01*
X31173578Y-112304332D01*
X31173580Y-112304328D01*
X31184638Y-112248735D01*
X31200500Y-112168995D01*
X31200500Y-112031004D01*
X31200500Y-112031001D01*
X31173341Y-111894470D01*
X31171254Y-111890057D01*
X31135473Y-111803673D01*
X31135471Y-111803669D01*
X31120783Y-111768208D01*
X31120780Y-111768201D01*
X31120778Y-111768195D01*
X31120771Y-111768182D01*
X31044114Y-111653458D01*
X31044111Y-111653454D01*
X31044106Y-111653448D01*
X30946550Y-111555892D01*
X30946543Y-111555886D01*
X30831823Y-111479232D01*
X30831822Y-111479231D01*
X30831817Y-111479228D01*
X30831804Y-111479221D01*
X30831797Y-111479217D01*
X30704354Y-111426429D01*
X30704340Y-111426424D01*
X30704332Y-111426421D01*
X30704322Y-111426418D01*
X30704319Y-111426417D01*
X30704315Y-111426416D01*
X30568998Y-111399500D01*
X30568995Y-111399500D01*
X30568993Y-111399500D01*
X30431007Y-111399500D01*
X30431005Y-111399500D01*
X30431000Y-111399500D01*
X30295683Y-111426416D01*
X30295677Y-111426418D01*
X30295667Y-111426421D01*
X30295662Y-111426422D01*
X30295644Y-111426429D01*
X30168201Y-111479217D01*
X30168192Y-111479222D01*
X30168175Y-111479232D01*
X30053456Y-111555886D01*
X30053448Y-111555892D01*
X29955892Y-111653448D01*
X29955887Y-111653454D01*
X29955886Y-111653455D01*
X29879232Y-111768175D01*
X29879222Y-111768192D01*
X29879217Y-111768201D01*
X29826429Y-111895644D01*
X29826416Y-111895683D01*
X29799500Y-112031000D01*
X29799500Y-112124626D01*
X29794237Y-112142546D01*
X28800500Y-112142546D01*
X28800500Y-91978848D01*
X32299499Y-91978848D01*
X32330257Y-92133471D01*
X32330264Y-92133502D01*
X32390598Y-92279165D01*
X32390603Y-92279174D01*
X32390613Y-92279191D01*
X32478211Y-92410290D01*
X32478212Y-92410291D01*
X32478217Y-92410297D01*
X32589701Y-92521781D01*
X32589707Y-92521786D01*
X32589711Y-92521789D01*
X32720814Y-92609390D01*
X32720827Y-92609397D01*
X32841974Y-92659577D01*
X32866503Y-92669737D01*
X33015816Y-92699437D01*
X33018087Y-92699979D01*
X33018143Y-92700011D01*
X33021155Y-92700500D01*
X33178844Y-92700500D01*
X33182964Y-92700500D01*
X33190814Y-92698118D01*
X33333497Y-92669737D01*
X33479179Y-92609394D01*
X33610289Y-92521789D01*
X33721789Y-92410289D01*
X33809394Y-92279179D01*
X33869737Y-92133497D01*
X33873399Y-92115084D01*
X33883086Y-92066386D01*
X33894828Y-92033104D01*
X33902075Y-92019250D01*
X33914454Y-92006421D01*
X33915471Y-92004477D01*
X33917377Y-92003391D01*
X33950587Y-91968974D01*
X33956981Y-91965333D01*
X34018331Y-91949093D01*
X34956133Y-91949093D01*
X34980321Y-91951475D01*
X34997107Y-91954813D01*
X35003818Y-91956148D01*
X35027078Y-91963203D01*
X35074122Y-91982690D01*
X35221132Y-92011932D01*
X35223866Y-92012656D01*
X35228774Y-92013453D01*
X35386463Y-92013453D01*
X35390583Y-92013453D01*
X35398433Y-92011071D01*
X35541116Y-91982690D01*
X35686798Y-91922347D01*
X35817908Y-91834742D01*
X35929408Y-91723242D01*
X36017013Y-91592132D01*
X36077356Y-91446450D01*
X36108119Y-91291795D01*
X36108119Y-91134111D01*
X36108119Y-91134108D01*
X36108119Y-91133929D01*
X36107693Y-91131971D01*
X36077440Y-90979879D01*
X36077356Y-90979456D01*
X36077354Y-90979451D01*
X36017016Y-90833780D01*
X36017009Y-90833767D01*
X35929408Y-90702664D01*
X35929405Y-90702660D01*
X35929400Y-90702654D01*
X35817916Y-90591170D01*
X35817910Y-90591165D01*
X35817909Y-90591164D01*
X35686810Y-90503566D01*
X35686809Y-90503565D01*
X35686804Y-90503562D01*
X35686791Y-90503555D01*
X35686784Y-90503551D01*
X35541121Y-90443217D01*
X35541090Y-90443210D01*
X35386466Y-90412453D01*
X35386464Y-90412453D01*
X35386461Y-90412453D01*
X35228777Y-90412453D01*
X35228774Y-90412453D01*
X35228772Y-90412453D01*
X35074146Y-90443210D01*
X35074115Y-90443217D01*
X34928452Y-90503551D01*
X34928443Y-90503556D01*
X34928426Y-90503566D01*
X34797327Y-90591164D01*
X34693934Y-90694557D01*
X34676058Y-90709360D01*
X34651014Y-90726418D01*
X34600611Y-90746406D01*
X34600113Y-90746484D01*
X34599594Y-90746566D01*
X34585083Y-90747708D01*
X34584525Y-90747889D01*
X34584127Y-90747783D01*
X34580199Y-90748093D01*
X33572349Y-90748093D01*
X33419619Y-90789016D01*
X33408997Y-90795148D01*
X33408992Y-90795153D01*
X33282696Y-90868068D01*
X33282691Y-90868071D01*
X33218069Y-90932694D01*
X33170887Y-90979876D01*
X33153447Y-90997317D01*
X33153446Y-90997317D01*
X33097944Y-91052819D01*
X33069687Y-91073972D01*
X33040592Y-91089858D01*
X33005360Y-91102641D01*
X32866513Y-91130259D01*
X32866504Y-91130262D01*
X32866498Y-91130264D01*
X32866493Y-91130265D01*
X32866475Y-91130272D01*
X32720833Y-91190598D01*
X32720824Y-91190603D01*
X32720807Y-91190613D01*
X32589708Y-91278211D01*
X32589707Y-91278212D01*
X32589701Y-91278217D01*
X32478217Y-91389701D01*
X32478212Y-91389707D01*
X32478211Y-91389708D01*
X32390613Y-91520807D01*
X32390603Y-91520824D01*
X32390598Y-91520833D01*
X32330264Y-91666496D01*
X32330257Y-91666527D01*
X32299500Y-91821150D01*
X32299500Y-91821153D01*
X32299500Y-91978846D01*
X32299500Y-91978848D01*
X32299499Y-91978848D01*
X28800500Y-91978848D01*
X28800500Y-87141829D01*
X28805523Y-87106893D01*
X28809927Y-87091895D01*
X28847672Y-87033144D01*
X28847700Y-87033119D01*
X28847699Y-87033119D01*
X28849041Y-87031956D01*
X28903920Y-87004477D01*
X28911479Y-87002833D01*
X28937832Y-87000000D01*
X59033571Y-87000000D01*
X59068498Y-87005021D01*
X59079351Y-87008207D01*
X59138132Y-87045977D01*
X59167161Y-87109531D01*
X59157222Y-87178690D01*
X59157221Y-87178692D01*
X59154036Y-87185667D01*
X59128920Y-87221842D01*
X58000191Y-88350573D01*
X57971940Y-88371722D01*
X57948852Y-88384330D01*
X57889422Y-88399500D01*
X44288620Y-88399500D01*
X44288557Y-88399499D01*
X44286653Y-88399499D01*
X44279057Y-88399499D01*
X44120943Y-88399499D01*
X44013586Y-88428265D01*
X44013585Y-88428264D01*
X43968209Y-88440423D01*
X43954077Y-88448582D01*
X43954071Y-88448587D01*
X43918099Y-88469357D01*
X43918095Y-88469360D01*
X43874689Y-88494420D01*
X43874688Y-88494419D01*
X43831289Y-88519475D01*
X43831287Y-88519477D01*
X43831281Y-88519481D01*
X43831276Y-88519485D01*
X39219485Y-93131276D01*
X39219481Y-93131281D01*
X39219481Y-93131282D01*
X39173424Y-93211056D01*
X39173422Y-93211060D01*
X39148585Y-93254075D01*
X39146614Y-93256644D01*
X39140187Y-93268652D01*
X39139390Y-93272066D01*
X39099499Y-93420943D01*
X39099499Y-93520743D01*
X39099498Y-93520744D01*
X39099499Y-93520745D01*
X39094475Y-93555680D01*
X39088563Y-93575813D01*
X39058040Y-93627778D01*
X39053334Y-93632568D01*
X39033773Y-93648767D01*
X38989730Y-93678195D01*
X38989716Y-93678205D01*
X38989702Y-93678216D01*
X38878217Y-93789701D01*
X38878212Y-93789707D01*
X38878211Y-93789708D01*
X38790613Y-93920807D01*
X38790603Y-93920824D01*
X38790598Y-93920833D01*
X38730264Y-94066496D01*
X38730257Y-94066527D01*
X38699500Y-94221150D01*
X38699500Y-94221153D01*
X38699500Y-94378846D01*
X38699500Y-94378848D01*
X38699499Y-94378848D01*
X38730257Y-94533471D01*
X38730261Y-94533489D01*
X38730264Y-94533501D01*
X38772751Y-94636075D01*
X38781479Y-94670273D01*
X38784291Y-94696426D01*
X38775563Y-94757134D01*
X38730264Y-94866496D01*
X38730257Y-94866527D01*
X38699500Y-95021150D01*
X38699500Y-95021153D01*
X38699500Y-95178846D01*
X38699500Y-95178848D01*
X38699499Y-95178848D01*
X38730257Y-95333471D01*
X38730264Y-95333502D01*
X38790598Y-95479165D01*
X38790603Y-95479174D01*
X38790613Y-95479191D01*
X38878211Y-95610290D01*
X38878212Y-95610291D01*
X38878217Y-95610297D01*
X38989701Y-95721781D01*
X38989707Y-95721786D01*
X38989711Y-95721789D01*
X39120814Y-95809390D01*
X39120827Y-95809397D01*
X39266498Y-95869735D01*
X39266503Y-95869737D01*
X39421153Y-95900499D01*
X39421156Y-95900500D01*
X39421158Y-95900500D01*
X39578844Y-95900500D01*
X39578845Y-95900499D01*
X39733497Y-95869737D01*
X39879179Y-95809394D01*
X39879185Y-95809390D01*
X39996055Y-95731299D01*
X40027885Y-95716071D01*
X40047574Y-95709906D01*
X40059529Y-95706164D01*
X40096578Y-95700500D01*
X40411380Y-95700500D01*
X40411443Y-95700501D01*
X40413347Y-95700501D01*
X40420943Y-95700501D01*
X40579054Y-95700501D01*
X40579057Y-95700501D01*
X40731785Y-95659577D01*
X40781904Y-95630639D01*
X40868716Y-95580520D01*
X40980520Y-95468716D01*
X40980520Y-95468715D01*
X40991297Y-95457938D01*
X40993208Y-95456026D01*
X40997038Y-95452194D01*
X41000926Y-95448306D01*
X41000930Y-95448304D01*
X41000935Y-95448297D01*
X43699812Y-92749423D01*
X43728062Y-92728275D01*
X43751154Y-92715667D01*
X43810579Y-92700500D01*
X56111380Y-92700500D01*
X56111443Y-92700501D01*
X56113347Y-92700501D01*
X56120943Y-92700501D01*
X56279054Y-92700501D01*
X56279057Y-92700501D01*
X56431785Y-92659577D01*
X56518704Y-92609394D01*
X56568716Y-92580520D01*
X56680520Y-92468716D01*
X56680520Y-92468715D01*
X56697956Y-92451279D01*
X56697960Y-92451272D01*
X63725215Y-85424018D01*
X63753464Y-85402871D01*
X63763393Y-85397449D01*
X63831665Y-85382598D01*
X63897129Y-85407015D01*
X63939001Y-85462948D01*
X63941682Y-85470136D01*
X63949500Y-85513470D01*
X63949500Y-85919940D01*
X63944476Y-85954877D01*
X63937064Y-85980118D01*
X63905769Y-86032862D01*
X48738058Y-101200573D01*
X48710034Y-101221552D01*
X48709807Y-101221722D01*
X48686719Y-101234330D01*
X48627289Y-101249500D01*
X37326078Y-101249500D01*
X37181096Y-101278338D01*
X37181079Y-101278344D01*
X37044517Y-101334908D01*
X37044508Y-101334913D01*
X37044491Y-101334923D01*
X36921583Y-101417048D01*
X36921578Y-101417052D01*
X33417054Y-104921574D01*
X33417050Y-104921578D01*
X33343231Y-105032054D01*
X33343166Y-105032155D01*
X33334928Y-105044484D01*
X33334915Y-105044505D01*
X33334908Y-105044519D01*
X33278345Y-105181076D01*
X33278338Y-105181096D01*
X33278336Y-105181104D01*
X33249500Y-105326074D01*
X33249500Y-106183185D01*
X33247117Y-106207370D01*
X33247116Y-106207381D01*
X33242443Y-106230869D01*
X33235393Y-106254115D01*
X33230260Y-106266509D01*
X33230258Y-106266516D01*
X33199500Y-106421148D01*
X33199500Y-106421153D01*
X33199500Y-106578846D01*
X33199500Y-106578848D01*
X33199499Y-106578848D01*
X33230257Y-106733471D01*
X33230264Y-106733502D01*
X33290598Y-106879165D01*
X33290603Y-106879174D01*
X33290613Y-106879191D01*
X33378211Y-107010290D01*
X33378212Y-107010291D01*
X33378217Y-107010297D01*
X33489701Y-107121781D01*
X33489707Y-107121786D01*
X33489711Y-107121789D01*
X33620814Y-107209390D01*
X33620827Y-107209397D01*
X33766498Y-107269735D01*
X33766503Y-107269737D01*
X33921153Y-107300499D01*
X33921156Y-107300500D01*
X33921158Y-107300500D01*
X34078844Y-107300500D01*
X34078845Y-107300499D01*
X34233497Y-107269737D01*
X34379179Y-107209394D01*
X34510289Y-107121789D01*
X34621789Y-107010289D01*
X34709394Y-106879179D01*
X34769737Y-106733497D01*
X34800500Y-106578842D01*
X34800500Y-106421158D01*
X34800500Y-106421155D01*
X34800500Y-106420973D01*
X34800070Y-106419000D01*
X34769739Y-106266511D01*
X34769738Y-106266508D01*
X34769737Y-106266503D01*
X34769728Y-106266482D01*
X34769728Y-106266480D01*
X34764612Y-106254130D01*
X34757554Y-106230862D01*
X34752882Y-106207370D01*
X34750500Y-106183183D01*
X34750500Y-105780058D01*
X34755522Y-105745125D01*
X34762934Y-105719880D01*
X34794228Y-105667138D01*
X37661943Y-102799423D01*
X37690194Y-102778275D01*
X37701475Y-102772115D01*
X37704477Y-102770185D01*
X37771515Y-102750500D01*
X37962562Y-102750500D01*
X37997494Y-102755521D01*
X38010813Y-102759432D01*
X38069591Y-102797206D01*
X38098617Y-102860761D01*
X38098617Y-102860763D01*
X38100184Y-102871662D01*
X38099289Y-102905166D01*
X38100097Y-102905246D01*
X38099500Y-102911308D01*
X38099500Y-106188699D01*
X38134099Y-106362646D01*
X38134101Y-106362653D01*
X38134109Y-106362676D01*
X38201977Y-106526526D01*
X38201985Y-106526544D01*
X38201994Y-106526559D01*
X38300536Y-106674036D01*
X38300537Y-106674037D01*
X38300542Y-106674043D01*
X38425955Y-106799456D01*
X38425961Y-106799461D01*
X38425965Y-106799464D01*
X38573446Y-106898009D01*
X38573459Y-106898016D01*
X38609579Y-106912977D01*
X38695144Y-106948419D01*
X38695182Y-106948434D01*
X38696363Y-106948923D01*
X38737334Y-106965894D01*
X38737336Y-106965894D01*
X38737341Y-106965896D01*
X38903680Y-106998982D01*
X38906403Y-106999704D01*
X38911306Y-107000500D01*
X39088693Y-107000500D01*
X39092814Y-107000500D01*
X39100667Y-106998117D01*
X39146682Y-106988964D01*
X39146683Y-106988964D01*
X39262653Y-106965897D01*
X39262653Y-106965896D01*
X39262658Y-106965896D01*
X39262661Y-106965894D01*
X39262666Y-106965894D01*
X39265854Y-106964573D01*
X39273835Y-106961273D01*
X39273876Y-106961251D01*
X39426542Y-106898015D01*
X39426541Y-106898015D01*
X39426547Y-106898013D01*
X39499087Y-106849541D01*
X39530909Y-106834317D01*
X39545835Y-106829643D01*
X39615686Y-106828396D01*
X39622782Y-106830342D01*
X39677651Y-106862241D01*
X40925573Y-108110163D01*
X40946723Y-108138415D01*
X40959331Y-108161504D01*
X40974500Y-108220933D01*
X40974500Y-108939820D01*
X40974499Y-108939822D01*
X40974500Y-108939823D01*
X40969476Y-108974758D01*
X40960136Y-109006564D01*
X40944263Y-109040516D01*
X40890610Y-109120813D01*
X40890603Y-109120825D01*
X40890598Y-109120834D01*
X40830264Y-109266496D01*
X40830261Y-109266511D01*
X40799500Y-109421150D01*
X40799500Y-109421153D01*
X40799500Y-109578846D01*
X40799500Y-109578848D01*
X40799499Y-109578848D01*
X40830257Y-109733471D01*
X40830264Y-109733502D01*
X40890598Y-109879165D01*
X40890603Y-109879174D01*
X40890613Y-109879191D01*
X40978211Y-110010290D01*
X40978212Y-110010291D01*
X40978217Y-110010297D01*
X41089701Y-110121781D01*
X41089707Y-110121786D01*
X41089711Y-110121789D01*
X41220814Y-110209390D01*
X41220827Y-110209397D01*
X41366498Y-110269735D01*
X41366503Y-110269737D01*
X41521153Y-110300499D01*
X41521156Y-110300500D01*
X41521158Y-110300500D01*
X41678844Y-110300500D01*
X41678845Y-110300499D01*
X41833497Y-110269737D01*
X41979179Y-110209394D01*
X42110289Y-110121789D01*
X42221789Y-110010289D01*
X42309394Y-109879179D01*
X42369737Y-109733497D01*
X42400500Y-109578842D01*
X42400500Y-109421158D01*
X42400500Y-109421155D01*
X42400500Y-109420974D01*
X42400069Y-109418991D01*
X42397377Y-109405459D01*
X42396278Y-109399932D01*
X42369737Y-109266503D01*
X42341968Y-109199461D01*
X42309397Y-109120828D01*
X42309396Y-109120827D01*
X42309394Y-109120821D01*
X42256296Y-109041354D01*
X42241070Y-109009526D01*
X42231164Y-108977888D01*
X42225500Y-108940839D01*
X42225500Y-107839097D01*
X42225500Y-107838393D01*
X42225499Y-107838389D01*
X42217970Y-107800536D01*
X42201463Y-107717548D01*
X42166900Y-107634106D01*
X42154312Y-107603715D01*
X42154309Y-107603710D01*
X42154309Y-107603709D01*
X42137257Y-107578191D01*
X42137256Y-107578190D01*
X42085927Y-107501371D01*
X42085917Y-107501339D01*
X42085861Y-107501270D01*
X42085861Y-107501271D01*
X42085858Y-107501267D01*
X42085856Y-107501264D01*
X41995637Y-107411045D01*
X41995621Y-107411030D01*
X41994176Y-107409585D01*
X41994176Y-107409584D01*
X41994144Y-107409554D01*
X40342415Y-105757825D01*
X40335860Y-105751270D01*
X40335858Y-105751267D01*
X40248733Y-105664142D01*
X40210332Y-105638483D01*
X40203614Y-105632413D01*
X40196475Y-105620781D01*
X40157001Y-105601044D01*
X40155212Y-105599380D01*
X40070250Y-105564192D01*
X40070235Y-105564187D01*
X40065792Y-105562347D01*
X40032452Y-105548537D01*
X40006125Y-105543299D01*
X39999128Y-105541020D01*
X39991357Y-105535697D01*
X39969210Y-105526593D01*
X39961354Y-105521405D01*
X39962001Y-105520424D01*
X39949371Y-105506938D01*
X39941485Y-105501536D01*
X39939169Y-105496045D01*
X39920680Y-105476303D01*
X39919673Y-105476877D01*
X39916745Y-105471735D01*
X39900500Y-105410376D01*
X39900500Y-102911308D01*
X39899903Y-102905246D01*
X39900876Y-102905150D01*
X39899579Y-102880932D01*
X39900409Y-102871662D01*
X39900816Y-102867107D01*
X39926398Y-102802092D01*
X39983068Y-102761227D01*
X39993461Y-102757560D01*
X40034707Y-102750500D01*
X49073920Y-102750500D01*
X49171462Y-102731096D01*
X49218913Y-102721658D01*
X49355495Y-102665084D01*
X49404729Y-102632186D01*
X49478416Y-102582952D01*
X65282952Y-86778416D01*
X65332186Y-86704729D01*
X65365084Y-86655495D01*
X65421658Y-86518913D01*
X65427035Y-86491876D01*
X65431096Y-86471465D01*
X65431096Y-86471462D01*
X65450500Y-86373920D01*
X65450500Y-84187637D01*
X65455521Y-84152710D01*
X65458707Y-84141857D01*
X65496477Y-84083076D01*
X65560031Y-84054047D01*
X65629186Y-84063985D01*
X65636172Y-84067175D01*
X65672342Y-84092288D01*
X66250573Y-84670519D01*
X66271723Y-84698771D01*
X66284331Y-84721860D01*
X66299500Y-84781289D01*
X66299500Y-102457808D01*
X66299499Y-102457810D01*
X66299500Y-102457811D01*
X66294476Y-102492745D01*
X66287064Y-102517986D01*
X66255769Y-102570730D01*
X61275926Y-107550573D01*
X61247675Y-107571722D01*
X61224587Y-107584330D01*
X61165157Y-107599500D01*
X54911301Y-107599500D01*
X54737352Y-107634100D01*
X54737345Y-107634101D01*
X54737327Y-107634108D01*
X54737322Y-107634109D01*
X54573472Y-107701977D01*
X54573454Y-107701985D01*
X54573439Y-107701994D01*
X54425963Y-107800536D01*
X54425955Y-107800542D01*
X54300542Y-107925955D01*
X54300537Y-107925961D01*
X54300536Y-107925962D01*
X54201994Y-108073439D01*
X54201985Y-108073454D01*
X54201977Y-108073472D01*
X54134109Y-108237322D01*
X54134101Y-108237345D01*
X54134099Y-108237352D01*
X54099500Y-108411299D01*
X54099500Y-108588699D01*
X54134099Y-108762646D01*
X54134101Y-108762653D01*
X54134109Y-108762676D01*
X54201977Y-108926526D01*
X54201985Y-108926544D01*
X54201994Y-108926559D01*
X54300536Y-109074036D01*
X54300537Y-109074037D01*
X54300542Y-109074043D01*
X54425955Y-109199456D01*
X54425961Y-109199461D01*
X54425965Y-109199464D01*
X54573446Y-109298009D01*
X54573459Y-109298016D01*
X54667106Y-109336805D01*
X54737334Y-109365894D01*
X54737336Y-109365894D01*
X54737341Y-109365896D01*
X54903680Y-109398982D01*
X54906403Y-109399704D01*
X54911306Y-109400500D01*
X61685794Y-109400500D01*
X61708890Y-109402670D01*
X61723604Y-109405460D01*
X61785802Y-109437285D01*
X61820921Y-109497688D01*
X61818335Y-109565920D01*
X61815002Y-109576086D01*
X61800279Y-109606341D01*
X61790611Y-109620811D01*
X61790602Y-109620826D01*
X61790597Y-109620837D01*
X61730272Y-109766475D01*
X61730264Y-109766499D01*
X61730259Y-109766515D01*
X61702839Y-109904357D01*
X61702840Y-109904360D01*
X61691098Y-109937644D01*
X61675733Y-109967018D01*
X61653538Y-109997225D01*
X60019481Y-111631282D01*
X60019477Y-111631285D01*
X60010156Y-111647432D01*
X59983990Y-111692755D01*
X59983989Y-111692757D01*
X59981466Y-111697127D01*
X59940950Y-111767303D01*
X59940450Y-111768151D01*
X59940422Y-111768217D01*
X59930922Y-111803672D01*
X59899499Y-111920943D01*
X59899499Y-111920945D01*
X59899499Y-112091400D01*
X59899500Y-112091451D01*
X59899500Y-115652404D01*
X59899499Y-115652405D01*
X59899500Y-115652406D01*
X59894476Y-115687341D01*
X59885136Y-115719148D01*
X59869262Y-115753102D01*
X59790613Y-115870807D01*
X59790603Y-115870824D01*
X59790598Y-115870833D01*
X59730264Y-116016496D01*
X59730257Y-116016527D01*
X59699500Y-116171150D01*
X59699500Y-116171153D01*
X59699500Y-116328846D01*
X59699500Y-116328848D01*
X59699499Y-116328848D01*
X59730257Y-116483471D01*
X59730264Y-116483502D01*
X59790598Y-116629165D01*
X59790603Y-116629174D01*
X59790613Y-116629191D01*
X59878211Y-116760290D01*
X59878212Y-116760291D01*
X59878217Y-116760297D01*
X59989701Y-116871781D01*
X59989707Y-116871786D01*
X59989711Y-116871789D01*
X60120814Y-116959390D01*
X60120827Y-116959397D01*
X60266498Y-117019735D01*
X60266503Y-117019737D01*
X60421153Y-117050499D01*
X60421156Y-117050500D01*
X60421158Y-117050500D01*
X60578844Y-117050500D01*
X60578845Y-117050499D01*
X60733497Y-117019737D01*
X60879179Y-116959394D01*
X61010289Y-116871789D01*
X61121789Y-116760289D01*
X61209394Y-116629179D01*
X61216941Y-116610960D01*
X61243350Y-116547202D01*
X61269737Y-116483497D01*
X61300500Y-116328842D01*
X61300500Y-116171158D01*
X61300500Y-116171155D01*
X61300500Y-116170973D01*
X61300065Y-116168972D01*
X61290366Y-116120213D01*
X61270395Y-116019815D01*
X61269983Y-116017403D01*
X61269737Y-116016504D01*
X61250432Y-115969896D01*
X61209402Y-115870840D01*
X61209399Y-115870833D01*
X61209397Y-115870827D01*
X61209390Y-115870814D01*
X61192108Y-115844949D01*
X61131305Y-115753950D01*
X61131303Y-115753949D01*
X61116071Y-115722111D01*
X61106165Y-115690474D01*
X61100500Y-115653422D01*
X61100500Y-112317924D01*
X61105522Y-112282991D01*
X61109144Y-112270656D01*
X61109901Y-112267172D01*
X61143379Y-112205855D01*
X61194992Y-112154242D01*
X61223235Y-112133098D01*
X61233169Y-112127674D01*
X61301439Y-112112821D01*
X61366904Y-112137235D01*
X61408777Y-112193167D01*
X61408779Y-112193171D01*
X61411460Y-112200359D01*
X61419278Y-112243693D01*
X61419278Y-112348068D01*
X61419278Y-112348070D01*
X61419277Y-112348070D01*
X61450035Y-112502693D01*
X61450042Y-112502724D01*
X61510376Y-112648387D01*
X61510381Y-112648396D01*
X61510391Y-112648413D01*
X61597988Y-112779510D01*
X61597990Y-112779513D01*
X61597995Y-112779519D01*
X61709479Y-112891003D01*
X61709485Y-112891008D01*
X61709489Y-112891011D01*
X61840592Y-112978612D01*
X61840605Y-112978619D01*
X61928008Y-113014821D01*
X61986281Y-113038959D01*
X62042387Y-113050118D01*
X62048734Y-113052106D01*
X62052709Y-113054762D01*
X62069155Y-113060564D01*
X62098527Y-113075928D01*
X62128734Y-113098123D01*
X62535889Y-113505278D01*
X62636104Y-113572240D01*
X62636106Y-113572241D01*
X62642422Y-113576461D01*
X62642428Y-113576464D01*
X62642429Y-113576465D01*
X62755853Y-113623447D01*
X62756501Y-113623724D01*
X62756692Y-113623882D01*
X62759609Y-113625261D01*
X62760808Y-113625499D01*
X62760812Y-113625501D01*
X62760815Y-113625501D01*
X62760816Y-113625501D01*
X62760817Y-113625502D01*
X62858455Y-113644924D01*
X62886483Y-113650500D01*
X62886484Y-113650500D01*
X62886487Y-113650500D01*
X64261362Y-113650500D01*
X64296100Y-113655494D01*
X64296294Y-113655521D01*
X64321538Y-113662934D01*
X64374284Y-113694230D01*
X64994724Y-114314669D01*
X65085333Y-114405278D01*
X65185548Y-114472240D01*
X65185550Y-114472241D01*
X65191866Y-114476461D01*
X65191872Y-114476464D01*
X65191873Y-114476465D01*
X65305297Y-114523447D01*
X65305945Y-114523724D01*
X65306136Y-114523882D01*
X65309053Y-114525261D01*
X65310252Y-114525499D01*
X65310256Y-114525501D01*
X65310259Y-114525501D01*
X65310260Y-114525501D01*
X65310261Y-114525502D01*
X65407899Y-114544924D01*
X65435927Y-114550500D01*
X65435928Y-114550500D01*
X65435931Y-114550500D01*
X65677235Y-114550500D01*
X65712170Y-114555523D01*
X65743979Y-114564863D01*
X65777934Y-114580737D01*
X65820821Y-114609394D01*
X65820823Y-114609395D01*
X65820827Y-114609397D01*
X65966498Y-114669735D01*
X65966503Y-114669737D01*
X66121153Y-114700499D01*
X66121156Y-114700500D01*
X66121158Y-114700500D01*
X66278844Y-114700500D01*
X66278845Y-114700499D01*
X66433497Y-114669737D01*
X66579179Y-114609394D01*
X66710289Y-114521789D01*
X66821789Y-114410289D01*
X66909394Y-114279179D01*
X66969737Y-114133497D01*
X67000500Y-113978842D01*
X67000500Y-113821158D01*
X67000500Y-113821155D01*
X67000500Y-113820973D01*
X67000065Y-113818972D01*
X66970397Y-113669824D01*
X66969994Y-113667467D01*
X66969738Y-113666508D01*
X66969737Y-113666506D01*
X66969737Y-113666503D01*
X66969735Y-113666498D01*
X66909397Y-113520827D01*
X66909390Y-113520814D01*
X66821789Y-113389711D01*
X66821786Y-113389707D01*
X66821781Y-113389701D01*
X66710297Y-113278217D01*
X66710291Y-113278212D01*
X66710290Y-113278211D01*
X66579191Y-113190613D01*
X66579190Y-113190612D01*
X66579185Y-113190609D01*
X66579172Y-113190602D01*
X66579165Y-113190598D01*
X66433502Y-113130264D01*
X66433471Y-113130257D01*
X66278847Y-113099500D01*
X66278845Y-113099500D01*
X66278842Y-113099500D01*
X66121158Y-113099500D01*
X66121155Y-113099500D01*
X66121153Y-113099500D01*
X65966527Y-113130257D01*
X65966496Y-113130264D01*
X65835869Y-113184370D01*
X65835868Y-113184372D01*
X65801670Y-113193101D01*
X65786131Y-113194772D01*
X65717371Y-113182368D01*
X65717368Y-113182366D01*
X65705190Y-113176270D01*
X65673014Y-113153068D01*
X65014674Y-112494727D01*
X64920512Y-112431810D01*
X64920510Y-112431809D01*
X64908127Y-112423534D01*
X64789753Y-112374502D01*
X64789733Y-112374495D01*
X64789725Y-112374493D01*
X64664074Y-112349500D01*
X64664071Y-112349500D01*
X64664069Y-112349500D01*
X63376638Y-112349500D01*
X63341703Y-112344477D01*
X63330849Y-112341290D01*
X63272071Y-112303516D01*
X63243046Y-112239960D01*
X63245125Y-112225500D01*
X63252986Y-112170811D01*
X63256176Y-112163824D01*
X63281285Y-112127660D01*
X63599051Y-111809894D01*
X63600893Y-111808297D01*
X63604118Y-111804892D01*
X63606481Y-111802463D01*
X63608192Y-111800751D01*
X63612055Y-111793525D01*
X63676464Y-111697128D01*
X63676465Y-111697127D01*
X63694553Y-111653458D01*
X63725501Y-111578744D01*
X63730048Y-111555886D01*
X63750500Y-111453069D01*
X63750500Y-109687402D01*
X63750500Y-109687399D01*
X63750500Y-109687396D01*
X63725262Y-109560524D01*
X63723177Y-109556116D01*
X63698975Y-109497688D01*
X63676465Y-109443344D01*
X63647838Y-109400500D01*
X63647838Y-109400499D01*
X63605279Y-109336805D01*
X63605273Y-109336797D01*
X63605272Y-109336795D01*
X63605268Y-109336791D01*
X62921275Y-108652799D01*
X62900123Y-108624543D01*
X62892631Y-108610822D01*
X62891780Y-108606911D01*
X62877779Y-108542562D01*
X62877908Y-108540753D01*
X62897274Y-108482557D01*
X62901464Y-108476037D01*
X62918088Y-108455409D01*
X67899464Y-103474036D01*
X67962845Y-103379179D01*
X67998013Y-103326547D01*
X68036555Y-103233497D01*
X68065895Y-103162666D01*
X68100500Y-102988692D01*
X68100500Y-102811308D01*
X68100500Y-85742329D01*
X68105523Y-85707393D01*
X68109927Y-85692395D01*
X68147672Y-85633644D01*
X68147700Y-85633619D01*
X68147699Y-85633619D01*
X68149041Y-85632456D01*
X68203920Y-85604977D01*
X68211479Y-85603333D01*
X68237832Y-85600500D01*
X73292815Y-85600500D01*
X73300670Y-85598116D01*
X73462666Y-85565895D01*
X73544606Y-85531953D01*
X73626547Y-85498013D01*
X73714959Y-85438936D01*
X73774036Y-85399464D01*
X74124081Y-85049418D01*
X74152326Y-85028275D01*
X74175418Y-85015667D01*
X74234843Y-85000500D01*
X88792814Y-85000500D01*
X88800667Y-84998117D01*
X88962666Y-84965895D01*
X89070669Y-84921158D01*
X89126547Y-84898013D01*
X89257884Y-84810256D01*
X89274036Y-84799464D01*
X90399464Y-83674035D01*
X90415190Y-83650500D01*
X90498013Y-83526547D01*
X90535547Y-83435931D01*
X90565895Y-83362666D01*
X90600500Y-83188691D01*
X90600500Y-83011308D01*
X90600500Y-80411309D01*
X90594375Y-80380519D01*
X90565894Y-80237334D01*
X90550223Y-80199501D01*
X90520576Y-80127925D01*
X90500339Y-80079068D01*
X90498694Y-80074472D01*
X90498011Y-80073449D01*
X90399465Y-79925966D01*
X90399462Y-79925962D01*
X90345157Y-79871658D01*
X89723499Y-79250000D01*
X89173787Y-78700287D01*
X89152635Y-78672031D01*
X89145143Y-78658310D01*
X89130291Y-78590050D01*
X89130420Y-78588241D01*
X89149786Y-78530045D01*
X89153976Y-78523525D01*
X89170600Y-78502897D01*
X90499464Y-77174035D01*
X90598013Y-77026546D01*
X90665895Y-76862666D01*
X90700500Y-76688691D01*
X90700500Y-76511308D01*
X90665895Y-76337334D01*
X90598013Y-76173453D01*
X90598012Y-76173452D01*
X90598009Y-76173446D01*
X90598009Y-76173445D01*
X90499462Y-76025961D01*
X90499461Y-76025960D01*
X90499456Y-76025954D01*
X90374044Y-75900542D01*
X90374038Y-75900537D01*
X90374037Y-75900536D01*
X90226547Y-75801986D01*
X90226548Y-75801986D01*
X90226538Y-75801981D01*
X90062667Y-75734105D01*
X90062632Y-75734097D01*
X89888699Y-75699500D01*
X89888696Y-75699500D01*
X89888692Y-75699500D01*
X89711309Y-75699500D01*
X89711304Y-75699500D01*
X89711299Y-75699500D01*
X89537366Y-75734097D01*
X89537333Y-75734105D01*
X89373451Y-75801987D01*
X89373449Y-75801988D01*
X89373439Y-75801994D01*
X89225964Y-75900535D01*
X89225959Y-75900539D01*
X87500542Y-77625954D01*
X87500536Y-77625961D01*
X87500533Y-77625965D01*
X87466827Y-77676408D01*
X87466755Y-77676520D01*
X87465204Y-77678842D01*
X87401990Y-77773447D01*
X87401985Y-77773457D01*
X87377814Y-77831812D01*
X87377812Y-77831818D01*
X87375736Y-77836828D01*
X87374898Y-77838852D01*
X87374894Y-77838860D01*
X87363646Y-77866015D01*
X87334105Y-77937333D01*
X87334098Y-77937361D01*
X87306430Y-78076465D01*
X87306430Y-78076467D01*
X87299500Y-78111303D01*
X87299500Y-79088699D01*
X87334097Y-79262632D01*
X87334101Y-79262651D01*
X87334103Y-79262658D01*
X87334105Y-79262666D01*
X87360131Y-79325499D01*
X87367155Y-79342455D01*
X87401987Y-79426547D01*
X87454738Y-79505494D01*
X87464979Y-79520821D01*
X87500534Y-79574034D01*
X87500538Y-79574039D01*
X88750575Y-80824074D01*
X88771723Y-80852324D01*
X88784052Y-80874903D01*
X88784331Y-80875413D01*
X88799500Y-80934842D01*
X88799500Y-81474465D01*
X88794478Y-81509398D01*
X88791536Y-81519418D01*
X88789613Y-81518853D01*
X88786816Y-81524566D01*
X88784437Y-81540766D01*
X88771767Y-81555298D01*
X88763289Y-81572612D01*
X88748842Y-81581593D01*
X88738522Y-81593431D01*
X88712535Y-81604838D01*
X88712788Y-81605481D01*
X88711716Y-81605902D01*
X88709703Y-81606081D01*
X88708850Y-81606455D01*
X88706373Y-81607996D01*
X88700962Y-81609567D01*
X88700583Y-81609565D01*
X88699228Y-81609925D01*
X88699131Y-81609561D01*
X88671612Y-81609477D01*
X88642195Y-81612101D01*
X88595635Y-81602839D01*
X88562352Y-81591097D01*
X88532977Y-81575731D01*
X88502772Y-81553537D01*
X88441928Y-81492693D01*
X88441919Y-81492683D01*
X88423701Y-81474465D01*
X88318717Y-81369481D01*
X88318716Y-81369480D01*
X88221592Y-81313406D01*
X88221571Y-81313393D01*
X88181783Y-81290422D01*
X88181778Y-81290420D01*
X88125882Y-81275442D01*
X88125882Y-81275443D01*
X88077469Y-81262471D01*
X88029057Y-81249499D01*
X88029056Y-81249499D01*
X87861443Y-81249499D01*
X87861380Y-81249500D01*
X80670943Y-81249500D01*
X80518215Y-81290423D01*
X80518205Y-81290427D01*
X80381288Y-81369476D01*
X80381285Y-81369477D01*
X80381285Y-81369478D01*
X80381282Y-81369481D01*
X80272566Y-81478196D01*
X80272553Y-81478211D01*
X80269480Y-81481284D01*
X80269478Y-81481286D01*
X80017268Y-81733497D01*
X79800191Y-81950573D01*
X79771940Y-81971722D01*
X79748852Y-81984330D01*
X79689422Y-81999500D01*
X70635676Y-81999500D01*
X70632225Y-81998928D01*
X70630373Y-81999387D01*
X70600728Y-81994473D01*
X70597579Y-81993548D01*
X70596824Y-81993062D01*
X70595685Y-81992874D01*
X70592750Y-81991874D01*
X70569700Y-81975627D01*
X70538805Y-81955768D01*
X70537514Y-81952941D01*
X70535641Y-81951621D01*
X70525449Y-81926515D01*
X70509787Y-81892209D01*
X70510241Y-81889050D01*
X70509361Y-81886882D01*
X70514466Y-81859687D01*
X70519738Y-81823051D01*
X70521788Y-81820684D01*
X70522253Y-81818212D01*
X70542677Y-81796583D01*
X70565499Y-81770252D01*
X70569290Y-81768401D01*
X70570224Y-81767413D01*
X70572440Y-81766863D01*
X70591511Y-81757555D01*
X70591729Y-81757479D01*
X70632741Y-81750500D01*
X79073920Y-81750500D01*
X79171462Y-81731096D01*
X79218913Y-81721658D01*
X79354619Y-81665446D01*
X79355259Y-81665222D01*
X79355487Y-81665087D01*
X79355495Y-81665084D01*
X79355500Y-81665080D01*
X79355503Y-81665079D01*
X79355517Y-81665069D01*
X79357494Y-81663902D01*
X79359900Y-81662140D01*
X79379047Y-81649346D01*
X79407608Y-81630263D01*
X79478416Y-81582952D01*
X87582951Y-73478416D01*
X87665084Y-73355495D01*
X87721658Y-73218913D01*
X87723550Y-73209397D01*
X87723551Y-73209397D01*
X87723551Y-73209394D01*
X87737025Y-73141656D01*
X87750500Y-73073919D01*
X87750500Y-61629058D01*
X87755521Y-61594131D01*
X87758707Y-61583278D01*
X87796477Y-61524497D01*
X87860031Y-61495468D01*
X87929186Y-61505406D01*
X87936172Y-61508596D01*
X87972342Y-61533709D01*
X89245290Y-62806657D01*
X89260711Y-62825447D01*
X89274020Y-62845365D01*
X89285399Y-62866611D01*
X89285560Y-62866998D01*
X89290603Y-62879172D01*
X89290606Y-62879178D01*
X89290609Y-62879185D01*
X89290669Y-62879275D01*
X89290670Y-62879277D01*
X89378211Y-63010290D01*
X89378217Y-63010297D01*
X89489701Y-63121781D01*
X89489707Y-63121786D01*
X89489711Y-63121789D01*
X89620814Y-63209390D01*
X89620827Y-63209397D01*
X89668556Y-63229166D01*
X89711508Y-63246958D01*
X89711510Y-63246958D01*
X89718853Y-63250000D01*
X89766503Y-63269737D01*
X89871418Y-63290606D01*
X89913512Y-63298979D01*
X89916247Y-63299703D01*
X89921155Y-63300500D01*
X90078844Y-63300500D01*
X90082964Y-63300500D01*
X90090814Y-63298118D01*
X90233497Y-63269737D01*
X90379179Y-63209394D01*
X90510289Y-63121789D01*
X90513107Y-63118971D01*
X90621788Y-63010291D01*
X90621789Y-63010289D01*
X90709394Y-62879179D01*
X90769737Y-62733497D01*
X90800500Y-62578842D01*
X90800500Y-62421158D01*
X90800500Y-62421155D01*
X90800499Y-62421153D01*
X90792150Y-62379179D01*
X90769737Y-62266503D01*
X90750955Y-62221158D01*
X90709397Y-62120827D01*
X90709390Y-62120814D01*
X90621789Y-61989711D01*
X90621786Y-61989707D01*
X90621781Y-61989701D01*
X90510297Y-61878217D01*
X90510291Y-61878212D01*
X90510290Y-61878211D01*
X90379182Y-61790606D01*
X90379141Y-61790585D01*
X90378536Y-61790339D01*
X90366799Y-61785477D01*
X90345365Y-61774020D01*
X90341607Y-61771509D01*
X90325445Y-61760709D01*
X90306657Y-61745290D01*
X89985601Y-61424234D01*
X94424500Y-61424234D01*
X94424500Y-61575766D01*
X94428477Y-61590609D01*
X94463625Y-61721787D01*
X94463720Y-61722138D01*
X94484196Y-61757603D01*
X94484197Y-61757604D01*
X94493675Y-61774020D01*
X94539485Y-61853365D01*
X94646635Y-61960515D01*
X94777865Y-62036281D01*
X94924234Y-62075500D01*
X94924236Y-62075500D01*
X95075764Y-62075500D01*
X95075766Y-62075500D01*
X95222135Y-62036281D01*
X95353365Y-61960515D01*
X95460515Y-61853365D01*
X95536281Y-61722135D01*
X95575500Y-61575766D01*
X95575500Y-61424234D01*
X95536281Y-61277865D01*
X95460515Y-61146635D01*
X95353365Y-61039485D01*
X95287750Y-61001602D01*
X95222136Y-60963719D01*
X95126123Y-60937993D01*
X95075766Y-60924500D01*
X95075765Y-60924500D01*
X94924234Y-60924500D01*
X94777859Y-60963720D01*
X94777857Y-60963721D01*
X94646645Y-61039478D01*
X94646631Y-61039487D01*
X94646626Y-61039491D01*
X94539491Y-61146626D01*
X94539487Y-61146631D01*
X94539478Y-61146645D01*
X94463718Y-61277861D01*
X94463718Y-61277862D01*
X94437311Y-61376419D01*
X94437302Y-61376455D01*
X94436832Y-61378211D01*
X94424500Y-61424234D01*
X89985601Y-61424234D01*
X89039580Y-60478213D01*
X87799426Y-59238058D01*
X87799425Y-59238057D01*
X87799421Y-59238053D01*
X87778274Y-59209802D01*
X87765667Y-59186713D01*
X87750500Y-59127288D01*
X87750500Y-58816814D01*
X87752882Y-58792627D01*
X87757557Y-58769123D01*
X87764620Y-58745848D01*
X87766050Y-58742397D01*
X87769737Y-58733497D01*
X87800500Y-58578842D01*
X87800500Y-58421158D01*
X87800500Y-58421155D01*
X87800500Y-58420973D01*
X87800070Y-58419000D01*
X87769739Y-58266511D01*
X87769738Y-58266508D01*
X87769737Y-58266503D01*
X87769728Y-58266482D01*
X87769728Y-58266480D01*
X87764612Y-58254130D01*
X87757554Y-58230862D01*
X87752882Y-58207370D01*
X87750500Y-58183183D01*
X87750500Y-57380058D01*
X87755522Y-57345125D01*
X87762934Y-57319880D01*
X87794228Y-57267138D01*
X89417131Y-55644234D01*
X94424500Y-55644234D01*
X94424500Y-55795765D01*
X94463719Y-55942135D01*
X94463720Y-55942139D01*
X94485105Y-55979179D01*
X94485106Y-55979179D01*
X94539485Y-56073365D01*
X94646635Y-56180515D01*
X94777865Y-56256281D01*
X94924234Y-56295500D01*
X94924236Y-56295500D01*
X95075764Y-56295500D01*
X95075766Y-56295500D01*
X95222135Y-56256281D01*
X95353365Y-56180515D01*
X95460515Y-56073365D01*
X95536281Y-55942135D01*
X95575500Y-55795766D01*
X95575500Y-55644234D01*
X95536281Y-55497865D01*
X95536276Y-55497857D01*
X95526129Y-55480281D01*
X95460515Y-55366635D01*
X95353365Y-55259485D01*
X95283572Y-55219190D01*
X95283572Y-55219189D01*
X95283570Y-55219189D01*
X95222136Y-55183719D01*
X95148950Y-55164109D01*
X95148949Y-55164108D01*
X95075767Y-55144500D01*
X95075766Y-55144500D01*
X94924234Y-55144500D01*
X94777859Y-55183720D01*
X94777857Y-55183721D01*
X94646645Y-55259478D01*
X94646631Y-55259487D01*
X94646626Y-55259491D01*
X94539491Y-55366626D01*
X94539487Y-55366631D01*
X94539478Y-55366645D01*
X94463721Y-55497857D01*
X94463720Y-55497859D01*
X94463719Y-55497863D01*
X94424500Y-55644234D01*
X89417131Y-55644234D01*
X89806665Y-55254700D01*
X89825444Y-55239289D01*
X89845374Y-55225972D01*
X89866809Y-55214517D01*
X89879179Y-55209394D01*
X90010289Y-55121789D01*
X90121789Y-55010289D01*
X90209394Y-54879179D01*
X90269737Y-54733497D01*
X90300500Y-54578842D01*
X90300500Y-54421158D01*
X90300500Y-54421155D01*
X90300500Y-54420971D01*
X90300064Y-54418966D01*
X90285658Y-54346543D01*
X90269738Y-54266510D01*
X90269737Y-54266503D01*
X90235855Y-54184703D01*
X90209397Y-54120827D01*
X90209390Y-54120814D01*
X90121789Y-53989711D01*
X90121786Y-53989707D01*
X90121781Y-53989701D01*
X90010297Y-53878217D01*
X90010291Y-53878212D01*
X90010290Y-53878211D01*
X89879191Y-53790613D01*
X89879190Y-53790612D01*
X89879185Y-53790609D01*
X89879172Y-53790602D01*
X89879165Y-53790598D01*
X89733502Y-53730264D01*
X89733471Y-53730257D01*
X89578847Y-53699500D01*
X89578845Y-53699500D01*
X89578842Y-53699500D01*
X89421158Y-53699500D01*
X89421155Y-53699500D01*
X89421153Y-53699500D01*
X89266527Y-53730257D01*
X89266496Y-53730264D01*
X89120833Y-53790598D01*
X89120824Y-53790603D01*
X89120807Y-53790613D01*
X88989708Y-53878211D01*
X88989707Y-53878212D01*
X88989701Y-53878217D01*
X88878216Y-53989702D01*
X88878211Y-53989708D01*
X88878208Y-53989713D01*
X88800854Y-54105480D01*
X88800848Y-54105490D01*
X88790607Y-54120818D01*
X88790606Y-54120819D01*
X88783207Y-54138679D01*
X88780410Y-54143943D01*
X88778917Y-54145469D01*
X88774017Y-54154637D01*
X88760710Y-54174551D01*
X88745291Y-54193338D01*
X86417049Y-56521580D01*
X86409087Y-56533498D01*
X86409086Y-56533500D01*
X86377671Y-56580517D01*
X86377670Y-56580518D01*
X86334918Y-56644499D01*
X86334915Y-56644504D01*
X86334906Y-56644522D01*
X86278344Y-56781079D01*
X86278338Y-56781098D01*
X86249500Y-56926076D01*
X86249500Y-58183185D01*
X86247117Y-58207370D01*
X86247116Y-58207381D01*
X86242443Y-58230869D01*
X86235393Y-58254115D01*
X86230260Y-58266509D01*
X86230258Y-58266516D01*
X86199500Y-58421148D01*
X86199500Y-58421153D01*
X86199500Y-58578846D01*
X86199500Y-58578848D01*
X86199499Y-58578848D01*
X86230257Y-58733471D01*
X86230261Y-58733489D01*
X86230262Y-58733494D01*
X86230267Y-58733509D01*
X86235389Y-58745874D01*
X86242443Y-58769127D01*
X86247117Y-58792627D01*
X86249500Y-58816814D01*
X86249500Y-72619940D01*
X86244476Y-72654877D01*
X86237064Y-72680118D01*
X86205769Y-72732862D01*
X78738058Y-80200573D01*
X78710034Y-80221552D01*
X78709807Y-80221722D01*
X78686719Y-80234330D01*
X78627289Y-80249500D01*
X78340587Y-80249500D01*
X78305648Y-80244476D01*
X78292330Y-80240565D01*
X78233553Y-80202789D01*
X78204531Y-80139238D01*
X78202964Y-80128335D01*
X78204084Y-80086503D01*
X78225500Y-79978844D01*
X78225500Y-79821155D01*
X78225500Y-79820973D01*
X78225065Y-79818971D01*
X78207954Y-79732949D01*
X78194737Y-79666503D01*
X78164092Y-79592518D01*
X78134397Y-79520827D01*
X78134390Y-79520814D01*
X78046789Y-79389711D01*
X78046786Y-79389707D01*
X78046781Y-79389701D01*
X77935308Y-79278228D01*
X77935288Y-79278210D01*
X77895429Y-79251576D01*
X77893674Y-79250000D01*
X77869174Y-79227991D01*
X77855721Y-79211893D01*
X77829472Y-79157647D01*
X77828103Y-79151070D01*
X77825501Y-79125801D01*
X77825501Y-77111122D01*
X77830523Y-77076189D01*
X77837935Y-77050944D01*
X77869229Y-76998202D01*
X83687565Y-71179865D01*
X83715813Y-71158722D01*
X83729533Y-71151231D01*
X83797799Y-71136381D01*
X83811381Y-71137352D01*
X83849988Y-71146474D01*
X83966503Y-71194737D01*
X84121153Y-71225499D01*
X84121156Y-71225500D01*
X84121158Y-71225500D01*
X84278844Y-71225500D01*
X84278845Y-71225499D01*
X84433497Y-71194737D01*
X84557834Y-71143235D01*
X84579172Y-71134397D01*
X84579172Y-71134396D01*
X84579179Y-71134394D01*
X84710289Y-71046789D01*
X84821789Y-70935289D01*
X84909394Y-70804179D01*
X84969737Y-70658497D01*
X85000500Y-70503842D01*
X85000500Y-70346158D01*
X85000500Y-70346155D01*
X85000500Y-70345973D01*
X85000065Y-70343972D01*
X84973460Y-70210221D01*
X84969737Y-70191503D01*
X84916891Y-70063920D01*
X84916454Y-70062209D01*
X84908164Y-70029726D01*
X84905352Y-70003573D01*
X84914079Y-69942867D01*
X84968054Y-69812557D01*
X84969221Y-69810001D01*
X84969730Y-69808510D01*
X84969735Y-69808501D01*
X84969737Y-69808497D01*
X85000500Y-69653842D01*
X85000500Y-69496158D01*
X85000500Y-69496155D01*
X85000500Y-69495971D01*
X85000064Y-69493966D01*
X84982623Y-69406285D01*
X84969737Y-69341503D01*
X84956581Y-69309742D01*
X84956440Y-69309402D01*
X84921688Y-69225502D01*
X84909397Y-69195827D01*
X84909390Y-69195814D01*
X84821789Y-69064711D01*
X84821786Y-69064707D01*
X84821781Y-69064701D01*
X84710297Y-68953217D01*
X84710291Y-68953212D01*
X84710290Y-68953211D01*
X84633927Y-68902187D01*
X84579185Y-68865609D01*
X84579172Y-68865602D01*
X84579165Y-68865598D01*
X84433502Y-68805264D01*
X84433471Y-68805257D01*
X84278847Y-68774500D01*
X84278845Y-68774500D01*
X84278842Y-68774500D01*
X84121158Y-68774500D01*
X84121155Y-68774500D01*
X84121153Y-68774500D01*
X83966527Y-68805257D01*
X83966496Y-68805264D01*
X83820833Y-68865598D01*
X83820824Y-68865603D01*
X83820819Y-68865606D01*
X83820814Y-68865609D01*
X83770714Y-68899085D01*
X83689708Y-68953211D01*
X83689707Y-68953212D01*
X83689701Y-68953217D01*
X83578225Y-69064693D01*
X83578215Y-69064704D01*
X83578203Y-69064720D01*
X83535690Y-69128344D01*
X83527154Y-69137846D01*
X83512105Y-69154599D01*
X83490673Y-69172510D01*
X83443251Y-69197137D01*
X83375026Y-69215418D01*
X83375024Y-69215418D01*
X83375023Y-69215419D01*
X83375021Y-69215419D01*
X83374954Y-69215448D01*
X83374099Y-69215952D01*
X83357558Y-69225502D01*
X83357557Y-69225503D01*
X83238090Y-69294475D01*
X83238089Y-69294476D01*
X83238083Y-69294481D01*
X83238076Y-69294487D01*
X76294480Y-76238084D01*
X76294478Y-76238086D01*
X76276206Y-76269735D01*
X76276206Y-76269737D01*
X76263426Y-76291873D01*
X76215422Y-76375018D01*
X76174498Y-76527746D01*
X76174498Y-76527748D01*
X76174498Y-76698203D01*
X76174499Y-76698254D01*
X76174499Y-79120743D01*
X76174498Y-79120744D01*
X76174499Y-79120745D01*
X76169475Y-79155680D01*
X76163563Y-79175813D01*
X76133040Y-79227779D01*
X76128332Y-79232571D01*
X76108773Y-79248768D01*
X76064708Y-79278212D01*
X76064702Y-79278218D01*
X75953211Y-79389708D01*
X75865613Y-79520807D01*
X75865600Y-79520829D01*
X75865599Y-79520831D01*
X75805264Y-79666496D01*
X75805257Y-79666527D01*
X75774500Y-79821150D01*
X75774500Y-79821153D01*
X75774500Y-79821158D01*
X75774500Y-79978842D01*
X75774500Y-79978844D01*
X75774499Y-79978844D01*
X75796146Y-80087664D01*
X75796665Y-80091536D01*
X75796020Y-80095736D01*
X75797271Y-80119064D01*
X75796034Y-80132888D01*
X75786657Y-80156719D01*
X75786062Y-80160597D01*
X75784384Y-80162496D01*
X75770452Y-80197906D01*
X75713787Y-80238770D01*
X75703403Y-80242434D01*
X75662143Y-80249500D01*
X65526078Y-80249500D01*
X65381096Y-80278338D01*
X65381079Y-80278344D01*
X65244517Y-80334908D01*
X65244508Y-80334913D01*
X65244491Y-80334923D01*
X65121581Y-80417049D01*
X65121580Y-80417050D01*
X65121575Y-80417054D01*
X64624788Y-80913843D01*
X64602067Y-80930853D01*
X64596538Y-80934992D01*
X64586611Y-80940413D01*
X64518338Y-80955267D01*
X64452873Y-80930853D01*
X64411000Y-80874921D01*
X64408313Y-80867715D01*
X64400500Y-80824395D01*
X64400500Y-80127925D01*
X64405522Y-80092992D01*
X64412934Y-80067747D01*
X64444228Y-80015005D01*
X66573198Y-77886034D01*
X66601443Y-77864892D01*
X66616429Y-77856709D01*
X66682034Y-77841699D01*
X66695341Y-77842365D01*
X66727460Y-77848278D01*
X66782046Y-77866014D01*
X66782049Y-77866015D01*
X66999778Y-77900500D01*
X66999779Y-77900500D01*
X67220221Y-77900500D01*
X67220222Y-77900500D01*
X67437951Y-77866015D01*
X67647606Y-77797895D01*
X67844022Y-77697815D01*
X68022365Y-77568242D01*
X68178242Y-77412365D01*
X68307815Y-77234022D01*
X68407895Y-77037606D01*
X68476015Y-76827951D01*
X68510500Y-76610222D01*
X68510500Y-76389778D01*
X68476015Y-76172049D01*
X68458694Y-76118741D01*
X68452679Y-76083980D01*
X68452191Y-76066901D01*
X68468604Y-76001628D01*
X68475235Y-75990079D01*
X68495082Y-75964150D01*
X71151273Y-73307960D01*
X71151277Y-73307958D01*
X71168715Y-73290520D01*
X71168716Y-73290520D01*
X71280520Y-73178716D01*
X71346711Y-73064069D01*
X71359577Y-73041785D01*
X71400501Y-72889057D01*
X71400501Y-72730943D01*
X71400501Y-72723348D01*
X71400501Y-72721664D01*
X71400500Y-72721590D01*
X71400500Y-71484631D01*
X71405522Y-71449698D01*
X71409433Y-71436379D01*
X71447206Y-71377602D01*
X71510758Y-71348577D01*
X71514076Y-71348100D01*
X71569214Y-71352645D01*
X71571093Y-71353241D01*
X71589881Y-71360948D01*
X71610069Y-71371234D01*
X71610071Y-71371235D01*
X71662389Y-71397893D01*
X71662396Y-71397896D01*
X71733991Y-71421158D01*
X71872049Y-71466015D01*
X72089778Y-71500500D01*
X72089779Y-71500500D01*
X72310221Y-71500500D01*
X72310222Y-71500500D01*
X72527951Y-71466015D01*
X72737606Y-71397895D01*
X72934022Y-71297815D01*
X73112365Y-71168242D01*
X73268242Y-71012365D01*
X73397815Y-70834022D01*
X73497895Y-70637606D01*
X73566015Y-70427951D01*
X73600500Y-70210222D01*
X73600500Y-69989778D01*
X74799500Y-69989778D01*
X74799500Y-69994286D01*
X74799500Y-70210223D01*
X74805800Y-70249999D01*
X74805800Y-70250000D01*
X74833985Y-70427955D01*
X74902094Y-70637579D01*
X74902102Y-70637602D01*
X74902104Y-70637606D01*
X74955498Y-70742395D01*
X74955498Y-70742397D01*
X74955499Y-70742397D01*
X74992653Y-70815316D01*
X75002183Y-70834018D01*
X75002191Y-70834031D01*
X75131739Y-71012341D01*
X75131761Y-71012369D01*
X75287627Y-71168235D01*
X75287635Y-71168242D01*
X75287636Y-71168243D01*
X75287641Y-71168247D01*
X75324248Y-71194843D01*
X75366441Y-71225498D01*
X75366442Y-71225498D01*
X75366443Y-71225499D01*
X75465978Y-71297815D01*
X75594375Y-71363237D01*
X75662393Y-71397895D01*
X75662396Y-71397896D01*
X75733991Y-71421158D01*
X75872049Y-71466015D01*
X76089778Y-71500500D01*
X76089779Y-71500500D01*
X76310221Y-71500500D01*
X76310222Y-71500500D01*
X76527951Y-71466015D01*
X76737606Y-71397895D01*
X76934022Y-71297815D01*
X77112365Y-71168242D01*
X77268242Y-71012365D01*
X77397815Y-70834022D01*
X77497895Y-70637606D01*
X77566015Y-70427951D01*
X77600500Y-70210222D01*
X77600500Y-69989778D01*
X77566015Y-69772049D01*
X77497895Y-69562394D01*
X77497895Y-69562393D01*
X77460861Y-69489711D01*
X77397815Y-69365978D01*
X77366885Y-69323406D01*
X77268247Y-69187641D01*
X77268243Y-69187636D01*
X77268240Y-69187633D01*
X77268237Y-69187629D01*
X77112369Y-69031761D01*
X77112364Y-69031757D01*
X77112363Y-69031756D01*
X77112358Y-69031752D01*
X77048982Y-68985707D01*
X76944625Y-68909887D01*
X76944609Y-68909876D01*
X76934025Y-68902187D01*
X76934024Y-68902186D01*
X76934022Y-68902185D01*
X76927942Y-68899087D01*
X76927939Y-68899085D01*
X76862238Y-68865609D01*
X76862238Y-68865608D01*
X76862236Y-68865608D01*
X76737606Y-68802104D01*
X76737530Y-68802078D01*
X76527954Y-68733985D01*
X76527955Y-68733985D01*
X76399561Y-68713650D01*
X76381946Y-68710860D01*
X76310222Y-68699500D01*
X76310221Y-68699500D01*
X76089774Y-68699500D01*
X76034122Y-68708315D01*
X76017201Y-68710995D01*
X75872043Y-68733985D01*
X75662419Y-68802094D01*
X75662396Y-68802102D01*
X75662392Y-68802104D01*
X75465972Y-68902187D01*
X75287658Y-69031739D01*
X75287629Y-69031761D01*
X75131761Y-69187629D01*
X75131739Y-69187658D01*
X75002187Y-69365972D01*
X74902104Y-69562392D01*
X74902102Y-69562396D01*
X74902094Y-69562419D01*
X74833985Y-69772043D01*
X74817077Y-69878795D01*
X74817056Y-69878927D01*
X74817017Y-69879179D01*
X74799500Y-69989778D01*
X73600500Y-69989778D01*
X73566015Y-69772049D01*
X73497895Y-69562394D01*
X73497895Y-69562393D01*
X73460861Y-69489711D01*
X73397815Y-69365978D01*
X73366885Y-69323406D01*
X73268247Y-69187641D01*
X73268243Y-69187636D01*
X73268240Y-69187633D01*
X73268237Y-69187629D01*
X73112369Y-69031761D01*
X73112364Y-69031757D01*
X73112363Y-69031756D01*
X73112358Y-69031752D01*
X73048982Y-68985707D01*
X72944625Y-68909887D01*
X72944609Y-68909876D01*
X72934025Y-68902187D01*
X72934024Y-68902186D01*
X72934022Y-68902185D01*
X72927942Y-68899087D01*
X72927939Y-68899085D01*
X72862238Y-68865609D01*
X72862238Y-68865608D01*
X72862236Y-68865608D01*
X72737606Y-68802104D01*
X72737530Y-68802078D01*
X72527954Y-68733985D01*
X72527955Y-68733985D01*
X72399561Y-68713650D01*
X72381946Y-68710860D01*
X72310222Y-68699500D01*
X72310221Y-68699500D01*
X72089774Y-68699500D01*
X72025068Y-68709748D01*
X72025067Y-68709749D01*
X71981117Y-68716709D01*
X71961505Y-68719816D01*
X71926223Y-68720320D01*
X71912459Y-68718542D01*
X71896131Y-68711366D01*
X71892212Y-68710860D01*
X71889189Y-68708315D01*
X71848494Y-68690431D01*
X71809881Y-68632201D01*
X71806030Y-68619748D01*
X71800500Y-68583126D01*
X71800500Y-63797594D01*
X71805522Y-63762661D01*
X71814864Y-63730845D01*
X71830733Y-63696902D01*
X71906450Y-63583584D01*
X71908468Y-63580827D01*
X71909978Y-63578426D01*
X71911710Y-63573585D01*
X71969737Y-63433497D01*
X72000500Y-63278842D01*
X72000500Y-63121158D01*
X72000500Y-63121155D01*
X72000500Y-63120973D01*
X72000065Y-63118971D01*
X71978447Y-63010291D01*
X71978446Y-63010290D01*
X71969737Y-62966503D01*
X71969735Y-62966498D01*
X71909397Y-62820827D01*
X71909390Y-62820814D01*
X71821789Y-62689711D01*
X71821786Y-62689707D01*
X71821781Y-62689701D01*
X71710297Y-62578217D01*
X71710291Y-62578212D01*
X71710290Y-62578211D01*
X71579191Y-62490613D01*
X71579190Y-62490612D01*
X71579185Y-62490609D01*
X71579172Y-62490602D01*
X71579165Y-62490598D01*
X71433501Y-62430264D01*
X71433493Y-62430262D01*
X71433486Y-62430260D01*
X71433457Y-62430254D01*
X71417789Y-62427137D01*
X71384506Y-62415394D01*
X71370655Y-62408148D01*
X71320378Y-62359631D01*
X71316739Y-62353240D01*
X71300500Y-62291892D01*
X71300500Y-62220971D01*
X71300064Y-62218966D01*
X71280543Y-62120827D01*
X71280539Y-62120807D01*
X71269737Y-62066503D01*
X71237929Y-61989711D01*
X71209397Y-61920827D01*
X71209390Y-61920814D01*
X71121789Y-61789711D01*
X71121786Y-61789707D01*
X71121781Y-61789701D01*
X71010297Y-61678217D01*
X71010291Y-61678212D01*
X71010290Y-61678211D01*
X70936727Y-61629058D01*
X70879185Y-61590609D01*
X70879172Y-61590602D01*
X70843356Y-61575767D01*
X70778309Y-61548824D01*
X70778307Y-61548823D01*
X70778306Y-61548823D01*
X70747953Y-61530813D01*
X70737145Y-61522103D01*
X70697298Y-61464710D01*
X70694804Y-61394891D01*
X70696100Y-61389810D01*
X70728565Y-61332800D01*
X71899715Y-60161649D01*
X71927969Y-60140500D01*
X71941689Y-60133009D01*
X71959107Y-60129219D01*
X71974752Y-60120677D01*
X72009955Y-60118159D01*
X72011760Y-60118288D01*
X72069950Y-60137653D01*
X72076458Y-60141835D01*
X72097105Y-60158473D01*
X72705136Y-60766503D01*
X73345290Y-61406657D01*
X73360711Y-61425447D01*
X73374020Y-61445365D01*
X73385476Y-61466796D01*
X73390608Y-61479184D01*
X73478211Y-61610290D01*
X73478212Y-61610291D01*
X73478217Y-61610297D01*
X73589701Y-61721781D01*
X73589707Y-61721786D01*
X73589711Y-61721789D01*
X73720814Y-61809390D01*
X73720827Y-61809397D01*
X73826977Y-61853365D01*
X73866503Y-61869737D01*
X74006172Y-61897519D01*
X74013523Y-61898981D01*
X74016250Y-61899704D01*
X74021155Y-61900500D01*
X74178844Y-61900500D01*
X74182964Y-61900500D01*
X74190814Y-61898118D01*
X74333497Y-61869737D01*
X74479179Y-61809394D01*
X74610289Y-61721789D01*
X74721789Y-61610289D01*
X74809394Y-61479179D01*
X74868129Y-61337377D01*
X74868309Y-61337154D01*
X74878969Y-61316875D01*
X74884374Y-61308626D01*
X74906405Y-61289879D01*
X74911967Y-61282978D01*
X74918211Y-61279833D01*
X74937585Y-61263347D01*
X75006829Y-61254023D01*
X75070123Y-61283615D01*
X75078190Y-61296382D01*
X75080103Y-61297505D01*
X75084973Y-61307118D01*
X75107284Y-61342428D01*
X75108959Y-61348271D01*
X75110139Y-61356788D01*
X75111681Y-61359832D01*
X75111204Y-61364476D01*
X75113759Y-61382913D01*
X75099998Y-65000000D01*
X75099999Y-65000000D01*
X75100000Y-65000000D01*
X85000000Y-65000000D01*
X85000000Y-52641738D01*
X85005023Y-52606802D01*
X85009427Y-52591804D01*
X85009526Y-52591650D01*
X85047152Y-52533070D01*
X85047201Y-52533027D01*
X85048542Y-52531864D01*
X85103394Y-52504379D01*
X85110911Y-52502740D01*
X85137213Y-52499899D01*
X101057588Y-52488319D01*
X101092512Y-52493315D01*
G37*
%TD.AperFunction*%
%TA.AperFunction,Conductor*%
G36*
X57568000Y-89605521D02*
G01*
X57578853Y-89608707D01*
X57593853Y-89618345D01*
X57610961Y-89623368D01*
X57622634Y-89636839D01*
X57637634Y-89646477D01*
X57645042Y-89662697D01*
X57656718Y-89676170D01*
X57659255Y-89693814D01*
X57666663Y-89710031D01*
X57664126Y-89727679D01*
X57666665Y-89745328D01*
X57656723Y-89779192D01*
X57653538Y-89786167D01*
X57628422Y-89822342D01*
X56000191Y-91450573D01*
X55971940Y-91471722D01*
X55948852Y-91484330D01*
X55889422Y-91499500D01*
X43588621Y-91499500D01*
X43588558Y-91499499D01*
X43586654Y-91499499D01*
X43579058Y-91499499D01*
X43420943Y-91499499D01*
X43344578Y-91519960D01*
X43344579Y-91519961D01*
X43268217Y-91540422D01*
X43268215Y-91540422D01*
X43268214Y-91540423D01*
X43268212Y-91540423D01*
X43268143Y-91540453D01*
X43267334Y-91540930D01*
X43131298Y-91619470D01*
X43131294Y-91619472D01*
X43131290Y-91619475D01*
X43131282Y-91619481D01*
X43131278Y-91619484D01*
X43131276Y-91619485D01*
X40524791Y-94225972D01*
X40498046Y-94246285D01*
X40497208Y-94246757D01*
X40492748Y-94249193D01*
X40492478Y-94249426D01*
X40487074Y-94252476D01*
X40458419Y-94259128D01*
X40430501Y-94268405D01*
X40424773Y-94266940D01*
X40419015Y-94268277D01*
X40391315Y-94258382D01*
X40362810Y-94251092D01*
X40358779Y-94246760D01*
X40353217Y-94244774D01*
X40335344Y-94221579D01*
X40323290Y-94208627D01*
X40321082Y-94210046D01*
X40320178Y-94208639D01*
X40318738Y-94203735D01*
X40315259Y-94199997D01*
X40314526Y-94198533D01*
X40316734Y-94197427D01*
X40310571Y-94189429D01*
X40308939Y-94170357D01*
X40300501Y-94141611D01*
X40300501Y-94013347D01*
X40300500Y-94013329D01*
X40300500Y-93817926D01*
X40305522Y-93782993D01*
X40312934Y-93757748D01*
X40344228Y-93705006D01*
X44399811Y-89649423D01*
X44428061Y-89628275D01*
X44451153Y-89615667D01*
X44510578Y-89600500D01*
X57533073Y-89600500D01*
X57568000Y-89605521D01*
G37*
%TD.AperFunction*%
%TA.AperFunction,Conductor*%
G36*
X61176719Y-77460577D02*
G01*
X61178668Y-77461425D01*
X61232260Y-77506219D01*
X61242242Y-77521157D01*
X61242241Y-77521157D01*
X61242246Y-77521163D01*
X61265881Y-77556538D01*
X61265886Y-77556544D01*
X61450573Y-77741231D01*
X61470482Y-77767826D01*
X61471722Y-77769482D01*
X61484330Y-77792570D01*
X61499500Y-77852000D01*
X61499500Y-83662471D01*
X61497117Y-83686666D01*
X61492443Y-83710160D01*
X61485387Y-83733417D01*
X61430264Y-83866496D01*
X61430257Y-83866527D01*
X61399500Y-84021150D01*
X61399500Y-84021153D01*
X61399500Y-84178846D01*
X61399500Y-84178848D01*
X61399499Y-84178848D01*
X61430257Y-84333471D01*
X61430264Y-84333502D01*
X61490598Y-84479165D01*
X61490603Y-84479174D01*
X61490613Y-84479191D01*
X61574173Y-84604246D01*
X61585202Y-84624660D01*
X61593132Y-84643330D01*
X61601223Y-84712730D01*
X61601222Y-84712736D01*
X61600373Y-84717694D01*
X61579043Y-84768855D01*
X61577834Y-84770547D01*
X61564624Y-84786138D01*
X61224288Y-85126474D01*
X61202638Y-85142682D01*
X61196038Y-85147623D01*
X61186111Y-85153044D01*
X61117838Y-85167898D01*
X61052373Y-85143484D01*
X61010500Y-85087552D01*
X61007813Y-85080346D01*
X61000000Y-85037026D01*
X61000000Y-77585217D01*
X61005020Y-77550290D01*
X61008237Y-77539332D01*
X61017294Y-77525239D01*
X61021730Y-77509082D01*
X61035790Y-77496455D01*
X61046008Y-77480556D01*
X61061248Y-77473595D01*
X61073716Y-77462400D01*
X61092373Y-77459379D01*
X61109563Y-77451529D01*
X61126649Y-77453831D01*
X61142688Y-77451235D01*
X61176719Y-77460577D01*
G37*
%TD.AperFunction*%
%TA.AperFunction,Conductor*%
G36*
X68238828Y-81755521D02*
G01*
X68249681Y-81758707D01*
X68308462Y-81796477D01*
X68316422Y-81813905D01*
X68317110Y-81814506D01*
X68317824Y-81816973D01*
X68337491Y-81860031D01*
X68335099Y-81876675D01*
X68336531Y-81881622D01*
X68332394Y-81895509D01*
X68327557Y-81929178D01*
X68326419Y-81931671D01*
X68318400Y-81942482D01*
X68316583Y-81948584D01*
X68298777Y-81968941D01*
X68295634Y-81973179D01*
X68294550Y-81974135D01*
X68293423Y-81975115D01*
X68293424Y-81975116D01*
X68293388Y-81975147D01*
X68293366Y-81975166D01*
X68293309Y-81975215D01*
X68293304Y-81975216D01*
X68293240Y-81975270D01*
X68293230Y-81975283D01*
X68293209Y-81975301D01*
X68293207Y-81975298D01*
X68291112Y-81977060D01*
X68289166Y-81978655D01*
X68285145Y-81982433D01*
X68273233Y-81992941D01*
X68273191Y-81993055D01*
X68261945Y-82005974D01*
X68178211Y-82089708D01*
X68090613Y-82220807D01*
X68090603Y-82220824D01*
X68090598Y-82220833D01*
X68030264Y-82366496D01*
X68030257Y-82366527D01*
X67999500Y-82521150D01*
X67999500Y-82521153D01*
X67999500Y-82678846D01*
X67999500Y-82678848D01*
X67999499Y-82678848D01*
X68030257Y-82833471D01*
X68030264Y-82833502D01*
X68090598Y-82979165D01*
X68090603Y-82979174D01*
X68090613Y-82979191D01*
X68178211Y-83110290D01*
X68178212Y-83110291D01*
X68178217Y-83110297D01*
X68289701Y-83221781D01*
X68289707Y-83221786D01*
X68289711Y-83221789D01*
X68420814Y-83309390D01*
X68420827Y-83309397D01*
X68549432Y-83362666D01*
X68566503Y-83369737D01*
X68706379Y-83397560D01*
X68708325Y-83398014D01*
X68710879Y-83399458D01*
X68737642Y-83408900D01*
X68767019Y-83424267D01*
X68797225Y-83446461D01*
X68831284Y-83480520D01*
X68831980Y-83481022D01*
X68834497Y-83482376D01*
X68965531Y-83558028D01*
X68972480Y-83564852D01*
X68981337Y-83568863D01*
X68992390Y-83577770D01*
X69006859Y-83598610D01*
X69009772Y-83601470D01*
X69015807Y-83611497D01*
X69032238Y-83635162D01*
X69034732Y-83704988D01*
X69013424Y-83740900D01*
X69011901Y-83745576D01*
X69009475Y-83747555D01*
X68999080Y-83765077D01*
X68967011Y-83782219D01*
X68957775Y-83789760D01*
X68951588Y-83790464D01*
X68943112Y-83794995D01*
X68938124Y-83796174D01*
X68909601Y-83799500D01*
X67288638Y-83799500D01*
X67253702Y-83794477D01*
X67228460Y-83787065D01*
X67175715Y-83755769D01*
X66549426Y-83129480D01*
X66549421Y-83129475D01*
X66528274Y-83101224D01*
X66515667Y-83078135D01*
X66500500Y-83018710D01*
X66500500Y-82572764D01*
X66505522Y-82537831D01*
X66514865Y-82506013D01*
X66530738Y-82472063D01*
X66559394Y-82429179D01*
X66619737Y-82283497D01*
X66650500Y-82128842D01*
X66650500Y-81971158D01*
X66650500Y-81971155D01*
X66650500Y-81970971D01*
X66650069Y-81968988D01*
X66639564Y-81916176D01*
X66637675Y-81880933D01*
X66638912Y-81867110D01*
X66645438Y-81850520D01*
X66645791Y-81846585D01*
X66648215Y-81843464D01*
X66664493Y-81802091D01*
X66721161Y-81761227D01*
X66731558Y-81757559D01*
X66772801Y-81750500D01*
X68203901Y-81750500D01*
X68238828Y-81755521D01*
G37*
%TD.AperFunction*%
%TA.AperFunction,Conductor*%
G36*
X70370584Y-58505075D02*
G01*
X70437610Y-58524805D01*
X70483329Y-58577639D01*
X70494500Y-58629075D01*
X70494500Y-59392767D01*
X70474815Y-59459806D01*
X70458181Y-59480448D01*
X69593338Y-60345291D01*
X69574551Y-60360710D01*
X69554637Y-60374017D01*
X69533201Y-60385476D01*
X69520819Y-60390605D01*
X69510664Y-60397391D01*
X69510553Y-60397465D01*
X69389713Y-60478208D01*
X69389708Y-60478211D01*
X69389707Y-60478213D01*
X69389701Y-60478217D01*
X69278217Y-60589701D01*
X69278212Y-60589707D01*
X69278211Y-60589708D01*
X69190613Y-60720807D01*
X69190603Y-60720824D01*
X69190598Y-60720833D01*
X69130264Y-60866496D01*
X69130257Y-60866527D01*
X69099500Y-61021150D01*
X69099500Y-61021153D01*
X69099500Y-61178846D01*
X69099500Y-61178848D01*
X69099499Y-61178848D01*
X69130257Y-61333471D01*
X69130264Y-61333502D01*
X69190598Y-61479165D01*
X69190602Y-61479172D01*
X69190608Y-61479184D01*
X69190613Y-61479191D01*
X69278211Y-61610290D01*
X69278212Y-61610291D01*
X69278217Y-61610297D01*
X69389701Y-61721781D01*
X69389707Y-61721786D01*
X69389711Y-61721789D01*
X69520814Y-61809390D01*
X69520827Y-61809397D01*
X69626975Y-61853364D01*
X69652989Y-61864139D01*
X69652990Y-61864140D01*
X69673479Y-61874972D01*
X69691892Y-61887034D01*
X69737182Y-61940237D01*
X69746905Y-62006756D01*
X69745312Y-62019000D01*
X69736912Y-62050449D01*
X69730262Y-62066503D01*
X69730257Y-62066527D01*
X69699500Y-62221150D01*
X69699500Y-62221153D01*
X69699500Y-62378846D01*
X69699500Y-62378848D01*
X69699499Y-62378848D01*
X69730257Y-62533471D01*
X69730264Y-62533502D01*
X69790598Y-62679165D01*
X69790602Y-62679172D01*
X69790609Y-62679185D01*
X69868697Y-62796050D01*
X69883928Y-62827886D01*
X69893834Y-62859522D01*
X69899500Y-62896575D01*
X69899500Y-63189408D01*
X69899499Y-63189482D01*
X69899499Y-63314778D01*
X69893600Y-63334864D01*
X69940425Y-63509610D01*
X69948581Y-63523737D01*
X69948587Y-63523744D01*
X69962098Y-63547146D01*
X69962118Y-63547182D01*
X69983144Y-63583600D01*
X70019475Y-63646527D01*
X70019481Y-63646535D01*
X70019485Y-63646540D01*
X70200573Y-63827628D01*
X70204240Y-63832527D01*
X70221722Y-63855879D01*
X70234330Y-63878967D01*
X70249500Y-63938397D01*
X70249500Y-66401004D01*
X70244475Y-66435945D01*
X70240307Y-66450137D01*
X70202530Y-66508913D01*
X70141722Y-66537508D01*
X70129603Y-66539528D01*
X70125787Y-66540164D01*
X70105400Y-66541852D01*
X69951746Y-66541852D01*
X69797120Y-66572609D01*
X69797089Y-66572616D01*
X69664010Y-66627739D01*
X69640754Y-66634794D01*
X69617261Y-66639468D01*
X69593065Y-66641852D01*
X68342330Y-66641852D01*
X68307389Y-66636827D01*
X68292390Y-66632422D01*
X68233644Y-66594679D01*
X68232457Y-66593310D01*
X68204977Y-66538435D01*
X68203332Y-66530873D01*
X68200500Y-66504520D01*
X68200500Y-65631005D01*
X68198632Y-65621617D01*
X68191414Y-65585332D01*
X68191414Y-65585331D01*
X68173580Y-65495672D01*
X68147828Y-65433501D01*
X68145185Y-65427120D01*
X68120780Y-65368198D01*
X68120778Y-65368195D01*
X68120777Y-65368192D01*
X68044112Y-65253454D01*
X68044110Y-65253451D01*
X67446547Y-64655888D01*
X67331810Y-64579224D01*
X67331809Y-64579223D01*
X67331807Y-64579222D01*
X67331805Y-64579221D01*
X67331803Y-64579220D01*
X67204347Y-64526426D01*
X67204336Y-64526423D01*
X67204332Y-64526421D01*
X67204322Y-64526418D01*
X67204317Y-64526416D01*
X67068998Y-64499500D01*
X67068996Y-64499500D01*
X67068994Y-64499500D01*
X67068993Y-64499500D01*
X66537528Y-64499500D01*
X66513339Y-64497117D01*
X66489839Y-64492443D01*
X66466582Y-64485387D01*
X66333502Y-64430264D01*
X66333471Y-64430257D01*
X66178847Y-64399500D01*
X66178845Y-64399500D01*
X66178842Y-64399500D01*
X66021158Y-64399500D01*
X66021155Y-64399500D01*
X66021153Y-64399500D01*
X65866527Y-64430257D01*
X65866496Y-64430264D01*
X65720833Y-64490598D01*
X65720824Y-64490603D01*
X65720807Y-64490613D01*
X65589708Y-64578211D01*
X65589707Y-64578212D01*
X65589701Y-64578217D01*
X65478217Y-64689701D01*
X65478212Y-64689707D01*
X65478211Y-64689708D01*
X65390613Y-64820807D01*
X65390603Y-64820824D01*
X65390598Y-64820833D01*
X65330264Y-64966496D01*
X65330257Y-64966527D01*
X65299500Y-65121150D01*
X65299500Y-65121153D01*
X65299500Y-65278846D01*
X65299500Y-65278848D01*
X65299499Y-65278848D01*
X65328994Y-65427120D01*
X65330261Y-65433489D01*
X65330264Y-65433500D01*
X65330263Y-65433500D01*
X65390598Y-65579165D01*
X65390603Y-65579174D01*
X65390613Y-65579191D01*
X65478211Y-65710290D01*
X65478212Y-65710291D01*
X65478217Y-65710297D01*
X65589701Y-65821781D01*
X65589707Y-65821786D01*
X65589711Y-65821789D01*
X65720814Y-65909390D01*
X65720827Y-65909397D01*
X65787031Y-65936819D01*
X65866503Y-65969737D01*
X65969161Y-65990157D01*
X66013532Y-65998983D01*
X66016254Y-65999704D01*
X66021155Y-66000500D01*
X66178844Y-66000500D01*
X66182964Y-66000500D01*
X66190814Y-65998118D01*
X66333497Y-65969737D01*
X66450778Y-65921158D01*
X66466594Y-65914606D01*
X66466601Y-65914606D01*
X66489846Y-65907554D01*
X66496696Y-65906191D01*
X66509228Y-65902813D01*
X66516554Y-65901759D01*
X66534186Y-65900500D01*
X66640651Y-65900500D01*
X66675585Y-65905523D01*
X66699204Y-65912458D01*
X66757982Y-65950232D01*
X66773100Y-65972004D01*
X66784331Y-65992572D01*
X66799500Y-66052000D01*
X66799500Y-66924627D01*
X66794237Y-66942547D01*
X66826416Y-67104314D01*
X66826418Y-67104322D01*
X66826421Y-67104332D01*
X66826423Y-67104336D01*
X66826426Y-67104347D01*
X66879220Y-67231803D01*
X66879224Y-67231810D01*
X66955888Y-67346547D01*
X67495802Y-67886461D01*
X67495810Y-67886467D01*
X67610531Y-67963121D01*
X67610535Y-67963123D01*
X67610542Y-67963128D01*
X67698353Y-67999500D01*
X67738023Y-68015932D01*
X67738024Y-68015932D01*
X67738029Y-68015934D01*
X67764897Y-68021277D01*
X67764903Y-68021278D01*
X67764943Y-68021286D01*
X67855284Y-68039256D01*
X67855288Y-68039258D01*
X67855289Y-68039257D01*
X67873358Y-68042852D01*
X67873359Y-68042852D01*
X69593065Y-68042852D01*
X69617249Y-68045233D01*
X69640758Y-68049909D01*
X69664004Y-68056961D01*
X69743070Y-68089711D01*
X69797096Y-68112089D01*
X69797098Y-68112089D01*
X69797103Y-68112091D01*
X69873317Y-68127250D01*
X69951746Y-68142851D01*
X69951749Y-68142852D01*
X69998936Y-68142852D01*
X70002121Y-68143016D01*
X70005762Y-68144291D01*
X70030673Y-68147873D01*
X70041526Y-68151059D01*
X70061256Y-68163737D01*
X70068060Y-68166121D01*
X70071169Y-68170106D01*
X70100307Y-68188829D01*
X70129336Y-68252383D01*
X70119397Y-68321542D01*
X70119393Y-68321551D01*
X70116208Y-68328525D01*
X70091096Y-68364693D01*
X70032688Y-68423101D01*
X69969481Y-68486308D01*
X69969479Y-68486310D01*
X69961576Y-68500000D01*
X69958849Y-68504722D01*
X69958845Y-68504729D01*
X69941899Y-68534082D01*
X69941898Y-68534084D01*
X69890423Y-68623241D01*
X69849499Y-68775969D01*
X69849499Y-68775971D01*
X69849499Y-68946426D01*
X69849500Y-68946477D01*
X69849500Y-71532072D01*
X69844476Y-71567009D01*
X69837064Y-71592250D01*
X69805769Y-71644994D01*
X67100191Y-74350573D01*
X67071940Y-74371722D01*
X67048852Y-74384330D01*
X66989422Y-74399500D01*
X66120934Y-74399500D01*
X66041917Y-74420671D01*
X66041840Y-74420694D01*
X65968214Y-74440423D01*
X65968209Y-74440426D01*
X65955490Y-74447769D01*
X65955484Y-74447771D01*
X65831298Y-74519470D01*
X65831294Y-74519472D01*
X65831290Y-74519475D01*
X65831282Y-74519481D01*
X65831278Y-74519484D01*
X65831276Y-74519485D01*
X64534596Y-75816166D01*
X64534595Y-75816169D01*
X64506341Y-75837320D01*
X64494159Y-75843972D01*
X64425886Y-75858824D01*
X64360423Y-75834408D01*
X64354821Y-75830215D01*
X64318654Y-75787250D01*
X64307814Y-75765976D01*
X64178247Y-75587641D01*
X64178243Y-75587636D01*
X64115391Y-75524784D01*
X64094244Y-75496535D01*
X64088822Y-75486605D01*
X64073971Y-75418334D01*
X64098388Y-75352870D01*
X64154317Y-75311000D01*
X64158194Y-75309554D01*
X64161530Y-75308311D01*
X64204844Y-75300500D01*
X64468997Y-75300500D01*
X64477194Y-75298869D01*
X64560040Y-75282389D01*
X64604328Y-75273580D01*
X64679611Y-75242397D01*
X64727749Y-75222458D01*
X64731242Y-75221154D01*
X64731804Y-75220777D01*
X64731807Y-75220777D01*
X64731808Y-75220776D01*
X64731811Y-75220775D01*
X64846543Y-75144114D01*
X66644114Y-73346543D01*
X66720775Y-73231811D01*
X66726117Y-73218916D01*
X66771903Y-73108375D01*
X66773066Y-73105827D01*
X66773578Y-73104332D01*
X66773580Y-73104328D01*
X66800500Y-72968994D01*
X66800500Y-72831006D01*
X66800500Y-70955888D01*
X66805331Y-70939092D01*
X66805147Y-70922261D01*
X66805521Y-70920961D01*
X66808707Y-70910108D01*
X66817692Y-70896124D01*
X66819455Y-70889997D01*
X66825456Y-70880430D01*
X66830843Y-70875657D01*
X66846477Y-70851327D01*
X66870900Y-70840171D01*
X66877755Y-70834099D01*
X66887502Y-70832588D01*
X66910031Y-70822298D01*
X66932789Y-70825568D01*
X66946800Y-70823397D01*
X66960761Y-70829588D01*
X66979186Y-70832236D01*
X66982028Y-70833534D01*
X66996684Y-70845519D01*
X67010670Y-70851722D01*
X67018134Y-70863061D01*
X67030818Y-70873434D01*
X67075760Y-70935289D01*
X67075761Y-70935292D01*
X67131753Y-71012358D01*
X67131758Y-71012365D01*
X67287636Y-71168243D01*
X67287641Y-71168247D01*
X67322922Y-71193879D01*
X67366441Y-71225498D01*
X67366442Y-71225498D01*
X67366443Y-71225499D01*
X67465978Y-71297815D01*
X67594375Y-71363237D01*
X67662393Y-71397895D01*
X67662396Y-71397896D01*
X67733991Y-71421158D01*
X67872049Y-71466015D01*
X68089778Y-71500500D01*
X68089779Y-71500500D01*
X68310221Y-71500500D01*
X68310222Y-71500500D01*
X68527951Y-71466015D01*
X68737606Y-71397895D01*
X68934022Y-71297815D01*
X69112365Y-71168242D01*
X69268242Y-71012365D01*
X69397815Y-70834022D01*
X69497895Y-70637606D01*
X69566015Y-70427951D01*
X69600500Y-70210222D01*
X69600500Y-69989778D01*
X69566015Y-69772049D01*
X69497895Y-69562394D01*
X69497895Y-69562393D01*
X69460861Y-69489711D01*
X69397815Y-69365978D01*
X69366885Y-69323406D01*
X69268247Y-69187641D01*
X69268243Y-69187636D01*
X69268240Y-69187633D01*
X69268237Y-69187629D01*
X69112369Y-69031761D01*
X69112364Y-69031757D01*
X69112363Y-69031756D01*
X69112358Y-69031752D01*
X69048982Y-68985707D01*
X68944625Y-68909887D01*
X68944609Y-68909876D01*
X68934025Y-68902187D01*
X68934024Y-68902186D01*
X68934022Y-68902185D01*
X68927942Y-68899087D01*
X68927939Y-68899085D01*
X68862238Y-68865609D01*
X68862238Y-68865608D01*
X68862236Y-68865608D01*
X68737606Y-68802104D01*
X68737530Y-68802078D01*
X68527954Y-68733985D01*
X68527955Y-68733985D01*
X68399561Y-68713650D01*
X68381946Y-68710860D01*
X68310222Y-68699500D01*
X68310221Y-68699500D01*
X68089774Y-68699500D01*
X68034122Y-68708315D01*
X68017201Y-68710995D01*
X67872043Y-68733985D01*
X67662419Y-68802094D01*
X67662396Y-68802102D01*
X67662392Y-68802104D01*
X67465972Y-68902187D01*
X67287658Y-69031739D01*
X67287629Y-69031761D01*
X67131763Y-69187627D01*
X67131755Y-69187636D01*
X67131737Y-69187660D01*
X67035296Y-69320400D01*
X67035296Y-69320401D01*
X67010699Y-69345712D01*
X67001488Y-69352815D01*
X66936379Y-69378165D01*
X66867901Y-69364291D01*
X66821450Y-69321658D01*
X66820184Y-69319688D01*
X66819457Y-69317212D01*
X66817795Y-69315597D01*
X66813270Y-69296144D01*
X66800500Y-69252650D01*
X66800500Y-69037528D01*
X66802882Y-69013340D01*
X66803109Y-69012200D01*
X66807557Y-68989834D01*
X66814609Y-68966588D01*
X66868054Y-68837557D01*
X66869221Y-68835001D01*
X66869730Y-68833510D01*
X66869735Y-68833501D01*
X66869737Y-68833497D01*
X66894352Y-68709748D01*
X66900500Y-68678844D01*
X66900500Y-68520971D01*
X66900064Y-68518966D01*
X66884961Y-68443039D01*
X66869737Y-68366503D01*
X66828316Y-68266503D01*
X66822467Y-68252383D01*
X66809402Y-68220840D01*
X66809399Y-68220833D01*
X66809397Y-68220827D01*
X66809390Y-68220814D01*
X66721789Y-68089711D01*
X66721786Y-68089707D01*
X66721781Y-68089701D01*
X66610297Y-67978217D01*
X66610291Y-67978212D01*
X66610290Y-67978211D01*
X66479191Y-67890613D01*
X66479190Y-67890612D01*
X66479185Y-67890609D01*
X66479172Y-67890602D01*
X66479165Y-67890598D01*
X66333502Y-67830264D01*
X66333471Y-67830257D01*
X66178847Y-67799500D01*
X66178845Y-67799500D01*
X66178842Y-67799500D01*
X66021158Y-67799500D01*
X66021155Y-67799500D01*
X66021153Y-67799500D01*
X65866527Y-67830257D01*
X65866496Y-67830264D01*
X65720833Y-67890598D01*
X65720824Y-67890603D01*
X65720807Y-67890613D01*
X65589708Y-67978211D01*
X65589707Y-67978212D01*
X65589701Y-67978217D01*
X65478217Y-68089701D01*
X65478212Y-68089707D01*
X65478211Y-68089708D01*
X65390613Y-68220807D01*
X65390603Y-68220824D01*
X65390598Y-68220833D01*
X65330264Y-68366496D01*
X65330257Y-68366527D01*
X65299500Y-68521150D01*
X65299500Y-68521153D01*
X65299500Y-68678846D01*
X65299500Y-68678848D01*
X65299499Y-68678848D01*
X65330257Y-68833471D01*
X65330264Y-68833502D01*
X65379147Y-68951517D01*
X65379379Y-68953681D01*
X65380689Y-68955424D01*
X65387875Y-68985707D01*
X65388837Y-68994650D01*
X65385671Y-69012200D01*
X65386616Y-69020986D01*
X65381425Y-69035741D01*
X65376435Y-69063410D01*
X65328828Y-69114550D01*
X65261129Y-69131833D01*
X65200386Y-69113410D01*
X65196026Y-69110717D01*
X65189435Y-69105502D01*
X65187058Y-69104621D01*
X65185206Y-69102156D01*
X65173510Y-69092903D01*
X65112363Y-69031756D01*
X65112358Y-69031752D01*
X65048982Y-68985707D01*
X64944625Y-68909887D01*
X64944609Y-68909876D01*
X64934025Y-68902187D01*
X64934024Y-68902186D01*
X64934022Y-68902185D01*
X64927942Y-68899087D01*
X64927939Y-68899085D01*
X64862238Y-68865609D01*
X64862238Y-68865608D01*
X64862236Y-68865608D01*
X64737606Y-68802104D01*
X64737530Y-68802078D01*
X64527954Y-68733985D01*
X64527955Y-68733985D01*
X64399561Y-68713650D01*
X64381946Y-68710860D01*
X64310222Y-68699500D01*
X64310221Y-68699500D01*
X64089774Y-68699500D01*
X64034122Y-68708315D01*
X64017201Y-68710995D01*
X63872043Y-68733985D01*
X63662419Y-68802094D01*
X63662396Y-68802102D01*
X63662392Y-68802104D01*
X63465972Y-68902187D01*
X63287658Y-69031739D01*
X63287629Y-69031761D01*
X63131761Y-69187629D01*
X63131739Y-69187658D01*
X63002187Y-69365972D01*
X62902104Y-69562392D01*
X62902102Y-69562396D01*
X62902094Y-69562419D01*
X62833985Y-69772043D01*
X62817017Y-69879179D01*
X62817017Y-69879180D01*
X62799500Y-69989773D01*
X62799500Y-70210223D01*
X62805800Y-70249999D01*
X62805800Y-70250000D01*
X62833985Y-70427955D01*
X62902094Y-70637579D01*
X62902102Y-70637602D01*
X62902104Y-70637606D01*
X62955498Y-70742395D01*
X62955498Y-70742397D01*
X62955499Y-70742397D01*
X62992653Y-70815316D01*
X63002183Y-70834018D01*
X63002191Y-70834031D01*
X63131739Y-71012341D01*
X63131761Y-71012369D01*
X63287627Y-71168235D01*
X63287635Y-71168242D01*
X63287636Y-71168243D01*
X63287641Y-71168247D01*
X63324248Y-71194843D01*
X63366441Y-71225498D01*
X63366442Y-71225498D01*
X63366443Y-71225499D01*
X63465978Y-71297815D01*
X63594375Y-71363237D01*
X63662393Y-71397895D01*
X63662396Y-71397896D01*
X63733991Y-71421158D01*
X63872049Y-71466015D01*
X64089778Y-71500500D01*
X64089779Y-71500500D01*
X64310221Y-71500500D01*
X64310222Y-71500500D01*
X64527951Y-71466015D01*
X64737606Y-71397895D01*
X64934022Y-71297815D01*
X65095536Y-71180469D01*
X65112357Y-71168248D01*
X65112357Y-71168247D01*
X65112365Y-71168242D01*
X65175217Y-71105389D01*
X65203457Y-71084248D01*
X65213391Y-71078824D01*
X65281661Y-71063971D01*
X65347126Y-71088385D01*
X65388999Y-71144317D01*
X65389001Y-71144321D01*
X65391682Y-71151509D01*
X65399500Y-71194843D01*
X65399500Y-72540651D01*
X65394476Y-72575588D01*
X65387064Y-72600829D01*
X65355769Y-72653573D01*
X64158769Y-73850573D01*
X64130518Y-73871722D01*
X64107430Y-73884330D01*
X64048000Y-73899500D01*
X62930998Y-73899500D01*
X62828697Y-73919848D01*
X62828698Y-73919849D01*
X62828688Y-73919851D01*
X62828567Y-73919875D01*
X62795673Y-73926419D01*
X62795670Y-73926420D01*
X62668193Y-73979222D01*
X62668186Y-73979226D01*
X62553449Y-74055890D01*
X62553448Y-74055891D01*
X61265884Y-75343456D01*
X61265883Y-75343457D01*
X61237006Y-75386677D01*
X61226203Y-75396445D01*
X61220601Y-75406440D01*
X61213422Y-75412933D01*
X61204746Y-75420184D01*
X61195506Y-75424205D01*
X61192113Y-75427275D01*
X61182210Y-75432540D01*
X61171112Y-75434824D01*
X61140683Y-75448071D01*
X61121708Y-75444996D01*
X61113776Y-75446630D01*
X61100729Y-75441597D01*
X61071712Y-75436896D01*
X61059044Y-75425518D01*
X61048588Y-75421485D01*
X61037167Y-75405869D01*
X61019736Y-75390213D01*
X61018509Y-75388227D01*
X61014855Y-75375361D01*
X61007342Y-75365088D01*
X61006102Y-75344540D01*
X61000000Y-75323052D01*
X61000000Y-69342329D01*
X61005023Y-69307393D01*
X61008112Y-69296875D01*
X61009427Y-69292394D01*
X61047172Y-69233644D01*
X61048541Y-69232457D01*
X61103420Y-69204977D01*
X61110979Y-69203333D01*
X61137332Y-69200500D01*
X61402404Y-69200500D01*
X61433546Y-69204977D01*
X61437336Y-69205521D01*
X61469150Y-69214863D01*
X61503098Y-69230735D01*
X61620814Y-69309390D01*
X61620827Y-69309397D01*
X61725065Y-69352573D01*
X61766503Y-69369737D01*
X61916638Y-69399601D01*
X61918472Y-69400064D01*
X61921155Y-69400500D01*
X62078844Y-69400500D01*
X62082964Y-69400500D01*
X62090814Y-69398118D01*
X62233497Y-69369737D01*
X62379179Y-69309394D01*
X62510289Y-69221789D01*
X62621789Y-69110289D01*
X62709394Y-68979179D01*
X62769737Y-68833497D01*
X62800500Y-68678842D01*
X62800500Y-68521158D01*
X62800500Y-68521155D01*
X62800500Y-68520971D01*
X62800064Y-68518966D01*
X62784961Y-68443039D01*
X62769737Y-68366503D01*
X62728316Y-68266503D01*
X62722467Y-68252383D01*
X62709402Y-68220840D01*
X62709399Y-68220833D01*
X62709397Y-68220827D01*
X62709390Y-68220814D01*
X62621789Y-68089711D01*
X62621786Y-68089707D01*
X62621781Y-68089701D01*
X62510297Y-67978217D01*
X62510291Y-67978212D01*
X62510290Y-67978211D01*
X62379191Y-67890613D01*
X62379190Y-67890612D01*
X62379185Y-67890609D01*
X62379172Y-67890602D01*
X62379165Y-67890598D01*
X62233502Y-67830264D01*
X62233471Y-67830257D01*
X62078847Y-67799500D01*
X62078845Y-67799500D01*
X62078842Y-67799500D01*
X61921158Y-67799500D01*
X61921155Y-67799500D01*
X61921153Y-67799500D01*
X61766527Y-67830257D01*
X61766496Y-67830264D01*
X61620833Y-67890598D01*
X61620824Y-67890603D01*
X61620797Y-67890619D01*
X61503953Y-67968691D01*
X61503952Y-67968694D01*
X61472115Y-67983927D01*
X61440478Y-67993834D01*
X61403422Y-67999500D01*
X61141830Y-67999500D01*
X61106889Y-67994475D01*
X61091890Y-67990070D01*
X61033144Y-67952327D01*
X61031957Y-67950958D01*
X61004477Y-67896083D01*
X61002832Y-67888521D01*
X61000000Y-67862168D01*
X61000000Y-64573053D01*
X61005022Y-64538120D01*
X61012138Y-64513884D01*
X61048161Y-64456653D01*
X65889047Y-60099856D01*
X65918366Y-60080225D01*
X65943842Y-60068006D01*
X65994519Y-60055848D01*
X67206157Y-60027103D01*
X67713050Y-59539068D01*
X67774996Y-59506752D01*
X67792221Y-59504584D01*
X67800434Y-59504131D01*
X67800436Y-59504130D01*
X67800450Y-59504130D01*
X67820964Y-59502133D01*
X67842492Y-59500040D01*
X67980706Y-59460063D01*
X68036464Y-59434871D01*
X68049535Y-59428739D01*
X68168631Y-59348007D01*
X69059966Y-58536554D01*
X69122790Y-58505981D01*
X69143519Y-58504249D01*
X70370584Y-58505075D01*
G37*
%TD.AperFunction*%
%TA.AperFunction,Conductor*%
G36*
X75061567Y-60025185D02*
G01*
X75107322Y-60077989D01*
X75118527Y-60129972D01*
X75115873Y-60827231D01*
X75110720Y-60862139D01*
X75108977Y-60867994D01*
X75099282Y-60882955D01*
X75094197Y-60900040D01*
X75080679Y-60911665D01*
X75070983Y-60926630D01*
X75054738Y-60933975D01*
X75041223Y-60945599D01*
X75023565Y-60948070D01*
X75007319Y-60955417D01*
X74989681Y-60952813D01*
X74972028Y-60955285D01*
X74955837Y-60947818D01*
X74938198Y-60945215D01*
X74924767Y-60933489D01*
X74908581Y-60926025D01*
X74885568Y-60899268D01*
X74883493Y-60896011D01*
X74872365Y-60871608D01*
X74871860Y-60871811D01*
X74869760Y-60866562D01*
X74869738Y-60866509D01*
X74869737Y-60866503D01*
X74869735Y-60866498D01*
X74809397Y-60720827D01*
X74809390Y-60720814D01*
X74721789Y-60589711D01*
X74721786Y-60589707D01*
X74721781Y-60589701D01*
X74610297Y-60478217D01*
X74610291Y-60478212D01*
X74610290Y-60478211D01*
X74479182Y-60390606D01*
X74479139Y-60390584D01*
X74478542Y-60390341D01*
X74466808Y-60385481D01*
X74445365Y-60374020D01*
X74439561Y-60370142D01*
X74428296Y-60363660D01*
X74422383Y-60359233D01*
X74409019Y-60347652D01*
X74278548Y-60217181D01*
X74245063Y-60155858D01*
X74250047Y-60086166D01*
X74291919Y-60030233D01*
X74357383Y-60005816D01*
X74366229Y-60005500D01*
X74994528Y-60005500D01*
X75061567Y-60025185D01*
G37*
%TD.AperFunction*%
%TD*%
%TA.AperFunction,Conductor*%
%TO.N,GNDA*%
G36*
X101158690Y-36819407D02*
G01*
X101194654Y-36868907D01*
X101199499Y-36899500D01*
X101199499Y-51400541D01*
X101180592Y-51458732D01*
X101131092Y-51494696D01*
X101100386Y-51499541D01*
X84000000Y-51479999D01*
X84000000Y-63900517D01*
X83981093Y-63958708D01*
X83931593Y-63994672D01*
X83900519Y-63999516D01*
X76077337Y-63961529D01*
X76019239Y-63942339D01*
X75983516Y-63892665D01*
X75978819Y-63862053D01*
X75995165Y-60495724D01*
X76014354Y-60437630D01*
X76064028Y-60401907D01*
X76119786Y-60400582D01*
X76123402Y-60401550D01*
X76123404Y-60401552D01*
X76250698Y-60435660D01*
X76250700Y-60435660D01*
X76351111Y-60435660D01*
X76409302Y-60454567D01*
X76421115Y-60464656D01*
X76490970Y-60534511D01*
X76490969Y-60534511D01*
X76546919Y-60590460D01*
X76615437Y-60630019D01*
X76615441Y-60630021D01*
X76691865Y-60650499D01*
X76691867Y-60650500D01*
X76691868Y-60650500D01*
X79006679Y-60650500D01*
X79064870Y-60669407D01*
X79076676Y-60679490D01*
X79147686Y-60750500D01*
X79147688Y-60750501D01*
X79147690Y-60750503D01*
X79261810Y-60816390D01*
X79261808Y-60816390D01*
X79261812Y-60816391D01*
X79261814Y-60816392D01*
X79389108Y-60850500D01*
X79389110Y-60850500D01*
X79520890Y-60850500D01*
X79520892Y-60850500D01*
X79648186Y-60816392D01*
X79648188Y-60816390D01*
X79648190Y-60816390D01*
X79762309Y-60750503D01*
X79762309Y-60750502D01*
X79762314Y-60750500D01*
X79855500Y-60657314D01*
X79884368Y-60607314D01*
X79921390Y-60543190D01*
X79921390Y-60543188D01*
X79921392Y-60543186D01*
X79955500Y-60415892D01*
X79955500Y-60284108D01*
X79921392Y-60156814D01*
X79921390Y-60156811D01*
X79921390Y-60156809D01*
X79855503Y-60042690D01*
X79855501Y-60042688D01*
X79855500Y-60042686D01*
X79762314Y-59949500D01*
X79762311Y-59949498D01*
X79762309Y-59949496D01*
X79648189Y-59883609D01*
X79648191Y-59883609D01*
X79594668Y-59869268D01*
X79520892Y-59849500D01*
X79389108Y-59849500D01*
X79315332Y-59869268D01*
X79261809Y-59883609D01*
X79147690Y-59949496D01*
X79147689Y-59949497D01*
X79147686Y-59949499D01*
X79147686Y-59949500D01*
X79076680Y-60020505D01*
X79022166Y-60048281D01*
X79006679Y-60049500D01*
X76916090Y-60049500D01*
X76857899Y-60030593D01*
X76821935Y-59981093D01*
X76817090Y-59950500D01*
X76817090Y-59869269D01*
X76811793Y-59849500D01*
X76782982Y-59741974D01*
X76782980Y-59741971D01*
X76782980Y-59741969D01*
X76717093Y-59627850D01*
X76717091Y-59627848D01*
X76717090Y-59627846D01*
X76623904Y-59534660D01*
X76623901Y-59534658D01*
X76623899Y-59534656D01*
X76509779Y-59468769D01*
X76509781Y-59468769D01*
X76460389Y-59455535D01*
X76382482Y-59434660D01*
X76250698Y-59434660D01*
X76123404Y-59468768D01*
X76123403Y-59468768D01*
X76123401Y-59468769D01*
X76091241Y-59487336D01*
X76041148Y-59497981D01*
X76041148Y-59500000D01*
X76031651Y-59500000D01*
X76031392Y-59500055D01*
X76031268Y-59500000D01*
X76000000Y-59500000D01*
X71099000Y-59500000D01*
X71040809Y-59481093D01*
X71004845Y-59431593D01*
X71000000Y-59401000D01*
X71000000Y-58000001D01*
X71000000Y-58000000D01*
X68900000Y-57998586D01*
X68899999Y-57998586D01*
X67828332Y-58974207D01*
X67772574Y-58999399D01*
X67761686Y-59000000D01*
X65000000Y-59000000D01*
X60000000Y-64000000D01*
X60000000Y-64000001D01*
X60000000Y-68265292D01*
X59986737Y-68314792D01*
X59933608Y-68406812D01*
X59917644Y-68466392D01*
X59899500Y-68534108D01*
X59899500Y-68665892D01*
X59919099Y-68739037D01*
X59933609Y-68793190D01*
X59986736Y-68885207D01*
X60000000Y-68934707D01*
X60000000Y-85901000D01*
X59981093Y-85959191D01*
X59931593Y-85995155D01*
X59901000Y-86000000D01*
X28899500Y-86000000D01*
X28841309Y-85981093D01*
X28805345Y-85931593D01*
X28800500Y-85901000D01*
X28800500Y-79309109D01*
X33099500Y-79309109D01*
X33099500Y-79440893D01*
X33115204Y-79499500D01*
X33133609Y-79568191D01*
X33199496Y-79682310D01*
X33199498Y-79682312D01*
X33199500Y-79682315D01*
X33292686Y-79775501D01*
X33292688Y-79775502D01*
X33292690Y-79775504D01*
X33406810Y-79841391D01*
X33406808Y-79841391D01*
X33406812Y-79841392D01*
X33406814Y-79841393D01*
X33534108Y-79875501D01*
X33534110Y-79875501D01*
X33665890Y-79875501D01*
X33665892Y-79875501D01*
X33793186Y-79841393D01*
X33793188Y-79841391D01*
X33793190Y-79841391D01*
X33907309Y-79775504D01*
X33907309Y-79775503D01*
X33907314Y-79775501D01*
X34000500Y-79682315D01*
X34033309Y-79625489D01*
X34066390Y-79568191D01*
X34066390Y-79568189D01*
X34066392Y-79568187D01*
X34100500Y-79440893D01*
X34100500Y-79440890D01*
X34101347Y-79434459D01*
X34104300Y-79434847D01*
X34119407Y-79388355D01*
X34129496Y-79376542D01*
X34501542Y-79004496D01*
X34556059Y-78976719D01*
X34571546Y-78975500D01*
X43450565Y-78975500D01*
X46803455Y-78975500D01*
X46861646Y-78994407D01*
X46873459Y-79004496D01*
X49970504Y-82101541D01*
X49998281Y-82156058D01*
X49998549Y-82159471D01*
X49998653Y-82159458D01*
X49999499Y-82165889D01*
X50033609Y-82293190D01*
X50099496Y-82407309D01*
X50099498Y-82407311D01*
X50099500Y-82407314D01*
X50192686Y-82500500D01*
X50192688Y-82500501D01*
X50192690Y-82500503D01*
X50306810Y-82566390D01*
X50306808Y-82566390D01*
X50306812Y-82566391D01*
X50306814Y-82566392D01*
X50434108Y-82600500D01*
X50434110Y-82600500D01*
X50565890Y-82600500D01*
X50565892Y-82600500D01*
X50693186Y-82566392D01*
X50693188Y-82566390D01*
X50693190Y-82566390D01*
X50807309Y-82500503D01*
X50807309Y-82500502D01*
X50807314Y-82500500D01*
X50900500Y-82407314D01*
X50904434Y-82400500D01*
X50966390Y-82293190D01*
X50966390Y-82293188D01*
X50966392Y-82293186D01*
X51000500Y-82165892D01*
X51000500Y-82034108D01*
X50966392Y-81906814D01*
X50966390Y-81906811D01*
X50966390Y-81906809D01*
X50900503Y-81792690D01*
X50900501Y-81792688D01*
X50900500Y-81792686D01*
X50807314Y-81699500D01*
X50807311Y-81699498D01*
X50807309Y-81699496D01*
X50693189Y-81633609D01*
X50693191Y-81633609D01*
X50565889Y-81599499D01*
X50559458Y-81598653D01*
X50559846Y-81595699D01*
X50513354Y-81580593D01*
X50501541Y-81570504D01*
X47230563Y-78299526D01*
X47230563Y-78299525D01*
X47144941Y-78250091D01*
X47144934Y-78250088D01*
X47097185Y-78237294D01*
X47097184Y-78237294D01*
X47049438Y-78224500D01*
X47049436Y-78224500D01*
X47049435Y-78224500D01*
X43974500Y-78224500D01*
X43916309Y-78205593D01*
X43880345Y-78156093D01*
X43875500Y-78125500D01*
X43875500Y-76773321D01*
X43894407Y-76715130D01*
X43896633Y-76712523D01*
X43896551Y-76712460D01*
X43900496Y-76707317D01*
X43900500Y-76707314D01*
X43908946Y-76692686D01*
X43966390Y-76593190D01*
X43966390Y-76593188D01*
X43966392Y-76593186D01*
X44000500Y-76465892D01*
X44000500Y-76334108D01*
X43966392Y-76206814D01*
X43966390Y-76206811D01*
X43966390Y-76206809D01*
X43900503Y-76092690D01*
X43900501Y-76092688D01*
X43900500Y-76092686D01*
X43807314Y-75999500D01*
X43807311Y-75999498D01*
X43807309Y-75999496D01*
X43693189Y-75933609D01*
X43693191Y-75933609D01*
X43643799Y-75920375D01*
X43565892Y-75899500D01*
X43434108Y-75899500D01*
X43356200Y-75920375D01*
X43306809Y-75933609D01*
X43192690Y-75999496D01*
X43099496Y-76092690D01*
X43033609Y-76206809D01*
X43033608Y-76206814D01*
X42999500Y-76334108D01*
X42999500Y-76465892D01*
X43017644Y-76533608D01*
X43033609Y-76593190D01*
X43099496Y-76707309D01*
X43103449Y-76712460D01*
X43101086Y-76714273D01*
X43123281Y-76757834D01*
X43124500Y-76773321D01*
X43124500Y-78125500D01*
X43105593Y-78183691D01*
X43056093Y-78219655D01*
X43025500Y-78224500D01*
X34424437Y-78224500D01*
X34325565Y-78224500D01*
X34277814Y-78237295D01*
X34277813Y-78237294D01*
X34230063Y-78250089D01*
X34230059Y-78250091D01*
X34144437Y-78299525D01*
X34144438Y-78299526D01*
X33598459Y-78845505D01*
X33543942Y-78873282D01*
X33540528Y-78873550D01*
X33540542Y-78873654D01*
X33534110Y-78874500D01*
X33406809Y-78908610D01*
X33292690Y-78974497D01*
X33199496Y-79067691D01*
X33133609Y-79181810D01*
X33133608Y-79181815D01*
X33099500Y-79309109D01*
X28800500Y-79309109D01*
X28800500Y-54893709D01*
X30649500Y-54893709D01*
X30649500Y-55106290D01*
X30682752Y-55316238D01*
X30748443Y-55518412D01*
X30844948Y-55707815D01*
X30844950Y-55707819D01*
X30969891Y-55879786D01*
X30969893Y-55879788D01*
X30969896Y-55879792D01*
X31120208Y-56030104D01*
X31120211Y-56030106D01*
X31120213Y-56030108D01*
X31292180Y-56155049D01*
X31292184Y-56155051D01*
X31481588Y-56251557D01*
X31683757Y-56317246D01*
X31683758Y-56317246D01*
X31683761Y-56317247D01*
X31893710Y-56350500D01*
X31893713Y-56350500D01*
X32106290Y-56350500D01*
X32316238Y-56317247D01*
X32316239Y-56317246D01*
X32316243Y-56317246D01*
X32518412Y-56251557D01*
X32707816Y-56155051D01*
X32879792Y-56030104D01*
X33030104Y-55879792D01*
X33155051Y-55707816D01*
X33251557Y-55518412D01*
X33317246Y-55316243D01*
X33318660Y-55307314D01*
X33350500Y-55106290D01*
X33350500Y-54893709D01*
X33317247Y-54683761D01*
X33317246Y-54683757D01*
X33251557Y-54481588D01*
X33155051Y-54292184D01*
X33155049Y-54292180D01*
X33030108Y-54120213D01*
X33030106Y-54120211D01*
X33030104Y-54120208D01*
X32879792Y-53969896D01*
X32879788Y-53969893D01*
X32879786Y-53969891D01*
X32707819Y-53844950D01*
X32707815Y-53844948D01*
X32518412Y-53748443D01*
X32316238Y-53682752D01*
X32106290Y-53649500D01*
X32106287Y-53649500D01*
X31893713Y-53649500D01*
X31893710Y-53649500D01*
X31683761Y-53682752D01*
X31481587Y-53748443D01*
X31292184Y-53844948D01*
X31292180Y-53844950D01*
X31120213Y-53969891D01*
X30969891Y-54120213D01*
X30844950Y-54292180D01*
X30844948Y-54292184D01*
X30748443Y-54481587D01*
X30682752Y-54683761D01*
X30649500Y-54893709D01*
X28800500Y-54893709D01*
X28800500Y-51598744D01*
X43699500Y-51598744D01*
X43699500Y-53847273D01*
X43699500Y-53952727D01*
X43721172Y-54033608D01*
X43726794Y-54054592D01*
X43779516Y-54145908D01*
X43779518Y-54145910D01*
X43779520Y-54145913D01*
X48270505Y-58636898D01*
X48298281Y-58691413D01*
X48299500Y-58706900D01*
X48299500Y-59966159D01*
X48286236Y-60015659D01*
X48233609Y-60106809D01*
X48220212Y-60156809D01*
X48199500Y-60234108D01*
X48199500Y-60365892D01*
X48226429Y-60466392D01*
X48233609Y-60493190D01*
X48299496Y-60607309D01*
X48299498Y-60607311D01*
X48299500Y-60607314D01*
X48392686Y-60700500D01*
X48392688Y-60700501D01*
X48392690Y-60700503D01*
X48506810Y-60766390D01*
X48506808Y-60766390D01*
X48506812Y-60766391D01*
X48506814Y-60766392D01*
X48634108Y-60800500D01*
X48634110Y-60800500D01*
X48765890Y-60800500D01*
X48765892Y-60800500D01*
X48893186Y-60766392D01*
X48893188Y-60766390D01*
X48893190Y-60766390D01*
X49007309Y-60700503D01*
X49007309Y-60700502D01*
X49007314Y-60700500D01*
X49100500Y-60607314D01*
X49104434Y-60600500D01*
X49166390Y-60493190D01*
X49166390Y-60493188D01*
X49166392Y-60493186D01*
X49200500Y-60365892D01*
X49200500Y-60234108D01*
X49166392Y-60106814D01*
X49166390Y-60106811D01*
X49166390Y-60106809D01*
X49113764Y-60015659D01*
X49100500Y-59966159D01*
X49100500Y-58447274D01*
X49096972Y-58434108D01*
X49073207Y-58345413D01*
X49020480Y-58254087D01*
X48945913Y-58179519D01*
X48945913Y-58179520D01*
X48202323Y-57435930D01*
X77349500Y-57435930D01*
X77349500Y-57564069D01*
X77374499Y-57689742D01*
X77374500Y-57689747D01*
X77423534Y-57808125D01*
X77423538Y-57808133D01*
X77466365Y-57872226D01*
X77494724Y-57914669D01*
X77585331Y-58005276D01*
X77627733Y-58033608D01*
X77691866Y-58076461D01*
X77691870Y-58076463D01*
X77691873Y-58076465D01*
X77810256Y-58125501D01*
X77935931Y-58150500D01*
X77935932Y-58150500D01*
X78064068Y-58150500D01*
X78064069Y-58150500D01*
X78189744Y-58125501D01*
X78308127Y-58076465D01*
X78414669Y-58005276D01*
X78505276Y-57914669D01*
X78576465Y-57808127D01*
X78625501Y-57689744D01*
X78650500Y-57564069D01*
X78650500Y-57435931D01*
X78625501Y-57310256D01*
X78576465Y-57191873D01*
X78576463Y-57191870D01*
X78576461Y-57191866D01*
X78514743Y-57099500D01*
X78505276Y-57085331D01*
X78414669Y-56994724D01*
X78372226Y-56966365D01*
X78308133Y-56923538D01*
X78308125Y-56923534D01*
X78189747Y-56874500D01*
X78189745Y-56874499D01*
X78189744Y-56874499D01*
X78064069Y-56849500D01*
X77935931Y-56849500D01*
X77935930Y-56849500D01*
X77873093Y-56861999D01*
X77810256Y-56874499D01*
X77810255Y-56874499D01*
X77810252Y-56874500D01*
X77691874Y-56923534D01*
X77691866Y-56923538D01*
X77585331Y-56994724D01*
X77585327Y-56994727D01*
X77494727Y-57085327D01*
X77494724Y-57085331D01*
X77423538Y-57191866D01*
X77423534Y-57191874D01*
X77374500Y-57310252D01*
X77374499Y-57310257D01*
X77349500Y-57435930D01*
X48202323Y-57435930D01*
X44529496Y-53763103D01*
X44501719Y-53708586D01*
X44500500Y-53693099D01*
X44500500Y-51858370D01*
X44519407Y-51800179D01*
X44529484Y-51788379D01*
X44788368Y-51529494D01*
X44842883Y-51501719D01*
X44858370Y-51500500D01*
X44965890Y-51500500D01*
X44965892Y-51500500D01*
X45093186Y-51466392D01*
X45093188Y-51466390D01*
X45093190Y-51466390D01*
X45207309Y-51400503D01*
X45207309Y-51400502D01*
X45207314Y-51400500D01*
X45300500Y-51307314D01*
X45366392Y-51193186D01*
X45400500Y-51065892D01*
X45400500Y-50934108D01*
X45366392Y-50806814D01*
X45366390Y-50806811D01*
X45366390Y-50806809D01*
X45300503Y-50692690D01*
X45300501Y-50692688D01*
X45300500Y-50692686D01*
X45207314Y-50599500D01*
X45207311Y-50599498D01*
X45207309Y-50599496D01*
X45093189Y-50533609D01*
X45093191Y-50533609D01*
X45041937Y-50519876D01*
X44965892Y-50499500D01*
X44834108Y-50499500D01*
X44758063Y-50519876D01*
X44706809Y-50533609D01*
X44592688Y-50599498D01*
X44531590Y-50660595D01*
X44511096Y-50676321D01*
X44505564Y-50679515D01*
X44505560Y-50679518D01*
X43779516Y-51405562D01*
X43726793Y-51496882D01*
X43726792Y-51496882D01*
X43726793Y-51496883D01*
X43706290Y-51573402D01*
X43699500Y-51598744D01*
X28800500Y-51598744D01*
X28800500Y-49134108D01*
X48099500Y-49134108D01*
X48099500Y-49265892D01*
X48129579Y-49378151D01*
X48133609Y-49393190D01*
X48199496Y-49507309D01*
X48203449Y-49512460D01*
X48201086Y-49514273D01*
X48223281Y-49557834D01*
X48224500Y-49573321D01*
X48224500Y-55926678D01*
X48205593Y-55984869D01*
X48203367Y-55987477D01*
X48203449Y-55987540D01*
X48199496Y-55992690D01*
X48133609Y-56106809D01*
X48117524Y-56166841D01*
X48099500Y-56234108D01*
X48099500Y-56365892D01*
X48116797Y-56430445D01*
X48133609Y-56493190D01*
X48199496Y-56607309D01*
X48199498Y-56607311D01*
X48199500Y-56607314D01*
X48292686Y-56700500D01*
X48292688Y-56700501D01*
X48292690Y-56700503D01*
X48406810Y-56766390D01*
X48406808Y-56766390D01*
X48406812Y-56766391D01*
X48406814Y-56766392D01*
X48534108Y-56800500D01*
X48534110Y-56800500D01*
X48665890Y-56800500D01*
X48665892Y-56800500D01*
X48793186Y-56766392D01*
X48793188Y-56766390D01*
X48793190Y-56766390D01*
X48907309Y-56700503D01*
X48907309Y-56700502D01*
X48907314Y-56700500D01*
X49000500Y-56607314D01*
X49003886Y-56601449D01*
X49066390Y-56493190D01*
X49066390Y-56493188D01*
X49066392Y-56493186D01*
X49100500Y-56365892D01*
X49100500Y-56234108D01*
X49066392Y-56106814D01*
X49066390Y-56106811D01*
X49066390Y-56106809D01*
X49000503Y-55992690D01*
X48996551Y-55987540D01*
X48998901Y-55985735D01*
X48976706Y-55942082D01*
X48975500Y-55926678D01*
X48975500Y-49573321D01*
X48994407Y-49515130D01*
X48996633Y-49512523D01*
X48996551Y-49512460D01*
X49000496Y-49507317D01*
X49000500Y-49507314D01*
X49000792Y-49506809D01*
X49066390Y-49393190D01*
X49066390Y-49393188D01*
X49066392Y-49393186D01*
X49100500Y-49265892D01*
X49100500Y-49134108D01*
X49066392Y-49006814D01*
X49066390Y-49006811D01*
X49066390Y-49006809D01*
X49000503Y-48892690D01*
X49000501Y-48892688D01*
X49000500Y-48892686D01*
X48907314Y-48799500D01*
X48907311Y-48799498D01*
X48907309Y-48799496D01*
X48793189Y-48733609D01*
X48793191Y-48733609D01*
X48743799Y-48720375D01*
X48665892Y-48699500D01*
X48534108Y-48699500D01*
X48456200Y-48720375D01*
X48406809Y-48733609D01*
X48292690Y-48799496D01*
X48199496Y-48892690D01*
X48133609Y-49006809D01*
X48126428Y-49033609D01*
X48099500Y-49134108D01*
X28800500Y-49134108D01*
X28800500Y-47916230D01*
X29649500Y-47916230D01*
X29649500Y-48083769D01*
X29682183Y-48248079D01*
X29682185Y-48248085D01*
X29746296Y-48402862D01*
X29762156Y-48426598D01*
X29839374Y-48542162D01*
X29957838Y-48660626D01*
X30097137Y-48753703D01*
X30251918Y-48817816D01*
X30416233Y-48850500D01*
X30416234Y-48850500D01*
X30583766Y-48850500D01*
X30583767Y-48850500D01*
X30748082Y-48817816D01*
X30902863Y-48753703D01*
X31042162Y-48660626D01*
X31160626Y-48542162D01*
X31253703Y-48402863D01*
X31317816Y-48248082D01*
X31350500Y-48083767D01*
X31350500Y-47916233D01*
X31350499Y-47916230D01*
X32149500Y-47916230D01*
X32149500Y-48083769D01*
X32182183Y-48248079D01*
X32182185Y-48248085D01*
X32246296Y-48402862D01*
X32262156Y-48426598D01*
X32339374Y-48542162D01*
X32457838Y-48660626D01*
X32597137Y-48753703D01*
X32751918Y-48817816D01*
X32916233Y-48850500D01*
X32916234Y-48850500D01*
X33083766Y-48850500D01*
X33083767Y-48850500D01*
X33248082Y-48817816D01*
X33402863Y-48753703D01*
X33542162Y-48660626D01*
X33660626Y-48542162D01*
X33753703Y-48402863D01*
X33817816Y-48248082D01*
X33850500Y-48083767D01*
X33850500Y-47921155D01*
X36699500Y-47921155D01*
X36699500Y-48078844D01*
X36730263Y-48233496D01*
X36730263Y-48233498D01*
X36790603Y-48379174D01*
X36790609Y-48379185D01*
X36822290Y-48426598D01*
X36878211Y-48510289D01*
X36989711Y-48621789D01*
X37047775Y-48660586D01*
X37120814Y-48709390D01*
X37120825Y-48709396D01*
X37136740Y-48715988D01*
X37266503Y-48769737D01*
X37421158Y-48800500D01*
X37421159Y-48800500D01*
X38578841Y-48800500D01*
X38578842Y-48800500D01*
X38733497Y-48769737D01*
X38879179Y-48709394D01*
X39010289Y-48621789D01*
X39121789Y-48510289D01*
X39209394Y-48379179D01*
X39269737Y-48233497D01*
X39300500Y-48078842D01*
X39300500Y-47921158D01*
X39269737Y-47766503D01*
X39209394Y-47620821D01*
X39209393Y-47620819D01*
X39209390Y-47620814D01*
X39174017Y-47567876D01*
X39121789Y-47489711D01*
X39010289Y-47378211D01*
X38952170Y-47339377D01*
X38879185Y-47290609D01*
X38879174Y-47290603D01*
X38733497Y-47230263D01*
X38578844Y-47199500D01*
X38578842Y-47199500D01*
X37421158Y-47199500D01*
X37421155Y-47199500D01*
X37266503Y-47230263D01*
X37266501Y-47230263D01*
X37120825Y-47290603D01*
X37120814Y-47290609D01*
X36989711Y-47378211D01*
X36989707Y-47378214D01*
X36878214Y-47489707D01*
X36878211Y-47489711D01*
X36790609Y-47620814D01*
X36790603Y-47620825D01*
X36730263Y-47766501D01*
X36730263Y-47766503D01*
X36699500Y-47921155D01*
X33850500Y-47921155D01*
X33850500Y-47916233D01*
X33817816Y-47751918D01*
X33753703Y-47597137D01*
X33660626Y-47457838D01*
X33542162Y-47339374D01*
X33402863Y-47246297D01*
X33402864Y-47246297D01*
X33402862Y-47246296D01*
X33248085Y-47182185D01*
X33248079Y-47182183D01*
X33083769Y-47149500D01*
X33083767Y-47149500D01*
X32916233Y-47149500D01*
X32916230Y-47149500D01*
X32751920Y-47182183D01*
X32751914Y-47182185D01*
X32597137Y-47246296D01*
X32457838Y-47339374D01*
X32457834Y-47339377D01*
X32339377Y-47457834D01*
X32339374Y-47457838D01*
X32246296Y-47597137D01*
X32182185Y-47751914D01*
X32182183Y-47751920D01*
X32149500Y-47916230D01*
X31350499Y-47916230D01*
X31317816Y-47751918D01*
X31253703Y-47597137D01*
X31160626Y-47457838D01*
X31042162Y-47339374D01*
X30902863Y-47246297D01*
X30902864Y-47246297D01*
X30902862Y-47246296D01*
X30748085Y-47182185D01*
X30748079Y-47182183D01*
X30583769Y-47149500D01*
X30583767Y-47149500D01*
X30416233Y-47149500D01*
X30416230Y-47149500D01*
X30251920Y-47182183D01*
X30251914Y-47182185D01*
X30097137Y-47246296D01*
X29957838Y-47339374D01*
X29957834Y-47339377D01*
X29839377Y-47457834D01*
X29839374Y-47457838D01*
X29746296Y-47597137D01*
X29682185Y-47751914D01*
X29682183Y-47751920D01*
X29649500Y-47916230D01*
X28800500Y-47916230D01*
X28800500Y-42421155D01*
X32199500Y-42421155D01*
X32199500Y-43578844D01*
X32230263Y-43733496D01*
X32230263Y-43733498D01*
X32290603Y-43879174D01*
X32290609Y-43879185D01*
X32343312Y-43958059D01*
X32378211Y-44010289D01*
X32489711Y-44121789D01*
X32524904Y-44145304D01*
X32620814Y-44209390D01*
X32620825Y-44209396D01*
X32674638Y-44231685D01*
X32766503Y-44269737D01*
X32921158Y-44300500D01*
X32921159Y-44300500D01*
X33078841Y-44300500D01*
X33078842Y-44300500D01*
X33233497Y-44269737D01*
X33319514Y-44234108D01*
X50299500Y-44234108D01*
X50299500Y-44365892D01*
X50329579Y-44478151D01*
X50333609Y-44493190D01*
X50399496Y-44607309D01*
X50399498Y-44607311D01*
X50399500Y-44607314D01*
X50470505Y-44678319D01*
X50498281Y-44732834D01*
X50499500Y-44748321D01*
X50499500Y-49251679D01*
X50480593Y-49309870D01*
X50470509Y-49321676D01*
X50399500Y-49392686D01*
X50399497Y-49392689D01*
X50399496Y-49392690D01*
X50333609Y-49506809D01*
X50326775Y-49532314D01*
X50299500Y-49634108D01*
X50299500Y-49765892D01*
X50309852Y-49804525D01*
X50333609Y-49893190D01*
X50399496Y-50007309D01*
X50399498Y-50007311D01*
X50399500Y-50007314D01*
X50492686Y-50100500D01*
X50492688Y-50100501D01*
X50492690Y-50100503D01*
X50606810Y-50166390D01*
X50606808Y-50166390D01*
X50606812Y-50166391D01*
X50606814Y-50166392D01*
X50734108Y-50200500D01*
X50734110Y-50200500D01*
X50865890Y-50200500D01*
X50865892Y-50200500D01*
X50993186Y-50166392D01*
X50993188Y-50166390D01*
X50993190Y-50166390D01*
X51107309Y-50100503D01*
X51107309Y-50100502D01*
X51107314Y-50100500D01*
X51200500Y-50007314D01*
X51200792Y-50006809D01*
X51266390Y-49893190D01*
X51266390Y-49893188D01*
X51266392Y-49893186D01*
X51300500Y-49765892D01*
X51300500Y-49634108D01*
X51266392Y-49506814D01*
X51266390Y-49506811D01*
X51266390Y-49506809D01*
X51200503Y-49392690D01*
X51200501Y-49392688D01*
X51200500Y-49392686D01*
X51129494Y-49321680D01*
X51101719Y-49267166D01*
X51100500Y-49251679D01*
X51100500Y-46413385D01*
X54399500Y-46413385D01*
X54399500Y-46586614D01*
X54426597Y-46757702D01*
X54426598Y-46757706D01*
X54480123Y-46922438D01*
X54480125Y-46922441D01*
X54549956Y-47059495D01*
X54558768Y-47076788D01*
X54660586Y-47216928D01*
X54783072Y-47339414D01*
X54923212Y-47441232D01*
X55077555Y-47519873D01*
X55077557Y-47519873D01*
X55077558Y-47519874D01*
X55077561Y-47519876D01*
X55242293Y-47573401D01*
X55242297Y-47573402D01*
X55413386Y-47600500D01*
X55413389Y-47600500D01*
X55586614Y-47600500D01*
X55757702Y-47573402D01*
X55757706Y-47573401D01*
X55922438Y-47519876D01*
X55922440Y-47519874D01*
X55922445Y-47519873D01*
X56076788Y-47441232D01*
X56216928Y-47339414D01*
X56339414Y-47216928D01*
X56441232Y-47076788D01*
X56519873Y-46922445D01*
X56519874Y-46922440D01*
X56519876Y-46922438D01*
X56573401Y-46757706D01*
X56573402Y-46757702D01*
X56600500Y-46586614D01*
X56600500Y-46413385D01*
X56573402Y-46242297D01*
X56573401Y-46242293D01*
X56519876Y-46077561D01*
X56519874Y-46077558D01*
X56519873Y-46077557D01*
X56519873Y-46077555D01*
X56441232Y-45923212D01*
X56339414Y-45783072D01*
X56216928Y-45660586D01*
X56076788Y-45558768D01*
X56076787Y-45558767D01*
X56076785Y-45558766D01*
X55922441Y-45480125D01*
X55922438Y-45480123D01*
X55757706Y-45426598D01*
X55757702Y-45426597D01*
X55586614Y-45399500D01*
X55586611Y-45399500D01*
X55413389Y-45399500D01*
X55413386Y-45399500D01*
X55242297Y-45426597D01*
X55242293Y-45426598D01*
X55077561Y-45480123D01*
X55077558Y-45480125D01*
X54923214Y-45558766D01*
X54783073Y-45660585D01*
X54660585Y-45783073D01*
X54558766Y-45923214D01*
X54480125Y-46077558D01*
X54480123Y-46077561D01*
X54426598Y-46242293D01*
X54426597Y-46242297D01*
X54399500Y-46413385D01*
X51100500Y-46413385D01*
X51100500Y-44748321D01*
X51119407Y-44690130D01*
X51129490Y-44678323D01*
X51200500Y-44607314D01*
X51266392Y-44493186D01*
X51300500Y-44365892D01*
X51300500Y-44234108D01*
X51266392Y-44106814D01*
X51266390Y-44106811D01*
X51266390Y-44106809D01*
X51200503Y-43992690D01*
X51200501Y-43992688D01*
X51200500Y-43992686D01*
X51107314Y-43899500D01*
X51107311Y-43899498D01*
X51107309Y-43899496D01*
X50993189Y-43833609D01*
X50993191Y-43833609D01*
X50934241Y-43817814D01*
X50865892Y-43799500D01*
X50734108Y-43799500D01*
X50665759Y-43817814D01*
X50606809Y-43833609D01*
X50492690Y-43899496D01*
X50399496Y-43992690D01*
X50333609Y-44106809D01*
X50329595Y-44121789D01*
X50299500Y-44234108D01*
X33319514Y-44234108D01*
X33379179Y-44209394D01*
X33510289Y-44121789D01*
X33621789Y-44010289D01*
X33709394Y-43879179D01*
X33769737Y-43733497D01*
X33800500Y-43578842D01*
X33800500Y-42916230D01*
X37149500Y-42916230D01*
X37149500Y-43083769D01*
X37182183Y-43248079D01*
X37182185Y-43248085D01*
X37246296Y-43402862D01*
X37246297Y-43402863D01*
X37339374Y-43542162D01*
X37457838Y-43660626D01*
X37597137Y-43753703D01*
X37751918Y-43817816D01*
X37916233Y-43850500D01*
X37916234Y-43850500D01*
X38083766Y-43850500D01*
X38083767Y-43850500D01*
X38248082Y-43817816D01*
X38402863Y-43753703D01*
X38542162Y-43660626D01*
X38660626Y-43542162D01*
X38753703Y-43402863D01*
X38817816Y-43248082D01*
X38850500Y-43083767D01*
X38850500Y-42916233D01*
X38817816Y-42751918D01*
X38753703Y-42597137D01*
X38660626Y-42457838D01*
X38616173Y-42413385D01*
X54399500Y-42413385D01*
X54399500Y-42586614D01*
X54426597Y-42757702D01*
X54426598Y-42757706D01*
X54480123Y-42922438D01*
X54480125Y-42922441D01*
X54534983Y-43030108D01*
X54558768Y-43076788D01*
X54660586Y-43216928D01*
X54783072Y-43339414D01*
X54923212Y-43441232D01*
X55077555Y-43519873D01*
X55077557Y-43519873D01*
X55077558Y-43519874D01*
X55077561Y-43519876D01*
X55242293Y-43573401D01*
X55242297Y-43573402D01*
X55413386Y-43600500D01*
X55413389Y-43600500D01*
X55586614Y-43600500D01*
X55757702Y-43573402D01*
X55757706Y-43573401D01*
X55922438Y-43519876D01*
X55922440Y-43519874D01*
X55922445Y-43519873D01*
X56076788Y-43441232D01*
X56216928Y-43339414D01*
X56339414Y-43216928D01*
X56441232Y-43076788D01*
X56519873Y-42922445D01*
X56519874Y-42922440D01*
X56519876Y-42922438D01*
X56573401Y-42757706D01*
X56573402Y-42757702D01*
X56600500Y-42586614D01*
X56600500Y-42413385D01*
X56573402Y-42242297D01*
X56573401Y-42242293D01*
X56519876Y-42077561D01*
X56519874Y-42077558D01*
X56519873Y-42077557D01*
X56519873Y-42077555D01*
X56441232Y-41923212D01*
X56339414Y-41783072D01*
X56216928Y-41660586D01*
X56076788Y-41558768D01*
X56076787Y-41558767D01*
X56076785Y-41558766D01*
X55922441Y-41480125D01*
X55922438Y-41480123D01*
X55757706Y-41426598D01*
X55757702Y-41426597D01*
X55586614Y-41399500D01*
X55586611Y-41399500D01*
X55413389Y-41399500D01*
X55413386Y-41399500D01*
X55242297Y-41426597D01*
X55242293Y-41426598D01*
X55077561Y-41480123D01*
X55077558Y-41480125D01*
X54923214Y-41558766D01*
X54783073Y-41660585D01*
X54660585Y-41783073D01*
X54558766Y-41923214D01*
X54480125Y-42077558D01*
X54480123Y-42077561D01*
X54426598Y-42242293D01*
X54426597Y-42242297D01*
X54399500Y-42413385D01*
X38616173Y-42413385D01*
X38542162Y-42339374D01*
X38402863Y-42246297D01*
X38402864Y-42246297D01*
X38402862Y-42246296D01*
X38248085Y-42182185D01*
X38248079Y-42182183D01*
X38083769Y-42149500D01*
X38083767Y-42149500D01*
X37916233Y-42149500D01*
X37916230Y-42149500D01*
X37751920Y-42182183D01*
X37751914Y-42182185D01*
X37597137Y-42246296D01*
X37457838Y-42339374D01*
X37457834Y-42339377D01*
X37339377Y-42457834D01*
X37339374Y-42457838D01*
X37246296Y-42597137D01*
X37182185Y-42751914D01*
X37182183Y-42751920D01*
X37149500Y-42916230D01*
X33800500Y-42916230D01*
X33800500Y-42421158D01*
X33769737Y-42266503D01*
X33709394Y-42120821D01*
X33709393Y-42120819D01*
X33709390Y-42120814D01*
X33674017Y-42067876D01*
X33621789Y-41989711D01*
X33510289Y-41878211D01*
X33458059Y-41843312D01*
X33379185Y-41790609D01*
X33379174Y-41790603D01*
X33233497Y-41730263D01*
X33078844Y-41699500D01*
X33078842Y-41699500D01*
X32921158Y-41699500D01*
X32921155Y-41699500D01*
X32766503Y-41730263D01*
X32766501Y-41730263D01*
X32620825Y-41790603D01*
X32620814Y-41790609D01*
X32489711Y-41878211D01*
X32489707Y-41878214D01*
X32378214Y-41989707D01*
X32378211Y-41989711D01*
X32290609Y-42120814D01*
X32290603Y-42120825D01*
X32230263Y-42266501D01*
X32230263Y-42266503D01*
X32199500Y-42421155D01*
X28800500Y-42421155D01*
X28800500Y-40634108D01*
X58999500Y-40634108D01*
X58999500Y-40765892D01*
X59020683Y-40844948D01*
X59033609Y-40893190D01*
X59099496Y-41007309D01*
X59099498Y-41007311D01*
X59099500Y-41007314D01*
X59145505Y-41053319D01*
X59173281Y-41107834D01*
X59174500Y-41123321D01*
X59174500Y-49076678D01*
X59155593Y-49134869D01*
X59145504Y-49146681D01*
X59099500Y-49192684D01*
X59099496Y-49192690D01*
X59033609Y-49306809D01*
X59033608Y-49306814D01*
X58999500Y-49434108D01*
X58999500Y-49565892D01*
X59017778Y-49634108D01*
X59033609Y-49693190D01*
X59099496Y-49807309D01*
X59099498Y-49807311D01*
X59099500Y-49807314D01*
X59170505Y-49878319D01*
X59198281Y-49932834D01*
X59199500Y-49948321D01*
X59199500Y-55351679D01*
X59180593Y-55409870D01*
X59170509Y-55421676D01*
X59125794Y-55466392D01*
X59099497Y-55492689D01*
X59099496Y-55492690D01*
X59033609Y-55606809D01*
X59033608Y-55606814D01*
X58999500Y-55734108D01*
X58999500Y-55865892D01*
X59019915Y-55942082D01*
X59033609Y-55993190D01*
X59099496Y-56107309D01*
X59099498Y-56107311D01*
X59099500Y-56107314D01*
X59192686Y-56200500D01*
X59192688Y-56200501D01*
X59192690Y-56200503D01*
X59306810Y-56266390D01*
X59306808Y-56266390D01*
X59306812Y-56266391D01*
X59306814Y-56266392D01*
X59434108Y-56300500D01*
X59434110Y-56300500D01*
X59565890Y-56300500D01*
X59565892Y-56300500D01*
X59693186Y-56266392D01*
X59693188Y-56266390D01*
X59693190Y-56266390D01*
X59807309Y-56200503D01*
X59807309Y-56200502D01*
X59807314Y-56200500D01*
X59900500Y-56107314D01*
X59920101Y-56073365D01*
X59966390Y-55993190D01*
X59966390Y-55993188D01*
X59966392Y-55993186D01*
X60000500Y-55865892D01*
X60000500Y-55734108D01*
X59966392Y-55606814D01*
X59966390Y-55606811D01*
X59966390Y-55606809D01*
X59900503Y-55492690D01*
X59900501Y-55492688D01*
X59900500Y-55492686D01*
X59829494Y-55421680D01*
X59801719Y-55367166D01*
X59800500Y-55351679D01*
X59800500Y-49948321D01*
X59819407Y-49890130D01*
X59829490Y-49878323D01*
X59900500Y-49807314D01*
X59902110Y-49804525D01*
X59966390Y-49693190D01*
X59966390Y-49693188D01*
X59966392Y-49693186D01*
X60000500Y-49565892D01*
X60000500Y-49434108D01*
X60499500Y-49434108D01*
X60499500Y-49565892D01*
X60517778Y-49634108D01*
X60533609Y-49693190D01*
X60599496Y-49807309D01*
X60599498Y-49807311D01*
X60599500Y-49807314D01*
X60670505Y-49878319D01*
X60698281Y-49932834D01*
X60699500Y-49948321D01*
X60699500Y-55351679D01*
X60680593Y-55409870D01*
X60670509Y-55421676D01*
X60625794Y-55466392D01*
X60599497Y-55492689D01*
X60599496Y-55492690D01*
X60533609Y-55606809D01*
X60533608Y-55606814D01*
X60499500Y-55734108D01*
X60499500Y-55865892D01*
X60519915Y-55942082D01*
X60533609Y-55993190D01*
X60599496Y-56107309D01*
X60599498Y-56107311D01*
X60599500Y-56107314D01*
X60692686Y-56200500D01*
X60692688Y-56200501D01*
X60692690Y-56200503D01*
X60806810Y-56266390D01*
X60806808Y-56266390D01*
X60806812Y-56266391D01*
X60806814Y-56266392D01*
X60934108Y-56300500D01*
X60934110Y-56300500D01*
X61065890Y-56300500D01*
X61065892Y-56300500D01*
X61193186Y-56266392D01*
X61193188Y-56266390D01*
X61193190Y-56266390D01*
X61307309Y-56200503D01*
X61307309Y-56200502D01*
X61307314Y-56200500D01*
X61400500Y-56107314D01*
X61420101Y-56073365D01*
X61466390Y-55993190D01*
X61466390Y-55993188D01*
X61466392Y-55993186D01*
X61500500Y-55865892D01*
X61500500Y-55734108D01*
X61466392Y-55606814D01*
X61466390Y-55606811D01*
X61466390Y-55606809D01*
X61400503Y-55492690D01*
X61400501Y-55492688D01*
X61400500Y-55492686D01*
X61329494Y-55421680D01*
X61301719Y-55367166D01*
X61300500Y-55351679D01*
X61300500Y-49948321D01*
X61319407Y-49890130D01*
X61329490Y-49878323D01*
X61400500Y-49807314D01*
X61402110Y-49804525D01*
X61466390Y-49693190D01*
X61466390Y-49693188D01*
X61466392Y-49693186D01*
X61500500Y-49565892D01*
X61500500Y-49434108D01*
X61999500Y-49434108D01*
X61999500Y-49565892D01*
X62017778Y-49634108D01*
X62033609Y-49693190D01*
X62099496Y-49807309D01*
X62099498Y-49807311D01*
X62099500Y-49807314D01*
X62170505Y-49878319D01*
X62198281Y-49932834D01*
X62199500Y-49948321D01*
X62199500Y-55351679D01*
X62180593Y-55409870D01*
X62170509Y-55421676D01*
X62125794Y-55466392D01*
X62099497Y-55492689D01*
X62099496Y-55492690D01*
X62033609Y-55606809D01*
X62033608Y-55606814D01*
X61999500Y-55734108D01*
X61999500Y-55865892D01*
X62019915Y-55942082D01*
X62033609Y-55993190D01*
X62099496Y-56107309D01*
X62099498Y-56107311D01*
X62099500Y-56107314D01*
X62192686Y-56200500D01*
X62192688Y-56200501D01*
X62192690Y-56200503D01*
X62306810Y-56266390D01*
X62306808Y-56266390D01*
X62306812Y-56266391D01*
X62306814Y-56266392D01*
X62434108Y-56300500D01*
X62434110Y-56300500D01*
X62565890Y-56300500D01*
X62565892Y-56300500D01*
X62693186Y-56266392D01*
X62693188Y-56266390D01*
X62693190Y-56266390D01*
X62807309Y-56200503D01*
X62807309Y-56200502D01*
X62807314Y-56200500D01*
X62900500Y-56107314D01*
X62920101Y-56073365D01*
X62966390Y-55993190D01*
X62966390Y-55993188D01*
X62966392Y-55993186D01*
X63000500Y-55865892D01*
X63000500Y-55734108D01*
X62966392Y-55606814D01*
X62924415Y-55534108D01*
X71749185Y-55534108D01*
X71749185Y-55665892D01*
X71767463Y-55734108D01*
X71783294Y-55793190D01*
X71849181Y-55907309D01*
X71849183Y-55907311D01*
X71849185Y-55907314D01*
X71942371Y-56000500D01*
X71942373Y-56000501D01*
X71942375Y-56000503D01*
X72056495Y-56066390D01*
X72056493Y-56066390D01*
X72056497Y-56066391D01*
X72056499Y-56066392D01*
X72183793Y-56100500D01*
X72183795Y-56100500D01*
X72315575Y-56100500D01*
X72315577Y-56100500D01*
X72442871Y-56066392D01*
X72442873Y-56066390D01*
X72442875Y-56066390D01*
X72497145Y-56035057D01*
X73560537Y-56035057D01*
X73560537Y-56166841D01*
X73564201Y-56180515D01*
X73594646Y-56294139D01*
X73660533Y-56408258D01*
X73660535Y-56408260D01*
X73660537Y-56408263D01*
X73753723Y-56501449D01*
X73753725Y-56501450D01*
X73753727Y-56501452D01*
X73867847Y-56567339D01*
X73867845Y-56567339D01*
X73867849Y-56567340D01*
X73867851Y-56567341D01*
X73995145Y-56601449D01*
X73995147Y-56601449D01*
X74126927Y-56601449D01*
X74126929Y-56601449D01*
X74254223Y-56567341D01*
X74254225Y-56567339D01*
X74254227Y-56567339D01*
X74368346Y-56501452D01*
X74368346Y-56501451D01*
X74368351Y-56501449D01*
X74439356Y-56430443D01*
X74493871Y-56402668D01*
X74509358Y-56401449D01*
X76138611Y-56401449D01*
X76138613Y-56401449D01*
X76138614Y-56401448D01*
X76139386Y-56401347D01*
X76152309Y-56400500D01*
X76439563Y-56400500D01*
X76439563Y-56400499D01*
X76515989Y-56380021D01*
X76584511Y-56340460D01*
X76640460Y-56284511D01*
X82412449Y-50512520D01*
X82466964Y-50484745D01*
X82527395Y-50494315D01*
X82577555Y-50519873D01*
X82577557Y-50519873D01*
X82577558Y-50519874D01*
X82577561Y-50519876D01*
X82742293Y-50573401D01*
X82742297Y-50573402D01*
X82913386Y-50600500D01*
X82913389Y-50600500D01*
X83086614Y-50600500D01*
X83257702Y-50573402D01*
X83257706Y-50573401D01*
X83422438Y-50519876D01*
X83422440Y-50519874D01*
X83422445Y-50519873D01*
X83576788Y-50441232D01*
X83716928Y-50339414D01*
X83839414Y-50216928D01*
X83941232Y-50076788D01*
X84019873Y-49922445D01*
X84019874Y-49922440D01*
X84019876Y-49922438D01*
X84073401Y-49757706D01*
X84073402Y-49757702D01*
X84100500Y-49586614D01*
X84100500Y-49413385D01*
X84073402Y-49242297D01*
X84073401Y-49242293D01*
X84019876Y-49077561D01*
X84019874Y-49077558D01*
X84019873Y-49077557D01*
X84019873Y-49077555D01*
X83941232Y-48923212D01*
X83839414Y-48783072D01*
X83716928Y-48660586D01*
X83576788Y-48558768D01*
X83576787Y-48558767D01*
X83576785Y-48558766D01*
X83422441Y-48480125D01*
X83422438Y-48480123D01*
X83257706Y-48426598D01*
X83257702Y-48426597D01*
X83086614Y-48399500D01*
X83086611Y-48399500D01*
X82913389Y-48399500D01*
X82913386Y-48399500D01*
X82742297Y-48426597D01*
X82742293Y-48426598D01*
X82577561Y-48480123D01*
X82577558Y-48480125D01*
X82423214Y-48558766D01*
X82283073Y-48660585D01*
X82160585Y-48783073D01*
X82058766Y-48923214D01*
X81980125Y-49077558D01*
X81980123Y-49077561D01*
X81926598Y-49242293D01*
X81926597Y-49242297D01*
X81899500Y-49413385D01*
X81899500Y-49586614D01*
X81926597Y-49757702D01*
X81926598Y-49757706D01*
X81980123Y-49922438D01*
X81980130Y-49922453D01*
X82005682Y-49972604D01*
X82015253Y-50033036D01*
X81987476Y-50087551D01*
X76304525Y-55770504D01*
X76297631Y-55774016D01*
X76293116Y-55780298D01*
X76271218Y-55787473D01*
X76250008Y-55798281D01*
X76235021Y-55799499D01*
X76234823Y-55799500D01*
X76060438Y-55799500D01*
X76057085Y-55800398D01*
X76047242Y-55800448D01*
X76047159Y-55800421D01*
X76046742Y-55800449D01*
X74509358Y-55800449D01*
X74451167Y-55781542D01*
X74439360Y-55771458D01*
X74368351Y-55700449D01*
X74368348Y-55700447D01*
X74368346Y-55700445D01*
X74254226Y-55634558D01*
X74254228Y-55634558D01*
X74204836Y-55621324D01*
X74126929Y-55600449D01*
X73995145Y-55600449D01*
X73917237Y-55621324D01*
X73867846Y-55634558D01*
X73753727Y-55700445D01*
X73660533Y-55793639D01*
X73594646Y-55907758D01*
X73578589Y-55967686D01*
X73560537Y-56035057D01*
X72497145Y-56035057D01*
X72556994Y-56000503D01*
X72556994Y-56000502D01*
X72556999Y-56000500D01*
X72650185Y-55907314D01*
X72711884Y-55800449D01*
X72716075Y-55793190D01*
X72716075Y-55793188D01*
X72716077Y-55793186D01*
X72748045Y-55673875D01*
X72781369Y-55622563D01*
X72838491Y-55600636D01*
X72843672Y-55600500D01*
X72965890Y-55600500D01*
X72965892Y-55600500D01*
X73093186Y-55566392D01*
X73093188Y-55566390D01*
X73093190Y-55566390D01*
X73207309Y-55500503D01*
X73207309Y-55500502D01*
X73207314Y-55500500D01*
X73300500Y-55407314D01*
X73304434Y-55400500D01*
X73366390Y-55293190D01*
X73366390Y-55293188D01*
X73366392Y-55293186D01*
X73400500Y-55165892D01*
X73400500Y-55165889D01*
X73401615Y-55161728D01*
X73434939Y-55110414D01*
X73492060Y-55088487D01*
X73497242Y-55088351D01*
X73580469Y-55088351D01*
X73580471Y-55088351D01*
X73707765Y-55054243D01*
X73707767Y-55054241D01*
X73707769Y-55054241D01*
X73821888Y-54988354D01*
X73821888Y-54988353D01*
X73821893Y-54988351D01*
X73915079Y-54895165D01*
X73980971Y-54781037D01*
X74015079Y-54653743D01*
X74015079Y-54521959D01*
X73980971Y-54394665D01*
X73980969Y-54394662D01*
X73980969Y-54394660D01*
X73915082Y-54280541D01*
X73915080Y-54280539D01*
X73915079Y-54280537D01*
X73844073Y-54209531D01*
X73816298Y-54155017D01*
X73815079Y-54139530D01*
X73815079Y-53650900D01*
X73833986Y-53592709D01*
X73844075Y-53580896D01*
X74995475Y-52429496D01*
X75049992Y-52401719D01*
X75065479Y-52400500D01*
X78339563Y-52400500D01*
X78339563Y-52400499D01*
X78415989Y-52380021D01*
X78484511Y-52340460D01*
X78540460Y-52284511D01*
X80740460Y-50084511D01*
X80746986Y-50073207D01*
X80780021Y-50015989D01*
X80800500Y-49939562D01*
X80800500Y-47921155D01*
X90699500Y-47921155D01*
X90699500Y-48078844D01*
X90730263Y-48233496D01*
X90730263Y-48233498D01*
X90790603Y-48379174D01*
X90790609Y-48379185D01*
X90822290Y-48426598D01*
X90878211Y-48510289D01*
X90989711Y-48621789D01*
X91047775Y-48660586D01*
X91120814Y-48709390D01*
X91120825Y-48709396D01*
X91136740Y-48715988D01*
X91266503Y-48769737D01*
X91421158Y-48800500D01*
X91421159Y-48800500D01*
X92578841Y-48800500D01*
X92578842Y-48800500D01*
X92733497Y-48769737D01*
X92879179Y-48709394D01*
X93010289Y-48621789D01*
X93121789Y-48510289D01*
X93209394Y-48379179D01*
X93269737Y-48233497D01*
X93300500Y-48078842D01*
X93300500Y-47921158D01*
X93300499Y-47921155D01*
X93299519Y-47916230D01*
X96149500Y-47916230D01*
X96149500Y-48083769D01*
X96182183Y-48248079D01*
X96182185Y-48248085D01*
X96246296Y-48402862D01*
X96262156Y-48426598D01*
X96339374Y-48542162D01*
X96457838Y-48660626D01*
X96597137Y-48753703D01*
X96751918Y-48817816D01*
X96916233Y-48850500D01*
X96916234Y-48850500D01*
X97083766Y-48850500D01*
X97083767Y-48850500D01*
X97248082Y-48817816D01*
X97402863Y-48753703D01*
X97542162Y-48660626D01*
X97660626Y-48542162D01*
X97753703Y-48402863D01*
X97817816Y-48248082D01*
X97850500Y-48083767D01*
X97850500Y-47916233D01*
X97850499Y-47916230D01*
X98649500Y-47916230D01*
X98649500Y-48083769D01*
X98682183Y-48248079D01*
X98682185Y-48248085D01*
X98746296Y-48402862D01*
X98762156Y-48426598D01*
X98839374Y-48542162D01*
X98957838Y-48660626D01*
X99097137Y-48753703D01*
X99251918Y-48817816D01*
X99416233Y-48850500D01*
X99416234Y-48850500D01*
X99583766Y-48850500D01*
X99583767Y-48850500D01*
X99748082Y-48817816D01*
X99902863Y-48753703D01*
X100042162Y-48660626D01*
X100160626Y-48542162D01*
X100253703Y-48402863D01*
X100317816Y-48248082D01*
X100350500Y-48083767D01*
X100350500Y-47916233D01*
X100317816Y-47751918D01*
X100253703Y-47597137D01*
X100160626Y-47457838D01*
X100042162Y-47339374D01*
X99902863Y-47246297D01*
X99902864Y-47246297D01*
X99902862Y-47246296D01*
X99748085Y-47182185D01*
X99748079Y-47182183D01*
X99583769Y-47149500D01*
X99583767Y-47149500D01*
X99416233Y-47149500D01*
X99416230Y-47149500D01*
X99251920Y-47182183D01*
X99251914Y-47182185D01*
X99097137Y-47246296D01*
X98957838Y-47339374D01*
X98957834Y-47339377D01*
X98839377Y-47457834D01*
X98839374Y-47457838D01*
X98746296Y-47597137D01*
X98682185Y-47751914D01*
X98682183Y-47751920D01*
X98649500Y-47916230D01*
X97850499Y-47916230D01*
X97817816Y-47751918D01*
X97753703Y-47597137D01*
X97660626Y-47457838D01*
X97542162Y-47339374D01*
X97402863Y-47246297D01*
X97402864Y-47246297D01*
X97402862Y-47246296D01*
X97248085Y-47182185D01*
X97248079Y-47182183D01*
X97083769Y-47149500D01*
X97083767Y-47149500D01*
X96916233Y-47149500D01*
X96916230Y-47149500D01*
X96751920Y-47182183D01*
X96751914Y-47182185D01*
X96597137Y-47246296D01*
X96457838Y-47339374D01*
X96457834Y-47339377D01*
X96339377Y-47457834D01*
X96339374Y-47457838D01*
X96246296Y-47597137D01*
X96182185Y-47751914D01*
X96182183Y-47751920D01*
X96149500Y-47916230D01*
X93299519Y-47916230D01*
X93295395Y-47895498D01*
X93269737Y-47766503D01*
X93209394Y-47620821D01*
X93209393Y-47620819D01*
X93209390Y-47620814D01*
X93174017Y-47567876D01*
X93121789Y-47489711D01*
X93010289Y-47378211D01*
X92952170Y-47339377D01*
X92879185Y-47290609D01*
X92879174Y-47290603D01*
X92733497Y-47230263D01*
X92578844Y-47199500D01*
X92578842Y-47199500D01*
X91421158Y-47199500D01*
X91421155Y-47199500D01*
X91266503Y-47230263D01*
X91266501Y-47230263D01*
X91120825Y-47290603D01*
X91120814Y-47290609D01*
X90989711Y-47378211D01*
X90989707Y-47378214D01*
X90878214Y-47489707D01*
X90878211Y-47489711D01*
X90790609Y-47620814D01*
X90790603Y-47620825D01*
X90730263Y-47766501D01*
X90730263Y-47766503D01*
X90699500Y-47921155D01*
X80800500Y-47921155D01*
X80800500Y-47131422D01*
X80819407Y-47073232D01*
X80868905Y-47037268D01*
X80922445Y-47019873D01*
X81076788Y-46941232D01*
X81216928Y-46839414D01*
X81339414Y-46716928D01*
X81441232Y-46576788D01*
X81519873Y-46422445D01*
X81519874Y-46422440D01*
X81519876Y-46422438D01*
X81573401Y-46257706D01*
X81573402Y-46257702D01*
X81600500Y-46086614D01*
X81600500Y-45913385D01*
X81573402Y-45742297D01*
X81573401Y-45742293D01*
X81519876Y-45577561D01*
X81519874Y-45577558D01*
X81519873Y-45577557D01*
X81519873Y-45577555D01*
X81441232Y-45423212D01*
X81339414Y-45283072D01*
X81216928Y-45160586D01*
X81076788Y-45058768D01*
X81076787Y-45058767D01*
X81076785Y-45058766D01*
X80922441Y-44980125D01*
X80922438Y-44980123D01*
X80757706Y-44926598D01*
X80757702Y-44926597D01*
X80586614Y-44899500D01*
X80586611Y-44899500D01*
X80413389Y-44899500D01*
X80413386Y-44899500D01*
X80242297Y-44926597D01*
X80242293Y-44926598D01*
X80077561Y-44980123D01*
X80077558Y-44980125D01*
X79923214Y-45058766D01*
X79783073Y-45160585D01*
X79660585Y-45283073D01*
X79558766Y-45423214D01*
X79480125Y-45577558D01*
X79480123Y-45577561D01*
X79426598Y-45742293D01*
X79426597Y-45742297D01*
X79399500Y-45913385D01*
X79399500Y-46086614D01*
X79426597Y-46257702D01*
X79426598Y-46257706D01*
X79480123Y-46422438D01*
X79480125Y-46422441D01*
X79480126Y-46422444D01*
X79480127Y-46422445D01*
X79558768Y-46576788D01*
X79660586Y-46716928D01*
X79783072Y-46839414D01*
X79923212Y-46941232D01*
X79923214Y-46941233D01*
X80077555Y-47019873D01*
X80131092Y-47037268D01*
X80180592Y-47073232D01*
X80199500Y-47131422D01*
X80199500Y-49734521D01*
X80180593Y-49792712D01*
X80170504Y-49804525D01*
X78204525Y-51770504D01*
X78150008Y-51798281D01*
X78134521Y-51799500D01*
X74864479Y-51799500D01*
X74842431Y-51792336D01*
X74819534Y-51788710D01*
X74813885Y-51783061D01*
X74806288Y-51780593D01*
X74792660Y-51761836D01*
X74776269Y-51745445D01*
X74775019Y-51737555D01*
X74770324Y-51731093D01*
X74770324Y-51707907D01*
X74766698Y-51685013D01*
X74770324Y-51677896D01*
X74770324Y-51669907D01*
X74794475Y-51630496D01*
X74895475Y-51529496D01*
X74949992Y-51501719D01*
X74965479Y-51500500D01*
X76639563Y-51500500D01*
X76639563Y-51500499D01*
X76715989Y-51480021D01*
X76784511Y-51440460D01*
X76840460Y-51384511D01*
X78240460Y-49984511D01*
X78247335Y-49972604D01*
X78250923Y-49966390D01*
X78270321Y-49932790D01*
X78280021Y-49915989D01*
X78300500Y-49839562D01*
X78300500Y-43631422D01*
X78319407Y-43573232D01*
X78368905Y-43537268D01*
X78422445Y-43519873D01*
X78576788Y-43441232D01*
X78716928Y-43339414D01*
X78839414Y-43216928D01*
X78941232Y-43076788D01*
X79019873Y-42922445D01*
X79019874Y-42922440D01*
X79019876Y-42922438D01*
X79073401Y-42757706D01*
X79073402Y-42757702D01*
X79100500Y-42586614D01*
X79100500Y-42413385D01*
X79073402Y-42242297D01*
X79073401Y-42242293D01*
X79019876Y-42077561D01*
X79019874Y-42077558D01*
X79019873Y-42077557D01*
X79019873Y-42077555D01*
X78946837Y-41934214D01*
X78941233Y-41923213D01*
X78919797Y-41893709D01*
X83649500Y-41893709D01*
X83649500Y-42106290D01*
X83682752Y-42316238D01*
X83748443Y-42518412D01*
X83844948Y-42707815D01*
X83844950Y-42707819D01*
X83969891Y-42879786D01*
X83969893Y-42879788D01*
X83969896Y-42879792D01*
X84120208Y-43030104D01*
X84120211Y-43030106D01*
X84120213Y-43030108D01*
X84292180Y-43155049D01*
X84292184Y-43155051D01*
X84481588Y-43251557D01*
X84683757Y-43317246D01*
X84683758Y-43317246D01*
X84683761Y-43317247D01*
X84893710Y-43350500D01*
X84893713Y-43350500D01*
X85106290Y-43350500D01*
X85316238Y-43317247D01*
X85316239Y-43317246D01*
X85316243Y-43317246D01*
X85518412Y-43251557D01*
X85707816Y-43155051D01*
X85879792Y-43030104D01*
X85993666Y-42916230D01*
X91149500Y-42916230D01*
X91149500Y-43083769D01*
X91182183Y-43248079D01*
X91182185Y-43248085D01*
X91246296Y-43402862D01*
X91246297Y-43402863D01*
X91339374Y-43542162D01*
X91457838Y-43660626D01*
X91597137Y-43753703D01*
X91751918Y-43817816D01*
X91916233Y-43850500D01*
X91916234Y-43850500D01*
X92083766Y-43850500D01*
X92083767Y-43850500D01*
X92248082Y-43817816D01*
X92402863Y-43753703D01*
X92542162Y-43660626D01*
X92660626Y-43542162D01*
X92753703Y-43402863D01*
X92817816Y-43248082D01*
X92850500Y-43083767D01*
X92850500Y-42916233D01*
X92817816Y-42751918D01*
X92753703Y-42597137D01*
X92660626Y-42457838D01*
X92542162Y-42339374D01*
X92402863Y-42246297D01*
X92402864Y-42246297D01*
X92402862Y-42246296D01*
X92248085Y-42182185D01*
X92248079Y-42182183D01*
X92083769Y-42149500D01*
X92083767Y-42149500D01*
X91916233Y-42149500D01*
X91916230Y-42149500D01*
X91751920Y-42182183D01*
X91751914Y-42182185D01*
X91597137Y-42246296D01*
X91457838Y-42339374D01*
X91457834Y-42339377D01*
X91339377Y-42457834D01*
X91339374Y-42457838D01*
X91246296Y-42597137D01*
X91182185Y-42751914D01*
X91182183Y-42751920D01*
X91149500Y-42916230D01*
X85993666Y-42916230D01*
X86030104Y-42879792D01*
X86155051Y-42707816D01*
X86251557Y-42518412D01*
X86317246Y-42316243D01*
X86325124Y-42266503D01*
X86350500Y-42106290D01*
X86350500Y-41893709D01*
X86317247Y-41683761D01*
X86309717Y-41660585D01*
X86251557Y-41481588D01*
X86155051Y-41292184D01*
X86155049Y-41292180D01*
X86030108Y-41120213D01*
X86030106Y-41120211D01*
X86030104Y-41120208D01*
X85879792Y-40969896D01*
X85879788Y-40969893D01*
X85879786Y-40969891D01*
X85707819Y-40844950D01*
X85707815Y-40844948D01*
X85518412Y-40748443D01*
X85316238Y-40682752D01*
X85106290Y-40649500D01*
X85106287Y-40649500D01*
X84893713Y-40649500D01*
X84893710Y-40649500D01*
X84683761Y-40682752D01*
X84481587Y-40748443D01*
X84292184Y-40844948D01*
X84292180Y-40844950D01*
X84120213Y-40969891D01*
X83969891Y-41120213D01*
X83844950Y-41292180D01*
X83844948Y-41292184D01*
X83748443Y-41481587D01*
X83682752Y-41683761D01*
X83649500Y-41893709D01*
X78919797Y-41893709D01*
X78908537Y-41878211D01*
X78839414Y-41783072D01*
X78716928Y-41660586D01*
X78576788Y-41558768D01*
X78576787Y-41558767D01*
X78576785Y-41558766D01*
X78422441Y-41480125D01*
X78422438Y-41480123D01*
X78257706Y-41426598D01*
X78257702Y-41426597D01*
X78086614Y-41399500D01*
X78086611Y-41399500D01*
X77913389Y-41399500D01*
X77913386Y-41399500D01*
X77742297Y-41426597D01*
X77742293Y-41426598D01*
X77577561Y-41480123D01*
X77577558Y-41480125D01*
X77423214Y-41558766D01*
X77283073Y-41660585D01*
X77160585Y-41783073D01*
X77058766Y-41923214D01*
X76980125Y-42077558D01*
X76980123Y-42077561D01*
X76926598Y-42242293D01*
X76926597Y-42242297D01*
X76899500Y-42413385D01*
X76899500Y-42586614D01*
X76926597Y-42757702D01*
X76926598Y-42757706D01*
X76980123Y-42922438D01*
X76980125Y-42922441D01*
X77034983Y-43030108D01*
X77058768Y-43076788D01*
X77160586Y-43216928D01*
X77283072Y-43339414D01*
X77423212Y-43441232D01*
X77423214Y-43441233D01*
X77577555Y-43519873D01*
X77631092Y-43537268D01*
X77680592Y-43573232D01*
X77699500Y-43631422D01*
X77699500Y-49634521D01*
X77680593Y-49692712D01*
X77670504Y-49704525D01*
X76504525Y-50870504D01*
X76450008Y-50898281D01*
X76434521Y-50899500D01*
X74764478Y-50899500D01*
X74706287Y-50880593D01*
X74670323Y-50831093D01*
X74670323Y-50769907D01*
X74694472Y-50730498D01*
X76640460Y-48784511D01*
X76648990Y-48769737D01*
X76680020Y-48715992D01*
X76680020Y-48715990D01*
X76680022Y-48715988D01*
X76700500Y-48639562D01*
X76700500Y-48560438D01*
X76700500Y-42960438D01*
X76680021Y-42884011D01*
X76677583Y-42879789D01*
X76640460Y-42815489D01*
X76584511Y-42759539D01*
X76584511Y-42759540D01*
X75329496Y-41504525D01*
X75301719Y-41450008D01*
X75300500Y-41434521D01*
X75300500Y-40631423D01*
X75319407Y-40573232D01*
X75368905Y-40537268D01*
X75422445Y-40519873D01*
X75576788Y-40441232D01*
X75716928Y-40339414D01*
X75839414Y-40216928D01*
X75941232Y-40076788D01*
X76019873Y-39922445D01*
X76019874Y-39922440D01*
X76019876Y-39922438D01*
X76073401Y-39757706D01*
X76073402Y-39757702D01*
X76100500Y-39586614D01*
X76100500Y-39413385D01*
X76073402Y-39242297D01*
X76073401Y-39242293D01*
X76019876Y-39077561D01*
X76019874Y-39077558D01*
X76019873Y-39077557D01*
X76019873Y-39077555D01*
X75941232Y-38923212D01*
X75839414Y-38783072D01*
X75716928Y-38660586D01*
X75576788Y-38558768D01*
X75576787Y-38558767D01*
X75576785Y-38558766D01*
X75422441Y-38480125D01*
X75422438Y-38480123D01*
X75257706Y-38426598D01*
X75257702Y-38426597D01*
X75086614Y-38399500D01*
X75086611Y-38399500D01*
X74913389Y-38399500D01*
X74913386Y-38399500D01*
X74742297Y-38426597D01*
X74742293Y-38426598D01*
X74577561Y-38480123D01*
X74577558Y-38480125D01*
X74423214Y-38558766D01*
X74283073Y-38660585D01*
X74160585Y-38783073D01*
X74058766Y-38923214D01*
X73980125Y-39077558D01*
X73980123Y-39077561D01*
X73926598Y-39242293D01*
X73926597Y-39242297D01*
X73899500Y-39413385D01*
X73899500Y-39586614D01*
X73926597Y-39757702D01*
X73926598Y-39757706D01*
X73980123Y-39922438D01*
X73980125Y-39922441D01*
X73980126Y-39922444D01*
X73980127Y-39922445D01*
X74058768Y-40076788D01*
X74160586Y-40216928D01*
X74283072Y-40339414D01*
X74423212Y-40441232D01*
X74423214Y-40441233D01*
X74577555Y-40519873D01*
X74631092Y-40537268D01*
X74680592Y-40573232D01*
X74699500Y-40631422D01*
X74699500Y-41639564D01*
X74719977Y-41715985D01*
X74719978Y-41715986D01*
X74719979Y-41715989D01*
X74758709Y-41783072D01*
X74759540Y-41784511D01*
X76070505Y-43095476D01*
X76098281Y-43149991D01*
X76099500Y-43165478D01*
X76099500Y-48434521D01*
X76080593Y-48492712D01*
X76070504Y-48504525D01*
X72065174Y-52509855D01*
X72065173Y-52509854D01*
X72009224Y-52565804D01*
X71969665Y-52634322D01*
X71969663Y-52634326D01*
X71949185Y-52710750D01*
X71949185Y-55151679D01*
X71930278Y-55209870D01*
X71920194Y-55221676D01*
X71882386Y-55259485D01*
X71849182Y-55292689D01*
X71849181Y-55292690D01*
X71783294Y-55406809D01*
X71767329Y-55466392D01*
X71749185Y-55534108D01*
X62924415Y-55534108D01*
X62900500Y-55492686D01*
X62829494Y-55421680D01*
X62801719Y-55367166D01*
X62800500Y-55351679D01*
X62800500Y-50413385D01*
X66999500Y-50413385D01*
X66999500Y-50586614D01*
X67026597Y-50757702D01*
X67026598Y-50757706D01*
X67080123Y-50922438D01*
X67080125Y-50922441D01*
X67080126Y-50922444D01*
X67080127Y-50922445D01*
X67158768Y-51076788D01*
X67260586Y-51216928D01*
X67383072Y-51339414D01*
X67523212Y-51441232D01*
X67677555Y-51519873D01*
X67677557Y-51519873D01*
X67677558Y-51519874D01*
X67677561Y-51519876D01*
X67842293Y-51573401D01*
X67842297Y-51573402D01*
X68013386Y-51600500D01*
X68013389Y-51600500D01*
X68186614Y-51600500D01*
X68357702Y-51573402D01*
X68357706Y-51573401D01*
X68522438Y-51519876D01*
X68522440Y-51519874D01*
X68522445Y-51519873D01*
X68676788Y-51441232D01*
X68816928Y-51339414D01*
X68939414Y-51216928D01*
X69041232Y-51076788D01*
X69119873Y-50922445D01*
X69119874Y-50922440D01*
X69119876Y-50922438D01*
X69173401Y-50757706D01*
X69173402Y-50757702D01*
X69200500Y-50586614D01*
X69200500Y-50413385D01*
X69173402Y-50242297D01*
X69173401Y-50242293D01*
X69146081Y-50158214D01*
X69146080Y-50158212D01*
X69138248Y-50134108D01*
X69899500Y-50134108D01*
X69899500Y-50265892D01*
X69919200Y-50339414D01*
X69933609Y-50393190D01*
X69999496Y-50507309D01*
X69999498Y-50507311D01*
X69999500Y-50507314D01*
X70092686Y-50600500D01*
X70092688Y-50600501D01*
X70092690Y-50600503D01*
X70206810Y-50666390D01*
X70206808Y-50666390D01*
X70206812Y-50666391D01*
X70206814Y-50666392D01*
X70334108Y-50700500D01*
X70334110Y-50700500D01*
X70465890Y-50700500D01*
X70465892Y-50700500D01*
X70593186Y-50666392D01*
X70593188Y-50666390D01*
X70593190Y-50666390D01*
X70707309Y-50600503D01*
X70707309Y-50600502D01*
X70707314Y-50600500D01*
X70800500Y-50507314D01*
X70800503Y-50507309D01*
X70866390Y-50393190D01*
X70866390Y-50393188D01*
X70866392Y-50393186D01*
X70900500Y-50265892D01*
X70900500Y-50265889D01*
X70901347Y-50259458D01*
X70904300Y-50259846D01*
X70919407Y-50213354D01*
X70929496Y-50201541D01*
X71801541Y-49329496D01*
X71856058Y-49301719D01*
X71859471Y-49301450D01*
X71859458Y-49301347D01*
X71865889Y-49300500D01*
X71865892Y-49300500D01*
X71993186Y-49266392D01*
X71993188Y-49266390D01*
X71993190Y-49266390D01*
X72107309Y-49200503D01*
X72107309Y-49200502D01*
X72107314Y-49200500D01*
X72200500Y-49107314D01*
X72200503Y-49107309D01*
X72266390Y-48993190D01*
X72266390Y-48993188D01*
X72266392Y-48993186D01*
X72300500Y-48865892D01*
X72300500Y-48734108D01*
X72266392Y-48606814D01*
X72266390Y-48606811D01*
X72266390Y-48606809D01*
X72200503Y-48492690D01*
X72200501Y-48492688D01*
X72200500Y-48492686D01*
X72107314Y-48399500D01*
X72107311Y-48399498D01*
X72107309Y-48399496D01*
X71993189Y-48333609D01*
X71993191Y-48333609D01*
X71943799Y-48320375D01*
X71865892Y-48299500D01*
X71734108Y-48299500D01*
X71656200Y-48320375D01*
X71606809Y-48333609D01*
X71492690Y-48399496D01*
X71399496Y-48492690D01*
X71333609Y-48606809D01*
X71299499Y-48734110D01*
X71298653Y-48740542D01*
X71295699Y-48740153D01*
X71280593Y-48786646D01*
X71270504Y-48798459D01*
X70398459Y-49670504D01*
X70343942Y-49698281D01*
X70340528Y-49698549D01*
X70340542Y-49698653D01*
X70334110Y-49699499D01*
X70206809Y-49733609D01*
X70092690Y-49799496D01*
X69999496Y-49892690D01*
X69933609Y-50006809D01*
X69914859Y-50076788D01*
X69899500Y-50134108D01*
X69138248Y-50134108D01*
X69119873Y-50077555D01*
X69041232Y-49923212D01*
X68939414Y-49783072D01*
X68816928Y-49660586D01*
X68676788Y-49558768D01*
X68676787Y-49558767D01*
X68676785Y-49558766D01*
X68522441Y-49480125D01*
X68522438Y-49480123D01*
X68357706Y-49426598D01*
X68357702Y-49426597D01*
X68186614Y-49399500D01*
X68186611Y-49399500D01*
X68013389Y-49399500D01*
X68013386Y-49399500D01*
X67842297Y-49426597D01*
X67842293Y-49426598D01*
X67677561Y-49480123D01*
X67677558Y-49480125D01*
X67523214Y-49558766D01*
X67383073Y-49660585D01*
X67260585Y-49783073D01*
X67158766Y-49923214D01*
X67080125Y-50077558D01*
X67080123Y-50077561D01*
X67026598Y-50242293D01*
X67026597Y-50242297D01*
X66999500Y-50413385D01*
X62800500Y-50413385D01*
X62800500Y-49948321D01*
X62819407Y-49890130D01*
X62829490Y-49878323D01*
X62900500Y-49807314D01*
X62902110Y-49804525D01*
X62966390Y-49693190D01*
X62966390Y-49693188D01*
X62966392Y-49693186D01*
X63000500Y-49565892D01*
X63000500Y-49434108D01*
X62966392Y-49306814D01*
X62966390Y-49306811D01*
X62966390Y-49306809D01*
X62900503Y-49192690D01*
X62900501Y-49192688D01*
X62900500Y-49192686D01*
X62807314Y-49099500D01*
X62807311Y-49099498D01*
X62807309Y-49099496D01*
X62693189Y-49033609D01*
X62693191Y-49033609D01*
X62643799Y-49020375D01*
X62565892Y-48999500D01*
X62434108Y-48999500D01*
X62356200Y-49020375D01*
X62306809Y-49033609D01*
X62192690Y-49099496D01*
X62099496Y-49192690D01*
X62033609Y-49306809D01*
X62033608Y-49306814D01*
X61999500Y-49434108D01*
X61500500Y-49434108D01*
X61466392Y-49306814D01*
X61466390Y-49306811D01*
X61466390Y-49306809D01*
X61400503Y-49192690D01*
X61400501Y-49192688D01*
X61400500Y-49192686D01*
X61307314Y-49099500D01*
X61307311Y-49099498D01*
X61307309Y-49099496D01*
X61193189Y-49033609D01*
X61193191Y-49033609D01*
X61143799Y-49020375D01*
X61065892Y-48999500D01*
X60934108Y-48999500D01*
X60856200Y-49020375D01*
X60806809Y-49033609D01*
X60692690Y-49099496D01*
X60599496Y-49192690D01*
X60533609Y-49306809D01*
X60533608Y-49306814D01*
X60499500Y-49434108D01*
X60000500Y-49434108D01*
X59966392Y-49306814D01*
X59966390Y-49306811D01*
X59966390Y-49306809D01*
X59900503Y-49192690D01*
X59900499Y-49192684D01*
X59854496Y-49146681D01*
X59826719Y-49092164D01*
X59825500Y-49076678D01*
X59825500Y-46413385D01*
X66999500Y-46413385D01*
X66999500Y-46586614D01*
X67026597Y-46757702D01*
X67026598Y-46757706D01*
X67080123Y-46922438D01*
X67080125Y-46922441D01*
X67149956Y-47059495D01*
X67158768Y-47076788D01*
X67260586Y-47216928D01*
X67383072Y-47339414D01*
X67523212Y-47441232D01*
X67677555Y-47519873D01*
X67677557Y-47519873D01*
X67677558Y-47519874D01*
X67677561Y-47519876D01*
X67842293Y-47573401D01*
X67842297Y-47573402D01*
X68013386Y-47600500D01*
X68013389Y-47600500D01*
X68186614Y-47600500D01*
X68357702Y-47573402D01*
X68357706Y-47573401D01*
X68522438Y-47519876D01*
X68522440Y-47519874D01*
X68522445Y-47519873D01*
X68676788Y-47441232D01*
X68816928Y-47339414D01*
X68939414Y-47216928D01*
X69041232Y-47076788D01*
X69119873Y-46922445D01*
X69119874Y-46922440D01*
X69119876Y-46922438D01*
X69173401Y-46757706D01*
X69173402Y-46757702D01*
X69200500Y-46586614D01*
X69200500Y-46413385D01*
X69173402Y-46242297D01*
X69173401Y-46242293D01*
X69119876Y-46077561D01*
X69119874Y-46077558D01*
X69119873Y-46077557D01*
X69119873Y-46077555D01*
X69041232Y-45923212D01*
X68939414Y-45783072D01*
X68816928Y-45660586D01*
X68676788Y-45558768D01*
X68676787Y-45558767D01*
X68676785Y-45558766D01*
X68522441Y-45480125D01*
X68522438Y-45480123D01*
X68357706Y-45426598D01*
X68357702Y-45426597D01*
X68186614Y-45399500D01*
X68186611Y-45399500D01*
X68013389Y-45399500D01*
X68013386Y-45399500D01*
X67842297Y-45426597D01*
X67842293Y-45426598D01*
X67677561Y-45480123D01*
X67677558Y-45480125D01*
X67523214Y-45558766D01*
X67383073Y-45660585D01*
X67260585Y-45783073D01*
X67158766Y-45923214D01*
X67080125Y-46077558D01*
X67080123Y-46077561D01*
X67026598Y-46242293D01*
X67026597Y-46242297D01*
X66999500Y-46413385D01*
X59825500Y-46413385D01*
X59825500Y-42413385D01*
X66999500Y-42413385D01*
X66999500Y-42586614D01*
X67026597Y-42757702D01*
X67026598Y-42757706D01*
X67080123Y-42922438D01*
X67080125Y-42922441D01*
X67134983Y-43030108D01*
X67158768Y-43076788D01*
X67260586Y-43216928D01*
X67383072Y-43339414D01*
X67523212Y-43441232D01*
X67677555Y-43519873D01*
X67677557Y-43519873D01*
X67677558Y-43519874D01*
X67677561Y-43519876D01*
X67842293Y-43573401D01*
X67842297Y-43573402D01*
X68013386Y-43600500D01*
X68013389Y-43600500D01*
X68186614Y-43600500D01*
X68357702Y-43573402D01*
X68357706Y-43573401D01*
X68522438Y-43519876D01*
X68522440Y-43519874D01*
X68522445Y-43519873D01*
X68676788Y-43441232D01*
X68816928Y-43339414D01*
X68939414Y-43216928D01*
X69041232Y-43076788D01*
X69119873Y-42922445D01*
X69119874Y-42922440D01*
X69119876Y-42922438D01*
X69173401Y-42757706D01*
X69173402Y-42757702D01*
X69200500Y-42586614D01*
X69200500Y-42413385D01*
X69173402Y-42242297D01*
X69173401Y-42242293D01*
X69119876Y-42077561D01*
X69119874Y-42077558D01*
X69119873Y-42077557D01*
X69119873Y-42077555D01*
X69041232Y-41923212D01*
X68939414Y-41783072D01*
X68816928Y-41660586D01*
X68676788Y-41558768D01*
X68676787Y-41558767D01*
X68676785Y-41558766D01*
X68522441Y-41480125D01*
X68522438Y-41480123D01*
X68357706Y-41426598D01*
X68357702Y-41426597D01*
X68186614Y-41399500D01*
X68186611Y-41399500D01*
X68013389Y-41399500D01*
X68013386Y-41399500D01*
X67842297Y-41426597D01*
X67842293Y-41426598D01*
X67677561Y-41480123D01*
X67677558Y-41480125D01*
X67523214Y-41558766D01*
X67383073Y-41660585D01*
X67260585Y-41783073D01*
X67158766Y-41923214D01*
X67080125Y-42077558D01*
X67080123Y-42077561D01*
X67026598Y-42242293D01*
X67026597Y-42242297D01*
X66999500Y-42413385D01*
X59825500Y-42413385D01*
X59825500Y-41123321D01*
X59844407Y-41065130D01*
X59854490Y-41053323D01*
X59900500Y-41007314D01*
X59900503Y-41007309D01*
X59966390Y-40893190D01*
X59966390Y-40893188D01*
X59966392Y-40893186D01*
X60000500Y-40765892D01*
X60000500Y-40634108D01*
X59966392Y-40506814D01*
X59966390Y-40506811D01*
X59966390Y-40506809D01*
X59900503Y-40392690D01*
X59900501Y-40392688D01*
X59900500Y-40392686D01*
X59807314Y-40299500D01*
X59807311Y-40299498D01*
X59807309Y-40299496D01*
X59693189Y-40233609D01*
X59693191Y-40233609D01*
X59643799Y-40220375D01*
X59565892Y-40199500D01*
X59434108Y-40199500D01*
X59356200Y-40220375D01*
X59306809Y-40233609D01*
X59192690Y-40299496D01*
X59099496Y-40392690D01*
X59033609Y-40506809D01*
X59014539Y-40577978D01*
X58999500Y-40634108D01*
X28800500Y-40634108D01*
X28800500Y-37916230D01*
X29649500Y-37916230D01*
X29649500Y-38083769D01*
X29682183Y-38248079D01*
X29682185Y-38248085D01*
X29746296Y-38402862D01*
X29762156Y-38426598D01*
X29839374Y-38542162D01*
X29957838Y-38660626D01*
X30097137Y-38753703D01*
X30251918Y-38817816D01*
X30416233Y-38850500D01*
X30416234Y-38850500D01*
X30583766Y-38850500D01*
X30583767Y-38850500D01*
X30748082Y-38817816D01*
X30902863Y-38753703D01*
X31042162Y-38660626D01*
X31160626Y-38542162D01*
X31253703Y-38402863D01*
X31317816Y-38248082D01*
X31350500Y-38083767D01*
X31350500Y-37916233D01*
X31350499Y-37916230D01*
X32149500Y-37916230D01*
X32149500Y-38083769D01*
X32182183Y-38248079D01*
X32182185Y-38248085D01*
X32246296Y-38402862D01*
X32262156Y-38426598D01*
X32339374Y-38542162D01*
X32457838Y-38660626D01*
X32597137Y-38753703D01*
X32751918Y-38817816D01*
X32916233Y-38850500D01*
X32916234Y-38850500D01*
X33083766Y-38850500D01*
X33083767Y-38850500D01*
X33248082Y-38817816D01*
X33402863Y-38753703D01*
X33542162Y-38660626D01*
X33660626Y-38542162D01*
X33753703Y-38402863D01*
X33817816Y-38248082D01*
X33850500Y-38083767D01*
X33850500Y-37921155D01*
X36699500Y-37921155D01*
X36699500Y-38078844D01*
X36730263Y-38233496D01*
X36730263Y-38233498D01*
X36790603Y-38379174D01*
X36790609Y-38379185D01*
X36822290Y-38426598D01*
X36878211Y-38510289D01*
X36989711Y-38621789D01*
X37047775Y-38660586D01*
X37120814Y-38709390D01*
X37120825Y-38709396D01*
X37174638Y-38731685D01*
X37266503Y-38769737D01*
X37421158Y-38800500D01*
X37421159Y-38800500D01*
X38578841Y-38800500D01*
X38578842Y-38800500D01*
X38733497Y-38769737D01*
X38879179Y-38709394D01*
X39010289Y-38621789D01*
X39121789Y-38510289D01*
X39186538Y-38413385D01*
X66999500Y-38413385D01*
X66999500Y-38586614D01*
X67026597Y-38757702D01*
X67026598Y-38757706D01*
X67080123Y-38922438D01*
X67080125Y-38922441D01*
X67080126Y-38922444D01*
X67080127Y-38922445D01*
X67158768Y-39076788D01*
X67260586Y-39216928D01*
X67383072Y-39339414D01*
X67523212Y-39441232D01*
X67677555Y-39519873D01*
X67677557Y-39519873D01*
X67677558Y-39519874D01*
X67677561Y-39519876D01*
X67842293Y-39573401D01*
X67842297Y-39573402D01*
X68013386Y-39600500D01*
X68013389Y-39600500D01*
X68186614Y-39600500D01*
X68357702Y-39573402D01*
X68357706Y-39573401D01*
X68522438Y-39519876D01*
X68522440Y-39519874D01*
X68522445Y-39519873D01*
X68676788Y-39441232D01*
X68816928Y-39339414D01*
X68939414Y-39216928D01*
X69041232Y-39076788D01*
X69119873Y-38922445D01*
X69119874Y-38922440D01*
X69119876Y-38922438D01*
X69173401Y-38757706D01*
X69173402Y-38757702D01*
X69200500Y-38586614D01*
X69200500Y-38413385D01*
X69173402Y-38242297D01*
X69173401Y-38242293D01*
X69119876Y-38077561D01*
X69119872Y-38077552D01*
X69060608Y-37961238D01*
X69060607Y-37961236D01*
X69041238Y-37923222D01*
X69041234Y-37923215D01*
X69039740Y-37921159D01*
X69039737Y-37921155D01*
X90699500Y-37921155D01*
X90699500Y-38078844D01*
X90730263Y-38233496D01*
X90730263Y-38233498D01*
X90790603Y-38379174D01*
X90790609Y-38379185D01*
X90822290Y-38426598D01*
X90878211Y-38510289D01*
X90989711Y-38621789D01*
X91047775Y-38660586D01*
X91120814Y-38709390D01*
X91120825Y-38709396D01*
X91174638Y-38731685D01*
X91266503Y-38769737D01*
X91421158Y-38800500D01*
X91421159Y-38800500D01*
X92578841Y-38800500D01*
X92578842Y-38800500D01*
X92733497Y-38769737D01*
X92879179Y-38709394D01*
X93010289Y-38621789D01*
X93121789Y-38510289D01*
X93209394Y-38379179D01*
X93269737Y-38233497D01*
X93300500Y-38078842D01*
X93300500Y-37921158D01*
X93300499Y-37921155D01*
X93299519Y-37916230D01*
X96149500Y-37916230D01*
X96149500Y-38083769D01*
X96182183Y-38248079D01*
X96182185Y-38248085D01*
X96246296Y-38402862D01*
X96262156Y-38426598D01*
X96339374Y-38542162D01*
X96457838Y-38660626D01*
X96597137Y-38753703D01*
X96751918Y-38817816D01*
X96916233Y-38850500D01*
X96916234Y-38850500D01*
X97083766Y-38850500D01*
X97083767Y-38850500D01*
X97248082Y-38817816D01*
X97402863Y-38753703D01*
X97542162Y-38660626D01*
X97660626Y-38542162D01*
X97753703Y-38402863D01*
X97817816Y-38248082D01*
X97850500Y-38083767D01*
X97850500Y-37916233D01*
X97850499Y-37916230D01*
X98649500Y-37916230D01*
X98649500Y-38083769D01*
X98682183Y-38248079D01*
X98682185Y-38248085D01*
X98746296Y-38402862D01*
X98762156Y-38426598D01*
X98839374Y-38542162D01*
X98957838Y-38660626D01*
X99097137Y-38753703D01*
X99251918Y-38817816D01*
X99416233Y-38850500D01*
X99416234Y-38850500D01*
X99583766Y-38850500D01*
X99583767Y-38850500D01*
X99748082Y-38817816D01*
X99902863Y-38753703D01*
X100042162Y-38660626D01*
X100160626Y-38542162D01*
X100253703Y-38402863D01*
X100317816Y-38248082D01*
X100350500Y-38083767D01*
X100350500Y-37916233D01*
X100317816Y-37751918D01*
X100253703Y-37597137D01*
X100160626Y-37457838D01*
X100042162Y-37339374D01*
X99902863Y-37246297D01*
X99902864Y-37246297D01*
X99902862Y-37246296D01*
X99748085Y-37182185D01*
X99748079Y-37182183D01*
X99583769Y-37149500D01*
X99583767Y-37149500D01*
X99416233Y-37149500D01*
X99416230Y-37149500D01*
X99251920Y-37182183D01*
X99251914Y-37182185D01*
X99097137Y-37246296D01*
X98957838Y-37339374D01*
X98957834Y-37339377D01*
X98839377Y-37457834D01*
X98839374Y-37457838D01*
X98746296Y-37597137D01*
X98682185Y-37751914D01*
X98682183Y-37751920D01*
X98649500Y-37916230D01*
X97850499Y-37916230D01*
X97817816Y-37751918D01*
X97753703Y-37597137D01*
X97660626Y-37457838D01*
X97542162Y-37339374D01*
X97402863Y-37246297D01*
X97402864Y-37246297D01*
X97402862Y-37246296D01*
X97248085Y-37182185D01*
X97248079Y-37182183D01*
X97083769Y-37149500D01*
X97083767Y-37149500D01*
X96916233Y-37149500D01*
X96916230Y-37149500D01*
X96751920Y-37182183D01*
X96751914Y-37182185D01*
X96597137Y-37246296D01*
X96457838Y-37339374D01*
X96457834Y-37339377D01*
X96339377Y-37457834D01*
X96339374Y-37457838D01*
X96246296Y-37597137D01*
X96182185Y-37751914D01*
X96182183Y-37751920D01*
X96149500Y-37916230D01*
X93299519Y-37916230D01*
X93295395Y-37895498D01*
X93269737Y-37766503D01*
X93209394Y-37620821D01*
X93209393Y-37620819D01*
X93209390Y-37620814D01*
X93167930Y-37558766D01*
X93121789Y-37489711D01*
X93010289Y-37378211D01*
X92952170Y-37339377D01*
X92879185Y-37290609D01*
X92879174Y-37290603D01*
X92733497Y-37230263D01*
X92578844Y-37199500D01*
X92578842Y-37199500D01*
X91421158Y-37199500D01*
X91421155Y-37199500D01*
X91266503Y-37230263D01*
X91266501Y-37230263D01*
X91120825Y-37290603D01*
X91120814Y-37290609D01*
X90989711Y-37378211D01*
X90989707Y-37378214D01*
X90878214Y-37489707D01*
X90878211Y-37489711D01*
X90790609Y-37620814D01*
X90790603Y-37620825D01*
X90730263Y-37766501D01*
X90730263Y-37766503D01*
X90699500Y-37921155D01*
X69039737Y-37921155D01*
X68939414Y-37783072D01*
X68816928Y-37660586D01*
X68676788Y-37558768D01*
X68676787Y-37558767D01*
X68676785Y-37558766D01*
X68522441Y-37480125D01*
X68522438Y-37480123D01*
X68357706Y-37426598D01*
X68357702Y-37426597D01*
X68186614Y-37399500D01*
X68186611Y-37399500D01*
X68013389Y-37399500D01*
X68013386Y-37399500D01*
X67842297Y-37426597D01*
X67842293Y-37426598D01*
X67677561Y-37480123D01*
X67677558Y-37480125D01*
X67523214Y-37558766D01*
X67383073Y-37660585D01*
X67260585Y-37783073D01*
X67158766Y-37923214D01*
X67080125Y-38077558D01*
X67080123Y-38077561D01*
X67026598Y-38242293D01*
X67026597Y-38242297D01*
X66999500Y-38413385D01*
X39186538Y-38413385D01*
X39209394Y-38379179D01*
X39269737Y-38233497D01*
X39300500Y-38078842D01*
X39300500Y-37921158D01*
X39269737Y-37766503D01*
X39209394Y-37620821D01*
X39209393Y-37620819D01*
X39209390Y-37620814D01*
X39167930Y-37558766D01*
X39121789Y-37489711D01*
X39010289Y-37378211D01*
X38952170Y-37339377D01*
X38879185Y-37290609D01*
X38879174Y-37290603D01*
X38733497Y-37230263D01*
X38578844Y-37199500D01*
X38578842Y-37199500D01*
X37421158Y-37199500D01*
X37421155Y-37199500D01*
X37266503Y-37230263D01*
X37266501Y-37230263D01*
X37120825Y-37290603D01*
X37120814Y-37290609D01*
X36989711Y-37378211D01*
X36989707Y-37378214D01*
X36878214Y-37489707D01*
X36878211Y-37489711D01*
X36790609Y-37620814D01*
X36790603Y-37620825D01*
X36730263Y-37766501D01*
X36730263Y-37766503D01*
X36699500Y-37921155D01*
X33850500Y-37921155D01*
X33850500Y-37916233D01*
X33817816Y-37751918D01*
X33753703Y-37597137D01*
X33660626Y-37457838D01*
X33542162Y-37339374D01*
X33402863Y-37246297D01*
X33402864Y-37246297D01*
X33402862Y-37246296D01*
X33248085Y-37182185D01*
X33248079Y-37182183D01*
X33083769Y-37149500D01*
X33083767Y-37149500D01*
X32916233Y-37149500D01*
X32916230Y-37149500D01*
X32751920Y-37182183D01*
X32751914Y-37182185D01*
X32597137Y-37246296D01*
X32457838Y-37339374D01*
X32457834Y-37339377D01*
X32339377Y-37457834D01*
X32339374Y-37457838D01*
X32246296Y-37597137D01*
X32182185Y-37751914D01*
X32182183Y-37751920D01*
X32149500Y-37916230D01*
X31350499Y-37916230D01*
X31317816Y-37751918D01*
X31253703Y-37597137D01*
X31160626Y-37457838D01*
X31042162Y-37339374D01*
X30902863Y-37246297D01*
X30902864Y-37246297D01*
X30902862Y-37246296D01*
X30748085Y-37182185D01*
X30748079Y-37182183D01*
X30583769Y-37149500D01*
X30583767Y-37149500D01*
X30416233Y-37149500D01*
X30416230Y-37149500D01*
X30251920Y-37182183D01*
X30251914Y-37182185D01*
X30097137Y-37246296D01*
X29957838Y-37339374D01*
X29957834Y-37339377D01*
X29839377Y-37457834D01*
X29839374Y-37457838D01*
X29746296Y-37597137D01*
X29682185Y-37751914D01*
X29682183Y-37751920D01*
X29649500Y-37916230D01*
X28800500Y-37916230D01*
X28800500Y-36899500D01*
X28819407Y-36841309D01*
X28868907Y-36805345D01*
X28899500Y-36800500D01*
X101100499Y-36800500D01*
X101158690Y-36819407D01*
G37*
%TD.AperFunction*%
%TD*%
M02*
