%TF.GenerationSoftware,KiCad,Pcbnew,10.0.1*%
%TF.CreationDate,2026-05-30T11:47:09+02:00*%
%TF.ProjectId,WirelessBERA,57697265-6c65-4737-9342-4552412e6b69,rev?*%
%TF.SameCoordinates,Original*%
%TF.FileFunction,Soldermask,Bot*%
%TF.FilePolarity,Negative*%
%FSLAX46Y46*%
G04 Gerber Fmt 4.6, Leading zero omitted, Abs format (unit mm)*
G04 Created by KiCad (PCBNEW 10.0.1) date 2026-05-30 11:47:09*
%MOMM*%
%LPD*%
G01*
G04 APERTURE LIST*
%ADD10C,1.800000*%
%ADD11C,0.499999*%
%ADD12C,2.200000*%
%ADD13C,0.800000*%
%ADD14C,0.900000*%
%ADD15C,1.200000*%
%ADD16O,2.200000X1.200000*%
%ADD17O,1.200000X2.200000*%
%ADD18C,0.600000*%
%ADD19C,0.650000*%
%ADD20O,2.100000X1.000000*%
%ADD21O,1.800000X1.000000*%
G04 APERTURE END LIST*
D10*
%TO.C,TP25*%
X78000000Y-42500000D03*
%TD*%
D11*
%TO.C,U5*%
X34900000Y-94000000D03*
X35950000Y-94000000D03*
X37000000Y-94000000D03*
X34900000Y-92900002D03*
X35950000Y-92900002D03*
X37000000Y-92900002D03*
%TD*%
D12*
%TO.C,H4*%
X85000000Y-42000000D03*
%TD*%
D10*
%TO.C,TP31*%
X72200000Y-70100000D03*
%TD*%
%TO.C,TP40*%
X67110000Y-76500000D03*
%TD*%
%TO.C,TP22*%
X68100000Y-38500000D03*
%TD*%
%TO.C,TP21*%
X68100000Y-46500000D03*
%TD*%
D13*
%TO.C,MK1*%
X78000000Y-57500000D03*
%TD*%
D10*
%TO.C,TP27*%
X83000000Y-49500000D03*
%TD*%
%TO.C,TP3*%
X45500000Y-90500000D03*
%TD*%
D14*
%TO.C,SW1*%
X30500000Y-112100000D03*
X30500000Y-118900000D03*
%TD*%
D12*
%TO.C,H2*%
X43000000Y-117000000D03*
%TD*%
D10*
%TO.C,TP32*%
X76200000Y-70100000D03*
%TD*%
%TO.C,TP23*%
X55500000Y-46500000D03*
%TD*%
D15*
%TO.C,J4*%
X33000000Y-38000000D03*
X30500000Y-38000000D03*
X38000000Y-43000000D03*
X33000000Y-48000000D03*
X30500000Y-48000000D03*
D16*
X38000000Y-38000000D03*
D17*
X33000000Y-43000000D03*
D16*
X38000000Y-48000000D03*
%TD*%
D11*
%TO.C,U3*%
X53500000Y-79150000D03*
X52549999Y-78575000D03*
X54450001Y-78575000D03*
X53500000Y-78000000D03*
%TD*%
D10*
%TO.C,TP7*%
X55500000Y-50500000D03*
%TD*%
%TO.C,TP24*%
X75000000Y-39500000D03*
%TD*%
%TO.C,TP28*%
X64200000Y-70100000D03*
%TD*%
%TO.C,TP26*%
X80500000Y-46000000D03*
%TD*%
%TO.C,TP4*%
X68100000Y-50500000D03*
%TD*%
D18*
%TO.C,U4*%
X35450000Y-81350001D03*
X36950000Y-81350001D03*
X36200000Y-80850001D03*
X35450000Y-80350001D03*
X36950000Y-80350001D03*
%TD*%
D12*
%TO.C,H1*%
X97475000Y-127475000D03*
%TD*%
D10*
%TO.C,TP35*%
X63110000Y-76500000D03*
%TD*%
%TO.C,TP20*%
X55500000Y-42500000D03*
%TD*%
%TO.C,TP5*%
X68100000Y-42500000D03*
%TD*%
D12*
%TO.C,H3*%
X32000000Y-55000000D03*
%TD*%
D15*
%TO.C,J5*%
X97000000Y-48000000D03*
X99500000Y-48000000D03*
X92000000Y-43000000D03*
X97000000Y-38000000D03*
X99500000Y-38000000D03*
D16*
X92000000Y-48000000D03*
D17*
X97000000Y-43000000D03*
D16*
X92000000Y-38000000D03*
%TD*%
D10*
%TO.C,TP29*%
X68200000Y-70100000D03*
%TD*%
D19*
%TO.C,J3*%
X95000000Y-61500000D03*
X95000000Y-55720000D03*
D20*
X94500000Y-62930000D03*
D21*
X98680000Y-62930000D03*
D20*
X94500000Y-54290000D03*
D21*
X98680000Y-54290000D03*
%TD*%
M02*
