%TF.GenerationSoftware,KiCad,Pcbnew,10.0.1*%
%TF.CreationDate,2026-06-03T20:29:48+02:00*%
%TF.ProjectId,WirelessBERA,57697265-6c65-4737-9342-4552412e6b69,rev?*%
%TF.SameCoordinates,Original*%
%TF.FileFunction,Soldermask,Bot*%
%TF.FilePolarity,Negative*%
%FSLAX46Y46*%
G04 Gerber Fmt 4.6, Leading zero omitted, Abs format (unit mm)*
G04 Created by KiCad (PCBNEW 10.0.1) date 2026-06-03 20:29:48*
%MOMM*%
%LPD*%
G01*
G04 APERTURE LIST*
G04 Aperture macros list*
%AMRotRect*
0 Rectangle, with rotation*
0 The origin of the aperture is its center*
0 $1 length*
0 $2 width*
0 $3 Rotation angle, in degrees counterclockwise*
0 Add horizontal line*
21,1,$1,$2,0,0,$3*%
G04 Aperture macros list end*
%ADD10C,0.499999*%
%ADD11C,2.200000*%
%ADD12RotRect,1.700000X1.700000X135.000000*%
%ADD13C,1.700000*%
%ADD14RotRect,1.700000X1.700000X45.000000*%
%ADD15R,1.700000X1.700000*%
%ADD16C,0.800000*%
%ADD17C,0.900000*%
%ADD18C,1.200000*%
%ADD19O,2.200000X1.200000*%
%ADD20O,1.200000X2.200000*%
%ADD21C,0.600000*%
%ADD22C,0.650000*%
%ADD23O,2.100000X1.000000*%
%ADD24O,1.800000X1.000000*%
%ADD25C,0.203200*%
%ADD26C,0.350000*%
%ADD27C,0.200000*%
%ADD28O,1.400000X0.400000*%
%ADD29O,0.400000X1.400000*%
%ADD30C,0.300000*%
%ADD31O,1.700000X0.600000*%
%ADD32O,1.400000X0.600000*%
G04 APERTURE END LIST*
D10*
%TO.C,U5*%
X34900000Y-94000000D03*
X35950000Y-94000000D03*
X37000000Y-94000000D03*
X34900000Y-92900002D03*
X35950000Y-92900002D03*
X37000000Y-92900002D03*
%TD*%
D11*
%TO.C,H4*%
X85000000Y-42000000D03*
%TD*%
D12*
%TO.C,J12*%
X71511846Y-74688154D03*
D13*
X73307897Y-72892103D03*
X75103948Y-71096052D03*
X76900000Y-69300000D03*
%TD*%
D14*
%TO.C,J10*%
X76311846Y-41311846D03*
D13*
X78107897Y-43107897D03*
X79903948Y-44903948D03*
X81700000Y-46700000D03*
%TD*%
D15*
%TO.C,J13*%
X66300000Y-76600000D03*
D13*
X63760000Y-76600000D03*
%TD*%
D16*
%TO.C,MK1*%
X78000000Y-57500000D03*
%TD*%
D17*
%TO.C,SW1*%
X30500000Y-112100000D03*
X30500000Y-118900000D03*
%TD*%
D11*
%TO.C,H2*%
X43000000Y-117000000D03*
%TD*%
D15*
%TO.C,J2*%
X47100000Y-90500000D03*
%TD*%
D18*
%TO.C,J6*%
X33000000Y-38000000D03*
X30500000Y-38000000D03*
X38000000Y-43000000D03*
X33000000Y-48000000D03*
X30500000Y-48000000D03*
D19*
X38000000Y-38000000D03*
D20*
X33000000Y-43000000D03*
D19*
X38000000Y-48000000D03*
%TD*%
D10*
%TO.C,U3*%
X53500000Y-79150000D03*
X52549999Y-78575000D03*
X54450001Y-78575000D03*
X53500000Y-78000000D03*
%TD*%
D15*
%TO.C,J9*%
X58360000Y-57800000D03*
D13*
X60900000Y-57800000D03*
X63440000Y-57800000D03*
%TD*%
D15*
%TO.C,J7*%
X68000000Y-41600000D03*
D13*
X68000000Y-44140000D03*
X68000000Y-46680000D03*
X68000000Y-49220000D03*
%TD*%
D15*
%TO.C,J8*%
X56700000Y-40600000D03*
D13*
X56700000Y-43140000D03*
X56700000Y-45680000D03*
X56700000Y-48220000D03*
%TD*%
D21*
%TO.C,U4*%
X35450000Y-81350001D03*
X36950000Y-81350001D03*
X36200000Y-80850001D03*
X35450000Y-80350001D03*
X36950000Y-80350001D03*
%TD*%
D11*
%TO.C,H1*%
X97475000Y-127475000D03*
%TD*%
D15*
%TO.C,J3*%
X47100000Y-82600000D03*
%TD*%
D11*
%TO.C,H3*%
X32000000Y-55000000D03*
%TD*%
D18*
%TO.C,J11*%
X97000000Y-48000000D03*
X99500000Y-48000000D03*
X92000000Y-43000000D03*
X97000000Y-38000000D03*
X99500000Y-38000000D03*
D19*
X92000000Y-48000000D03*
D20*
X97000000Y-43000000D03*
D19*
X92000000Y-38000000D03*
%TD*%
D22*
%TO.C,J5*%
X95000000Y-61500000D03*
X95000000Y-55720000D03*
D23*
X94500000Y-62930000D03*
D24*
X98680000Y-62930000D03*
D23*
X94500000Y-54290000D03*
D24*
X98680000Y-54290000D03*
%TD*%
D25*
X34900000Y-94000000D03*
X35950000Y-94000000D03*
X37000000Y-94000000D03*
X34900000Y-92900002D03*
X35950000Y-92900002D03*
X37000000Y-92900002D03*
D26*
X85000000Y-42000000D03*
X71511846Y-74688154D03*
X73307897Y-72892103D03*
X75103948Y-71096052D03*
X76900000Y-69300000D03*
X76311846Y-41311846D03*
X78107897Y-43107897D03*
X79903948Y-44903948D03*
X81700000Y-46700000D03*
X66300000Y-76600000D03*
X63760000Y-76600000D03*
X78000000Y-57500000D03*
X30500000Y-112100000D03*
X30500000Y-118900000D03*
X43000000Y-117000000D03*
X47100000Y-90500000D03*
D27*
X85700000Y-89600000D03*
X84300000Y-89600000D03*
X86400000Y-90300000D03*
X85000000Y-90300000D03*
X83600000Y-90300000D03*
X85700000Y-91000000D03*
X84300000Y-91000000D03*
X86400000Y-91700000D03*
X85000000Y-91700000D03*
X83600000Y-91700000D03*
X85700000Y-92400000D03*
X84300000Y-92400000D03*
D26*
X33000000Y-38000000D03*
X30500000Y-38000000D03*
X38000000Y-43000000D03*
X33000000Y-48000000D03*
X30500000Y-48000000D03*
D28*
X38000000Y-38000000D03*
D29*
X33000000Y-43000000D03*
D28*
X38000000Y-48000000D03*
D25*
X53500000Y-79150000D03*
X52549999Y-78575000D03*
X54450001Y-78575000D03*
X53500000Y-78000000D03*
D26*
X58360000Y-57800000D03*
X60900000Y-57800000D03*
X63440000Y-57800000D03*
X68000000Y-41600000D03*
X68000000Y-44140000D03*
X68000000Y-46680000D03*
X68000000Y-49220000D03*
X56700000Y-40600000D03*
X56700000Y-43140000D03*
X56700000Y-45680000D03*
X56700000Y-48220000D03*
D30*
X35450000Y-81350001D03*
X36950000Y-81350001D03*
X36200000Y-80850001D03*
X35450000Y-80350001D03*
X36950000Y-80350001D03*
D26*
X97475000Y-127475000D03*
X47100000Y-82600000D03*
D27*
X46000000Y-99000000D03*
X45425000Y-99950000D03*
X45425000Y-98050000D03*
X44850000Y-99000000D03*
D26*
X32000000Y-55000000D03*
X97000000Y-48000000D03*
X99500000Y-48000000D03*
X92000000Y-43000000D03*
X97000000Y-38000000D03*
X99500000Y-38000000D03*
D28*
X92000000Y-48000000D03*
D29*
X97000000Y-43000000D03*
D28*
X92000000Y-38000000D03*
D26*
X95000000Y-61500000D03*
X95000000Y-55720000D03*
D31*
X94500000Y-62930000D03*
D32*
X98680000Y-62930000D03*
D31*
X94500000Y-54290000D03*
D32*
X98680000Y-54290000D03*
M02*
