M48
; DRILL file KiCad 10.0.1 date 2026-05-30T11:47:10
; FORMAT={-:-/ absolute / metric / decimal}
; #@! TF.CreationDate,2026-05-30T11:47:10+02:00
; #@! TF.GenerationSoftware,Kicad,Pcbnew,10.0.1
; #@! TF.FileFunction,MixedPlating,1,4
FMAT,2
METRIC
; #@! TA.AperFunction,Plated,PTH,ComponentDrill
T1C0.200
; #@! TA.AperFunction,Plated,PTH,ComponentDrill
T2C0.203
; #@! TA.AperFunction,Plated,PTH,ViaDrill
T3C0.300
; #@! TA.AperFunction,Plated,PTH,ComponentDrill
T4C0.300
; #@! TA.AperFunction,Plated,PTH,ComponentDrill
T5C0.400
; #@! TA.AperFunction,Plated,PTH,ComponentDrill
T6C0.600
; #@! TA.AperFunction,Plated,PTH,ComponentDrill
T7C0.900
; #@! TA.AperFunction,NonPlated,NPTH,ComponentDrill
T8C0.650
; #@! TA.AperFunction,NonPlated,NPTH,ComponentDrill
T9C0.800
; #@! TA.AperFunction,NonPlated,NPTH,ComponentDrill
T10C0.900
; #@! TA.AperFunction,NonPlated,NPTH,ComponentDrill
T11C1.200
; #@! TA.AperFunction,NonPlated,NPTH,ComponentDrill
T12C2.200
%
G90
G05
T1
X44.85Y-99.0
X45.425Y-98.05
X45.425Y-99.95
X46.0Y-99.0
X83.6Y-90.3
X83.6Y-91.7
X84.3Y-89.6
X84.3Y-91.0
X84.3Y-92.4
X85.0Y-90.3
X85.0Y-91.7
X85.7Y-89.6
X85.7Y-91.0
X85.7Y-92.4
X86.4Y-90.3
X86.4Y-91.7
T2
X34.9Y-92.9
X34.9Y-94.0
X35.95Y-92.9
X35.95Y-94.0
X37.0Y-92.9
X37.0Y-94.0
X52.55Y-78.575
X53.5Y-78.0
X53.5Y-79.15
X54.45Y-78.575
T3
X29.1Y-37.1
X29.1Y-38.5
X29.1Y-40.0
X29.1Y-41.5
X29.1Y-43.0
X29.1Y-44.5
X29.1Y-46.0
X29.1Y-47.5
X29.1Y-49.0
X29.1Y-50.5
X29.1Y-52.0
X29.1Y-53.5
X29.1Y-55.0
X29.1Y-56.5
X29.1Y-58.0
X29.1Y-59.5
X29.1Y-61.0
X29.1Y-62.5
X29.1Y-64.0
X29.1Y-65.5
X29.1Y-67.0
X29.1Y-68.5
X29.1Y-70.0
X29.1Y-71.5
X29.1Y-73.0
X29.1Y-74.5
X29.1Y-76.0
X29.1Y-77.5
X29.1Y-79.0
X29.1Y-80.5
X29.1Y-82.0
X29.1Y-83.5
X29.1Y-85.0
X29.1Y-88.5
X29.1Y-90.0
X29.1Y-91.5
X29.1Y-93.0
X29.1Y-94.5
X29.1Y-96.0
X29.1Y-97.5
X29.1Y-99.0
X29.1Y-100.5
X29.1Y-102.0
X29.1Y-103.5
X29.1Y-105.0
X29.1Y-106.5
X29.1Y-108.0
X29.1Y-109.5
X29.1Y-111.0
X29.1Y-112.5
X29.1Y-114.0
X29.1Y-115.5
X29.1Y-117.0
X29.1Y-118.5
X29.1Y-120.0
X29.1Y-121.5
X29.1Y-123.0
X29.1Y-124.5
X29.1Y-126.0
X29.1Y-127.5
X29.1Y-129.0
X30.0Y-86.0
X30.0Y-87.0
X30.0Y-129.9
X31.5Y-86.0
X31.5Y-87.0
X31.5Y-88.5
X31.5Y-90.0
X32.0Y-96.5
X32.0Y-97.5
X32.0Y-99.0
X33.0Y-86.0
X33.0Y-129.9
X33.1Y-91.9
X33.1Y-94.2
X33.6Y-79.375
X33.9Y-92.0
X34.0Y-99.0
X34.0Y-106.5
X34.5Y-87.0
X34.5Y-95.7
X35.0Y-59.0
X35.0Y-100.5
X35.308Y-91.213
X36.0Y-101.5
X36.2Y-84.7
X36.2Y-87.6
X36.5Y-66.0
X36.5Y-71.5
X36.9Y-91.3
X37.4Y-97.5
X37.5Y-99.5
X38.0Y-41.0
X38.0Y-45.5
X38.0Y-94.9
X38.0Y-129.9
X38.5Y-89.5
X38.5Y-91.9
X38.6Y-108.3
X38.6Y-109.2
X39.0Y-86.0
X39.0Y-87.0
X39.0Y-103.0
X39.05Y-106.15
X39.062Y-108.75
X39.5Y-94.3
X39.5Y-95.1
X39.5Y-101.0
X39.5Y-108.3
X39.5Y-109.2
X40.0Y-59.0
X40.0Y-97.0
X40.0Y-129.9
X40.5Y-86.0
X40.5Y-87.0
X41.5Y-99.0
X41.6Y-109.5
X42.0Y-37.1
X42.0Y-86.0
X42.0Y-87.0
X42.5Y-97.0
X43.1Y-71.4
X43.5Y-66.0
X43.5Y-76.4
X43.5Y-86.0
X43.5Y-87.0
X44.0Y-129.9
X44.9Y-51.0
X45.0Y-37.1
X45.0Y-86.0
X45.0Y-87.0
X45.1Y-52.1
X45.5Y-44.0
X45.5Y-48.0
X46.0Y-95.0
X46.5Y-86.0
X46.5Y-87.0
X46.8Y-107.5
X48.0Y-86.0
X48.0Y-87.0
X48.0Y-126.0
X48.0Y-129.9
X48.6Y-49.2
X48.6Y-56.3
X48.7Y-60.3
X49.5Y-59.0
X49.5Y-86.0
X49.5Y-87.0
X50.0Y-37.1
X50.1Y-107.5
X50.3Y-75.4
X50.5Y-66.0
X50.5Y-71.5
X50.5Y-82.1
X50.8Y-44.3
X50.8Y-49.7
X51.0Y-55.5
X51.0Y-86.0
X51.0Y-87.0
X52.0Y-126.0
X52.0Y-129.9
X52.5Y-86.0
X52.5Y-87.0
X53.1Y-90.6
X53.1Y-94.2
X53.7Y-44.3
X54.0Y-80.9
X54.0Y-86.0
X54.0Y-87.0
X54.5Y-56.0
X54.5Y-98.5
X54.5Y-110.5
X55.0Y-37.1
X55.0Y-40.0
X55.0Y-108.5
X55.0Y-117.0
X55.0Y-122.0
X55.0Y-126.0
X55.1Y-77.6
X55.2Y-75.5
X55.5Y-86.0
X55.5Y-87.0
X56.0Y-59.0
X56.0Y-112.0
X56.0Y-129.9
X56.5Y-97.0
X56.5Y-98.5
X57.0Y-71.5
X57.0Y-86.0
X57.0Y-87.0
X57.5Y-66.0
X58.0Y-56.0
X58.3Y-43.2
X58.3Y-45.5
X58.3Y-48.0
X58.5Y-86.0
X58.5Y-87.0
X58.5Y-114.899
X58.5Y-123.6
X59.4Y-110.3
X59.5Y-40.7
X59.5Y-49.5
X59.5Y-55.8
X59.5Y-62.5
X59.5Y-64.0
X59.5Y-65.5
X59.5Y-67.0
X59.5Y-114.2
X60.0Y-37.1
X60.0Y-69.5
X60.0Y-71.0
X60.0Y-72.5
X60.0Y-74.0
X60.0Y-75.5
X60.0Y-77.0
X60.0Y-78.5
X60.0Y-80.0
X60.0Y-81.5
X60.0Y-83.0
X60.0Y-84.5
X60.0Y-86.0
X60.0Y-92.5
X60.0Y-129.9
X60.25Y-123.5
X60.4Y-68.6
X60.5Y-116.25
X60.542Y-40.658
X61.0Y-49.5
X61.0Y-55.8
X61.0Y-72.5
X61.0Y-74.0
X61.0Y-75.5
X61.0Y-77.0
X61.0Y-78.5
X61.0Y-80.0
X61.0Y-81.5
X61.0Y-83.0
X61.0Y-84.5
X61.7Y-116.6
X61.7Y-121.7
X62.0Y-68.6
X62.0Y-91.0
X62.0Y-111.5
X62.2Y-84.1
X62.22Y-112.269
X62.5Y-49.5
X62.5Y-55.8
X62.5Y-110.0
X63.1Y-114.0
X63.3Y-40.7
X63.4Y-47.4
X63.5Y-60.5
X63.7Y-50.5
X63.7Y-52.4
X64.0Y-62.0
X64.0Y-89.0
X64.0Y-129.9
X64.1Y-45.6
X64.2Y-116.0
X64.5Y-59.5
X64.9Y-66.6
X65.0Y-37.1
X65.0Y-42.9
X65.0Y-61.0
X65.5Y-85.0
X65.5Y-98.5
X65.5Y-100.5
X65.75Y-114.75
X65.85Y-82.05
X65.9Y-51.4
X66.0Y-48.5
X66.0Y-59.0
X66.1Y-65.2
X66.1Y-68.6
X66.2Y-60.1
X66.2Y-113.9
X66.5Y-61.9
X66.549Y-111.4
X67.2Y-81.9
X67.5Y-58.5
X67.8Y-83.6
X68.0Y-53.8
X68.0Y-55.6
X68.0Y-129.9
X68.8Y-82.6
X69.0Y-98.5
X69.0Y-100.5
X69.049Y-112.7
X69.5Y-49.4
X69.5Y-86.0
X69.7Y-82.0
X69.9Y-56.9
X69.9Y-61.1
X70.0Y-37.1
X70.0Y-51.8
X70.0Y-117.0
X70.0Y-122.0
X70.0Y-126.0
X70.031Y-67.342
X70.4Y-50.2
X70.5Y-62.3
X70.8Y-47.9
X71.2Y-63.2
X71.4Y-43.7
X71.4Y-83.6
X71.8Y-48.8
X71.8Y-72.0
X72.0Y-51.9
X72.0Y-59.0
X72.0Y-64.2
X72.0Y-67.5
X72.0Y-129.9
X72.25Y-55.6
X72.5Y-86.0
X72.9Y-55.1
X73.5Y-50.3
X73.5Y-117.0
X73.515Y-54.588
X74.0Y-72.8
X74.061Y-56.101
X74.1Y-56.9
X74.1Y-61.1
X74.3Y-53.9
X74.3Y-71.0
X74.7Y-48.8
X75.0Y-37.1
X75.0Y-60.5
X75.0Y-62.5
X75.0Y-65.0
X76.0Y-129.9
X76.317Y-59.935
X76.4Y-108.1
X76.5Y-50.0
X76.5Y-62.0
X76.5Y-63.5
X76.5Y-117.0
X76.575Y-79.9
X77.0Y-44.5
X77.425Y-79.9
X77.5Y-53.5
X77.5Y-65.0
X77.5Y-87.5
X77.5Y-92.5
X77.5Y-97.5
X77.5Y-99.5
X77.6Y-71.4
X77.8Y-81.8
X78.3Y-59.4
X79.4Y-81.8
X79.455Y-60.35
X79.896Y-111.5
X80.0Y-37.1
X80.0Y-63.5
X80.0Y-65.0
X80.0Y-117.0
X80.0Y-129.9
X80.25Y-109.0
X80.5Y-61.5
X81.25Y-105.5
X81.9Y-103.3
X82.5Y-40.0
X82.5Y-65.0
X82.75Y-107.25
X83.2Y-103.3
X83.5Y-63.5
X84.0Y-51.5
X84.0Y-54.0
X84.0Y-57.0
X84.0Y-59.5
X84.0Y-62.0
X84.0Y-129.9
X84.2Y-69.575
X84.2Y-70.425
X84.5Y-103.3
X84.5Y-107.5
X84.8Y-112.0
X85.0Y-52.5
X85.0Y-55.0
X85.0Y-57.5
X85.0Y-60.0
X85.0Y-62.5
X85.0Y-65.0
X85.0Y-117.0
X85.7Y-103.3
X87.0Y-40.0
X87.0Y-58.5
X87.0Y-103.3
X87.3Y-82.4
X87.5Y-52.5
X88.0Y-51.5
X88.0Y-129.9
X88.25Y-109.5
X88.5Y-82.4
X88.5Y-117.0
X88.7Y-80.9
X89.5Y-54.5
X89.8Y-76.6
X90.0Y-52.5
X90.0Y-62.5
X90.638Y-58.5
X91.5Y-51.5
X91.5Y-109.5
X91.5Y-112.0
X91.5Y-114.5
X91.5Y-117.0
X92.0Y-123.0
X92.0Y-129.9
X92.5Y-52.5
X93.5Y-69.5
X93.5Y-72.5
X93.5Y-74.5
X93.5Y-76.5
X93.5Y-85.5
X93.5Y-88.0
X93.5Y-90.5
X93.5Y-93.0
X93.5Y-95.5
X93.5Y-98.0
X93.5Y-100.0
X94.0Y-51.5
X95.0Y-37.1
X95.0Y-40.0
X95.0Y-52.5
X95.0Y-117.0
X96.0Y-68.0
X96.0Y-129.9
X96.5Y-51.5
X97.0Y-117.0
X97.5Y-52.5
X99.0Y-51.5
X99.0Y-117.0
X99.5Y-68.0
X100.0Y-52.5
X100.0Y-129.9
X100.9Y-37.1
X100.9Y-40.5
X100.9Y-45.0
X100.9Y-49.0
X100.9Y-51.5
X100.9Y-53.5
X100.9Y-55.5
X100.9Y-57.5
X100.9Y-59.5
X100.9Y-61.5
X100.9Y-63.5
X100.9Y-65.5
X100.9Y-67.5
X100.9Y-117.0
X100.9Y-120.0
X100.9Y-124.0
X100.9Y-128.0
T4
X35.45Y-80.35
X35.45Y-81.35
X36.2Y-80.85
X36.95Y-80.35
X36.95Y-81.35
T7
X45.5Y-90.5
X55.5Y-42.5
X55.5Y-46.5
X55.5Y-50.5
X63.11Y-76.5
X64.2Y-70.1
X67.11Y-76.5
X68.1Y-38.5
X68.1Y-42.5
X68.1Y-46.5
X68.1Y-50.5
X68.2Y-70.1
X72.2Y-70.1
X75.0Y-39.5
X76.2Y-70.1
X78.0Y-42.5
X80.5Y-46.0
X83.0Y-49.5
T8
X95.0Y-55.72
X95.0Y-61.5
T9
X78.0Y-57.5
T10
X30.5Y-112.1
X30.5Y-118.9
T11
X30.5Y-38.0
X30.5Y-48.0
X33.0Y-38.0
X33.0Y-48.0
X38.0Y-43.0
X92.0Y-43.0
X97.0Y-38.0
X97.0Y-48.0
X99.5Y-38.0
X99.5Y-48.0
T12
X32.0Y-55.0
X43.0Y-117.0
X85.0Y-42.0
X97.475Y-127.475
T5
X33.0Y-42.5G85X33.0Y-43.5
G05
X38.5Y-38.0G85X37.5Y-38.0
G05
X37.5Y-48.0G85X38.5Y-48.0
G05
X92.5Y-38.0G85X91.5Y-38.0
G05
X91.5Y-48.0G85X92.5Y-48.0
G05
X97.0Y-43.5G85X97.0Y-42.5
G05
T6
X93.95Y-54.29G85X95.05Y-54.29
G05
X93.95Y-62.93G85X95.05Y-62.93
G05
X98.28Y-54.29G85X99.08Y-54.29
G05
X98.28Y-62.93G85X99.08Y-62.93
G05
M30
