%TF.GenerationSoftware,KiCad,Pcbnew,10.0.1*%
%TF.CreationDate,2026-06-03T20:29:48+02:00*%
%TF.ProjectId,WirelessBERA,57697265-6c65-4737-9342-4552412e6b69,rev?*%
%TF.SameCoordinates,Original*%
%TF.FileFunction,Copper,L3,Inr*%
%TF.FilePolarity,Positive*%
%FSLAX46Y46*%
G04 Gerber Fmt 4.6, Leading zero omitted, Abs format (unit mm)*
G04 Created by KiCad (PCBNEW 10.0.1) date 2026-06-03 20:29:48*
%MOMM*%
%LPD*%
G01*
G04 APERTURE LIST*
G04 Aperture macros list*
%AMRotRect*
0 Rectangle, with rotation*
0 The origin of the aperture is its center*
0 $1 length*
0 $2 width*
0 $3 Rotation angle, in degrees counterclockwise*
0 Add horizontal line*
21,1,$1,$2,0,0,$3*%
G04 Aperture macros list end*
%TA.AperFunction,ComponentPad*%
%ADD10C,0.499999*%
%TD*%
%TA.AperFunction,ComponentPad*%
%ADD11RotRect,1.700000X1.700000X135.000000*%
%TD*%
%TA.AperFunction,ComponentPad*%
%ADD12C,1.700000*%
%TD*%
%TA.AperFunction,ComponentPad*%
%ADD13RotRect,1.700000X1.700000X45.000000*%
%TD*%
%TA.AperFunction,ComponentPad*%
%ADD14R,1.700000X1.700000*%
%TD*%
%TA.AperFunction,HeatsinkPad*%
%ADD15C,0.600000*%
%TD*%
%TA.AperFunction,ComponentPad*%
%ADD16O,2.200000X1.200000*%
%TD*%
%TA.AperFunction,ComponentPad*%
%ADD17O,1.200000X2.200000*%
%TD*%
%TA.AperFunction,ComponentPad*%
%ADD18C,0.600000*%
%TD*%
%TA.AperFunction,ComponentPad*%
%ADD19C,0.500000*%
%TD*%
%TA.AperFunction,ComponentPad*%
%ADD20O,2.100000X1.000000*%
%TD*%
%TA.AperFunction,ComponentPad*%
%ADD21O,1.800000X1.000000*%
%TD*%
%TA.AperFunction,ViaPad*%
%ADD22C,0.600000*%
%TD*%
%ADD23C,0.300000*%
%ADD24C,0.203200*%
%ADD25C,0.350000*%
%ADD26C,0.200000*%
%ADD27O,1.400000X0.400000*%
%ADD28O,0.400000X1.400000*%
%ADD29O,1.700000X0.600000*%
%ADD30O,1.400000X0.600000*%
G04 APERTURE END LIST*
D10*
%TO.N,GNDD*%
%TO.C,U5*%
X34900000Y-94000000D03*
X35950000Y-94000000D03*
X37000000Y-94000000D03*
X34900000Y-92900002D03*
X35950000Y-92900002D03*
X37000000Y-92900002D03*
%TD*%
D11*
%TO.N,I2S_BCLK*%
%TO.C,J12*%
X71511846Y-74688154D03*
D12*
%TO.N,I2S_FSYNC*%
X73307897Y-72892103D03*
%TO.N,I2S_DOUT*%
X75103948Y-71096052D03*
%TO.N,I2S_DIN*%
X76900000Y-69300000D03*
%TD*%
D13*
%TO.N,/Analog/OUT_2_N*%
%TO.C,J10*%
X76311846Y-41311846D03*
D12*
%TO.N,/Analog/OUT_2_P*%
X78107897Y-43107897D03*
%TO.N,/Analog/OUT_1_P*%
X79903948Y-44903948D03*
%TO.N,/Analog/OUT_1_N*%
X81700000Y-46700000D03*
%TD*%
D14*
%TO.N,I2C_SDA*%
%TO.C,J13*%
X66300000Y-76600000D03*
D12*
%TO.N,I2C_SCL*%
X63760000Y-76600000D03*
%TD*%
D14*
%TO.N,GNDD*%
%TO.C,J2*%
X47100000Y-90500000D03*
%TD*%
D15*
%TO.N,GNDD*%
%TO.C,U7*%
X85700000Y-89600000D03*
X84300000Y-89600000D03*
X86400000Y-90300000D03*
X85000000Y-90300000D03*
X83600000Y-90300000D03*
X85700000Y-91000000D03*
X84300000Y-91000000D03*
X86400000Y-91700000D03*
X85000000Y-91700000D03*
X83600000Y-91700000D03*
X85700000Y-92400000D03*
X84300000Y-92400000D03*
%TD*%
D16*
%TO.N,/Analog/Electrode+*%
%TO.C,J6*%
X38000000Y-38000000D03*
D17*
%TO.N,/Analog/Electrode-*%
X33000000Y-43000000D03*
D16*
%TO.N,/Analog/ElectrodeDRL*%
X38000000Y-48000000D03*
%TD*%
D10*
%TO.N,GNDA*%
%TO.C,U3*%
X53500000Y-79150000D03*
X52549999Y-78575000D03*
X54450001Y-78575000D03*
X53500000Y-78000000D03*
%TD*%
D14*
%TO.N,/Analog/A2*%
%TO.C,J9*%
X58360000Y-57800000D03*
D12*
%TO.N,/Analog/A0*%
X60900000Y-57800000D03*
%TO.N,/Analog/A1*%
X63440000Y-57800000D03*
%TD*%
D14*
%TO.N,/Analog/LTC6373_OUT_N*%
%TO.C,J7*%
X68000000Y-41600000D03*
D12*
%TO.N,-5V_InAmp*%
X68000000Y-44140000D03*
%TO.N,/Analog/LTC6373_OUT_P*%
X68000000Y-46680000D03*
%TO.N,+5V_InAmp*%
X68000000Y-49220000D03*
%TD*%
D14*
%TO.N,/Analog/V0CM*%
%TO.C,J8*%
X56700000Y-40600000D03*
D12*
%TO.N,/Analog/IN+*%
X56700000Y-43140000D03*
%TO.N,/Analog/IN-*%
X56700000Y-45680000D03*
%TO.N,GNDA*%
X56700000Y-48220000D03*
%TD*%
D18*
%TO.N,GNDA*%
%TO.C,U4*%
X35450000Y-81350001D03*
X36950000Y-81350001D03*
X36200000Y-80850001D03*
X35450000Y-80350001D03*
X36950000Y-80350001D03*
%TD*%
D14*
%TO.N,GNDA*%
%TO.C,J3*%
X47100000Y-82600000D03*
%TD*%
D19*
%TO.N,GNDD*%
%TO.C,U6*%
X46000000Y-99000000D03*
X45425000Y-99950000D03*
X45425000Y-98050000D03*
X44850000Y-99000000D03*
%TD*%
D16*
%TO.N,Net-(J11-PadR)*%
%TO.C,J11*%
X92000000Y-48000000D03*
D17*
%TO.N,GNDA*%
X97000000Y-43000000D03*
D16*
%TO.N,Net-(J11-PadT)*%
X92000000Y-38000000D03*
%TD*%
D20*
%TO.N,GNDD*%
%TO.C,J5*%
X94500000Y-62930000D03*
D21*
X98680000Y-62930000D03*
D20*
X94500000Y-54290000D03*
D21*
X98680000Y-54290000D03*
%TD*%
D22*
%TO.N,+5V_DRL*%
X48600000Y-56300000D03*
X48600000Y-49200000D03*
%TO.N,Net-(FB1-Pad2)*%
X66100000Y-68600000D03*
X62200000Y-84100000D03*
%TO.N,+5V*%
X33600000Y-79375001D03*
X43500000Y-76400000D03*
X50500000Y-82100000D03*
%TO.N,GNDD*%
X100900000Y-53500000D03*
X61000000Y-72500000D03*
X93500000Y-88000000D03*
X93500000Y-95500000D03*
X79896446Y-111500000D03*
X61000000Y-77000000D03*
X61000000Y-80000000D03*
X67200000Y-81900000D03*
X50100000Y-107500000D03*
X60250000Y-123500000D03*
X29100000Y-103500000D03*
X85000000Y-55000000D03*
X29100000Y-112500000D03*
X39500000Y-108300000D03*
X39062500Y-108750000D03*
X75000000Y-60500000D03*
X85000000Y-62500000D03*
X29100000Y-100500000D03*
X56500000Y-98500000D03*
X60000000Y-92500000D03*
X31500000Y-88500000D03*
X29100000Y-117000000D03*
X46000000Y-95000000D03*
X81900000Y-103300000D03*
X29100000Y-114000000D03*
X93500000Y-100000000D03*
X76200000Y-75500000D03*
X76400000Y-108100000D03*
X93500000Y-69500000D03*
X29100000Y-111000000D03*
X29100000Y-97500000D03*
X91500000Y-117000000D03*
X61000000Y-74000000D03*
X29100000Y-102000000D03*
X100000000Y-129900000D03*
X51000000Y-87000000D03*
X99500000Y-68000000D03*
X72000000Y-129900000D03*
X67800000Y-83600000D03*
X77800000Y-81800000D03*
X61700000Y-116600000D03*
X58500000Y-87000000D03*
X54500000Y-98500000D03*
X39000000Y-87000000D03*
X54000000Y-87000000D03*
X33100000Y-94200000D03*
X65500000Y-85000000D03*
X32000000Y-99000000D03*
X35000000Y-100500000D03*
X77500000Y-99500000D03*
X71800000Y-72100000D03*
X73500000Y-117000000D03*
X69000000Y-98500000D03*
X52500000Y-87000000D03*
X91500000Y-109500000D03*
X92500000Y-52500000D03*
X58500000Y-123600000D03*
X69500000Y-86000000D03*
X75000000Y-62500000D03*
X39500000Y-101000000D03*
X29100000Y-126000000D03*
X87500000Y-52500000D03*
X59400000Y-110300000D03*
X68800000Y-69600000D03*
X56000000Y-129900000D03*
X29100000Y-109500000D03*
X72600000Y-70200000D03*
X54500000Y-110500000D03*
X100900000Y-59500000D03*
X77500000Y-65000000D03*
X42500000Y-97000000D03*
X34500000Y-95700000D03*
X36900000Y-91300000D03*
X80000000Y-117000000D03*
X100900000Y-117000000D03*
X29100000Y-99000000D03*
X99000000Y-117000000D03*
X64000000Y-62000000D03*
X84800000Y-112000000D03*
X29100000Y-94500000D03*
X93500000Y-74500000D03*
X88500000Y-117000000D03*
X29100000Y-121500000D03*
X65750000Y-114750000D03*
X29100000Y-106500000D03*
X91500000Y-114500000D03*
X65500000Y-100500000D03*
X84500000Y-103300000D03*
X88700000Y-80900000D03*
X75089539Y-73863072D03*
X78800000Y-77900000D03*
X52000000Y-126000000D03*
X93500000Y-85500000D03*
X100000000Y-52500000D03*
X32000000Y-97500000D03*
X29100000Y-120000000D03*
X91500000Y-112000000D03*
X90637500Y-58500000D03*
X100900000Y-128000000D03*
X64900000Y-66600000D03*
X69000000Y-100500000D03*
X29100000Y-91500000D03*
X93500000Y-90500000D03*
X30000000Y-129900000D03*
X29100000Y-127500000D03*
X97000000Y-117000000D03*
X40000000Y-129900000D03*
X40000000Y-97000000D03*
X46500000Y-87000000D03*
X72100000Y-67500000D03*
X62000000Y-91000000D03*
X85000000Y-65000000D03*
X72000000Y-64200000D03*
X64200000Y-116000000D03*
X92000000Y-123000000D03*
X70000000Y-122000000D03*
X70000000Y-126000000D03*
X81250000Y-105500000D03*
X100900000Y-57500000D03*
X38000000Y-94900000D03*
X41500000Y-99000000D03*
X29100000Y-123000000D03*
X66548527Y-111400000D03*
X80000000Y-129900000D03*
X55500000Y-87000000D03*
X45000000Y-87000000D03*
X100900000Y-61500000D03*
X100900000Y-65500000D03*
X29100000Y-90000000D03*
X38000000Y-129900000D03*
X76500000Y-117000000D03*
X39500000Y-109200000D03*
X93500000Y-98000000D03*
X42000000Y-87000000D03*
X97500000Y-52500000D03*
X61000000Y-75500000D03*
X61000000Y-83000000D03*
X34500000Y-87000000D03*
X85000000Y-117000000D03*
X65500000Y-98500000D03*
X31500000Y-87000000D03*
X66500000Y-61900000D03*
X68000000Y-129900000D03*
X69048528Y-112700000D03*
X66200000Y-60100000D03*
X77500000Y-87500000D03*
X64000000Y-129900000D03*
X88000000Y-129900000D03*
X100900000Y-67500000D03*
X88250000Y-109500000D03*
X33000000Y-129900000D03*
X46800000Y-107500000D03*
X90000000Y-52500000D03*
X36200000Y-87600000D03*
X96000000Y-129900000D03*
X63100000Y-114000000D03*
X61000000Y-84500000D03*
X55000000Y-122000000D03*
X83200000Y-103300000D03*
X29100000Y-115500000D03*
X34000000Y-99000000D03*
X55000000Y-126000000D03*
X100900000Y-63500000D03*
X52000000Y-129900000D03*
X95000000Y-117000000D03*
X85000000Y-60000000D03*
X40500000Y-87000000D03*
X53100000Y-90600000D03*
X71400000Y-83600000D03*
X31500000Y-90000000D03*
X84500000Y-107500000D03*
X36000000Y-101500000D03*
X79400000Y-81800000D03*
X67400000Y-70800000D03*
X61000000Y-81500000D03*
X100900000Y-120000000D03*
X38600000Y-108300000D03*
X37400000Y-97500000D03*
X64000000Y-89000000D03*
X93500000Y-93000000D03*
X29100000Y-118500000D03*
X85000000Y-57500000D03*
X32000000Y-96500000D03*
X100900000Y-55500000D03*
X92000000Y-129900000D03*
X77500000Y-92500000D03*
X81500000Y-80600000D03*
X58500000Y-114898528D03*
X87000000Y-103300000D03*
X82500000Y-65000000D03*
X38500000Y-89500000D03*
X93500000Y-76500000D03*
X82750000Y-107250000D03*
X85700000Y-103300000D03*
X100900000Y-124000000D03*
X44000000Y-129900000D03*
X56500000Y-97000000D03*
X65000000Y-61000000D03*
X29100000Y-105000000D03*
X38600000Y-109200000D03*
X29100000Y-129000000D03*
X33900000Y-92000000D03*
X49500000Y-87000000D03*
X62000000Y-111500000D03*
X85000000Y-52500000D03*
X48000000Y-129900000D03*
X43500000Y-87000000D03*
X48000000Y-87000000D03*
X29100000Y-88500000D03*
X61700000Y-121700000D03*
X72500000Y-86000000D03*
X60000000Y-129900000D03*
X61000000Y-78500000D03*
X59500000Y-114200000D03*
X75000000Y-65000000D03*
X96000000Y-68000000D03*
X55000000Y-117000000D03*
X29100000Y-108000000D03*
X37500000Y-99500000D03*
X70000000Y-117000000D03*
X95000000Y-52500000D03*
X80250000Y-109000000D03*
X84000000Y-129900000D03*
X77500000Y-97500000D03*
X38500000Y-91900000D03*
X29100000Y-93000000D03*
X30000000Y-87000000D03*
X29100000Y-124500000D03*
X48000000Y-126000000D03*
X76000000Y-129900000D03*
X56000000Y-112000000D03*
X53100000Y-94200000D03*
X57000000Y-87000000D03*
X80000000Y-65000000D03*
X29100000Y-96000000D03*
X93500000Y-72500000D03*
%TO.N,V_IN*%
X39000000Y-103000000D03*
X41600000Y-109500000D03*
X39050000Y-106150000D03*
%TO.N,I2C_SDA*%
X88500000Y-82400000D03*
X69700000Y-82000000D03*
X71200000Y-63200000D03*
X39500000Y-95100000D03*
%TO.N,I2C_SCL*%
X68800000Y-82600000D03*
X70500000Y-62300000D03*
X87300000Y-82400000D03*
X39500000Y-94300000D03*
%TO.N,Net-(C24-Pad1)*%
X35307619Y-91212953D03*
X33100000Y-91900000D03*
%TO.N,+3.5V_ESP*%
X89800000Y-76600000D03*
X65850000Y-82050000D03*
X55000000Y-108500000D03*
X62219778Y-112269222D03*
X66200000Y-113900000D03*
%TO.N,+3.3V_TAC_A*%
X70900000Y-51400000D03*
X68500000Y-38500000D03*
%TO.N,GNDA*%
X74100000Y-56900000D03*
X30000000Y-86000000D03*
X29100000Y-74500000D03*
X29100000Y-46000000D03*
X60000000Y-68200000D03*
X63000000Y-60800000D03*
X67500000Y-58500000D03*
X29100000Y-58000000D03*
X64100000Y-45600000D03*
X59980386Y-66294822D03*
X43100000Y-71400000D03*
X29100000Y-64000000D03*
X42000000Y-37100000D03*
X62200000Y-37100000D03*
X29100000Y-56500000D03*
X29100000Y-37100000D03*
X80500000Y-61500000D03*
X63700000Y-41600000D03*
X45500000Y-71400000D03*
X59600000Y-61900000D03*
X55000000Y-40000000D03*
X50300000Y-75400000D03*
X29100000Y-70000000D03*
X58300000Y-45500000D03*
X29100000Y-85000000D03*
X84000000Y-54000000D03*
X58000000Y-56000000D03*
X50000000Y-37100000D03*
X45500000Y-48000000D03*
X60000000Y-77000000D03*
X74100000Y-61100000D03*
X95000000Y-37100000D03*
X29100000Y-59500000D03*
X77000000Y-44500000D03*
X29100000Y-55000000D03*
X100900000Y-51500000D03*
X60000000Y-74000000D03*
X55000000Y-37100000D03*
X68000000Y-55600000D03*
X45000000Y-37100000D03*
X55500000Y-86000000D03*
X29100000Y-76000000D03*
X29100000Y-40000000D03*
X69900000Y-56900000D03*
X37900000Y-52700000D03*
X29100000Y-47500000D03*
X47400000Y-66000000D03*
X58300000Y-48000000D03*
X91500000Y-51500000D03*
X77500000Y-53500000D03*
X80000000Y-63500000D03*
X69900000Y-61100000D03*
X100900000Y-45000000D03*
X40000000Y-59000000D03*
X63400000Y-47400000D03*
X63700000Y-52400000D03*
X56000000Y-59000000D03*
X52500000Y-86000000D03*
X80000000Y-37100000D03*
X29100000Y-67000000D03*
X29100000Y-38500000D03*
X94000000Y-51500000D03*
X29100000Y-77500000D03*
X36500000Y-66000000D03*
X51000000Y-86000000D03*
X66000000Y-48500000D03*
X60000000Y-78500000D03*
X57000000Y-86000000D03*
X99000000Y-51500000D03*
X60541942Y-40658058D03*
X70000000Y-37100000D03*
X43500000Y-86000000D03*
X75000000Y-37100000D03*
X54500000Y-56000000D03*
X100900000Y-37100000D03*
X84000000Y-59500000D03*
X36500000Y-71500000D03*
X60000000Y-86000000D03*
X49500000Y-86000000D03*
X46500000Y-86000000D03*
X29100000Y-62500000D03*
X29100000Y-61000000D03*
X48000000Y-86000000D03*
X69500000Y-49400000D03*
X42000000Y-86000000D03*
X100900000Y-49000000D03*
X95000000Y-40000000D03*
X49500000Y-59000000D03*
X74700000Y-48800000D03*
X63700000Y-50500000D03*
X38000000Y-41000000D03*
X60000000Y-84500000D03*
X35000000Y-59000000D03*
X72000000Y-51900000D03*
X55200000Y-75500000D03*
X58300000Y-43200000D03*
X56800000Y-51400000D03*
X38000000Y-45500000D03*
X96500000Y-51500000D03*
X71400000Y-43700000D03*
X76500000Y-63500000D03*
X65900000Y-51400000D03*
X29100000Y-71500000D03*
X29100000Y-82000000D03*
X29100000Y-83500000D03*
X29100000Y-52000000D03*
X60000000Y-37100000D03*
X88000000Y-51500000D03*
X66000000Y-59000000D03*
X36200000Y-84700000D03*
X50500000Y-66000000D03*
X29100000Y-79000000D03*
X83500000Y-63500000D03*
X58500000Y-86000000D03*
X73500000Y-50300000D03*
X31500000Y-86000000D03*
X60000000Y-80000000D03*
X43500000Y-66000000D03*
X29100000Y-50500000D03*
X60000000Y-72500000D03*
X29100000Y-73000000D03*
X78300000Y-59400000D03*
X45500000Y-44000000D03*
X84000000Y-62000000D03*
X45000000Y-86000000D03*
X51000000Y-55500000D03*
X57000000Y-71500000D03*
X58700000Y-64000000D03*
X72000000Y-59000000D03*
X29100000Y-43000000D03*
X39000000Y-86000000D03*
X29100000Y-41500000D03*
X55300000Y-66000000D03*
X50500000Y-71500000D03*
X40500000Y-86000000D03*
X65000000Y-42900000D03*
X82500000Y-40000000D03*
X29100000Y-65500000D03*
X29100000Y-49000000D03*
X54000000Y-86000000D03*
X45100000Y-52100000D03*
X64000000Y-59600000D03*
X87000000Y-40000000D03*
X29100000Y-44500000D03*
X33000000Y-86000000D03*
X76500000Y-62000000D03*
X60000000Y-83000000D03*
X54000000Y-80900000D03*
X74300000Y-53900000D03*
X70800000Y-47900000D03*
X68000000Y-53800000D03*
X76500000Y-50000000D03*
X60000000Y-69500000D03*
X100900000Y-40500000D03*
X84000000Y-57000000D03*
X29100000Y-68500000D03*
X55100000Y-77600000D03*
X84000000Y-51500000D03*
X60000000Y-81500000D03*
X60000000Y-71000000D03*
X53700000Y-44300000D03*
X29100000Y-80500000D03*
X29100000Y-53500000D03*
X60000000Y-75500000D03*
%TO.N,/MCU/USB_D_2_N*%
X77425000Y-79900000D03*
X84200000Y-70425000D03*
%TO.N,/MCU/USB_D_2_P*%
X76575000Y-79900000D03*
X84200000Y-69575000D03*
%TO.N,/Analog/A1*%
X62500000Y-49500000D03*
X62500000Y-55800000D03*
%TO.N,/Analog/DRL_IN*%
X50800000Y-44300000D03*
X50800000Y-49700000D03*
%TO.N,+3.3V_TAC_D*%
X70030593Y-67342352D03*
X66100000Y-65200000D03*
%TO.N,/Analog/OUT_2_N*%
X72249685Y-55600000D03*
%TO.N,/Analog/OUT_2_P*%
X72900000Y-55100000D03*
%TO.N,/Analog/OUT_1_P*%
X73514579Y-54587851D03*
%TO.N,/Analog/OUT_1_N*%
X74061037Y-56100949D03*
%TO.N,-5V_DRL*%
X44900000Y-51000000D03*
X48700000Y-60300000D03*
%TO.N,/Analog/A0*%
X61000000Y-55800000D03*
X61000000Y-49500000D03*
%TO.N,/Analog/A2*%
X59500000Y-49500000D03*
X59500000Y-40700000D03*
X59500000Y-55800000D03*
%TO.N,-5V_InAmp*%
X69816206Y-50516206D03*
X62800000Y-43700000D03*
X61500000Y-43700000D03*
X60300000Y-45300000D03*
X60300000Y-43700000D03*
X61500000Y-45300000D03*
X62700000Y-45300000D03*
X71800000Y-48800000D03*
%TO.N,MICBIAS*%
X79455000Y-60350000D03*
X76316590Y-59935160D03*
%TO.N,5V_USB*%
X90000000Y-62500000D03*
X89500000Y-54500000D03*
X34000000Y-106500000D03*
X87000000Y-58500000D03*
%TO.N,GAIN_A2*%
X60800000Y-68600000D03*
X62800000Y-68600000D03*
%TO.N,/MCU/SD_CLK*%
X62500000Y-110000000D03*
X60500000Y-116250000D03*
%TD*%
%TA.AperFunction,Conductor*%
%TO.N,GNDD*%
G36*
X101092512Y-52493315D02*
G01*
X101107527Y-52497712D01*
X101122542Y-52507347D01*
X101139664Y-52512366D01*
X101166307Y-52535430D01*
X101166326Y-52535443D01*
X101167519Y-52536817D01*
X101194997Y-52591650D01*
X101196654Y-52599251D01*
X101199499Y-52625662D01*
X101199499Y-68358170D01*
X101194474Y-68393114D01*
X101190069Y-68408112D01*
X101180438Y-68423101D01*
X101175431Y-68440175D01*
X101152326Y-68466855D01*
X101150957Y-68468042D01*
X101096096Y-68495518D01*
X101088538Y-68497163D01*
X101062167Y-68500000D01*
X94210000Y-68500000D01*
X94210000Y-116500000D01*
X101057670Y-116500000D01*
X101092605Y-116505023D01*
X101107603Y-116509427D01*
X101166354Y-116547172D01*
X101166378Y-116547200D01*
X101166381Y-116547202D01*
X101166382Y-116547204D01*
X101167541Y-116548541D01*
X101195017Y-116603402D01*
X101196662Y-116610960D01*
X101199499Y-116637331D01*
X101199499Y-129909943D01*
X101199498Y-129909949D01*
X101199499Y-129909952D01*
X101194474Y-129944887D01*
X101190069Y-129959885D01*
X101152312Y-130018640D01*
X101152291Y-130018657D01*
X101152290Y-130018660D01*
X101152287Y-130018661D01*
X101150788Y-130019961D01*
X101096309Y-130047345D01*
X101089100Y-130048937D01*
X101063127Y-130051852D01*
X77156972Y-130199496D01*
X77156648Y-130199497D01*
X77156087Y-130199499D01*
X77155645Y-130199500D01*
X28942330Y-130199500D01*
X28907389Y-130194475D01*
X28892390Y-130190070D01*
X28833644Y-130152327D01*
X28832457Y-130150958D01*
X28804977Y-130096083D01*
X28803332Y-130088521D01*
X28800500Y-130062168D01*
X28800500Y-127368707D01*
X96124500Y-127368707D01*
X96124500Y-127581291D01*
X96157752Y-127791239D01*
X96223445Y-127993418D01*
X96316532Y-128176111D01*
X96319951Y-128182820D01*
X96444890Y-128354786D01*
X96444892Y-128354788D01*
X96595216Y-128505112D01*
X96767169Y-128630042D01*
X96767177Y-128630047D01*
X96767179Y-128630048D01*
X96767181Y-128630049D01*
X96767182Y-128630050D01*
X96767200Y-128630060D01*
X96767442Y-128630182D01*
X96956588Y-128726557D01*
X97158757Y-128792246D01*
X97368713Y-128825500D01*
X97368714Y-128825500D01*
X97581286Y-128825500D01*
X97581287Y-128825500D01*
X97791243Y-128792246D01*
X97993412Y-128726557D01*
X98182816Y-128630051D01*
X98204789Y-128614086D01*
X98354786Y-128505109D01*
X98354786Y-128505108D01*
X98354844Y-128505066D01*
X98355605Y-128504290D01*
X98505104Y-128354792D01*
X98505106Y-128354788D01*
X98505109Y-128354786D01*
X98630048Y-128182820D01*
X98630047Y-128182820D01*
X98630051Y-128182816D01*
X98630053Y-128182810D01*
X98650445Y-128154744D01*
X98658730Y-128126529D01*
X98726557Y-127993412D01*
X98792246Y-127791243D01*
X98825500Y-127581287D01*
X98825500Y-127368713D01*
X98792246Y-127158757D01*
X98726557Y-126956588D01*
X98630051Y-126767184D01*
X98630049Y-126767181D01*
X98630048Y-126767179D01*
X98629702Y-126766703D01*
X98629700Y-126766699D01*
X98505112Y-126595216D01*
X98354788Y-126444892D01*
X98354786Y-126444890D01*
X98182820Y-126319951D01*
X98169167Y-126312994D01*
X98015245Y-126234567D01*
X98015240Y-126234565D01*
X97993414Y-126223444D01*
X97993413Y-126223443D01*
X97993412Y-126223443D01*
X97896550Y-126191970D01*
X97800074Y-126160623D01*
X97795552Y-126158770D01*
X97786362Y-126156600D01*
X97781599Y-126156226D01*
X97629957Y-126132208D01*
X97610489Y-126129124D01*
X97581290Y-126124500D01*
X97581287Y-126124500D01*
X97368713Y-126124500D01*
X97368709Y-126124500D01*
X97329776Y-126130666D01*
X97320042Y-126132208D01*
X97282654Y-126138129D01*
X97158763Y-126157752D01*
X96956582Y-126223445D01*
X96767182Y-126319949D01*
X96595210Y-126444892D01*
X96444892Y-126595210D01*
X96319949Y-126767182D01*
X96223445Y-126956580D01*
X96157752Y-127158759D01*
X96124500Y-127368707D01*
X28800500Y-127368707D01*
X28800500Y-118942546D01*
X29794237Y-118942546D01*
X29826416Y-119104315D01*
X29826417Y-119104319D01*
X29826418Y-119104322D01*
X29826421Y-119104332D01*
X29826424Y-119104340D01*
X29826429Y-119104354D01*
X29879217Y-119231797D01*
X29879222Y-119231806D01*
X29879232Y-119231823D01*
X29955886Y-119346543D01*
X29955887Y-119346544D01*
X29955892Y-119346550D01*
X30053448Y-119444106D01*
X30053454Y-119444111D01*
X30053458Y-119444114D01*
X30168182Y-119520771D01*
X30168195Y-119520778D01*
X30295667Y-119573578D01*
X30295672Y-119573580D01*
X30295676Y-119573580D01*
X30295677Y-119573581D01*
X30339957Y-119582389D01*
X30431002Y-119600500D01*
X30568995Y-119600500D01*
X30568996Y-119600500D01*
X30614518Y-119591444D01*
X30660041Y-119582389D01*
X30704328Y-119573580D01*
X30831811Y-119520775D01*
X30946542Y-119444114D01*
X31044114Y-119346542D01*
X31120775Y-119231811D01*
X31173580Y-119104328D01*
X31200500Y-118968993D01*
X31200500Y-118831007D01*
X31200500Y-118831004D01*
X31200500Y-118831001D01*
X31173640Y-118695975D01*
X31173639Y-118695970D01*
X31173340Y-118694469D01*
X31171260Y-118690072D01*
X31120778Y-118568195D01*
X31120771Y-118568182D01*
X31044114Y-118453458D01*
X31044111Y-118453454D01*
X31044106Y-118453448D01*
X30946550Y-118355892D01*
X30946544Y-118355887D01*
X30946543Y-118355886D01*
X30831823Y-118279232D01*
X30831822Y-118279231D01*
X30831817Y-118279228D01*
X30831804Y-118279221D01*
X30831797Y-118279217D01*
X30704354Y-118226429D01*
X30704340Y-118226424D01*
X30704332Y-118226421D01*
X30704322Y-118226418D01*
X30704319Y-118226417D01*
X30704315Y-118226416D01*
X30568998Y-118199500D01*
X30568995Y-118199500D01*
X30568993Y-118199500D01*
X30431007Y-118199500D01*
X30431005Y-118199500D01*
X30431000Y-118199500D01*
X30295683Y-118226416D01*
X30295677Y-118226418D01*
X30295667Y-118226421D01*
X30295662Y-118226422D01*
X30295644Y-118226429D01*
X30168201Y-118279217D01*
X30168192Y-118279222D01*
X30168175Y-118279232D01*
X30053455Y-118355886D01*
X30053454Y-118355887D01*
X30053448Y-118355892D01*
X29955892Y-118453448D01*
X29955887Y-118453454D01*
X29955886Y-118453455D01*
X29879232Y-118568175D01*
X29879222Y-118568192D01*
X29879217Y-118568201D01*
X29826429Y-118695644D01*
X29826416Y-118695683D01*
X29799500Y-118831000D01*
X29799500Y-118924626D01*
X29794237Y-118942546D01*
X28800500Y-118942546D01*
X28800500Y-116893707D01*
X41649500Y-116893707D01*
X41649500Y-117106291D01*
X41682752Y-117316239D01*
X41748445Y-117518418D01*
X41841532Y-117701111D01*
X41844951Y-117707820D01*
X41969890Y-117879786D01*
X41969892Y-117879788D01*
X42120216Y-118030112D01*
X42292169Y-118155042D01*
X42292177Y-118155047D01*
X42292179Y-118155048D01*
X42292181Y-118155049D01*
X42292182Y-118155050D01*
X42292200Y-118155060D01*
X42292442Y-118155182D01*
X42481588Y-118251557D01*
X42683757Y-118317246D01*
X42893713Y-118350500D01*
X42893714Y-118350500D01*
X43106286Y-118350500D01*
X43106287Y-118350500D01*
X43316243Y-118317246D01*
X43518412Y-118251557D01*
X43707816Y-118155051D01*
X43729789Y-118139086D01*
X43879786Y-118030109D01*
X43879786Y-118030108D01*
X43879844Y-118030066D01*
X43880605Y-118029290D01*
X44030104Y-117879792D01*
X44030106Y-117879788D01*
X44030109Y-117879786D01*
X44155048Y-117707820D01*
X44155047Y-117707820D01*
X44155051Y-117707816D01*
X44155053Y-117707810D01*
X44175445Y-117679744D01*
X44183730Y-117651529D01*
X44251557Y-117518412D01*
X44317246Y-117316243D01*
X44350500Y-117106287D01*
X44350500Y-116893713D01*
X44317246Y-116683757D01*
X44251557Y-116481588D01*
X44173732Y-116328848D01*
X59699499Y-116328848D01*
X59730257Y-116483471D01*
X59730264Y-116483502D01*
X59790598Y-116629165D01*
X59790603Y-116629174D01*
X59790613Y-116629191D01*
X59878211Y-116760290D01*
X59878212Y-116760291D01*
X59878217Y-116760297D01*
X59989701Y-116871781D01*
X59989707Y-116871786D01*
X59989711Y-116871789D01*
X60120814Y-116959390D01*
X60120827Y-116959397D01*
X60266498Y-117019735D01*
X60266503Y-117019737D01*
X60421153Y-117050499D01*
X60421156Y-117050500D01*
X60421158Y-117050500D01*
X60578844Y-117050500D01*
X60578845Y-117050499D01*
X60733497Y-117019737D01*
X60879179Y-116959394D01*
X61010289Y-116871789D01*
X61121789Y-116760289D01*
X61209394Y-116629179D01*
X61216941Y-116610960D01*
X61243350Y-116547202D01*
X61269737Y-116483497D01*
X61300500Y-116328842D01*
X61300500Y-116171158D01*
X61300500Y-116171155D01*
X61300499Y-116171153D01*
X61269737Y-116016503D01*
X61250432Y-115969896D01*
X61209397Y-115870827D01*
X61209390Y-115870814D01*
X61121789Y-115739711D01*
X61121786Y-115739707D01*
X61121781Y-115739701D01*
X61010297Y-115628217D01*
X61010291Y-115628212D01*
X61010290Y-115628211D01*
X60879191Y-115540613D01*
X60879190Y-115540612D01*
X60879185Y-115540609D01*
X60879172Y-115540602D01*
X60879165Y-115540598D01*
X60733502Y-115480264D01*
X60733471Y-115480257D01*
X60578847Y-115449500D01*
X60578845Y-115449500D01*
X60578842Y-115449500D01*
X60421158Y-115449500D01*
X60421155Y-115449500D01*
X60421153Y-115449500D01*
X60266527Y-115480257D01*
X60266496Y-115480264D01*
X60120833Y-115540598D01*
X60120824Y-115540603D01*
X60120807Y-115540613D01*
X59989708Y-115628211D01*
X59989707Y-115628212D01*
X59989701Y-115628217D01*
X59878217Y-115739701D01*
X59878212Y-115739707D01*
X59878211Y-115739708D01*
X59790613Y-115870807D01*
X59790603Y-115870824D01*
X59790598Y-115870833D01*
X59730264Y-116016496D01*
X59730257Y-116016527D01*
X59699500Y-116171150D01*
X59699500Y-116171153D01*
X59699500Y-116328846D01*
X59699500Y-116328848D01*
X59699499Y-116328848D01*
X44173732Y-116328848D01*
X44155051Y-116292184D01*
X44155049Y-116292181D01*
X44115649Y-116237950D01*
X44115648Y-116237949D01*
X44115645Y-116237944D01*
X44115643Y-116237941D01*
X44115641Y-116237940D01*
X44112781Y-116234003D01*
X44112781Y-116234002D01*
X44030121Y-116120231D01*
X44030109Y-116120214D01*
X44030105Y-116120209D01*
X43879786Y-115969890D01*
X43707820Y-115844951D01*
X43694167Y-115837994D01*
X43540245Y-115759567D01*
X43540240Y-115759565D01*
X43518414Y-115748444D01*
X43518413Y-115748443D01*
X43518412Y-115748443D01*
X43421550Y-115716970D01*
X43325074Y-115685623D01*
X43320552Y-115683770D01*
X43311362Y-115681600D01*
X43306599Y-115681226D01*
X43154957Y-115657208D01*
X43135489Y-115654124D01*
X43106290Y-115649500D01*
X43106287Y-115649500D01*
X42893713Y-115649500D01*
X42893709Y-115649500D01*
X42854776Y-115655666D01*
X42845042Y-115657208D01*
X42807654Y-115663129D01*
X42683763Y-115682752D01*
X42683760Y-115682753D01*
X42508472Y-115739708D01*
X42481582Y-115748445D01*
X42292182Y-115844949D01*
X42292179Y-115844950D01*
X42292179Y-115844951D01*
X42206196Y-115907420D01*
X42120210Y-115969892D01*
X41969892Y-116120210D01*
X41844949Y-116292182D01*
X41748445Y-116481580D01*
X41682752Y-116683759D01*
X41649500Y-116893707D01*
X28800500Y-116893707D01*
X28800500Y-113978848D01*
X65399499Y-113978848D01*
X65430257Y-114133471D01*
X65430264Y-114133502D01*
X65490598Y-114279165D01*
X65490603Y-114279174D01*
X65490613Y-114279191D01*
X65578211Y-114410290D01*
X65578212Y-114410291D01*
X65578217Y-114410297D01*
X65689701Y-114521781D01*
X65689707Y-114521786D01*
X65689711Y-114521789D01*
X65820814Y-114609390D01*
X65820827Y-114609397D01*
X65966498Y-114669735D01*
X65966503Y-114669737D01*
X66121153Y-114700499D01*
X66121156Y-114700500D01*
X66121158Y-114700500D01*
X66278844Y-114700500D01*
X66278845Y-114700499D01*
X66433497Y-114669737D01*
X66579179Y-114609394D01*
X66710289Y-114521789D01*
X66821789Y-114410289D01*
X66909394Y-114279179D01*
X66969737Y-114133497D01*
X67000500Y-113978842D01*
X67000500Y-113821158D01*
X67000500Y-113821155D01*
X67000500Y-113820973D01*
X67000065Y-113818972D01*
X66970397Y-113669824D01*
X66969994Y-113667467D01*
X66969738Y-113666508D01*
X66969737Y-113666506D01*
X66969737Y-113666503D01*
X66969735Y-113666498D01*
X66909397Y-113520827D01*
X66909390Y-113520814D01*
X66821789Y-113389711D01*
X66821786Y-113389707D01*
X66821781Y-113389701D01*
X66710297Y-113278217D01*
X66710291Y-113278212D01*
X66710290Y-113278211D01*
X66579191Y-113190613D01*
X66579190Y-113190612D01*
X66579185Y-113190609D01*
X66579172Y-113190602D01*
X66579165Y-113190598D01*
X66433502Y-113130264D01*
X66433471Y-113130257D01*
X66278847Y-113099500D01*
X66278845Y-113099500D01*
X66278842Y-113099500D01*
X66121158Y-113099500D01*
X66121155Y-113099500D01*
X66121153Y-113099500D01*
X65966527Y-113130257D01*
X65966496Y-113130264D01*
X65820833Y-113190598D01*
X65820824Y-113190603D01*
X65820807Y-113190613D01*
X65689708Y-113278211D01*
X65689707Y-113278212D01*
X65689701Y-113278217D01*
X65578217Y-113389701D01*
X65578212Y-113389707D01*
X65578211Y-113389708D01*
X65490613Y-113520807D01*
X65490603Y-113520824D01*
X65490598Y-113520833D01*
X65430264Y-113666496D01*
X65430257Y-113666527D01*
X65399500Y-113821150D01*
X65399500Y-113821153D01*
X65399500Y-113978846D01*
X65399500Y-113978848D01*
X65399499Y-113978848D01*
X28800500Y-113978848D01*
X28800500Y-112142546D01*
X29794237Y-112142546D01*
X29826416Y-112304315D01*
X29826417Y-112304319D01*
X29826418Y-112304322D01*
X29826421Y-112304332D01*
X29826424Y-112304340D01*
X29826429Y-112304354D01*
X29879217Y-112431797D01*
X29879222Y-112431806D01*
X29879232Y-112431823D01*
X29955886Y-112546543D01*
X29955887Y-112546544D01*
X29955892Y-112546550D01*
X30053448Y-112644106D01*
X30053454Y-112644111D01*
X30053458Y-112644114D01*
X30168182Y-112720771D01*
X30168195Y-112720778D01*
X30295667Y-112773578D01*
X30295672Y-112773580D01*
X30295676Y-112773580D01*
X30295677Y-112773581D01*
X30351472Y-112784679D01*
X30431002Y-112800500D01*
X30568995Y-112800500D01*
X30568996Y-112800500D01*
X30674516Y-112779510D01*
X30704328Y-112773580D01*
X30831811Y-112720775D01*
X30946542Y-112644114D01*
X31044114Y-112546542D01*
X31120775Y-112431811D01*
X31155462Y-112348070D01*
X61419277Y-112348070D01*
X61450035Y-112502693D01*
X61450042Y-112502724D01*
X61510376Y-112648387D01*
X61510381Y-112648396D01*
X61510391Y-112648413D01*
X61597988Y-112779510D01*
X61597990Y-112779513D01*
X61597995Y-112779519D01*
X61709479Y-112891003D01*
X61709485Y-112891008D01*
X61709489Y-112891011D01*
X61840592Y-112978612D01*
X61840605Y-112978619D01*
X61986276Y-113038957D01*
X61986281Y-113038959D01*
X62140931Y-113069721D01*
X62140934Y-113069722D01*
X62140936Y-113069722D01*
X62298622Y-113069722D01*
X62298623Y-113069721D01*
X62453275Y-113038959D01*
X62598957Y-112978616D01*
X62730067Y-112891011D01*
X62841567Y-112779511D01*
X62929172Y-112648401D01*
X62989515Y-112502719D01*
X63020278Y-112348064D01*
X63020278Y-112190380D01*
X63020278Y-112190377D01*
X63020278Y-112190195D01*
X63019843Y-112188194D01*
X62990176Y-112039052D01*
X62989761Y-112036625D01*
X62989515Y-112035726D01*
X62987560Y-112031007D01*
X62931502Y-111895667D01*
X62929175Y-111890049D01*
X62929168Y-111890036D01*
X62841567Y-111758933D01*
X62841564Y-111758929D01*
X62841559Y-111758923D01*
X62730075Y-111647439D01*
X62730069Y-111647434D01*
X62730068Y-111647433D01*
X62598969Y-111559835D01*
X62598968Y-111559834D01*
X62598963Y-111559831D01*
X62598950Y-111559824D01*
X62598943Y-111559820D01*
X62453280Y-111499486D01*
X62453249Y-111499479D01*
X62298625Y-111468722D01*
X62298623Y-111468722D01*
X62298620Y-111468722D01*
X62140936Y-111468722D01*
X62140933Y-111468722D01*
X62140931Y-111468722D01*
X61986305Y-111499479D01*
X61986274Y-111499486D01*
X61840611Y-111559820D01*
X61840602Y-111559825D01*
X61840585Y-111559835D01*
X61709486Y-111647433D01*
X61709485Y-111647434D01*
X61709479Y-111647439D01*
X61597995Y-111758923D01*
X61597990Y-111758929D01*
X61510391Y-111890029D01*
X61510385Y-111890040D01*
X61510376Y-111890055D01*
X61450042Y-112035718D01*
X61450035Y-112035749D01*
X61419278Y-112190372D01*
X61419278Y-112190375D01*
X61419278Y-112348068D01*
X61419278Y-112348070D01*
X61419277Y-112348070D01*
X31155462Y-112348070D01*
X31173580Y-112304328D01*
X31196246Y-112190380D01*
X31200500Y-112168995D01*
X31200500Y-112031004D01*
X31200500Y-112031001D01*
X31173640Y-111895974D01*
X31173303Y-111894282D01*
X31171315Y-111890012D01*
X31171248Y-111890040D01*
X31120781Y-111768201D01*
X31120776Y-111768192D01*
X31120771Y-111768182D01*
X31044114Y-111653458D01*
X31044111Y-111653454D01*
X31044106Y-111653448D01*
X30946550Y-111555892D01*
X30946544Y-111555887D01*
X30946543Y-111555886D01*
X30831823Y-111479232D01*
X30831822Y-111479231D01*
X30831817Y-111479228D01*
X30831804Y-111479221D01*
X30831797Y-111479217D01*
X30704354Y-111426429D01*
X30704340Y-111426424D01*
X30704332Y-111426421D01*
X30704322Y-111426418D01*
X30704319Y-111426417D01*
X30704315Y-111426416D01*
X30568998Y-111399500D01*
X30568995Y-111399500D01*
X30568993Y-111399500D01*
X30431007Y-111399500D01*
X30431005Y-111399500D01*
X30431000Y-111399500D01*
X30295683Y-111426416D01*
X30295677Y-111426418D01*
X30295667Y-111426421D01*
X30295662Y-111426422D01*
X30295644Y-111426429D01*
X30168201Y-111479217D01*
X30168192Y-111479222D01*
X30168175Y-111479232D01*
X30053455Y-111555886D01*
X30053454Y-111555887D01*
X30053448Y-111555892D01*
X29955892Y-111653448D01*
X29955887Y-111653454D01*
X29955886Y-111653455D01*
X29879232Y-111768175D01*
X29879222Y-111768192D01*
X29879217Y-111768201D01*
X29826429Y-111895644D01*
X29826416Y-111895683D01*
X29799500Y-112031000D01*
X29799500Y-112124626D01*
X29794237Y-112142546D01*
X28800500Y-112142546D01*
X28800500Y-109578848D01*
X40799499Y-109578848D01*
X40830257Y-109733471D01*
X40830261Y-109733488D01*
X40830263Y-109733500D01*
X40890598Y-109879165D01*
X40890603Y-109879174D01*
X40890613Y-109879191D01*
X40978211Y-110010290D01*
X40978212Y-110010291D01*
X40978217Y-110010297D01*
X41089701Y-110121781D01*
X41089707Y-110121786D01*
X41089711Y-110121789D01*
X41220814Y-110209390D01*
X41220827Y-110209397D01*
X41366498Y-110269735D01*
X41366503Y-110269737D01*
X41521153Y-110300499D01*
X41521156Y-110300500D01*
X41521158Y-110300500D01*
X41678844Y-110300500D01*
X41678845Y-110300499D01*
X41833497Y-110269737D01*
X41979179Y-110209394D01*
X42110289Y-110121789D01*
X42153230Y-110078848D01*
X61699499Y-110078848D01*
X61730257Y-110233471D01*
X61730264Y-110233502D01*
X61790598Y-110379165D01*
X61790603Y-110379174D01*
X61790613Y-110379191D01*
X61878211Y-110510290D01*
X61878212Y-110510291D01*
X61878217Y-110510297D01*
X61989701Y-110621781D01*
X61989707Y-110621786D01*
X61989711Y-110621789D01*
X62120814Y-110709390D01*
X62120827Y-110709397D01*
X62266498Y-110769735D01*
X62266503Y-110769737D01*
X62421153Y-110800499D01*
X62421156Y-110800500D01*
X62421158Y-110800500D01*
X62578844Y-110800500D01*
X62578845Y-110800499D01*
X62733497Y-110769737D01*
X62879179Y-110709394D01*
X63010289Y-110621789D01*
X63121789Y-110510289D01*
X63209394Y-110379179D01*
X63269737Y-110233497D01*
X63300500Y-110078842D01*
X63300500Y-109921158D01*
X63300500Y-109921155D01*
X63300500Y-109920973D01*
X63300065Y-109918972D01*
X63292151Y-109879185D01*
X63270395Y-109769815D01*
X63269984Y-109767406D01*
X63269737Y-109766508D01*
X63269737Y-109766503D01*
X63256062Y-109733489D01*
X63209397Y-109620827D01*
X63209390Y-109620814D01*
X63121789Y-109489711D01*
X63121786Y-109489707D01*
X63121781Y-109489701D01*
X63010297Y-109378217D01*
X63010291Y-109378212D01*
X63010290Y-109378211D01*
X62879191Y-109290613D01*
X62879190Y-109290612D01*
X62879185Y-109290609D01*
X62879172Y-109290602D01*
X62879165Y-109290598D01*
X62733502Y-109230264D01*
X62733471Y-109230257D01*
X62578847Y-109199500D01*
X62578845Y-109199500D01*
X62578842Y-109199500D01*
X62421158Y-109199500D01*
X62421155Y-109199500D01*
X62421153Y-109199500D01*
X62266527Y-109230257D01*
X62266496Y-109230264D01*
X62120833Y-109290598D01*
X62120824Y-109290603D01*
X62120807Y-109290613D01*
X61989708Y-109378211D01*
X61989707Y-109378212D01*
X61989701Y-109378217D01*
X61878217Y-109489701D01*
X61878212Y-109489707D01*
X61878211Y-109489708D01*
X61790613Y-109620807D01*
X61790603Y-109620824D01*
X61790598Y-109620833D01*
X61730264Y-109766496D01*
X61730257Y-109766527D01*
X61699500Y-109921150D01*
X61699500Y-109921153D01*
X61699500Y-110078846D01*
X61699500Y-110078848D01*
X61699499Y-110078848D01*
X42153230Y-110078848D01*
X42221789Y-110010289D01*
X42309394Y-109879179D01*
X42309400Y-109879165D01*
X42314187Y-109867609D01*
X42354687Y-109769830D01*
X42369737Y-109733497D01*
X42400500Y-109578842D01*
X42400500Y-109421158D01*
X42400500Y-109421155D01*
X42400500Y-109420973D01*
X42400065Y-109418972D01*
X42391957Y-109378213D01*
X42374531Y-109290606D01*
X42369737Y-109266503D01*
X42369735Y-109266498D01*
X42309397Y-109120827D01*
X42309390Y-109120814D01*
X42221789Y-108989711D01*
X42221786Y-108989707D01*
X42221781Y-108989701D01*
X42110297Y-108878217D01*
X42110291Y-108878212D01*
X42110290Y-108878211D01*
X41979191Y-108790613D01*
X41979190Y-108790612D01*
X41979185Y-108790609D01*
X41979172Y-108790602D01*
X41979165Y-108790598D01*
X41833502Y-108730264D01*
X41833471Y-108730257D01*
X41678847Y-108699500D01*
X41678845Y-108699500D01*
X41678842Y-108699500D01*
X41521158Y-108699500D01*
X41521155Y-108699500D01*
X41521153Y-108699500D01*
X41366527Y-108730257D01*
X41366496Y-108730264D01*
X41220833Y-108790598D01*
X41220824Y-108790603D01*
X41220807Y-108790613D01*
X41089708Y-108878211D01*
X41089707Y-108878212D01*
X41089701Y-108878217D01*
X40978217Y-108989701D01*
X40978212Y-108989707D01*
X40978211Y-108989708D01*
X40890613Y-109120807D01*
X40890603Y-109120824D01*
X40890598Y-109120833D01*
X40830264Y-109266496D01*
X40830257Y-109266527D01*
X40799500Y-109421150D01*
X40799500Y-109421153D01*
X40799500Y-109578846D01*
X40799500Y-109578848D01*
X40799499Y-109578848D01*
X28800500Y-109578848D01*
X28800500Y-108578848D01*
X54199499Y-108578848D01*
X54230257Y-108733471D01*
X54230264Y-108733502D01*
X54290598Y-108879165D01*
X54290603Y-108879174D01*
X54290613Y-108879191D01*
X54378211Y-109010290D01*
X54378212Y-109010291D01*
X54378217Y-109010297D01*
X54489701Y-109121781D01*
X54489707Y-109121786D01*
X54489711Y-109121789D01*
X54620814Y-109209390D01*
X54620827Y-109209397D01*
X54620829Y-109209397D01*
X54620833Y-109209400D01*
X54758678Y-109266497D01*
X54766495Y-109269734D01*
X54766506Y-109269738D01*
X54836795Y-109283719D01*
X54921153Y-109300499D01*
X54921156Y-109300500D01*
X54921158Y-109300500D01*
X55078844Y-109300500D01*
X55078845Y-109300499D01*
X55233497Y-109269737D01*
X55379179Y-109209394D01*
X55510289Y-109121789D01*
X55621789Y-109010289D01*
X55709394Y-108879179D01*
X55709793Y-108878217D01*
X55746079Y-108790613D01*
X55769737Y-108733497D01*
X55800500Y-108578842D01*
X55800500Y-108421158D01*
X55800500Y-108421155D01*
X55800500Y-108420973D01*
X55800065Y-108418972D01*
X55770397Y-108269824D01*
X55769994Y-108267467D01*
X55769738Y-108266508D01*
X55769737Y-108266506D01*
X55769737Y-108266503D01*
X55769735Y-108266498D01*
X55709397Y-108120827D01*
X55709390Y-108120814D01*
X55621789Y-107989711D01*
X55621786Y-107989707D01*
X55621781Y-107989701D01*
X55510297Y-107878217D01*
X55510291Y-107878212D01*
X55510290Y-107878211D01*
X55379191Y-107790613D01*
X55379190Y-107790612D01*
X55379185Y-107790609D01*
X55379172Y-107790602D01*
X55379165Y-107790598D01*
X55233502Y-107730264D01*
X55233471Y-107730257D01*
X55078847Y-107699500D01*
X55078845Y-107699500D01*
X55078842Y-107699500D01*
X54921158Y-107699500D01*
X54921155Y-107699500D01*
X54921153Y-107699500D01*
X54766527Y-107730257D01*
X54766496Y-107730264D01*
X54620833Y-107790598D01*
X54620824Y-107790603D01*
X54620807Y-107790613D01*
X54489708Y-107878211D01*
X54489707Y-107878212D01*
X54489701Y-107878217D01*
X54378217Y-107989701D01*
X54378212Y-107989707D01*
X54378211Y-107989708D01*
X54290613Y-108120807D01*
X54290603Y-108120824D01*
X54290598Y-108120833D01*
X54230264Y-108266496D01*
X54230257Y-108266527D01*
X54199500Y-108421150D01*
X54199500Y-108421153D01*
X54199500Y-108578846D01*
X54199500Y-108578848D01*
X54199499Y-108578848D01*
X28800500Y-108578848D01*
X28800500Y-106578848D01*
X33199499Y-106578848D01*
X33230257Y-106733471D01*
X33230264Y-106733502D01*
X33290598Y-106879165D01*
X33290603Y-106879174D01*
X33290613Y-106879191D01*
X33378211Y-107010290D01*
X33378212Y-107010291D01*
X33378217Y-107010297D01*
X33489701Y-107121781D01*
X33489707Y-107121786D01*
X33489711Y-107121789D01*
X33620814Y-107209390D01*
X33620827Y-107209397D01*
X33766498Y-107269735D01*
X33766503Y-107269737D01*
X33921153Y-107300499D01*
X33921156Y-107300500D01*
X33921158Y-107300500D01*
X34078844Y-107300500D01*
X34078845Y-107300499D01*
X34233497Y-107269737D01*
X34379179Y-107209394D01*
X34510289Y-107121789D01*
X34621789Y-107010289D01*
X34709394Y-106879179D01*
X34769737Y-106733497D01*
X34800500Y-106578842D01*
X34800500Y-106421158D01*
X34800500Y-106421155D01*
X34800499Y-106421153D01*
X34769737Y-106266503D01*
X34754140Y-106228848D01*
X38249499Y-106228848D01*
X38280257Y-106383471D01*
X38280264Y-106383502D01*
X38340598Y-106529165D01*
X38340603Y-106529174D01*
X38340613Y-106529191D01*
X38428211Y-106660290D01*
X38428212Y-106660291D01*
X38428217Y-106660297D01*
X38539701Y-106771781D01*
X38539707Y-106771786D01*
X38539711Y-106771789D01*
X38670814Y-106859390D01*
X38670827Y-106859397D01*
X38816498Y-106919735D01*
X38816503Y-106919737D01*
X38971153Y-106950499D01*
X38971156Y-106950500D01*
X38971158Y-106950500D01*
X39128844Y-106950500D01*
X39128845Y-106950499D01*
X39283497Y-106919737D01*
X39429179Y-106859394D01*
X39560289Y-106771789D01*
X39671789Y-106660289D01*
X39759394Y-106529179D01*
X39819737Y-106383497D01*
X39850500Y-106228842D01*
X39850500Y-106071158D01*
X39850500Y-106071155D01*
X39850500Y-106070973D01*
X39850065Y-106068972D01*
X39820398Y-105919830D01*
X39819984Y-105917406D01*
X39819737Y-105916508D01*
X39819737Y-105916503D01*
X39803876Y-105878210D01*
X39767591Y-105790609D01*
X39759400Y-105770833D01*
X39759395Y-105770824D01*
X39759390Y-105770814D01*
X39671789Y-105639711D01*
X39671786Y-105639707D01*
X39671781Y-105639701D01*
X39560297Y-105528217D01*
X39560291Y-105528212D01*
X39560290Y-105528211D01*
X39429191Y-105440613D01*
X39429190Y-105440612D01*
X39429185Y-105440609D01*
X39429172Y-105440602D01*
X39429165Y-105440598D01*
X39283502Y-105380264D01*
X39283471Y-105380257D01*
X39128847Y-105349500D01*
X39128845Y-105349500D01*
X39128842Y-105349500D01*
X38971158Y-105349500D01*
X38971155Y-105349500D01*
X38971153Y-105349500D01*
X38816527Y-105380257D01*
X38816496Y-105380264D01*
X38670833Y-105440598D01*
X38670824Y-105440603D01*
X38670807Y-105440613D01*
X38539708Y-105528211D01*
X38539707Y-105528212D01*
X38539701Y-105528217D01*
X38428217Y-105639701D01*
X38428212Y-105639707D01*
X38428211Y-105639708D01*
X38340613Y-105770807D01*
X38340603Y-105770824D01*
X38340598Y-105770833D01*
X38280264Y-105916496D01*
X38280257Y-105916527D01*
X38249500Y-106071150D01*
X38249500Y-106228844D01*
X38249499Y-106228848D01*
X34754140Y-106228848D01*
X34754138Y-106228844D01*
X34709394Y-106120820D01*
X34709392Y-106120816D01*
X34621787Y-105989708D01*
X34621786Y-105989707D01*
X34621781Y-105989701D01*
X34510297Y-105878217D01*
X34510290Y-105878211D01*
X34510288Y-105878210D01*
X34379191Y-105790613D01*
X34379190Y-105790612D01*
X34379185Y-105790609D01*
X34379172Y-105790602D01*
X34379165Y-105790598D01*
X34233502Y-105730264D01*
X34233471Y-105730257D01*
X34078847Y-105699500D01*
X34078845Y-105699500D01*
X34078842Y-105699500D01*
X33921158Y-105699500D01*
X33921155Y-105699500D01*
X33921153Y-105699500D01*
X33766527Y-105730257D01*
X33766496Y-105730264D01*
X33620833Y-105790598D01*
X33620824Y-105790603D01*
X33620807Y-105790613D01*
X33489711Y-105878210D01*
X33489709Y-105878211D01*
X33489701Y-105878217D01*
X33378217Y-105989701D01*
X33378212Y-105989707D01*
X33378211Y-105989708D01*
X33290613Y-106120807D01*
X33290603Y-106120824D01*
X33290598Y-106120833D01*
X33230264Y-106266496D01*
X33230257Y-106266527D01*
X33199500Y-106421150D01*
X33199500Y-106421153D01*
X33199500Y-106578846D01*
X33199500Y-106578848D01*
X33199499Y-106578848D01*
X28800500Y-106578848D01*
X28800500Y-103078848D01*
X38199499Y-103078848D01*
X38230257Y-103233471D01*
X38230264Y-103233502D01*
X38290598Y-103379165D01*
X38290603Y-103379174D01*
X38290613Y-103379191D01*
X38378211Y-103510290D01*
X38378212Y-103510291D01*
X38378217Y-103510297D01*
X38489701Y-103621781D01*
X38489707Y-103621786D01*
X38489711Y-103621789D01*
X38620814Y-103709390D01*
X38620827Y-103709397D01*
X38766498Y-103769735D01*
X38766503Y-103769737D01*
X38921153Y-103800499D01*
X38921156Y-103800500D01*
X38921158Y-103800500D01*
X39078844Y-103800500D01*
X39078845Y-103800499D01*
X39233497Y-103769737D01*
X39379179Y-103709394D01*
X39510289Y-103621789D01*
X39621789Y-103510289D01*
X39709394Y-103379179D01*
X39769737Y-103233497D01*
X39800500Y-103078842D01*
X39800500Y-102921158D01*
X39800500Y-102921155D01*
X39800500Y-102920973D01*
X39800065Y-102918972D01*
X39770397Y-102769824D01*
X39769994Y-102767467D01*
X39769738Y-102766508D01*
X39769737Y-102766506D01*
X39769737Y-102766503D01*
X39769735Y-102766498D01*
X39709397Y-102620827D01*
X39709390Y-102620814D01*
X39621789Y-102489711D01*
X39621786Y-102489707D01*
X39621781Y-102489701D01*
X39510297Y-102378217D01*
X39510291Y-102378212D01*
X39510290Y-102378211D01*
X39379191Y-102290613D01*
X39379190Y-102290612D01*
X39379185Y-102290609D01*
X39379172Y-102290602D01*
X39379165Y-102290598D01*
X39233502Y-102230264D01*
X39233471Y-102230257D01*
X39078847Y-102199500D01*
X39078845Y-102199500D01*
X39078842Y-102199500D01*
X38921158Y-102199500D01*
X38921155Y-102199500D01*
X38921153Y-102199500D01*
X38766527Y-102230257D01*
X38766496Y-102230264D01*
X38620833Y-102290598D01*
X38620824Y-102290603D01*
X38620807Y-102290613D01*
X38489708Y-102378211D01*
X38489707Y-102378212D01*
X38489701Y-102378217D01*
X38378217Y-102489701D01*
X38378212Y-102489707D01*
X38378211Y-102489708D01*
X38290613Y-102620807D01*
X38290603Y-102620824D01*
X38290598Y-102620833D01*
X38230264Y-102766496D01*
X38230257Y-102766527D01*
X38199500Y-102921150D01*
X38199500Y-102921153D01*
X38199500Y-103078846D01*
X38199500Y-103078848D01*
X38199499Y-103078848D01*
X28800500Y-103078848D01*
X28800500Y-94378848D01*
X38699499Y-94378848D01*
X38730257Y-94533471D01*
X38730261Y-94533489D01*
X38730264Y-94533501D01*
X38731949Y-94537568D01*
X38772752Y-94636077D01*
X38774484Y-94642865D01*
X38781479Y-94670273D01*
X38784291Y-94696426D01*
X38775563Y-94757134D01*
X38730264Y-94866496D01*
X38730257Y-94866527D01*
X38699500Y-95021150D01*
X38699500Y-95021153D01*
X38699500Y-95178846D01*
X38699500Y-95178848D01*
X38699499Y-95178848D01*
X38730257Y-95333471D01*
X38730264Y-95333502D01*
X38790598Y-95479165D01*
X38790603Y-95479174D01*
X38790613Y-95479191D01*
X38878211Y-95610290D01*
X38878212Y-95610291D01*
X38878217Y-95610297D01*
X38989701Y-95721781D01*
X38989707Y-95721786D01*
X38989711Y-95721789D01*
X39120814Y-95809390D01*
X39120827Y-95809397D01*
X39266498Y-95869735D01*
X39266503Y-95869737D01*
X39421153Y-95900499D01*
X39421156Y-95900500D01*
X39421158Y-95900500D01*
X39578844Y-95900500D01*
X39578845Y-95900499D01*
X39733497Y-95869737D01*
X39879179Y-95809394D01*
X40010289Y-95721789D01*
X40121789Y-95610289D01*
X40209394Y-95479179D01*
X40269737Y-95333497D01*
X40300500Y-95178842D01*
X40300500Y-95021158D01*
X40300500Y-95021155D01*
X40300500Y-95020973D01*
X40300065Y-95018972D01*
X40270398Y-94869830D01*
X40269983Y-94867403D01*
X40269737Y-94866504D01*
X40269734Y-94866496D01*
X40227245Y-94763918D01*
X40218519Y-94729726D01*
X40215707Y-94703573D01*
X40224434Y-94642867D01*
X40268054Y-94537557D01*
X40269221Y-94535001D01*
X40269730Y-94533510D01*
X40269735Y-94533501D01*
X40269737Y-94533497D01*
X40300499Y-94378848D01*
X40300500Y-94378844D01*
X40300500Y-94220973D01*
X40300065Y-94218972D01*
X40270397Y-94069824D01*
X40269994Y-94067467D01*
X40269738Y-94066508D01*
X40269737Y-94066506D01*
X40269737Y-94066503D01*
X40269735Y-94066498D01*
X40209397Y-93920827D01*
X40209390Y-93920814D01*
X40121789Y-93789711D01*
X40121786Y-93789707D01*
X40121781Y-93789701D01*
X40010297Y-93678217D01*
X40010291Y-93678212D01*
X40010290Y-93678211D01*
X39879191Y-93590613D01*
X39879190Y-93590612D01*
X39879185Y-93590609D01*
X39879172Y-93590602D01*
X39879165Y-93590598D01*
X39733502Y-93530264D01*
X39733471Y-93530257D01*
X39578847Y-93499500D01*
X39578845Y-93499500D01*
X39578842Y-93499500D01*
X39421158Y-93499500D01*
X39421155Y-93499500D01*
X39421153Y-93499500D01*
X39266527Y-93530257D01*
X39266496Y-93530264D01*
X39120833Y-93590598D01*
X39120824Y-93590603D01*
X39120807Y-93590613D01*
X38989708Y-93678211D01*
X38989707Y-93678212D01*
X38989701Y-93678217D01*
X38878217Y-93789701D01*
X38878212Y-93789707D01*
X38878211Y-93789708D01*
X38790613Y-93920807D01*
X38790603Y-93920824D01*
X38790598Y-93920833D01*
X38730264Y-94066496D01*
X38730257Y-94066527D01*
X38699500Y-94221150D01*
X38699500Y-94221153D01*
X38699500Y-94378846D01*
X38699500Y-94378848D01*
X38699499Y-94378848D01*
X28800500Y-94378848D01*
X28800500Y-91978848D01*
X32299499Y-91978848D01*
X32330257Y-92133471D01*
X32330264Y-92133502D01*
X32390598Y-92279165D01*
X32390603Y-92279174D01*
X32390613Y-92279191D01*
X32478211Y-92410290D01*
X32478212Y-92410291D01*
X32478217Y-92410297D01*
X32589701Y-92521781D01*
X32589707Y-92521786D01*
X32589711Y-92521789D01*
X32720814Y-92609390D01*
X32720827Y-92609397D01*
X32866498Y-92669735D01*
X32866503Y-92669737D01*
X33021153Y-92700499D01*
X33021156Y-92700500D01*
X33021158Y-92700500D01*
X33178844Y-92700500D01*
X33178845Y-92700499D01*
X33333497Y-92669737D01*
X33479179Y-92609394D01*
X33610289Y-92521789D01*
X33721789Y-92410289D01*
X33809394Y-92279179D01*
X33869737Y-92133497D01*
X33900500Y-91978842D01*
X33900500Y-91821158D01*
X33900500Y-91821155D01*
X33900500Y-91820973D01*
X33900065Y-91818972D01*
X33870395Y-91669816D01*
X33869994Y-91667467D01*
X33869738Y-91666508D01*
X33869737Y-91666506D01*
X33869737Y-91666503D01*
X33869735Y-91666498D01*
X33809397Y-91520827D01*
X33809390Y-91520814D01*
X33721789Y-91389711D01*
X33721786Y-91389707D01*
X33721781Y-91389701D01*
X33623881Y-91291801D01*
X34507118Y-91291801D01*
X34537876Y-91446424D01*
X34537883Y-91446455D01*
X34598217Y-91592118D01*
X34598222Y-91592127D01*
X34598232Y-91592144D01*
X34685830Y-91723243D01*
X34685831Y-91723244D01*
X34685836Y-91723250D01*
X34797320Y-91834734D01*
X34797326Y-91834739D01*
X34797330Y-91834742D01*
X34928433Y-91922343D01*
X34928446Y-91922350D01*
X35074117Y-91982688D01*
X35074122Y-91982690D01*
X35228772Y-92013452D01*
X35228775Y-92013453D01*
X35228777Y-92013453D01*
X35386463Y-92013453D01*
X35386464Y-92013452D01*
X35541116Y-91982690D01*
X35686798Y-91922347D01*
X35817908Y-91834742D01*
X35929408Y-91723242D01*
X36017013Y-91592132D01*
X36077356Y-91446450D01*
X36108119Y-91291795D01*
X36108119Y-91134111D01*
X36108119Y-91134108D01*
X36108119Y-91133926D01*
X36107684Y-91131925D01*
X36078016Y-90982777D01*
X36077613Y-90980420D01*
X36077357Y-90979461D01*
X36077356Y-90979459D01*
X36077356Y-90979456D01*
X36077354Y-90979451D01*
X36017016Y-90833780D01*
X36017009Y-90833767D01*
X35929408Y-90702664D01*
X35929405Y-90702660D01*
X35929400Y-90702654D01*
X35817916Y-90591170D01*
X35817910Y-90591165D01*
X35817909Y-90591164D01*
X35686810Y-90503566D01*
X35686809Y-90503565D01*
X35686804Y-90503562D01*
X35686791Y-90503555D01*
X35686784Y-90503551D01*
X35541121Y-90443217D01*
X35541090Y-90443210D01*
X35386466Y-90412453D01*
X35386464Y-90412453D01*
X35386461Y-90412453D01*
X35228777Y-90412453D01*
X35228774Y-90412453D01*
X35228772Y-90412453D01*
X35074146Y-90443210D01*
X35074115Y-90443217D01*
X34928452Y-90503551D01*
X34928443Y-90503556D01*
X34928426Y-90503566D01*
X34797327Y-90591164D01*
X34797326Y-90591165D01*
X34797320Y-90591170D01*
X34685836Y-90702654D01*
X34685831Y-90702660D01*
X34685830Y-90702661D01*
X34598232Y-90833760D01*
X34598222Y-90833777D01*
X34598217Y-90833786D01*
X34537883Y-90979449D01*
X34537876Y-90979480D01*
X34507119Y-91134103D01*
X34507119Y-91134106D01*
X34507119Y-91291799D01*
X34507119Y-91291801D01*
X34507118Y-91291801D01*
X33623881Y-91291801D01*
X33610297Y-91278217D01*
X33610291Y-91278212D01*
X33610290Y-91278211D01*
X33539815Y-91231121D01*
X33539809Y-91231117D01*
X33479185Y-91190609D01*
X33479172Y-91190602D01*
X33479165Y-91190598D01*
X33333502Y-91130264D01*
X33333471Y-91130257D01*
X33178847Y-91099500D01*
X33178845Y-91099500D01*
X33178842Y-91099500D01*
X33021158Y-91099500D01*
X33021155Y-91099500D01*
X33021153Y-91099500D01*
X32866527Y-91130257D01*
X32866496Y-91130264D01*
X32720833Y-91190598D01*
X32720824Y-91190603D01*
X32720807Y-91190613D01*
X32589708Y-91278211D01*
X32589707Y-91278212D01*
X32589701Y-91278217D01*
X32478217Y-91389701D01*
X32478212Y-91389707D01*
X32478211Y-91389708D01*
X32390613Y-91520807D01*
X32390603Y-91520824D01*
X32390598Y-91520833D01*
X32330264Y-91666496D01*
X32330257Y-91666527D01*
X32299500Y-91821150D01*
X32299500Y-91821153D01*
X32299500Y-91978846D01*
X32299500Y-91978848D01*
X32299499Y-91978848D01*
X28800500Y-91978848D01*
X28800500Y-87141829D01*
X28805523Y-87106893D01*
X28809927Y-87091895D01*
X28847672Y-87033144D01*
X28847700Y-87033119D01*
X28847699Y-87033119D01*
X28849041Y-87031956D01*
X28903920Y-87004477D01*
X28911479Y-87002833D01*
X28937832Y-87000000D01*
X61000000Y-87000000D01*
X61000000Y-84178848D01*
X61399499Y-84178848D01*
X61430257Y-84333471D01*
X61430264Y-84333502D01*
X61490598Y-84479165D01*
X61490603Y-84479174D01*
X61490613Y-84479191D01*
X61578211Y-84610290D01*
X61578212Y-84610291D01*
X61578217Y-84610297D01*
X61689701Y-84721781D01*
X61689707Y-84721786D01*
X61689711Y-84721789D01*
X61820814Y-84809390D01*
X61820827Y-84809397D01*
X61966498Y-84869735D01*
X61966503Y-84869737D01*
X62121153Y-84900499D01*
X62121156Y-84900500D01*
X62121158Y-84900500D01*
X62278844Y-84900500D01*
X62278845Y-84900499D01*
X62433497Y-84869737D01*
X62579179Y-84809394D01*
X62710289Y-84721789D01*
X62821789Y-84610289D01*
X62909394Y-84479179D01*
X62969737Y-84333497D01*
X63000500Y-84178842D01*
X63000500Y-84021158D01*
X63000500Y-84021155D01*
X63000500Y-84020971D01*
X63000064Y-84018966D01*
X62982420Y-83930263D01*
X62969739Y-83866510D01*
X62969737Y-83866507D01*
X62969737Y-83866503D01*
X62969735Y-83866498D01*
X62909397Y-83720827D01*
X62909390Y-83720814D01*
X62821789Y-83589711D01*
X62821786Y-83589707D01*
X62821781Y-83589701D01*
X62710297Y-83478217D01*
X62710291Y-83478212D01*
X62710290Y-83478211D01*
X62579191Y-83390613D01*
X62579190Y-83390612D01*
X62579185Y-83390609D01*
X62579172Y-83390602D01*
X62579165Y-83390598D01*
X62433502Y-83330264D01*
X62433471Y-83330257D01*
X62278847Y-83299500D01*
X62278845Y-83299500D01*
X62278842Y-83299500D01*
X62121158Y-83299500D01*
X62121155Y-83299500D01*
X62121153Y-83299500D01*
X61966527Y-83330257D01*
X61966496Y-83330264D01*
X61820833Y-83390598D01*
X61820824Y-83390603D01*
X61820807Y-83390613D01*
X61689708Y-83478211D01*
X61689707Y-83478212D01*
X61689701Y-83478217D01*
X61578217Y-83589701D01*
X61578212Y-83589707D01*
X61578211Y-83589708D01*
X61490613Y-83720807D01*
X61490603Y-83720824D01*
X61490598Y-83720833D01*
X61430264Y-83866496D01*
X61430257Y-83866527D01*
X61399500Y-84021150D01*
X61399500Y-84021153D01*
X61399500Y-84178846D01*
X61399500Y-84178848D01*
X61399499Y-84178848D01*
X61000000Y-84178848D01*
X61000000Y-82128848D01*
X65049499Y-82128848D01*
X65080257Y-82283471D01*
X65080262Y-82283492D01*
X65080263Y-82283500D01*
X65140598Y-82429165D01*
X65140603Y-82429174D01*
X65140613Y-82429191D01*
X65228211Y-82560290D01*
X65228212Y-82560291D01*
X65228217Y-82560297D01*
X65339701Y-82671781D01*
X65339707Y-82671786D01*
X65339711Y-82671789D01*
X65470814Y-82759390D01*
X65470827Y-82759397D01*
X65616498Y-82819735D01*
X65616503Y-82819737D01*
X65771153Y-82850499D01*
X65771156Y-82850500D01*
X65771158Y-82850500D01*
X65928844Y-82850500D01*
X65928845Y-82850499D01*
X66083497Y-82819737D01*
X66229179Y-82759394D01*
X66349724Y-82678848D01*
X67999499Y-82678848D01*
X68030257Y-82833471D01*
X68030264Y-82833502D01*
X68090598Y-82979165D01*
X68090603Y-82979174D01*
X68090613Y-82979191D01*
X68178211Y-83110290D01*
X68178212Y-83110291D01*
X68178217Y-83110297D01*
X68289701Y-83221781D01*
X68289707Y-83221786D01*
X68289711Y-83221789D01*
X68420814Y-83309390D01*
X68420827Y-83309397D01*
X68566498Y-83369735D01*
X68566503Y-83369737D01*
X68721153Y-83400499D01*
X68721156Y-83400500D01*
X68721158Y-83400500D01*
X68878844Y-83400500D01*
X68878845Y-83400499D01*
X69033497Y-83369737D01*
X69179179Y-83309394D01*
X69310289Y-83221789D01*
X69421789Y-83110289D01*
X69509394Y-82979179D01*
X69537929Y-82910289D01*
X69544875Y-82893517D01*
X69562882Y-82863169D01*
X69572691Y-82850996D01*
X69630080Y-82811147D01*
X69643011Y-82806843D01*
X69682163Y-82800500D01*
X69782964Y-82800500D01*
X69790814Y-82798118D01*
X69933497Y-82769737D01*
X70079179Y-82709394D01*
X70210289Y-82621789D01*
X70321789Y-82510289D01*
X70342797Y-82478848D01*
X86499499Y-82478848D01*
X86530257Y-82633471D01*
X86530264Y-82633502D01*
X86590598Y-82779165D01*
X86590603Y-82779174D01*
X86590613Y-82779191D01*
X86678211Y-82910290D01*
X86678217Y-82910297D01*
X86789701Y-83021781D01*
X86789707Y-83021786D01*
X86789711Y-83021789D01*
X86920814Y-83109390D01*
X86920827Y-83109397D01*
X87066498Y-83169735D01*
X87066503Y-83169737D01*
X87221153Y-83200499D01*
X87221156Y-83200500D01*
X87221158Y-83200500D01*
X87378844Y-83200500D01*
X87378845Y-83200499D01*
X87533497Y-83169737D01*
X87677011Y-83110292D01*
X87679172Y-83109397D01*
X87679172Y-83109396D01*
X87679179Y-83109394D01*
X87810289Y-83021789D01*
X87810293Y-83021784D01*
X87813217Y-83019831D01*
X87822664Y-83014111D01*
X87841679Y-83003726D01*
X87909947Y-82988870D01*
X87909962Y-82988871D01*
X87909966Y-82988872D01*
X87911768Y-82989001D01*
X87969953Y-83008368D01*
X87979588Y-83014560D01*
X87987381Y-83020232D01*
X87989710Y-83021788D01*
X87989711Y-83021789D01*
X88120814Y-83109390D01*
X88120827Y-83109397D01*
X88266498Y-83169735D01*
X88266503Y-83169737D01*
X88421153Y-83200499D01*
X88421156Y-83200500D01*
X88421158Y-83200500D01*
X88578844Y-83200500D01*
X88578845Y-83200499D01*
X88733497Y-83169737D01*
X88877011Y-83110292D01*
X88879172Y-83109397D01*
X88879172Y-83109396D01*
X88879179Y-83109394D01*
X89010289Y-83021789D01*
X89052913Y-82979165D01*
X89121788Y-82910291D01*
X89121789Y-82910289D01*
X89209394Y-82779179D01*
X89269737Y-82633497D01*
X89300500Y-82478842D01*
X89300500Y-82321158D01*
X89300500Y-82321155D01*
X89300500Y-82320970D01*
X89300070Y-82318995D01*
X89298759Y-82312407D01*
X89294423Y-82290606D01*
X89269737Y-82166503D01*
X89254138Y-82128844D01*
X89254137Y-82128842D01*
X89209402Y-82020840D01*
X89209399Y-82020833D01*
X89209397Y-82020827D01*
X89209390Y-82020814D01*
X89121789Y-81889711D01*
X89121786Y-81889707D01*
X89121781Y-81889701D01*
X89010297Y-81778217D01*
X89010291Y-81778212D01*
X89010290Y-81778211D01*
X88879191Y-81690613D01*
X88879190Y-81690612D01*
X88879185Y-81690609D01*
X88879172Y-81690602D01*
X88879165Y-81690598D01*
X88733502Y-81630264D01*
X88733471Y-81630257D01*
X88578847Y-81599500D01*
X88578845Y-81599500D01*
X88578842Y-81599500D01*
X88421158Y-81599500D01*
X88421155Y-81599500D01*
X88421153Y-81599500D01*
X88266527Y-81630257D01*
X88266496Y-81630264D01*
X88120833Y-81690598D01*
X88120824Y-81690603D01*
X88120807Y-81690613D01*
X87988307Y-81779148D01*
X87988269Y-81779092D01*
X87977689Y-81785695D01*
X87958311Y-81796276D01*
X87890038Y-81811127D01*
X87890036Y-81811127D01*
X87888233Y-81810998D01*
X87830046Y-81791632D01*
X87824963Y-81788365D01*
X87820808Y-81785695D01*
X87813454Y-81780584D01*
X87810290Y-81778211D01*
X87679191Y-81690613D01*
X87679190Y-81690612D01*
X87679185Y-81690609D01*
X87679172Y-81690602D01*
X87679165Y-81690598D01*
X87533502Y-81630264D01*
X87533471Y-81630257D01*
X87378847Y-81599500D01*
X87378845Y-81599500D01*
X87378842Y-81599500D01*
X87221158Y-81599500D01*
X87221155Y-81599500D01*
X87221153Y-81599500D01*
X87066527Y-81630257D01*
X87066496Y-81630264D01*
X86920833Y-81690598D01*
X86920824Y-81690603D01*
X86920807Y-81690613D01*
X86789708Y-81778211D01*
X86789707Y-81778212D01*
X86789701Y-81778217D01*
X86678217Y-81889701D01*
X86678212Y-81889707D01*
X86678211Y-81889708D01*
X86590613Y-82020807D01*
X86590603Y-82020824D01*
X86590598Y-82020833D01*
X86530264Y-82166496D01*
X86530257Y-82166527D01*
X86499500Y-82321150D01*
X86499500Y-82321153D01*
X86499500Y-82478846D01*
X86499500Y-82478848D01*
X86499499Y-82478848D01*
X70342797Y-82478848D01*
X70409394Y-82379179D01*
X70414648Y-82366496D01*
X70448986Y-82283595D01*
X70449025Y-82283501D01*
X70455603Y-82267621D01*
X70455605Y-82267614D01*
X70469737Y-82233497D01*
X70500500Y-82078842D01*
X70500500Y-81921158D01*
X70500500Y-81921155D01*
X70500499Y-81921153D01*
X70492150Y-81879179D01*
X70469737Y-81766503D01*
X70456066Y-81733497D01*
X70438303Y-81690613D01*
X70409400Y-81620833D01*
X70409395Y-81620824D01*
X70409394Y-81620822D01*
X70409390Y-81620814D01*
X70321789Y-81489711D01*
X70321786Y-81489707D01*
X70321781Y-81489701D01*
X70210297Y-81378217D01*
X70210291Y-81378212D01*
X70210290Y-81378211D01*
X70079191Y-81290613D01*
X70079190Y-81290612D01*
X70079185Y-81290609D01*
X70079172Y-81290602D01*
X70079165Y-81290598D01*
X69933502Y-81230264D01*
X69933471Y-81230257D01*
X69778847Y-81199500D01*
X69778845Y-81199500D01*
X69778842Y-81199500D01*
X69621158Y-81199500D01*
X69621155Y-81199500D01*
X69621153Y-81199500D01*
X69466527Y-81230257D01*
X69466496Y-81230264D01*
X69320833Y-81290598D01*
X69320824Y-81290603D01*
X69320807Y-81290613D01*
X69189708Y-81378211D01*
X69189707Y-81378212D01*
X69189701Y-81378217D01*
X69078217Y-81489701D01*
X69078212Y-81489707D01*
X69078211Y-81489708D01*
X68990613Y-81620807D01*
X68990604Y-81620822D01*
X68990599Y-81620833D01*
X68955123Y-81706481D01*
X68949768Y-81715506D01*
X68937117Y-81736830D01*
X68927309Y-81749002D01*
X68869920Y-81788852D01*
X68869918Y-81788852D01*
X68869918Y-81788853D01*
X68869916Y-81788853D01*
X68861569Y-81791632D01*
X68857001Y-81793152D01*
X68817837Y-81799500D01*
X68721153Y-81799500D01*
X68566527Y-81830257D01*
X68566496Y-81830264D01*
X68420833Y-81890598D01*
X68420824Y-81890603D01*
X68420807Y-81890613D01*
X68289708Y-81978211D01*
X68289707Y-81978212D01*
X68289701Y-81978217D01*
X68178217Y-82089701D01*
X68178212Y-82089707D01*
X68178211Y-82089708D01*
X68090613Y-82220807D01*
X68090603Y-82220824D01*
X68090598Y-82220833D01*
X68030264Y-82366496D01*
X68030257Y-82366527D01*
X67999500Y-82521150D01*
X67999500Y-82521153D01*
X67999500Y-82678846D01*
X67999500Y-82678848D01*
X67999499Y-82678848D01*
X66349724Y-82678848D01*
X66360289Y-82671789D01*
X66471789Y-82560289D01*
X66505199Y-82510288D01*
X66548042Y-82446170D01*
X66559391Y-82429183D01*
X66559394Y-82429179D01*
X66619737Y-82283497D01*
X66650500Y-82128842D01*
X66650500Y-81971158D01*
X66650500Y-81971155D01*
X66650500Y-81970973D01*
X66650065Y-81968972D01*
X66640553Y-81921153D01*
X66640553Y-81921152D01*
X66622474Y-81830264D01*
X66619737Y-81816503D01*
X66612694Y-81799500D01*
X66612661Y-81799421D01*
X66559402Y-81670840D01*
X66559399Y-81670833D01*
X66559397Y-81670827D01*
X66559390Y-81670814D01*
X66471789Y-81539711D01*
X66471786Y-81539707D01*
X66471781Y-81539701D01*
X66360297Y-81428217D01*
X66360291Y-81428212D01*
X66360290Y-81428211D01*
X66229191Y-81340613D01*
X66229190Y-81340612D01*
X66229185Y-81340609D01*
X66229172Y-81340602D01*
X66229165Y-81340598D01*
X66083502Y-81280264D01*
X66083471Y-81280257D01*
X65928847Y-81249500D01*
X65928845Y-81249500D01*
X65928842Y-81249500D01*
X65771158Y-81249500D01*
X65771155Y-81249500D01*
X65771153Y-81249500D01*
X65616527Y-81280257D01*
X65616496Y-81280264D01*
X65470833Y-81340598D01*
X65470824Y-81340603D01*
X65470807Y-81340613D01*
X65339708Y-81428211D01*
X65339707Y-81428212D01*
X65339701Y-81428217D01*
X65228217Y-81539701D01*
X65228212Y-81539707D01*
X65228211Y-81539708D01*
X65140613Y-81670807D01*
X65140603Y-81670824D01*
X65140598Y-81670833D01*
X65080264Y-81816496D01*
X65080257Y-81816527D01*
X65049500Y-81971150D01*
X65049500Y-82128844D01*
X65049499Y-82128848D01*
X61000000Y-82128848D01*
X61000000Y-79978848D01*
X75774499Y-79978848D01*
X75805257Y-80133471D01*
X75805264Y-80133502D01*
X75865598Y-80279165D01*
X75865603Y-80279174D01*
X75865613Y-80279191D01*
X75953211Y-80410290D01*
X75953212Y-80410291D01*
X75953217Y-80410297D01*
X76064701Y-80521781D01*
X76064707Y-80521786D01*
X76064711Y-80521789D01*
X76195814Y-80609390D01*
X76195827Y-80609397D01*
X76195829Y-80609397D01*
X76195833Y-80609400D01*
X76333694Y-80666503D01*
X76341498Y-80669735D01*
X76341506Y-80669738D01*
X76411795Y-80683719D01*
X76496153Y-80700499D01*
X76496156Y-80700500D01*
X76496158Y-80700500D01*
X76653844Y-80700500D01*
X76653845Y-80700499D01*
X76808497Y-80669737D01*
X76924255Y-80621789D01*
X76936080Y-80616890D01*
X76936086Y-80616890D01*
X76970266Y-80608165D01*
X76996431Y-80605351D01*
X77057132Y-80614079D01*
X77075745Y-80621789D01*
X77191503Y-80669737D01*
X77191505Y-80669737D01*
X77191510Y-80669739D01*
X77275279Y-80686401D01*
X77346153Y-80700499D01*
X77346156Y-80700500D01*
X77346158Y-80700500D01*
X77503844Y-80700500D01*
X77503845Y-80700499D01*
X77658497Y-80669737D01*
X77804179Y-80609394D01*
X77935289Y-80521789D01*
X78046789Y-80410289D01*
X78134394Y-80279179D01*
X78194737Y-80133497D01*
X78225500Y-79978842D01*
X78225500Y-79821158D01*
X78225500Y-79821155D01*
X78225500Y-79820971D01*
X78225064Y-79818966D01*
X78207012Y-79728212D01*
X78194739Y-79666510D01*
X78194736Y-79666501D01*
X78146274Y-79549501D01*
X78146273Y-79549499D01*
X78134399Y-79520831D01*
X78134395Y-79520824D01*
X78134390Y-79520814D01*
X78046789Y-79389711D01*
X78046786Y-79389707D01*
X78046781Y-79389701D01*
X77935297Y-79278217D01*
X77935291Y-79278212D01*
X77935290Y-79278211D01*
X77804191Y-79190613D01*
X77804190Y-79190612D01*
X77804185Y-79190609D01*
X77804172Y-79190602D01*
X77804165Y-79190598D01*
X77658502Y-79130264D01*
X77658471Y-79130257D01*
X77503847Y-79099500D01*
X77503845Y-79099500D01*
X77503842Y-79099500D01*
X77346158Y-79099500D01*
X77346155Y-79099500D01*
X77346153Y-79099500D01*
X77191527Y-79130257D01*
X77191511Y-79130260D01*
X77191510Y-79130261D01*
X77191498Y-79130264D01*
X77130144Y-79155677D01*
X77063920Y-79183108D01*
X77029726Y-79191835D01*
X77003576Y-79194647D01*
X76942866Y-79185919D01*
X76808502Y-79130264D01*
X76808471Y-79130257D01*
X76653847Y-79099500D01*
X76653845Y-79099500D01*
X76653842Y-79099500D01*
X76496158Y-79099500D01*
X76496155Y-79099500D01*
X76496153Y-79099500D01*
X76341527Y-79130257D01*
X76341496Y-79130264D01*
X76195833Y-79190598D01*
X76195824Y-79190603D01*
X76195807Y-79190613D01*
X76064708Y-79278211D01*
X76064707Y-79278212D01*
X76064701Y-79278217D01*
X75953217Y-79389701D01*
X75953212Y-79389707D01*
X75953211Y-79389708D01*
X75865613Y-79520807D01*
X75865603Y-79520824D01*
X75865598Y-79520833D01*
X75805264Y-79666496D01*
X75805257Y-79666527D01*
X75774500Y-79821150D01*
X75774500Y-79821153D01*
X75774500Y-79978846D01*
X75774500Y-79978848D01*
X75774499Y-79978848D01*
X61000000Y-79978848D01*
X61000000Y-76493713D01*
X62409500Y-76493713D01*
X62409500Y-76498192D01*
X62409500Y-76706286D01*
X62442754Y-76916244D01*
X62442754Y-76916247D01*
X62505799Y-77110279D01*
X62508442Y-77118411D01*
X62561115Y-77221787D01*
X62604951Y-77307820D01*
X62729890Y-77479786D01*
X62729892Y-77479788D01*
X62880216Y-77630112D01*
X63052169Y-77755042D01*
X63052200Y-77755060D01*
X63052442Y-77755182D01*
X63241588Y-77851557D01*
X63443757Y-77917246D01*
X63653713Y-77950500D01*
X63653714Y-77950500D01*
X63866286Y-77950500D01*
X63866287Y-77950500D01*
X64076243Y-77917246D01*
X64278412Y-77851557D01*
X64467816Y-77755051D01*
X64554147Y-77692328D01*
X64636337Y-77632614D01*
X64638536Y-77631131D01*
X64641982Y-77628511D01*
X64647829Y-77624262D01*
X64653664Y-77616231D01*
X64740725Y-77529169D01*
X64768973Y-77508023D01*
X64781156Y-77501371D01*
X64849427Y-77486521D01*
X64914891Y-77510939D01*
X64914898Y-77510943D01*
X64918571Y-77513693D01*
X64960435Y-77569621D01*
X65006202Y-77692327D01*
X65006203Y-77692331D01*
X65092450Y-77807542D01*
X65092452Y-77807544D01*
X65092455Y-77807547D01*
X65207664Y-77893793D01*
X65207671Y-77893797D01*
X65342517Y-77944091D01*
X65342516Y-77944091D01*
X65349444Y-77944835D01*
X65402127Y-77950500D01*
X67197872Y-77950499D01*
X67257483Y-77944091D01*
X67392331Y-77893796D01*
X67507546Y-77807546D01*
X67593796Y-77692331D01*
X67593797Y-77692328D01*
X67593798Y-77692327D01*
X67644091Y-77557482D01*
X67647052Y-77529939D01*
X67650500Y-77497873D01*
X67650500Y-76678848D01*
X88999499Y-76678848D01*
X89030257Y-76833471D01*
X89030264Y-76833502D01*
X89090598Y-76979165D01*
X89090603Y-76979174D01*
X89090613Y-76979191D01*
X89178211Y-77110290D01*
X89178212Y-77110291D01*
X89178217Y-77110297D01*
X89289701Y-77221781D01*
X89289707Y-77221786D01*
X89289711Y-77221789D01*
X89420814Y-77309390D01*
X89420827Y-77309397D01*
X89482439Y-77334917D01*
X89566503Y-77369737D01*
X89566505Y-77369737D01*
X89566510Y-77369739D01*
X89650279Y-77386401D01*
X89721153Y-77400499D01*
X89721156Y-77400500D01*
X89721158Y-77400500D01*
X89878844Y-77400500D01*
X89878845Y-77400499D01*
X90033497Y-77369737D01*
X90179179Y-77309394D01*
X90310289Y-77221789D01*
X90421789Y-77110289D01*
X90509394Y-76979179D01*
X90569737Y-76833497D01*
X90600500Y-76678842D01*
X90600500Y-76521158D01*
X90600500Y-76521155D01*
X90600500Y-76520971D01*
X90600064Y-76518966D01*
X90575581Y-76395881D01*
X90571507Y-76375400D01*
X90569737Y-76366503D01*
X90533075Y-76277992D01*
X90509397Y-76220827D01*
X90509390Y-76220814D01*
X90421789Y-76089711D01*
X90421786Y-76089707D01*
X90421781Y-76089701D01*
X90310297Y-75978217D01*
X90310291Y-75978212D01*
X90310290Y-75978211D01*
X90179191Y-75890613D01*
X90179190Y-75890612D01*
X90179185Y-75890609D01*
X90179172Y-75890602D01*
X90179165Y-75890598D01*
X90033502Y-75830264D01*
X90033471Y-75830257D01*
X89878847Y-75799500D01*
X89878845Y-75799500D01*
X89878842Y-75799500D01*
X89721158Y-75799500D01*
X89721155Y-75799500D01*
X89721153Y-75799500D01*
X89566527Y-75830257D01*
X89566496Y-75830264D01*
X89420833Y-75890598D01*
X89420824Y-75890603D01*
X89420807Y-75890613D01*
X89289708Y-75978211D01*
X89289707Y-75978212D01*
X89289701Y-75978217D01*
X89178217Y-76089701D01*
X89178212Y-76089707D01*
X89178211Y-76089708D01*
X89090613Y-76220807D01*
X89090603Y-76220824D01*
X89090598Y-76220833D01*
X89030264Y-76366496D01*
X89030257Y-76366527D01*
X88999500Y-76521150D01*
X88999500Y-76521153D01*
X88999500Y-76678846D01*
X88999500Y-76678848D01*
X88999499Y-76678848D01*
X67650500Y-76678848D01*
X67650499Y-75702128D01*
X67644091Y-75642517D01*
X67642810Y-75639083D01*
X67593797Y-75507671D01*
X67593793Y-75507664D01*
X67507547Y-75392455D01*
X67507544Y-75392452D01*
X67507542Y-75392450D01*
X67438641Y-75340871D01*
X67392335Y-75306206D01*
X67392332Y-75306204D01*
X67392330Y-75306203D01*
X67392328Y-75306202D01*
X67257482Y-75255908D01*
X67257483Y-75255908D01*
X67197883Y-75249501D01*
X67197881Y-75249500D01*
X67197873Y-75249500D01*
X67197864Y-75249500D01*
X67196841Y-75249500D01*
X65402123Y-75249500D01*
X65400192Y-75249659D01*
X65398545Y-75249885D01*
X65342516Y-75255908D01*
X65207666Y-75306204D01*
X65207665Y-75306205D01*
X65092456Y-75392450D01*
X65092450Y-75392456D01*
X65006208Y-75507661D01*
X65006200Y-75507673D01*
X64963419Y-75622377D01*
X64963418Y-75622378D01*
X64963418Y-75622379D01*
X64946503Y-75653355D01*
X64938186Y-75664465D01*
X64882252Y-75706336D01*
X64812568Y-75711321D01*
X64812562Y-75711319D01*
X64812561Y-75711320D01*
X64812559Y-75711319D01*
X64808085Y-75710346D01*
X64746760Y-75676864D01*
X64639788Y-75569892D01*
X64639786Y-75569890D01*
X64467820Y-75444951D01*
X64364781Y-75392450D01*
X64300245Y-75359567D01*
X64300240Y-75359565D01*
X64278414Y-75348444D01*
X64278413Y-75348443D01*
X64278412Y-75348443D01*
X64181550Y-75316970D01*
X64085074Y-75285623D01*
X64080552Y-75283770D01*
X64071362Y-75281600D01*
X64066599Y-75281226D01*
X63914957Y-75257208D01*
X63895489Y-75254124D01*
X63866290Y-75249500D01*
X63866287Y-75249500D01*
X63653713Y-75249500D01*
X63653709Y-75249500D01*
X63614776Y-75255666D01*
X63605042Y-75257208D01*
X63567654Y-75263129D01*
X63443763Y-75282752D01*
X63241582Y-75348445D01*
X63052182Y-75444949D01*
X62880210Y-75569892D01*
X62729892Y-75720210D01*
X62729890Y-75720213D01*
X62649937Y-75830261D01*
X62604949Y-75892182D01*
X62508445Y-76081580D01*
X62442752Y-76283759D01*
X62425627Y-76391886D01*
X62425604Y-76392036D01*
X62425558Y-76392328D01*
X62409500Y-76493713D01*
X61000000Y-76493713D01*
X61000000Y-74688152D01*
X69804118Y-74688152D01*
X69804118Y-74688154D01*
X69824598Y-74830610D01*
X69824599Y-74830613D01*
X69884386Y-74961526D01*
X69886011Y-74963866D01*
X69888546Y-74966688D01*
X69922006Y-75008210D01*
X69922009Y-75008213D01*
X69922018Y-75008224D01*
X70992640Y-76078842D01*
X71191792Y-76277995D01*
X71192311Y-76278445D01*
X71193471Y-76279347D01*
X71238472Y-76315613D01*
X71369386Y-76375400D01*
X71369387Y-76375400D01*
X71369967Y-76375665D01*
X71373741Y-76376346D01*
X71373742Y-76376346D01*
X71378157Y-76376662D01*
X71511845Y-76395882D01*
X71511845Y-76395881D01*
X71511846Y-76395882D01*
X71539641Y-76391886D01*
X71543859Y-76391279D01*
X71654303Y-76375401D01*
X71785219Y-76315613D01*
X71831902Y-76277994D01*
X73101684Y-75008210D01*
X73139305Y-74961527D01*
X73199093Y-74830611D01*
X73219574Y-74688154D01*
X73199093Y-74545697D01*
X73199091Y-74545693D01*
X73182923Y-74510290D01*
X73182923Y-74510289D01*
X73148232Y-74434329D01*
X73144266Y-74420821D01*
X73138290Y-74400466D01*
X73136315Y-74386728D01*
X73146259Y-74317570D01*
X73192012Y-74264769D01*
X73195887Y-74262278D01*
X73262913Y-74242603D01*
X73414183Y-74242603D01*
X73414184Y-74242603D01*
X73624140Y-74209349D01*
X73826309Y-74143660D01*
X74015713Y-74047154D01*
X74094777Y-73989711D01*
X74187683Y-73922212D01*
X74187685Y-73922209D01*
X74187689Y-73922207D01*
X74187691Y-73922205D01*
X74187741Y-73922169D01*
X74188502Y-73921393D01*
X74338001Y-73771895D01*
X74338003Y-73771891D01*
X74338006Y-73771889D01*
X74462945Y-73599923D01*
X74462944Y-73599923D01*
X74462948Y-73599919D01*
X74462950Y-73599913D01*
X74483342Y-73571847D01*
X74491627Y-73543632D01*
X74559454Y-73410515D01*
X74625143Y-73208346D01*
X74658397Y-72998390D01*
X74658397Y-72785816D01*
X74625143Y-72575860D01*
X74625140Y-72575852D01*
X74625004Y-72575283D01*
X74624753Y-72573395D01*
X74624381Y-72571046D01*
X74624439Y-72571036D01*
X74621628Y-72549883D01*
X74621224Y-72535751D01*
X74638978Y-72468179D01*
X74690450Y-72420930D01*
X74754018Y-72408518D01*
X74763474Y-72409194D01*
X74783573Y-72412306D01*
X74787699Y-72413296D01*
X74787705Y-72413298D01*
X74997661Y-72446552D01*
X74997662Y-72446552D01*
X75210234Y-72446552D01*
X75210235Y-72446552D01*
X75420191Y-72413298D01*
X75622360Y-72347609D01*
X75811764Y-72251103D01*
X75903736Y-72184282D01*
X75983734Y-72126161D01*
X75983736Y-72126158D01*
X75983740Y-72126156D01*
X75983746Y-72126149D01*
X75983796Y-72126114D01*
X75984553Y-72125342D01*
X76134052Y-71975844D01*
X76134054Y-71975840D01*
X76134057Y-71975838D01*
X76258996Y-71803872D01*
X76258995Y-71803872D01*
X76258999Y-71803868D01*
X76259001Y-71803862D01*
X76279393Y-71775796D01*
X76287678Y-71747581D01*
X76355505Y-71614464D01*
X76421194Y-71412295D01*
X76454448Y-71202339D01*
X76454448Y-70989765D01*
X76421194Y-70779809D01*
X76421191Y-70779801D01*
X76421056Y-70779235D01*
X76420807Y-70777367D01*
X76420432Y-70774995D01*
X76420491Y-70774985D01*
X76417678Y-70753826D01*
X76417274Y-70739691D01*
X76435034Y-70672119D01*
X76486508Y-70624873D01*
X76550074Y-70612466D01*
X76557389Y-70612989D01*
X76559520Y-70613142D01*
X76579618Y-70616252D01*
X76583749Y-70617243D01*
X76583757Y-70617246D01*
X76793713Y-70650500D01*
X76793714Y-70650500D01*
X77006286Y-70650500D01*
X77006287Y-70650500D01*
X77216243Y-70617246D01*
X77418412Y-70551557D01*
X77607816Y-70455051D01*
X77661081Y-70416351D01*
X77699781Y-70388236D01*
X77779769Y-70330121D01*
X77779786Y-70330109D01*
X77779786Y-70330107D01*
X77779846Y-70330064D01*
X77780605Y-70329290D01*
X77930104Y-70179792D01*
X77930106Y-70179788D01*
X77930109Y-70179786D01*
X78055048Y-70007820D01*
X78055047Y-70007820D01*
X78055051Y-70007816D01*
X78055053Y-70007810D01*
X78075445Y-69979744D01*
X78083730Y-69951529D01*
X78151557Y-69818412D01*
X78205027Y-69653848D01*
X83399499Y-69653848D01*
X83430257Y-69808471D01*
X83430264Y-69808502D01*
X83483107Y-69936078D01*
X83487049Y-69951524D01*
X83491835Y-69970273D01*
X83494647Y-69996424D01*
X83485919Y-70057133D01*
X83430264Y-70191496D01*
X83430257Y-70191527D01*
X83399500Y-70346150D01*
X83399500Y-70346153D01*
X83399500Y-70503846D01*
X83399500Y-70503848D01*
X83399499Y-70503848D01*
X83430257Y-70658471D01*
X83430264Y-70658502D01*
X83490598Y-70804165D01*
X83490603Y-70804174D01*
X83490613Y-70804191D01*
X83578211Y-70935290D01*
X83578212Y-70935291D01*
X83578217Y-70935297D01*
X83689701Y-71046781D01*
X83689707Y-71046786D01*
X83689711Y-71046789D01*
X83820814Y-71134390D01*
X83820827Y-71134397D01*
X83966498Y-71194735D01*
X83966503Y-71194737D01*
X84121153Y-71225499D01*
X84121156Y-71225500D01*
X84121158Y-71225500D01*
X84278844Y-71225500D01*
X84278845Y-71225499D01*
X84433497Y-71194737D01*
X84579179Y-71134394D01*
X84710289Y-71046789D01*
X84821789Y-70935289D01*
X84909394Y-70804179D01*
X84919488Y-70779811D01*
X84952290Y-70700617D01*
X84969737Y-70658497D01*
X85000500Y-70503842D01*
X85000500Y-70346158D01*
X85000500Y-70346155D01*
X85000500Y-70345973D01*
X85000065Y-70343971D01*
X84978090Y-70233496D01*
X84974662Y-70216262D01*
X84969737Y-70191503D01*
X84917731Y-70065948D01*
X84916870Y-70063871D01*
X84916865Y-70063821D01*
X84908164Y-70029726D01*
X84905809Y-70007820D01*
X84905352Y-70003572D01*
X84914079Y-69942867D01*
X84968054Y-69812557D01*
X84969221Y-69810001D01*
X84969730Y-69808510D01*
X84969735Y-69808501D01*
X84969737Y-69808497D01*
X85000499Y-69653848D01*
X85000500Y-69653844D01*
X85000500Y-69495971D01*
X85000064Y-69493966D01*
X84981259Y-69399427D01*
X84969737Y-69341503D01*
X84969735Y-69341498D01*
X84909397Y-69195827D01*
X84909390Y-69195814D01*
X84821789Y-69064711D01*
X84821786Y-69064707D01*
X84821781Y-69064701D01*
X84710297Y-68953217D01*
X84710291Y-68953212D01*
X84710290Y-68953211D01*
X84579191Y-68865613D01*
X84579190Y-68865612D01*
X84579185Y-68865609D01*
X84579172Y-68865602D01*
X84579165Y-68865598D01*
X84433502Y-68805264D01*
X84433471Y-68805257D01*
X84278847Y-68774500D01*
X84278845Y-68774500D01*
X84278842Y-68774500D01*
X84121158Y-68774500D01*
X84121155Y-68774500D01*
X84121153Y-68774500D01*
X83966527Y-68805257D01*
X83966496Y-68805264D01*
X83820833Y-68865598D01*
X83820824Y-68865603D01*
X83820807Y-68865613D01*
X83689708Y-68953211D01*
X83689707Y-68953212D01*
X83689701Y-68953217D01*
X83578217Y-69064701D01*
X83578212Y-69064707D01*
X83578211Y-69064708D01*
X83490613Y-69195807D01*
X83490603Y-69195824D01*
X83490598Y-69195833D01*
X83430264Y-69341496D01*
X83430261Y-69341510D01*
X83399500Y-69496150D01*
X83399500Y-69496153D01*
X83399500Y-69653846D01*
X83399500Y-69653848D01*
X83399499Y-69653848D01*
X78205027Y-69653848D01*
X78217246Y-69616243D01*
X78246054Y-69434361D01*
X78250500Y-69406287D01*
X78250500Y-69193713D01*
X78237287Y-69110289D01*
X78217246Y-68983757D01*
X78151557Y-68781588D01*
X78055051Y-68592184D01*
X78055049Y-68592181D01*
X78055048Y-68592179D01*
X78054702Y-68591703D01*
X78054700Y-68591699D01*
X77930112Y-68420216D01*
X77779788Y-68269892D01*
X77779786Y-68269890D01*
X77607820Y-68144951D01*
X77543323Y-68112088D01*
X77440245Y-68059567D01*
X77440240Y-68059565D01*
X77418414Y-68048444D01*
X77418413Y-68048443D01*
X77418412Y-68048443D01*
X77321550Y-68016970D01*
X77225074Y-67985623D01*
X77220552Y-67983770D01*
X77211362Y-67981600D01*
X77206599Y-67981226D01*
X77187576Y-67978213D01*
X77054957Y-67957208D01*
X77035489Y-67954124D01*
X77006290Y-67949500D01*
X77006287Y-67949500D01*
X76793713Y-67949500D01*
X76793709Y-67949500D01*
X76754776Y-67955666D01*
X76745042Y-67957208D01*
X76707654Y-67963129D01*
X76583763Y-67982752D01*
X76381582Y-68048445D01*
X76192182Y-68144949D01*
X76020210Y-68269892D01*
X75869892Y-68420210D01*
X75744949Y-68592182D01*
X75648417Y-68781637D01*
X75647945Y-68782580D01*
X75646865Y-68786440D01*
X75640752Y-68805257D01*
X75640750Y-68805263D01*
X75582753Y-68983755D01*
X75582752Y-68983760D01*
X75561045Y-69120820D01*
X75561045Y-69120821D01*
X75549500Y-69193713D01*
X75549500Y-69406286D01*
X75582754Y-69616250D01*
X75582898Y-69616847D01*
X75583150Y-69618745D01*
X75583516Y-69621056D01*
X75583458Y-69621065D01*
X75586268Y-69642229D01*
X75586672Y-69656358D01*
X75568912Y-69723933D01*
X75517437Y-69771178D01*
X75453875Y-69783585D01*
X75444104Y-69782887D01*
X75423036Y-69779155D01*
X75422327Y-69779067D01*
X75422263Y-69779324D01*
X75419839Y-69778718D01*
X75418052Y-69778466D01*
X75271605Y-69755272D01*
X75271604Y-69755272D01*
X75210235Y-69745552D01*
X75210234Y-69745552D01*
X74997657Y-69745552D01*
X74958724Y-69751718D01*
X74948990Y-69753260D01*
X74911602Y-69759181D01*
X74787711Y-69778804D01*
X74585530Y-69844497D01*
X74396130Y-69941001D01*
X74396127Y-69941002D01*
X74396127Y-69941003D01*
X74355840Y-69970273D01*
X74224158Y-70065944D01*
X74073840Y-70216262D01*
X74073838Y-70216265D01*
X73979467Y-70346158D01*
X73948897Y-70388234D01*
X73852365Y-70577689D01*
X73851893Y-70578632D01*
X73850811Y-70582498D01*
X73831874Y-70640783D01*
X73828717Y-70650500D01*
X73826117Y-70658502D01*
X73786700Y-70779811D01*
X73753448Y-70989759D01*
X73753448Y-71202343D01*
X73786700Y-71412290D01*
X73786841Y-71412874D01*
X73787088Y-71414739D01*
X73787463Y-71417102D01*
X73787403Y-71417111D01*
X73790216Y-71438282D01*
X73790619Y-71452418D01*
X73772853Y-71519992D01*
X73721374Y-71567233D01*
X73657825Y-71579636D01*
X73648497Y-71578969D01*
X73628857Y-71575969D01*
X73619261Y-71573704D01*
X73614495Y-71573329D01*
X73475560Y-71551324D01*
X73462244Y-71549215D01*
X73414184Y-71541603D01*
X73414183Y-71541603D01*
X73201606Y-71541603D01*
X73153543Y-71549215D01*
X73153504Y-71549221D01*
X73152939Y-71549311D01*
X72991657Y-71574856D01*
X72991654Y-71574857D01*
X72982420Y-71577857D01*
X72982416Y-71577858D01*
X72869757Y-71614464D01*
X72811180Y-71633497D01*
X72803580Y-71635966D01*
X72789480Y-71640547D01*
X72600079Y-71737052D01*
X72428107Y-71861995D01*
X72277789Y-72012313D01*
X72277787Y-72012316D01*
X72152848Y-72184282D01*
X72128944Y-72231194D01*
X72056342Y-72373683D01*
X71990649Y-72575862D01*
X71957397Y-72785810D01*
X71957397Y-72928547D01*
X71957396Y-72928551D01*
X71957397Y-72928554D01*
X71952372Y-72963488D01*
X71948461Y-72976805D01*
X71910684Y-73035581D01*
X71847140Y-73064601D01*
X71842600Y-73065254D01*
X71773441Y-73055314D01*
X71773434Y-73055311D01*
X71654309Y-73000908D01*
X71654302Y-73000906D01*
X71511846Y-72980426D01*
X71511845Y-72980426D01*
X71369389Y-73000906D01*
X71369385Y-73000907D01*
X71238476Y-73060691D01*
X71191781Y-73098320D01*
X71191777Y-73098324D01*
X69922016Y-74368088D01*
X69922013Y-74368092D01*
X69922010Y-74368094D01*
X69884384Y-74414783D01*
X69824599Y-74545693D01*
X69824598Y-74545697D01*
X69804118Y-74688152D01*
X61000000Y-74688152D01*
X61000000Y-69484295D01*
X61005023Y-69449359D01*
X61009427Y-69434361D01*
X61014819Y-69425971D01*
X61047197Y-69375588D01*
X61047199Y-69375585D01*
X61057489Y-69366668D01*
X61091243Y-69345818D01*
X61101661Y-69341503D01*
X61172623Y-69312109D01*
X61175416Y-69311135D01*
X61176852Y-69310471D01*
X61181523Y-69308422D01*
X61190791Y-69304583D01*
X61199675Y-69295698D01*
X61310289Y-69221789D01*
X61421789Y-69110289D01*
X61509394Y-68979179D01*
X61569737Y-68833497D01*
X61600499Y-68678848D01*
X61999499Y-68678848D01*
X62030257Y-68833471D01*
X62030264Y-68833502D01*
X62090598Y-68979165D01*
X62090603Y-68979174D01*
X62090613Y-68979191D01*
X62178211Y-69110290D01*
X62178212Y-69110291D01*
X62178217Y-69110297D01*
X62289701Y-69221781D01*
X62289707Y-69221786D01*
X62289711Y-69221789D01*
X62420814Y-69309390D01*
X62420827Y-69309397D01*
X62498356Y-69341510D01*
X62566503Y-69369737D01*
X62715764Y-69399427D01*
X62717654Y-69399803D01*
X62718844Y-69400125D01*
X62721155Y-69400500D01*
X62878844Y-69400500D01*
X62882964Y-69400500D01*
X62890814Y-69398118D01*
X63033497Y-69369737D01*
X63179179Y-69309394D01*
X63310289Y-69221789D01*
X63421789Y-69110289D01*
X63509394Y-68979179D01*
X63569737Y-68833497D01*
X63600499Y-68678848D01*
X65299499Y-68678848D01*
X65330257Y-68833471D01*
X65330264Y-68833502D01*
X65390598Y-68979165D01*
X65390603Y-68979174D01*
X65390613Y-68979191D01*
X65478211Y-69110290D01*
X65478212Y-69110291D01*
X65478217Y-69110297D01*
X65589701Y-69221781D01*
X65589707Y-69221786D01*
X65589711Y-69221789D01*
X65720814Y-69309390D01*
X65720827Y-69309397D01*
X65798356Y-69341510D01*
X65866503Y-69369737D01*
X66015764Y-69399427D01*
X66017654Y-69399803D01*
X66018844Y-69400125D01*
X66021155Y-69400500D01*
X66178844Y-69400500D01*
X66182964Y-69400500D01*
X66190814Y-69398118D01*
X66333497Y-69369737D01*
X66479179Y-69309394D01*
X66610289Y-69221789D01*
X66721789Y-69110289D01*
X66809394Y-68979179D01*
X66869737Y-68833497D01*
X66900500Y-68678842D01*
X66900500Y-68521158D01*
X66900500Y-68521155D01*
X66900500Y-68520971D01*
X66900064Y-68518966D01*
X66883063Y-68433497D01*
X66869737Y-68366503D01*
X66833427Y-68278842D01*
X66809397Y-68220827D01*
X66809390Y-68220814D01*
X66721789Y-68089711D01*
X66721786Y-68089707D01*
X66721781Y-68089701D01*
X66610297Y-67978217D01*
X66610291Y-67978212D01*
X66610290Y-67978211D01*
X66479191Y-67890613D01*
X66479190Y-67890612D01*
X66479185Y-67890609D01*
X66479172Y-67890602D01*
X66479165Y-67890598D01*
X66333502Y-67830264D01*
X66333471Y-67830257D01*
X66178847Y-67799500D01*
X66178845Y-67799500D01*
X66178842Y-67799500D01*
X66021158Y-67799500D01*
X66021155Y-67799500D01*
X66021153Y-67799500D01*
X65866527Y-67830257D01*
X65866496Y-67830264D01*
X65720833Y-67890598D01*
X65720824Y-67890603D01*
X65720807Y-67890613D01*
X65589708Y-67978211D01*
X65589707Y-67978212D01*
X65589701Y-67978217D01*
X65478217Y-68089701D01*
X65478212Y-68089707D01*
X65478211Y-68089708D01*
X65390613Y-68220807D01*
X65390603Y-68220824D01*
X65390598Y-68220833D01*
X65330264Y-68366496D01*
X65330257Y-68366527D01*
X65299500Y-68521150D01*
X65299500Y-68521153D01*
X65299500Y-68678846D01*
X65299500Y-68678848D01*
X65299499Y-68678848D01*
X63600499Y-68678848D01*
X63600500Y-68678842D01*
X63600500Y-68521158D01*
X63600500Y-68521155D01*
X63600499Y-68521153D01*
X63583063Y-68433497D01*
X63569737Y-68366503D01*
X63533427Y-68278842D01*
X63509397Y-68220827D01*
X63509390Y-68220814D01*
X63421789Y-68089711D01*
X63421786Y-68089707D01*
X63421781Y-68089701D01*
X63310297Y-67978217D01*
X63310291Y-67978212D01*
X63310290Y-67978211D01*
X63179191Y-67890613D01*
X63179190Y-67890612D01*
X63179185Y-67890609D01*
X63179172Y-67890602D01*
X63179165Y-67890598D01*
X63033502Y-67830264D01*
X63033471Y-67830257D01*
X62878847Y-67799500D01*
X62878845Y-67799500D01*
X62878842Y-67799500D01*
X62721158Y-67799500D01*
X62721155Y-67799500D01*
X62721153Y-67799500D01*
X62566527Y-67830257D01*
X62566496Y-67830264D01*
X62420833Y-67890598D01*
X62420824Y-67890603D01*
X62420807Y-67890613D01*
X62289708Y-67978211D01*
X62289707Y-67978212D01*
X62289701Y-67978217D01*
X62178217Y-68089701D01*
X62178212Y-68089707D01*
X62178211Y-68089708D01*
X62090613Y-68220807D01*
X62090603Y-68220824D01*
X62090598Y-68220833D01*
X62030264Y-68366496D01*
X62030257Y-68366527D01*
X61999500Y-68521150D01*
X61999500Y-68521153D01*
X61999500Y-68678846D01*
X61999500Y-68678848D01*
X61999499Y-68678848D01*
X61600499Y-68678848D01*
X61600500Y-68678842D01*
X61600500Y-68521158D01*
X61600500Y-68521155D01*
X61600499Y-68521153D01*
X61583063Y-68433497D01*
X61569737Y-68366503D01*
X61533427Y-68278842D01*
X61509397Y-68220827D01*
X61509390Y-68220814D01*
X61421789Y-68089711D01*
X61421786Y-68089707D01*
X61421781Y-68089701D01*
X61310297Y-67978217D01*
X61310291Y-67978212D01*
X61310290Y-67978211D01*
X61179182Y-67890607D01*
X61179180Y-67890606D01*
X61162779Y-67883812D01*
X61093009Y-67854913D01*
X61062664Y-67836906D01*
X61050490Y-67827096D01*
X61010646Y-67769707D01*
X61006344Y-67756784D01*
X61000000Y-67717628D01*
X61000000Y-67421200D01*
X69230092Y-67421200D01*
X69260850Y-67575823D01*
X69260857Y-67575854D01*
X69321191Y-67721517D01*
X69321196Y-67721526D01*
X69321206Y-67721543D01*
X69408804Y-67852642D01*
X69408805Y-67852643D01*
X69408810Y-67852649D01*
X69520294Y-67964133D01*
X69520300Y-67964138D01*
X69520304Y-67964141D01*
X69651407Y-68051742D01*
X69651420Y-68051749D01*
X69743070Y-68089711D01*
X69797096Y-68112089D01*
X69947740Y-68142054D01*
X69949219Y-68142441D01*
X69951748Y-68142852D01*
X70109437Y-68142852D01*
X70113557Y-68142852D01*
X70121407Y-68140470D01*
X70264090Y-68112089D01*
X70409772Y-68051746D01*
X70540882Y-67964141D01*
X70652382Y-67852641D01*
X70739987Y-67721531D01*
X70800330Y-67575849D01*
X70831093Y-67421194D01*
X70831093Y-67263510D01*
X70831093Y-67263507D01*
X70831093Y-67263325D01*
X70830658Y-67261324D01*
X70800990Y-67112176D01*
X70800587Y-67109819D01*
X70800331Y-67108860D01*
X70800330Y-67108858D01*
X70800330Y-67108855D01*
X70800328Y-67108850D01*
X70739990Y-66963179D01*
X70739983Y-66963166D01*
X70652382Y-66832063D01*
X70652379Y-66832059D01*
X70652374Y-66832053D01*
X70540890Y-66720569D01*
X70540884Y-66720564D01*
X70540883Y-66720563D01*
X70409784Y-66632965D01*
X70409783Y-66632964D01*
X70409778Y-66632961D01*
X70409765Y-66632954D01*
X70409758Y-66632950D01*
X70264095Y-66572616D01*
X70264064Y-66572609D01*
X70109440Y-66541852D01*
X70109438Y-66541852D01*
X70109435Y-66541852D01*
X69951751Y-66541852D01*
X69951748Y-66541852D01*
X69951746Y-66541852D01*
X69797120Y-66572609D01*
X69797089Y-66572616D01*
X69651426Y-66632950D01*
X69651417Y-66632955D01*
X69651400Y-66632965D01*
X69520301Y-66720563D01*
X69520300Y-66720564D01*
X69520294Y-66720569D01*
X69408810Y-66832053D01*
X69408805Y-66832059D01*
X69408804Y-66832060D01*
X69321206Y-66963159D01*
X69321196Y-66963176D01*
X69321191Y-66963185D01*
X69260857Y-67108848D01*
X69260850Y-67108879D01*
X69230093Y-67263502D01*
X69230093Y-67263505D01*
X69230093Y-67421198D01*
X69230093Y-67421200D01*
X69230092Y-67421200D01*
X61000000Y-67421200D01*
X61000000Y-65278848D01*
X65299499Y-65278848D01*
X65330257Y-65433471D01*
X65330264Y-65433502D01*
X65390598Y-65579165D01*
X65390603Y-65579174D01*
X65390613Y-65579191D01*
X65478211Y-65710290D01*
X65478212Y-65710291D01*
X65478217Y-65710297D01*
X65589701Y-65821781D01*
X65589707Y-65821786D01*
X65589711Y-65821789D01*
X65720814Y-65909390D01*
X65720827Y-65909397D01*
X65866498Y-65969735D01*
X65866503Y-65969737D01*
X66021153Y-66000499D01*
X66021156Y-66000500D01*
X66021158Y-66000500D01*
X66178844Y-66000500D01*
X66178845Y-66000499D01*
X66333497Y-65969737D01*
X66450778Y-65921158D01*
X66479172Y-65909397D01*
X66479172Y-65909396D01*
X66479179Y-65909394D01*
X66479183Y-65909391D01*
X66481508Y-65908428D01*
X66481530Y-65908419D01*
X66490791Y-65904583D01*
X66499675Y-65895698D01*
X66610289Y-65821789D01*
X66721789Y-65710289D01*
X66809394Y-65579179D01*
X66869737Y-65433497D01*
X66900500Y-65278842D01*
X66900500Y-65121158D01*
X66900500Y-65121155D01*
X66900500Y-65120973D01*
X66900065Y-65118972D01*
X66870395Y-64969815D01*
X66869983Y-64967403D01*
X66869737Y-64966504D01*
X66833166Y-64878211D01*
X66809397Y-64820827D01*
X66809390Y-64820814D01*
X66721789Y-64689711D01*
X66721786Y-64689707D01*
X66721781Y-64689701D01*
X66610297Y-64578217D01*
X66610291Y-64578212D01*
X66610290Y-64578211D01*
X66479191Y-64490613D01*
X66479190Y-64490612D01*
X66479185Y-64490609D01*
X66479172Y-64490602D01*
X66479165Y-64490598D01*
X66333502Y-64430264D01*
X66333471Y-64430257D01*
X66178847Y-64399500D01*
X66178845Y-64399500D01*
X66178842Y-64399500D01*
X66021158Y-64399500D01*
X66021155Y-64399500D01*
X66021153Y-64399500D01*
X65866527Y-64430257D01*
X65866496Y-64430264D01*
X65720833Y-64490598D01*
X65720824Y-64490603D01*
X65720807Y-64490613D01*
X65589708Y-64578211D01*
X65589707Y-64578212D01*
X65589701Y-64578217D01*
X65478217Y-64689701D01*
X65478212Y-64689707D01*
X65478211Y-64689708D01*
X65390613Y-64820807D01*
X65390603Y-64820824D01*
X65390598Y-64820833D01*
X65330264Y-64966496D01*
X65330257Y-64966527D01*
X65299500Y-65121150D01*
X65299500Y-65121153D01*
X65299500Y-65278846D01*
X65299500Y-65278848D01*
X65299499Y-65278848D01*
X61000000Y-65278848D01*
X61000000Y-64573053D01*
X61005022Y-64538120D01*
X61012138Y-64513884D01*
X61048161Y-64456653D01*
X64690167Y-61178848D01*
X69099499Y-61178848D01*
X69130257Y-61333471D01*
X69130264Y-61333502D01*
X69190598Y-61479165D01*
X69190603Y-61479174D01*
X69190613Y-61479191D01*
X69278212Y-61610291D01*
X69278217Y-61610297D01*
X69389701Y-61721781D01*
X69389707Y-61721786D01*
X69389711Y-61721789D01*
X69520814Y-61809390D01*
X69520827Y-61809397D01*
X69626975Y-61853364D01*
X69652989Y-61864139D01*
X69652990Y-61864140D01*
X69673479Y-61874972D01*
X69691892Y-61887034D01*
X69737182Y-61940237D01*
X69746905Y-62006756D01*
X69745312Y-62019000D01*
X69736912Y-62050449D01*
X69730262Y-62066503D01*
X69730257Y-62066527D01*
X69699500Y-62221150D01*
X69699500Y-62221153D01*
X69699500Y-62378846D01*
X69699500Y-62378848D01*
X69699499Y-62378848D01*
X69730257Y-62533471D01*
X69730264Y-62533502D01*
X69790598Y-62679165D01*
X69790603Y-62679174D01*
X69790613Y-62679191D01*
X69878211Y-62810290D01*
X69878212Y-62810291D01*
X69878217Y-62810297D01*
X69989701Y-62921781D01*
X69989707Y-62921786D01*
X69989711Y-62921789D01*
X70120814Y-63009390D01*
X70120827Y-63009397D01*
X70230082Y-63054651D01*
X70266503Y-63069737D01*
X70289943Y-63074399D01*
X70297419Y-63076905D01*
X70301255Y-63079580D01*
X70315489Y-63084602D01*
X70329341Y-63091848D01*
X70379613Y-63140353D01*
X70383248Y-63146735D01*
X70399500Y-63208105D01*
X70399500Y-63278846D01*
X70399500Y-63278848D01*
X70399499Y-63278848D01*
X70430257Y-63433471D01*
X70430264Y-63433502D01*
X70490598Y-63579165D01*
X70490603Y-63579174D01*
X70490613Y-63579191D01*
X70578211Y-63710290D01*
X70578212Y-63710291D01*
X70578217Y-63710297D01*
X70689701Y-63821781D01*
X70689707Y-63821786D01*
X70689711Y-63821789D01*
X70820814Y-63909390D01*
X70820827Y-63909397D01*
X70966498Y-63969735D01*
X70966503Y-63969737D01*
X71121153Y-64000499D01*
X71121156Y-64000500D01*
X71121158Y-64000500D01*
X71278844Y-64000500D01*
X71278845Y-64000499D01*
X71433497Y-63969737D01*
X71579179Y-63909394D01*
X71710289Y-63821789D01*
X71821789Y-63710289D01*
X71909394Y-63579179D01*
X71969737Y-63433497D01*
X72000500Y-63278842D01*
X72000500Y-63121158D01*
X72000500Y-63121155D01*
X72000500Y-63120973D01*
X72000065Y-63118971D01*
X71978447Y-63010291D01*
X71969737Y-62966503D01*
X71933569Y-62879185D01*
X71909397Y-62820827D01*
X71909390Y-62820814D01*
X71821789Y-62689711D01*
X71821786Y-62689707D01*
X71821781Y-62689701D01*
X71710297Y-62578217D01*
X71710291Y-62578212D01*
X71710290Y-62578211D01*
X71579191Y-62490613D01*
X71579190Y-62490612D01*
X71579185Y-62490609D01*
X71579172Y-62490602D01*
X71579165Y-62490598D01*
X71433501Y-62430264D01*
X71433493Y-62430262D01*
X71433486Y-62430260D01*
X71433457Y-62430254D01*
X71417789Y-62427137D01*
X71384506Y-62415394D01*
X71370655Y-62408148D01*
X71320378Y-62359631D01*
X71316739Y-62353240D01*
X71300500Y-62291892D01*
X71300500Y-62220971D01*
X71300064Y-62218966D01*
X71280543Y-62120827D01*
X71280539Y-62120807D01*
X71269737Y-62066503D01*
X71237929Y-61989711D01*
X71209397Y-61920827D01*
X71209390Y-61920814D01*
X71121789Y-61789711D01*
X71121786Y-61789707D01*
X71121781Y-61789701D01*
X71010297Y-61678217D01*
X71010291Y-61678212D01*
X71010290Y-61678211D01*
X70879191Y-61590613D01*
X70879190Y-61590612D01*
X70879185Y-61590609D01*
X70879172Y-61590602D01*
X70843356Y-61575767D01*
X70746986Y-61535850D01*
X70726456Y-61524993D01*
X70708070Y-61512939D01*
X70662797Y-61459725D01*
X70653092Y-61393221D01*
X70654685Y-61380990D01*
X70663084Y-61349555D01*
X70669737Y-61333497D01*
X70700500Y-61178842D01*
X70700500Y-61021158D01*
X70700500Y-61021155D01*
X70700500Y-61020971D01*
X70700064Y-61018966D01*
X70689779Y-60967260D01*
X70669739Y-60866510D01*
X70669736Y-60866501D01*
X70638300Y-60790606D01*
X70609397Y-60720827D01*
X70609390Y-60720814D01*
X70521789Y-60589711D01*
X70521786Y-60589707D01*
X70521781Y-60589701D01*
X70410297Y-60478217D01*
X70410291Y-60478212D01*
X70410290Y-60478211D01*
X70279191Y-60390613D01*
X70279190Y-60390612D01*
X70279185Y-60390609D01*
X70279172Y-60390602D01*
X70279165Y-60390598D01*
X70133502Y-60330264D01*
X70133471Y-60330257D01*
X69978847Y-60299500D01*
X69978845Y-60299500D01*
X69978842Y-60299500D01*
X69821158Y-60299500D01*
X69821155Y-60299500D01*
X69821153Y-60299500D01*
X69666527Y-60330257D01*
X69666496Y-60330264D01*
X69520833Y-60390598D01*
X69520824Y-60390603D01*
X69520807Y-60390613D01*
X69389708Y-60478211D01*
X69389707Y-60478212D01*
X69389701Y-60478217D01*
X69278217Y-60589701D01*
X69278212Y-60589707D01*
X69278211Y-60589708D01*
X69190613Y-60720807D01*
X69190603Y-60720824D01*
X69190598Y-60720833D01*
X69130264Y-60866496D01*
X69130257Y-60866527D01*
X69099500Y-61021150D01*
X69099500Y-61021153D01*
X69099500Y-61178846D01*
X69099500Y-61178848D01*
X69099499Y-61178848D01*
X64690167Y-61178848D01*
X65889050Y-60099854D01*
X65918366Y-60080225D01*
X65943842Y-60068006D01*
X65994519Y-60055848D01*
X67206157Y-60027103D01*
X67713050Y-59539068D01*
X67774996Y-59506752D01*
X67792221Y-59504584D01*
X67800434Y-59504131D01*
X67800436Y-59504130D01*
X67800450Y-59504130D01*
X67820964Y-59502133D01*
X67842492Y-59500040D01*
X67980706Y-59460063D01*
X68036464Y-59434871D01*
X68049535Y-59428739D01*
X68168631Y-59348007D01*
X69059966Y-58536554D01*
X69122790Y-58505981D01*
X69143519Y-58504249D01*
X70370584Y-58505075D01*
X70437610Y-58524805D01*
X70483329Y-58577639D01*
X70494500Y-58629075D01*
X70494500Y-59401009D01*
X70500721Y-59480067D01*
X70500723Y-59480085D01*
X70505567Y-59510665D01*
X70505569Y-59510672D01*
X70528741Y-59601461D01*
X70528742Y-59601466D01*
X70582846Y-59704004D01*
X70597176Y-59762109D01*
X70596777Y-59968784D01*
X70890202Y-59969900D01*
X70928046Y-59975968D01*
X70942795Y-59980760D01*
X70956577Y-59985022D01*
X70956584Y-59985024D01*
X71099000Y-60005500D01*
X74994528Y-60005500D01*
X75061567Y-60025185D01*
X75107322Y-60077989D01*
X75118527Y-60129972D01*
X75115873Y-60827231D01*
X75113860Y-60833988D01*
X75115061Y-60840937D01*
X75110720Y-60862139D01*
X75108977Y-60867994D01*
X75099279Y-60882960D01*
X75095934Y-60894195D01*
X75084226Y-60906191D01*
X75070983Y-60926630D01*
X75007319Y-60955417D01*
X74992035Y-60953161D01*
X74991558Y-60953316D01*
X74989609Y-60952803D01*
X74938198Y-60945215D01*
X74928449Y-60936703D01*
X74923990Y-60935530D01*
X74911476Y-60921885D01*
X74885568Y-60899267D01*
X74883493Y-60896011D01*
X74879288Y-60886791D01*
X74876764Y-60884038D01*
X74875990Y-60879556D01*
X74872365Y-60871608D01*
X74871860Y-60871811D01*
X74869760Y-60866562D01*
X74869738Y-60866509D01*
X74869737Y-60866503D01*
X74869735Y-60866498D01*
X74809397Y-60720827D01*
X74809390Y-60720814D01*
X74721789Y-60589711D01*
X74721786Y-60589707D01*
X74721781Y-60589701D01*
X74610297Y-60478217D01*
X74610291Y-60478212D01*
X74610290Y-60478211D01*
X74479191Y-60390613D01*
X74479190Y-60390612D01*
X74479185Y-60390609D01*
X74479172Y-60390602D01*
X74479165Y-60390598D01*
X74333502Y-60330264D01*
X74333471Y-60330257D01*
X74178847Y-60299500D01*
X74178845Y-60299500D01*
X74178842Y-60299500D01*
X74021158Y-60299500D01*
X74021155Y-60299500D01*
X74021153Y-60299500D01*
X73866527Y-60330257D01*
X73866496Y-60330264D01*
X73720833Y-60390598D01*
X73720824Y-60390603D01*
X73720807Y-60390613D01*
X73589708Y-60478211D01*
X73589707Y-60478212D01*
X73589701Y-60478217D01*
X73478217Y-60589701D01*
X73478212Y-60589707D01*
X73478211Y-60589708D01*
X73390613Y-60720807D01*
X73390603Y-60720824D01*
X73390598Y-60720833D01*
X73330264Y-60866496D01*
X73330257Y-60866527D01*
X73299500Y-61021150D01*
X73299500Y-61021153D01*
X73299500Y-61178846D01*
X73299500Y-61178848D01*
X73299499Y-61178848D01*
X73330257Y-61333471D01*
X73330264Y-61333502D01*
X73390598Y-61479165D01*
X73390603Y-61479174D01*
X73390613Y-61479191D01*
X73478212Y-61610291D01*
X73478217Y-61610297D01*
X73589701Y-61721781D01*
X73589707Y-61721786D01*
X73589711Y-61721789D01*
X73720814Y-61809390D01*
X73720827Y-61809397D01*
X73826977Y-61853365D01*
X73866503Y-61869737D01*
X74006172Y-61897519D01*
X74013523Y-61898981D01*
X74016250Y-61899704D01*
X74021155Y-61900500D01*
X74178844Y-61900500D01*
X74182964Y-61900500D01*
X74190814Y-61898118D01*
X74333497Y-61869737D01*
X74479179Y-61809394D01*
X74610289Y-61721789D01*
X74721789Y-61610289D01*
X74809394Y-61479179D01*
X74868129Y-61337377D01*
X74868309Y-61337154D01*
X74878969Y-61316875D01*
X74884374Y-61308626D01*
X74906405Y-61289879D01*
X74911967Y-61282978D01*
X74918211Y-61279833D01*
X74937585Y-61263347D01*
X75006829Y-61254023D01*
X75070123Y-61283615D01*
X75078190Y-61296382D01*
X75080103Y-61297505D01*
X75084973Y-61307118D01*
X75107284Y-61342428D01*
X75108959Y-61348271D01*
X75110139Y-61356788D01*
X75111681Y-61359832D01*
X75111204Y-61364476D01*
X75113759Y-61382913D01*
X75099998Y-65000000D01*
X75099999Y-65000000D01*
X75100000Y-65000000D01*
X85000000Y-65000000D01*
X85000000Y-62578848D01*
X89199499Y-62578848D01*
X89230257Y-62733471D01*
X89230264Y-62733502D01*
X89290598Y-62879165D01*
X89290603Y-62879174D01*
X89290610Y-62879186D01*
X89378211Y-63010290D01*
X89378212Y-63010291D01*
X89378217Y-63010297D01*
X89489701Y-63121781D01*
X89489707Y-63121786D01*
X89489711Y-63121789D01*
X89620814Y-63209390D01*
X89620827Y-63209397D01*
X89668556Y-63229166D01*
X89711508Y-63246958D01*
X89711510Y-63246958D01*
X89718853Y-63250000D01*
X89766503Y-63269737D01*
X89871418Y-63290606D01*
X89913512Y-63298979D01*
X89916247Y-63299703D01*
X89921155Y-63300500D01*
X90078844Y-63300500D01*
X90082964Y-63300500D01*
X90090814Y-63298118D01*
X90233497Y-63269737D01*
X90379179Y-63209394D01*
X90510289Y-63121789D01*
X90562341Y-63069737D01*
X90621788Y-63010291D01*
X90621789Y-63010289D01*
X90709394Y-62879179D01*
X90769737Y-62733497D01*
X90800500Y-62578842D01*
X90800500Y-62421158D01*
X90800500Y-62421155D01*
X90800499Y-62421153D01*
X90792150Y-62379179D01*
X90769737Y-62266503D01*
X90750955Y-62221158D01*
X90709397Y-62120827D01*
X90709390Y-62120814D01*
X90621789Y-61989711D01*
X90621786Y-61989707D01*
X90621781Y-61989701D01*
X90510297Y-61878217D01*
X90510291Y-61878212D01*
X90510290Y-61878211D01*
X90379191Y-61790613D01*
X90379190Y-61790612D01*
X90379185Y-61790609D01*
X90379172Y-61790602D01*
X90379165Y-61790598D01*
X90233502Y-61730264D01*
X90233471Y-61730257D01*
X90078847Y-61699500D01*
X90078845Y-61699500D01*
X90078842Y-61699500D01*
X89921158Y-61699500D01*
X89921155Y-61699500D01*
X89921153Y-61699500D01*
X89766527Y-61730257D01*
X89766496Y-61730264D01*
X89620833Y-61790598D01*
X89620824Y-61790603D01*
X89620807Y-61790613D01*
X89489708Y-61878211D01*
X89489707Y-61878212D01*
X89489701Y-61878217D01*
X89378217Y-61989701D01*
X89378212Y-61989707D01*
X89378211Y-61989708D01*
X89290613Y-62120807D01*
X89290603Y-62120824D01*
X89290602Y-62120827D01*
X89290599Y-62120831D01*
X89230264Y-62266496D01*
X89230257Y-62266527D01*
X89199500Y-62421150D01*
X89199500Y-62421153D01*
X89199500Y-62578846D01*
X89199500Y-62578848D01*
X89199499Y-62578848D01*
X85000000Y-62578848D01*
X85000000Y-61424234D01*
X94424500Y-61424234D01*
X94424500Y-61430576D01*
X94424500Y-61575767D01*
X94433750Y-61610288D01*
X94463719Y-61722136D01*
X94463719Y-61722137D01*
X94475416Y-61742395D01*
X94475417Y-61742397D01*
X94539482Y-61853361D01*
X94539483Y-61853362D01*
X94539485Y-61853365D01*
X94646635Y-61960515D01*
X94777865Y-62036281D01*
X94924234Y-62075500D01*
X94924236Y-62075500D01*
X95075764Y-62075500D01*
X95075766Y-62075500D01*
X95222135Y-62036281D01*
X95353365Y-61960515D01*
X95460515Y-61853365D01*
X95536281Y-61722135D01*
X95575500Y-61575766D01*
X95575500Y-61424234D01*
X95536281Y-61277865D01*
X95460515Y-61146635D01*
X95353365Y-61039485D01*
X95287750Y-61001602D01*
X95222136Y-60963719D01*
X95126123Y-60937993D01*
X95075766Y-60924500D01*
X95075765Y-60924500D01*
X94924234Y-60924500D01*
X94777859Y-60963720D01*
X94777857Y-60963721D01*
X94646645Y-61039478D01*
X94646631Y-61039487D01*
X94646626Y-61039491D01*
X94539491Y-61146626D01*
X94539487Y-61146631D01*
X94539478Y-61146645D01*
X94463718Y-61277861D01*
X94463718Y-61277862D01*
X94437311Y-61376419D01*
X94437302Y-61376455D01*
X94436832Y-61378211D01*
X94424500Y-61424234D01*
X85000000Y-61424234D01*
X85000000Y-58578848D01*
X86199499Y-58578848D01*
X86230257Y-58733471D01*
X86230264Y-58733502D01*
X86290598Y-58879165D01*
X86290603Y-58879174D01*
X86290613Y-58879191D01*
X86378211Y-59010290D01*
X86378212Y-59010291D01*
X86378217Y-59010297D01*
X86489701Y-59121781D01*
X86489707Y-59121786D01*
X86489711Y-59121789D01*
X86620814Y-59209390D01*
X86620827Y-59209397D01*
X86620829Y-59209397D01*
X86620833Y-59209400D01*
X86758694Y-59266503D01*
X86766498Y-59269735D01*
X86766506Y-59269738D01*
X86836795Y-59283719D01*
X86921153Y-59300499D01*
X86921156Y-59300500D01*
X86921158Y-59300500D01*
X87078844Y-59300500D01*
X87078845Y-59300499D01*
X87233497Y-59269737D01*
X87379179Y-59209394D01*
X87510289Y-59121789D01*
X87621789Y-59010289D01*
X87709394Y-58879179D01*
X87769737Y-58733497D01*
X87800500Y-58578842D01*
X87800500Y-58421158D01*
X87800500Y-58421155D01*
X87800500Y-58420971D01*
X87800064Y-58418966D01*
X87783297Y-58334672D01*
X87769739Y-58266510D01*
X87769736Y-58266501D01*
X87741984Y-58199500D01*
X87709397Y-58120827D01*
X87709390Y-58120814D01*
X87621789Y-57989711D01*
X87621786Y-57989707D01*
X87621781Y-57989701D01*
X87510297Y-57878217D01*
X87510291Y-57878212D01*
X87510290Y-57878211D01*
X87379191Y-57790613D01*
X87379190Y-57790612D01*
X87379185Y-57790609D01*
X87379172Y-57790602D01*
X87379165Y-57790598D01*
X87233502Y-57730264D01*
X87233471Y-57730257D01*
X87078847Y-57699500D01*
X87078845Y-57699500D01*
X87078842Y-57699500D01*
X86921158Y-57699500D01*
X86921155Y-57699500D01*
X86921153Y-57699500D01*
X86766527Y-57730257D01*
X86766496Y-57730264D01*
X86620833Y-57790598D01*
X86620824Y-57790603D01*
X86620807Y-57790613D01*
X86489708Y-57878211D01*
X86489707Y-57878212D01*
X86489701Y-57878217D01*
X86378217Y-57989701D01*
X86378212Y-57989707D01*
X86378211Y-57989708D01*
X86290613Y-58120807D01*
X86290603Y-58120824D01*
X86290598Y-58120833D01*
X86230264Y-58266496D01*
X86230257Y-58266527D01*
X86199500Y-58421150D01*
X86199500Y-58421153D01*
X86199500Y-58578846D01*
X86199500Y-58578848D01*
X86199499Y-58578848D01*
X85000000Y-58578848D01*
X85000000Y-55644234D01*
X94424500Y-55644234D01*
X94424500Y-55795765D01*
X94463719Y-55942135D01*
X94463720Y-55942139D01*
X94485105Y-55979179D01*
X94485106Y-55979179D01*
X94539485Y-56073365D01*
X94646635Y-56180515D01*
X94777865Y-56256281D01*
X94924234Y-56295500D01*
X94924236Y-56295500D01*
X95075764Y-56295500D01*
X95075766Y-56295500D01*
X95222135Y-56256281D01*
X95353365Y-56180515D01*
X95460515Y-56073365D01*
X95536281Y-55942135D01*
X95575500Y-55795766D01*
X95575500Y-55644234D01*
X95536281Y-55497865D01*
X95536276Y-55497857D01*
X95526129Y-55480281D01*
X95460515Y-55366635D01*
X95353365Y-55259485D01*
X95286397Y-55220821D01*
X95286395Y-55220819D01*
X95222136Y-55183719D01*
X95148950Y-55164109D01*
X95148949Y-55164108D01*
X95075767Y-55144500D01*
X95075766Y-55144500D01*
X94924234Y-55144500D01*
X94777859Y-55183720D01*
X94777857Y-55183721D01*
X94646645Y-55259478D01*
X94646631Y-55259487D01*
X94646626Y-55259491D01*
X94539491Y-55366626D01*
X94539487Y-55366631D01*
X94539478Y-55366645D01*
X94463721Y-55497857D01*
X94463720Y-55497859D01*
X94463719Y-55497863D01*
X94424500Y-55644234D01*
X85000000Y-55644234D01*
X85000000Y-54578848D01*
X88699499Y-54578848D01*
X88730257Y-54733471D01*
X88730264Y-54733502D01*
X88790598Y-54879165D01*
X88790603Y-54879174D01*
X88790613Y-54879191D01*
X88878211Y-55010290D01*
X88878212Y-55010291D01*
X88878217Y-55010297D01*
X88989701Y-55121781D01*
X88989707Y-55121786D01*
X88989711Y-55121789D01*
X89120814Y-55209390D01*
X89120827Y-55209397D01*
X89241752Y-55259485D01*
X89266503Y-55269737D01*
X89266507Y-55269737D01*
X89266510Y-55269739D01*
X89371418Y-55290606D01*
X89413512Y-55298979D01*
X89416247Y-55299703D01*
X89421155Y-55300500D01*
X89578844Y-55300500D01*
X89582964Y-55300500D01*
X89590814Y-55298118D01*
X89733497Y-55269737D01*
X89879179Y-55209394D01*
X90010289Y-55121789D01*
X90121789Y-55010289D01*
X90209394Y-54879179D01*
X90269737Y-54733497D01*
X90300500Y-54578842D01*
X90300500Y-54421158D01*
X90300500Y-54421155D01*
X90300500Y-54420973D01*
X90300065Y-54418972D01*
X90278611Y-54311119D01*
X90278611Y-54311115D01*
X90269738Y-54266507D01*
X90269734Y-54266496D01*
X90245783Y-54208673D01*
X90245783Y-54208672D01*
X90209402Y-54120840D01*
X90209399Y-54120833D01*
X90209397Y-54120827D01*
X90209390Y-54120814D01*
X90121789Y-53989711D01*
X90121786Y-53989707D01*
X90121781Y-53989701D01*
X90010297Y-53878217D01*
X90010291Y-53878212D01*
X90010290Y-53878211D01*
X89879191Y-53790613D01*
X89879190Y-53790612D01*
X89879185Y-53790609D01*
X89879172Y-53790602D01*
X89879165Y-53790598D01*
X89733502Y-53730264D01*
X89733471Y-53730257D01*
X89578847Y-53699500D01*
X89578845Y-53699500D01*
X89578842Y-53699500D01*
X89421158Y-53699500D01*
X89421155Y-53699500D01*
X89421153Y-53699500D01*
X89266527Y-53730257D01*
X89266496Y-53730264D01*
X89120833Y-53790598D01*
X89120824Y-53790603D01*
X89120807Y-53790613D01*
X88989708Y-53878211D01*
X88989707Y-53878212D01*
X88989701Y-53878217D01*
X88878217Y-53989701D01*
X88878212Y-53989707D01*
X88878211Y-53989708D01*
X88790613Y-54120807D01*
X88790603Y-54120824D01*
X88790598Y-54120833D01*
X88730264Y-54266496D01*
X88730257Y-54266527D01*
X88699500Y-54421150D01*
X88699500Y-54421153D01*
X88699500Y-54578846D01*
X88699500Y-54578848D01*
X88699499Y-54578848D01*
X85000000Y-54578848D01*
X85000000Y-52641738D01*
X85005023Y-52606802D01*
X85009427Y-52591804D01*
X85009526Y-52591650D01*
X85047152Y-52533070D01*
X85047201Y-52533027D01*
X85048542Y-52531864D01*
X85103394Y-52504379D01*
X85110911Y-52502740D01*
X85137213Y-52499899D01*
X101057588Y-52488319D01*
X101092512Y-52493315D01*
G37*
%TD.AperFunction*%
%TD*%
%TA.AperFunction,Conductor*%
%TO.N,GNDA*%
G36*
X101158690Y-36819407D02*
G01*
X101194654Y-36868907D01*
X101199499Y-36899500D01*
X101199499Y-51400541D01*
X101180592Y-51458732D01*
X101131092Y-51494696D01*
X101100386Y-51499541D01*
X84000000Y-51479999D01*
X84000000Y-63900517D01*
X83981093Y-63958708D01*
X83931593Y-63994672D01*
X83900519Y-63999516D01*
X76077337Y-63961529D01*
X76019239Y-63942339D01*
X75983516Y-63892665D01*
X75978819Y-63862053D01*
X75995165Y-60495724D01*
X76014354Y-60437630D01*
X76064028Y-60401907D01*
X76119786Y-60400582D01*
X76123402Y-60401550D01*
X76123404Y-60401552D01*
X76250698Y-60435660D01*
X76250700Y-60435660D01*
X76382480Y-60435660D01*
X76382482Y-60435660D01*
X76509776Y-60401552D01*
X76509778Y-60401550D01*
X76509780Y-60401550D01*
X76623899Y-60335663D01*
X76623899Y-60335662D01*
X76623904Y-60335660D01*
X76675456Y-60284108D01*
X78954500Y-60284108D01*
X78954500Y-60415892D01*
X78984579Y-60528151D01*
X78988609Y-60543190D01*
X79054496Y-60657309D01*
X79054498Y-60657311D01*
X79054500Y-60657314D01*
X79147686Y-60750500D01*
X79147688Y-60750501D01*
X79147690Y-60750503D01*
X79261810Y-60816390D01*
X79261808Y-60816390D01*
X79261812Y-60816391D01*
X79261814Y-60816392D01*
X79389108Y-60850500D01*
X79389110Y-60850500D01*
X79520890Y-60850500D01*
X79520892Y-60850500D01*
X79648186Y-60816392D01*
X79648188Y-60816390D01*
X79648190Y-60816390D01*
X79762309Y-60750503D01*
X79762309Y-60750502D01*
X79762314Y-60750500D01*
X79855500Y-60657314D01*
X79884368Y-60607314D01*
X79921390Y-60543190D01*
X79921390Y-60543188D01*
X79921392Y-60543186D01*
X79955500Y-60415892D01*
X79955500Y-60284108D01*
X79921392Y-60156814D01*
X79921390Y-60156811D01*
X79921390Y-60156809D01*
X79855503Y-60042690D01*
X79855501Y-60042688D01*
X79855500Y-60042686D01*
X79762314Y-59949500D01*
X79762311Y-59949498D01*
X79762309Y-59949496D01*
X79648189Y-59883609D01*
X79648191Y-59883609D01*
X79594668Y-59869268D01*
X79520892Y-59849500D01*
X79389108Y-59849500D01*
X79315332Y-59869268D01*
X79261809Y-59883609D01*
X79147690Y-59949496D01*
X79054496Y-60042690D01*
X78988609Y-60156809D01*
X78978996Y-60192686D01*
X78954500Y-60284108D01*
X76675456Y-60284108D01*
X76717090Y-60242474D01*
X76721920Y-60234108D01*
X76725379Y-60228118D01*
X76782981Y-60128347D01*
X76782982Y-60128346D01*
X76817090Y-60001052D01*
X76817090Y-59869268D01*
X76782982Y-59741974D01*
X76782980Y-59741971D01*
X76782980Y-59741969D01*
X76717093Y-59627850D01*
X76717091Y-59627848D01*
X76717090Y-59627846D01*
X76623904Y-59534660D01*
X76623901Y-59534658D01*
X76623899Y-59534656D01*
X76509779Y-59468769D01*
X76509781Y-59468769D01*
X76460389Y-59455535D01*
X76382482Y-59434660D01*
X76250698Y-59434660D01*
X76123404Y-59468768D01*
X76123403Y-59468768D01*
X76123401Y-59468769D01*
X76091241Y-59487336D01*
X76041148Y-59497981D01*
X76041148Y-59500000D01*
X76031651Y-59500000D01*
X76031392Y-59500055D01*
X76031268Y-59500000D01*
X76000000Y-59500000D01*
X71099000Y-59500000D01*
X71040809Y-59481093D01*
X71004845Y-59431593D01*
X71000000Y-59401000D01*
X71000000Y-58000001D01*
X71000000Y-58000000D01*
X68900000Y-57998586D01*
X68899999Y-57998586D01*
X67828332Y-58974207D01*
X67772574Y-58999399D01*
X67761686Y-59000000D01*
X65000000Y-59000000D01*
X60000000Y-64000000D01*
X60000000Y-64000001D01*
X60000000Y-85901000D01*
X59981093Y-85959191D01*
X59931593Y-85995155D01*
X59901000Y-86000000D01*
X28899500Y-86000000D01*
X28841309Y-85981093D01*
X28805345Y-85931593D01*
X28800500Y-85901000D01*
X28800500Y-82034108D01*
X49999500Y-82034108D01*
X49999500Y-82165892D01*
X50008773Y-82200500D01*
X50033609Y-82293190D01*
X50099496Y-82407309D01*
X50099498Y-82407311D01*
X50099500Y-82407314D01*
X50192686Y-82500500D01*
X50192688Y-82500501D01*
X50192690Y-82500503D01*
X50306810Y-82566390D01*
X50306808Y-82566390D01*
X50306812Y-82566391D01*
X50306814Y-82566392D01*
X50434108Y-82600500D01*
X50434110Y-82600500D01*
X50565890Y-82600500D01*
X50565892Y-82600500D01*
X50693186Y-82566392D01*
X50693188Y-82566390D01*
X50693190Y-82566390D01*
X50807309Y-82500503D01*
X50807309Y-82500502D01*
X50807314Y-82500500D01*
X50900500Y-82407314D01*
X50904434Y-82400500D01*
X50966390Y-82293190D01*
X50966390Y-82293188D01*
X50966392Y-82293186D01*
X51000500Y-82165892D01*
X51000500Y-82034108D01*
X50966392Y-81906814D01*
X50966390Y-81906811D01*
X50966390Y-81906809D01*
X50900503Y-81792690D01*
X50900501Y-81792688D01*
X50900500Y-81792686D01*
X50807314Y-81699500D01*
X50807311Y-81699498D01*
X50807309Y-81699496D01*
X50693189Y-81633609D01*
X50693191Y-81633609D01*
X50643799Y-81620375D01*
X50565892Y-81599500D01*
X50434108Y-81599500D01*
X50356200Y-81620375D01*
X50306809Y-81633609D01*
X50192690Y-81699496D01*
X50099496Y-81792690D01*
X50033609Y-81906809D01*
X50017778Y-81965892D01*
X49999500Y-82034108D01*
X28800500Y-82034108D01*
X28800500Y-79309109D01*
X33099500Y-79309109D01*
X33099500Y-79440893D01*
X33115204Y-79499500D01*
X33133609Y-79568191D01*
X33199496Y-79682310D01*
X33199498Y-79682312D01*
X33199500Y-79682315D01*
X33292686Y-79775501D01*
X33292688Y-79775502D01*
X33292690Y-79775504D01*
X33406810Y-79841391D01*
X33406808Y-79841391D01*
X33406812Y-79841392D01*
X33406814Y-79841393D01*
X33534108Y-79875501D01*
X33534110Y-79875501D01*
X33665890Y-79875501D01*
X33665892Y-79875501D01*
X33793186Y-79841393D01*
X33793188Y-79841391D01*
X33793190Y-79841391D01*
X33907309Y-79775504D01*
X33907309Y-79775503D01*
X33907314Y-79775501D01*
X34000500Y-79682315D01*
X34027748Y-79635121D01*
X34066390Y-79568191D01*
X34066390Y-79568189D01*
X34066392Y-79568187D01*
X34100500Y-79440893D01*
X34100500Y-79309109D01*
X34066392Y-79181815D01*
X34066390Y-79181812D01*
X34066390Y-79181810D01*
X34000503Y-79067691D01*
X34000501Y-79067689D01*
X34000500Y-79067687D01*
X33907314Y-78974501D01*
X33907311Y-78974499D01*
X33907309Y-78974497D01*
X33793189Y-78908610D01*
X33793191Y-78908610D01*
X33743799Y-78895376D01*
X33665892Y-78874501D01*
X33534108Y-78874501D01*
X33456200Y-78895376D01*
X33406809Y-78908610D01*
X33292690Y-78974497D01*
X33199496Y-79067691D01*
X33133609Y-79181810D01*
X33133608Y-79181815D01*
X33099500Y-79309109D01*
X28800500Y-79309109D01*
X28800500Y-76334108D01*
X42999500Y-76334108D01*
X42999500Y-76465892D01*
X43017644Y-76533608D01*
X43033609Y-76593190D01*
X43099496Y-76707309D01*
X43099498Y-76707311D01*
X43099500Y-76707314D01*
X43192686Y-76800500D01*
X43192688Y-76800501D01*
X43192690Y-76800503D01*
X43306810Y-76866390D01*
X43306808Y-76866390D01*
X43306812Y-76866391D01*
X43306814Y-76866392D01*
X43434108Y-76900500D01*
X43434110Y-76900500D01*
X43565890Y-76900500D01*
X43565892Y-76900500D01*
X43693186Y-76866392D01*
X43693188Y-76866390D01*
X43693190Y-76866390D01*
X43807309Y-76800503D01*
X43807309Y-76800502D01*
X43807314Y-76800500D01*
X43900500Y-76707314D01*
X43966392Y-76593186D01*
X44000500Y-76465892D01*
X44000500Y-76334108D01*
X43966392Y-76206814D01*
X43966390Y-76206811D01*
X43966390Y-76206809D01*
X43900503Y-76092690D01*
X43900501Y-76092688D01*
X43900500Y-76092686D01*
X43807314Y-75999500D01*
X43807311Y-75999498D01*
X43807309Y-75999496D01*
X43693189Y-75933609D01*
X43693191Y-75933609D01*
X43643799Y-75920375D01*
X43565892Y-75899500D01*
X43434108Y-75899500D01*
X43356200Y-75920375D01*
X43306809Y-75933609D01*
X43192690Y-75999496D01*
X43099496Y-76092690D01*
X43033609Y-76206809D01*
X43033608Y-76206814D01*
X42999500Y-76334108D01*
X28800500Y-76334108D01*
X28800500Y-60234108D01*
X48199500Y-60234108D01*
X48199500Y-60365892D01*
X48217778Y-60434108D01*
X48233609Y-60493190D01*
X48299496Y-60607309D01*
X48299498Y-60607311D01*
X48299500Y-60607314D01*
X48392686Y-60700500D01*
X48392688Y-60700501D01*
X48392690Y-60700503D01*
X48506810Y-60766390D01*
X48506808Y-60766390D01*
X48506812Y-60766391D01*
X48506814Y-60766392D01*
X48634108Y-60800500D01*
X48634110Y-60800500D01*
X48765890Y-60800500D01*
X48765892Y-60800500D01*
X48893186Y-60766392D01*
X48893188Y-60766390D01*
X48893190Y-60766390D01*
X49007309Y-60700503D01*
X49007309Y-60700502D01*
X49007314Y-60700500D01*
X49100500Y-60607314D01*
X49104434Y-60600500D01*
X49166390Y-60493190D01*
X49166390Y-60493188D01*
X49166392Y-60493186D01*
X49200500Y-60365892D01*
X49200500Y-60234108D01*
X49166392Y-60106814D01*
X49166390Y-60106811D01*
X49166390Y-60106809D01*
X49100503Y-59992690D01*
X49100501Y-59992688D01*
X49100500Y-59992686D01*
X49007314Y-59899500D01*
X49007311Y-59899498D01*
X49007309Y-59899496D01*
X48893189Y-59833609D01*
X48893191Y-59833609D01*
X48843799Y-59820375D01*
X48765892Y-59799500D01*
X48634108Y-59799500D01*
X48556200Y-59820375D01*
X48506809Y-59833609D01*
X48392690Y-59899496D01*
X48299496Y-59992690D01*
X48233609Y-60106809D01*
X48227838Y-60128347D01*
X48199500Y-60234108D01*
X28800500Y-60234108D01*
X28800500Y-56930253D01*
X57309500Y-56930253D01*
X57309500Y-58669746D01*
X57309501Y-58669758D01*
X57321132Y-58728227D01*
X57321134Y-58728233D01*
X57365445Y-58794548D01*
X57365448Y-58794552D01*
X57431769Y-58838867D01*
X57476231Y-58847711D01*
X57490241Y-58850498D01*
X57490246Y-58850498D01*
X57490252Y-58850500D01*
X57490253Y-58850500D01*
X59229747Y-58850500D01*
X59229748Y-58850500D01*
X59288231Y-58838867D01*
X59354552Y-58794552D01*
X59398867Y-58728231D01*
X59410500Y-58669748D01*
X59410500Y-57696532D01*
X59849500Y-57696532D01*
X59849500Y-57903467D01*
X59889869Y-58106418D01*
X59969058Y-58297597D01*
X59969059Y-58297598D01*
X60084023Y-58469655D01*
X60230345Y-58615977D01*
X60402402Y-58730941D01*
X60593580Y-58810130D01*
X60796535Y-58850500D01*
X60796536Y-58850500D01*
X61003464Y-58850500D01*
X61003465Y-58850500D01*
X61206420Y-58810130D01*
X61397598Y-58730941D01*
X61569655Y-58615977D01*
X61715977Y-58469655D01*
X61830941Y-58297598D01*
X61910130Y-58106420D01*
X61950500Y-57903465D01*
X61950500Y-57696535D01*
X61950499Y-57696532D01*
X62389500Y-57696532D01*
X62389500Y-57903467D01*
X62429869Y-58106418D01*
X62509058Y-58297597D01*
X62509059Y-58297598D01*
X62624023Y-58469655D01*
X62770345Y-58615977D01*
X62942402Y-58730941D01*
X63133580Y-58810130D01*
X63336535Y-58850500D01*
X63336536Y-58850500D01*
X63543464Y-58850500D01*
X63543465Y-58850500D01*
X63746420Y-58810130D01*
X63937598Y-58730941D01*
X64109655Y-58615977D01*
X64255977Y-58469655D01*
X64370941Y-58297598D01*
X64450130Y-58106420D01*
X64490500Y-57903465D01*
X64490500Y-57696535D01*
X64450130Y-57493580D01*
X64426251Y-57435932D01*
X64426250Y-57435930D01*
X77349500Y-57435930D01*
X77349500Y-57564069D01*
X77374499Y-57689742D01*
X77374500Y-57689747D01*
X77423534Y-57808125D01*
X77423538Y-57808133D01*
X77466365Y-57872226D01*
X77494724Y-57914669D01*
X77585331Y-58005276D01*
X77627733Y-58033608D01*
X77691866Y-58076461D01*
X77691870Y-58076463D01*
X77691873Y-58076465D01*
X77810256Y-58125501D01*
X77935931Y-58150500D01*
X77935932Y-58150500D01*
X78064068Y-58150500D01*
X78064069Y-58150500D01*
X78189744Y-58125501D01*
X78308127Y-58076465D01*
X78414669Y-58005276D01*
X78505276Y-57914669D01*
X78576465Y-57808127D01*
X78625501Y-57689744D01*
X78650500Y-57564069D01*
X78650500Y-57435931D01*
X78625501Y-57310256D01*
X78576465Y-57191873D01*
X78576463Y-57191870D01*
X78576461Y-57191866D01*
X78514743Y-57099500D01*
X78505276Y-57085331D01*
X78414669Y-56994724D01*
X78372226Y-56966365D01*
X78308133Y-56923538D01*
X78308125Y-56923534D01*
X78189747Y-56874500D01*
X78189745Y-56874499D01*
X78189744Y-56874499D01*
X78064069Y-56849500D01*
X77935931Y-56849500D01*
X77935930Y-56849500D01*
X77873093Y-56861999D01*
X77810256Y-56874499D01*
X77810255Y-56874499D01*
X77810252Y-56874500D01*
X77691874Y-56923534D01*
X77691866Y-56923538D01*
X77585331Y-56994724D01*
X77585327Y-56994727D01*
X77494727Y-57085327D01*
X77494724Y-57085331D01*
X77423538Y-57191866D01*
X77423534Y-57191874D01*
X77374500Y-57310252D01*
X77374499Y-57310257D01*
X77349500Y-57435930D01*
X64426250Y-57435930D01*
X64370941Y-57302402D01*
X64255979Y-57130348D01*
X64255977Y-57130345D01*
X64109655Y-56984023D01*
X64029182Y-56930253D01*
X63937597Y-56869058D01*
X63746418Y-56789869D01*
X63543467Y-56749500D01*
X63543465Y-56749500D01*
X63336535Y-56749500D01*
X63336532Y-56749500D01*
X63133581Y-56789869D01*
X62942402Y-56869058D01*
X62770348Y-56984020D01*
X62624020Y-57130348D01*
X62509058Y-57302402D01*
X62429869Y-57493581D01*
X62389500Y-57696532D01*
X61950499Y-57696532D01*
X61910130Y-57493580D01*
X61830941Y-57302402D01*
X61715977Y-57130345D01*
X61569655Y-56984023D01*
X61489182Y-56930253D01*
X61397597Y-56869058D01*
X61206418Y-56789869D01*
X61003467Y-56749500D01*
X61003465Y-56749500D01*
X60796535Y-56749500D01*
X60796532Y-56749500D01*
X60593581Y-56789869D01*
X60402402Y-56869058D01*
X60230348Y-56984020D01*
X60084020Y-57130348D01*
X59969058Y-57302402D01*
X59889869Y-57493581D01*
X59849500Y-57696532D01*
X59410500Y-57696532D01*
X59410500Y-56930252D01*
X59398867Y-56871769D01*
X59354552Y-56805448D01*
X59347147Y-56800500D01*
X59288233Y-56761134D01*
X59288231Y-56761133D01*
X59288228Y-56761132D01*
X59288227Y-56761132D01*
X59229758Y-56749501D01*
X59229748Y-56749500D01*
X57490252Y-56749500D01*
X57490251Y-56749500D01*
X57490241Y-56749501D01*
X57431772Y-56761132D01*
X57431766Y-56761134D01*
X57365451Y-56805445D01*
X57365445Y-56805451D01*
X57321134Y-56871766D01*
X57321132Y-56871772D01*
X57309501Y-56930241D01*
X57309500Y-56930253D01*
X28800500Y-56930253D01*
X28800500Y-54893709D01*
X30649500Y-54893709D01*
X30649500Y-55106290D01*
X30682752Y-55316238D01*
X30748443Y-55518412D01*
X30844948Y-55707815D01*
X30844950Y-55707819D01*
X30969891Y-55879786D01*
X30969893Y-55879788D01*
X30969896Y-55879792D01*
X31120208Y-56030104D01*
X31120211Y-56030106D01*
X31120213Y-56030108D01*
X31292180Y-56155049D01*
X31292184Y-56155051D01*
X31481588Y-56251557D01*
X31683757Y-56317246D01*
X31683758Y-56317246D01*
X31683761Y-56317247D01*
X31893710Y-56350500D01*
X31893713Y-56350500D01*
X32106290Y-56350500D01*
X32316238Y-56317247D01*
X32316239Y-56317246D01*
X32316243Y-56317246D01*
X32518412Y-56251557D01*
X32552658Y-56234108D01*
X48099500Y-56234108D01*
X48099500Y-56365892D01*
X48129579Y-56478151D01*
X48133609Y-56493190D01*
X48199496Y-56607309D01*
X48199498Y-56607311D01*
X48199500Y-56607314D01*
X48292686Y-56700500D01*
X48292688Y-56700501D01*
X48292690Y-56700503D01*
X48406810Y-56766390D01*
X48406808Y-56766390D01*
X48406812Y-56766391D01*
X48406814Y-56766392D01*
X48534108Y-56800500D01*
X48534110Y-56800500D01*
X48665890Y-56800500D01*
X48665892Y-56800500D01*
X48793186Y-56766392D01*
X48793188Y-56766390D01*
X48793190Y-56766390D01*
X48907309Y-56700503D01*
X48907309Y-56700502D01*
X48907314Y-56700500D01*
X49000500Y-56607314D01*
X49003886Y-56601449D01*
X49066390Y-56493190D01*
X49066390Y-56493188D01*
X49066392Y-56493186D01*
X49100500Y-56365892D01*
X49100500Y-56234108D01*
X49066392Y-56106814D01*
X49066390Y-56106811D01*
X49066390Y-56106809D01*
X49000503Y-55992690D01*
X49000501Y-55992688D01*
X49000500Y-55992686D01*
X48907314Y-55899500D01*
X48907311Y-55899498D01*
X48907309Y-55899496D01*
X48793189Y-55833609D01*
X48793191Y-55833609D01*
X48778722Y-55829732D01*
X48665892Y-55799500D01*
X48534108Y-55799500D01*
X48456200Y-55820375D01*
X48406809Y-55833609D01*
X48292690Y-55899496D01*
X48199496Y-55992690D01*
X48133609Y-56106809D01*
X48117524Y-56166841D01*
X48099500Y-56234108D01*
X32552658Y-56234108D01*
X32707816Y-56155051D01*
X32718173Y-56147526D01*
X32718174Y-56147526D01*
X32820248Y-56073365D01*
X32879792Y-56030104D01*
X33030104Y-55879792D01*
X33135949Y-55734108D01*
X58999500Y-55734108D01*
X58999500Y-55865892D01*
X59019929Y-55942135D01*
X59033609Y-55993190D01*
X59099496Y-56107309D01*
X59099498Y-56107311D01*
X59099500Y-56107314D01*
X59192686Y-56200500D01*
X59192688Y-56200501D01*
X59192690Y-56200503D01*
X59306810Y-56266390D01*
X59306808Y-56266390D01*
X59306812Y-56266391D01*
X59306814Y-56266392D01*
X59434108Y-56300500D01*
X59434110Y-56300500D01*
X59565890Y-56300500D01*
X59565892Y-56300500D01*
X59693186Y-56266392D01*
X59693188Y-56266390D01*
X59693190Y-56266390D01*
X59807309Y-56200503D01*
X59807309Y-56200502D01*
X59807314Y-56200500D01*
X59900500Y-56107314D01*
X59920101Y-56073365D01*
X59966390Y-55993190D01*
X59966390Y-55993188D01*
X59966392Y-55993186D01*
X60000500Y-55865892D01*
X60000500Y-55734108D01*
X60499500Y-55734108D01*
X60499500Y-55865892D01*
X60519929Y-55942135D01*
X60533609Y-55993190D01*
X60599496Y-56107309D01*
X60599498Y-56107311D01*
X60599500Y-56107314D01*
X60692686Y-56200500D01*
X60692688Y-56200501D01*
X60692690Y-56200503D01*
X60806810Y-56266390D01*
X60806808Y-56266390D01*
X60806812Y-56266391D01*
X60806814Y-56266392D01*
X60934108Y-56300500D01*
X60934110Y-56300500D01*
X61065890Y-56300500D01*
X61065892Y-56300500D01*
X61193186Y-56266392D01*
X61193188Y-56266390D01*
X61193190Y-56266390D01*
X61307309Y-56200503D01*
X61307309Y-56200502D01*
X61307314Y-56200500D01*
X61400500Y-56107314D01*
X61420101Y-56073365D01*
X61466390Y-55993190D01*
X61466390Y-55993188D01*
X61466392Y-55993186D01*
X61500500Y-55865892D01*
X61500500Y-55734108D01*
X61999500Y-55734108D01*
X61999500Y-55865892D01*
X62019929Y-55942135D01*
X62033609Y-55993190D01*
X62099496Y-56107309D01*
X62099498Y-56107311D01*
X62099500Y-56107314D01*
X62192686Y-56200500D01*
X62192688Y-56200501D01*
X62192690Y-56200503D01*
X62306810Y-56266390D01*
X62306808Y-56266390D01*
X62306812Y-56266391D01*
X62306814Y-56266392D01*
X62434108Y-56300500D01*
X62434110Y-56300500D01*
X62565890Y-56300500D01*
X62565892Y-56300500D01*
X62693186Y-56266392D01*
X62693188Y-56266390D01*
X62693190Y-56266390D01*
X62807309Y-56200503D01*
X62807309Y-56200502D01*
X62807314Y-56200500D01*
X62900500Y-56107314D01*
X62920101Y-56073365D01*
X62966390Y-55993190D01*
X62966390Y-55993188D01*
X62966392Y-55993186D01*
X63000500Y-55865892D01*
X63000500Y-55734108D01*
X62966392Y-55606814D01*
X62924415Y-55534108D01*
X71749185Y-55534108D01*
X71749185Y-55665892D01*
X71767463Y-55734108D01*
X71783294Y-55793190D01*
X71849181Y-55907309D01*
X71849183Y-55907311D01*
X71849185Y-55907314D01*
X71942371Y-56000500D01*
X71942373Y-56000501D01*
X71942375Y-56000503D01*
X72056495Y-56066390D01*
X72056493Y-56066390D01*
X72056497Y-56066391D01*
X72056499Y-56066392D01*
X72183793Y-56100500D01*
X72183795Y-56100500D01*
X72315575Y-56100500D01*
X72315577Y-56100500D01*
X72442871Y-56066392D01*
X72442873Y-56066390D01*
X72442875Y-56066390D01*
X72497145Y-56035057D01*
X73560537Y-56035057D01*
X73560537Y-56166841D01*
X73564201Y-56180515D01*
X73594646Y-56294139D01*
X73660533Y-56408258D01*
X73660535Y-56408260D01*
X73660537Y-56408263D01*
X73753723Y-56501449D01*
X73753725Y-56501450D01*
X73753727Y-56501452D01*
X73867847Y-56567339D01*
X73867845Y-56567339D01*
X73867849Y-56567340D01*
X73867851Y-56567341D01*
X73995145Y-56601449D01*
X73995147Y-56601449D01*
X74126927Y-56601449D01*
X74126929Y-56601449D01*
X74254223Y-56567341D01*
X74254225Y-56567339D01*
X74254227Y-56567339D01*
X74368346Y-56501452D01*
X74368346Y-56501451D01*
X74368351Y-56501449D01*
X74461537Y-56408263D01*
X74494887Y-56350500D01*
X74527427Y-56294139D01*
X74527427Y-56294137D01*
X74527429Y-56294135D01*
X74561537Y-56166841D01*
X74561537Y-56035057D01*
X74527429Y-55907763D01*
X74527427Y-55907760D01*
X74527427Y-55907758D01*
X74461540Y-55793639D01*
X74461538Y-55793637D01*
X74461537Y-55793635D01*
X74368351Y-55700449D01*
X74368348Y-55700447D01*
X74368346Y-55700445D01*
X74254226Y-55634558D01*
X74254228Y-55634558D01*
X74204836Y-55621324D01*
X74126929Y-55600449D01*
X73995145Y-55600449D01*
X73917237Y-55621324D01*
X73867846Y-55634558D01*
X73753727Y-55700445D01*
X73660533Y-55793639D01*
X73594646Y-55907758D01*
X73575576Y-55978927D01*
X73560537Y-56035057D01*
X72497145Y-56035057D01*
X72556994Y-56000503D01*
X72556994Y-56000502D01*
X72556999Y-56000500D01*
X72650185Y-55907314D01*
X72654119Y-55900500D01*
X72716075Y-55793190D01*
X72716075Y-55793188D01*
X72716077Y-55793186D01*
X72748045Y-55673875D01*
X72781369Y-55622563D01*
X72838491Y-55600636D01*
X72843672Y-55600500D01*
X72965890Y-55600500D01*
X72965892Y-55600500D01*
X73093186Y-55566392D01*
X73093188Y-55566390D01*
X73093190Y-55566390D01*
X73207309Y-55500503D01*
X73207309Y-55500502D01*
X73207314Y-55500500D01*
X73300500Y-55407314D01*
X73304434Y-55400500D01*
X73366390Y-55293190D01*
X73366390Y-55293188D01*
X73366392Y-55293186D01*
X73400500Y-55165892D01*
X73400500Y-55165889D01*
X73401615Y-55161728D01*
X73434939Y-55110414D01*
X73492060Y-55088487D01*
X73497242Y-55088351D01*
X73580469Y-55088351D01*
X73580471Y-55088351D01*
X73707765Y-55054243D01*
X73707767Y-55054241D01*
X73707769Y-55054241D01*
X73821888Y-54988354D01*
X73821888Y-54988353D01*
X73821893Y-54988351D01*
X73915079Y-54895165D01*
X73974243Y-54792690D01*
X73980969Y-54781041D01*
X73980969Y-54781039D01*
X73980971Y-54781037D01*
X74015079Y-54653743D01*
X74015079Y-54521959D01*
X73980971Y-54394665D01*
X73980969Y-54394662D01*
X73980969Y-54394660D01*
X73915082Y-54280541D01*
X73915080Y-54280539D01*
X73915079Y-54280537D01*
X73821893Y-54187351D01*
X73821890Y-54187349D01*
X73821888Y-54187347D01*
X73707768Y-54121460D01*
X73707770Y-54121460D01*
X73658378Y-54108226D01*
X73580471Y-54087351D01*
X73448687Y-54087351D01*
X73370779Y-54108226D01*
X73321388Y-54121460D01*
X73207269Y-54187347D01*
X73114075Y-54280541D01*
X73048188Y-54394660D01*
X73048187Y-54394665D01*
X73014079Y-54521959D01*
X73014079Y-54521960D01*
X73012964Y-54526123D01*
X72979640Y-54577437D01*
X72922519Y-54599364D01*
X72917337Y-54599500D01*
X72834108Y-54599500D01*
X72756200Y-54620375D01*
X72706809Y-54633609D01*
X72592690Y-54699496D01*
X72499496Y-54792690D01*
X72433609Y-54906809D01*
X72426295Y-54934108D01*
X72411761Y-54988351D01*
X72401640Y-55026123D01*
X72368316Y-55077437D01*
X72311194Y-55099364D01*
X72306013Y-55099500D01*
X72183793Y-55099500D01*
X72105885Y-55120375D01*
X72056494Y-55133609D01*
X71942375Y-55199496D01*
X71849181Y-55292690D01*
X71783294Y-55406809D01*
X71767329Y-55466392D01*
X71749185Y-55534108D01*
X62924415Y-55534108D01*
X62900500Y-55492686D01*
X62807314Y-55399500D01*
X62807311Y-55399498D01*
X62807309Y-55399496D01*
X62693189Y-55333609D01*
X62693191Y-55333609D01*
X62628378Y-55316243D01*
X62565892Y-55299500D01*
X62434108Y-55299500D01*
X62371622Y-55316243D01*
X62306809Y-55333609D01*
X62192690Y-55399496D01*
X62099496Y-55492690D01*
X62033609Y-55606809D01*
X62033608Y-55606814D01*
X61999500Y-55734108D01*
X61500500Y-55734108D01*
X61466392Y-55606814D01*
X61466390Y-55606811D01*
X61466390Y-55606809D01*
X61400503Y-55492690D01*
X61400501Y-55492688D01*
X61400500Y-55492686D01*
X61307314Y-55399500D01*
X61307311Y-55399498D01*
X61307309Y-55399496D01*
X61193189Y-55333609D01*
X61193191Y-55333609D01*
X61128378Y-55316243D01*
X61065892Y-55299500D01*
X60934108Y-55299500D01*
X60871622Y-55316243D01*
X60806809Y-55333609D01*
X60692690Y-55399496D01*
X60599496Y-55492690D01*
X60533609Y-55606809D01*
X60533608Y-55606814D01*
X60499500Y-55734108D01*
X60000500Y-55734108D01*
X59966392Y-55606814D01*
X59966390Y-55606811D01*
X59966390Y-55606809D01*
X59900503Y-55492690D01*
X59900501Y-55492688D01*
X59900500Y-55492686D01*
X59807314Y-55399500D01*
X59807311Y-55399498D01*
X59807309Y-55399496D01*
X59693189Y-55333609D01*
X59693191Y-55333609D01*
X59628378Y-55316243D01*
X59565892Y-55299500D01*
X59434108Y-55299500D01*
X59371622Y-55316243D01*
X59306809Y-55333609D01*
X59192690Y-55399496D01*
X59099496Y-55492690D01*
X59033609Y-55606809D01*
X59033608Y-55606814D01*
X58999500Y-55734108D01*
X33135949Y-55734108D01*
X33155051Y-55707816D01*
X33251557Y-55518412D01*
X33317246Y-55316243D01*
X33318660Y-55307314D01*
X33350500Y-55106290D01*
X33350500Y-54893709D01*
X33317247Y-54683761D01*
X33317246Y-54683757D01*
X33251557Y-54481588D01*
X33155051Y-54292184D01*
X33155049Y-54292180D01*
X33030108Y-54120213D01*
X33030106Y-54120211D01*
X33030104Y-54120208D01*
X32879792Y-53969896D01*
X32879788Y-53969893D01*
X32879786Y-53969891D01*
X32707819Y-53844950D01*
X32707815Y-53844948D01*
X32518412Y-53748443D01*
X32316238Y-53682752D01*
X32106290Y-53649500D01*
X32106287Y-53649500D01*
X31893713Y-53649500D01*
X31893710Y-53649500D01*
X31683761Y-53682752D01*
X31481587Y-53748443D01*
X31292184Y-53844948D01*
X31292180Y-53844950D01*
X31120213Y-53969891D01*
X30969891Y-54120213D01*
X30844950Y-54292180D01*
X30844948Y-54292184D01*
X30748443Y-54481587D01*
X30682752Y-54683761D01*
X30649500Y-54893709D01*
X28800500Y-54893709D01*
X28800500Y-50934108D01*
X44399500Y-50934108D01*
X44399500Y-51065892D01*
X44429579Y-51178151D01*
X44433609Y-51193190D01*
X44499496Y-51307309D01*
X44499498Y-51307311D01*
X44499500Y-51307314D01*
X44592686Y-51400500D01*
X44592688Y-51400501D01*
X44592690Y-51400503D01*
X44706810Y-51466390D01*
X44706808Y-51466390D01*
X44706812Y-51466391D01*
X44706814Y-51466392D01*
X44834108Y-51500500D01*
X44834110Y-51500500D01*
X44965890Y-51500500D01*
X44965892Y-51500500D01*
X45093186Y-51466392D01*
X45093188Y-51466390D01*
X45093190Y-51466390D01*
X45207309Y-51400503D01*
X45207309Y-51400502D01*
X45207314Y-51400500D01*
X45273706Y-51334108D01*
X70399500Y-51334108D01*
X70399500Y-51465892D01*
X70408773Y-51500500D01*
X70433609Y-51593190D01*
X70499496Y-51707309D01*
X70499498Y-51707311D01*
X70499500Y-51707314D01*
X70592686Y-51800500D01*
X70592688Y-51800501D01*
X70592690Y-51800503D01*
X70706810Y-51866390D01*
X70706808Y-51866390D01*
X70706812Y-51866391D01*
X70706814Y-51866392D01*
X70834108Y-51900500D01*
X70834110Y-51900500D01*
X70965890Y-51900500D01*
X70965892Y-51900500D01*
X71093186Y-51866392D01*
X71093188Y-51866390D01*
X71093190Y-51866390D01*
X71207309Y-51800503D01*
X71207309Y-51800502D01*
X71207314Y-51800500D01*
X71300500Y-51707314D01*
X71366392Y-51593186D01*
X71400500Y-51465892D01*
X71400500Y-51334108D01*
X71366392Y-51206814D01*
X71366390Y-51206811D01*
X71366390Y-51206809D01*
X71300503Y-51092690D01*
X71300501Y-51092688D01*
X71300500Y-51092686D01*
X71207314Y-50999500D01*
X71207311Y-50999498D01*
X71207309Y-50999496D01*
X71093189Y-50933609D01*
X71093191Y-50933609D01*
X71030106Y-50916706D01*
X70965892Y-50899500D01*
X70834108Y-50899500D01*
X70769894Y-50916706D01*
X70706809Y-50933609D01*
X70592690Y-50999496D01*
X70499496Y-51092690D01*
X70433609Y-51206809D01*
X70433608Y-51206814D01*
X70399500Y-51334108D01*
X45273706Y-51334108D01*
X45300500Y-51307314D01*
X45309504Y-51291717D01*
X45317357Y-51278118D01*
X45358524Y-51206814D01*
X45366392Y-51193186D01*
X45400500Y-51065892D01*
X45400500Y-50934108D01*
X45366392Y-50806814D01*
X45366390Y-50806811D01*
X45366390Y-50806809D01*
X45300503Y-50692690D01*
X45300501Y-50692688D01*
X45300500Y-50692686D01*
X45207314Y-50599500D01*
X45207311Y-50599498D01*
X45207309Y-50599496D01*
X45093192Y-50533611D01*
X45093187Y-50533608D01*
X45050754Y-50522238D01*
X44965892Y-50499500D01*
X44834108Y-50499500D01*
X44756200Y-50520375D01*
X44706809Y-50533609D01*
X44592690Y-50599496D01*
X44499496Y-50692690D01*
X44433609Y-50806809D01*
X44414539Y-50877978D01*
X44399500Y-50934108D01*
X28800500Y-50934108D01*
X28800500Y-50450314D01*
X69315706Y-50450314D01*
X69315706Y-50582098D01*
X69320368Y-50599496D01*
X69349815Y-50709396D01*
X69415702Y-50823515D01*
X69415704Y-50823517D01*
X69415706Y-50823520D01*
X69508892Y-50916706D01*
X69508894Y-50916707D01*
X69508896Y-50916709D01*
X69623016Y-50982596D01*
X69623014Y-50982596D01*
X69623018Y-50982597D01*
X69623020Y-50982598D01*
X69750314Y-51016706D01*
X69750316Y-51016706D01*
X69882096Y-51016706D01*
X69882098Y-51016706D01*
X70009392Y-50982598D01*
X70009394Y-50982596D01*
X70009396Y-50982596D01*
X70123515Y-50916709D01*
X70123515Y-50916708D01*
X70123520Y-50916706D01*
X70216706Y-50823520D01*
X70282598Y-50709392D01*
X70316706Y-50582098D01*
X70316706Y-50450314D01*
X70282598Y-50323020D01*
X70282596Y-50323017D01*
X70282596Y-50323015D01*
X70216709Y-50208896D01*
X70216707Y-50208894D01*
X70216706Y-50208892D01*
X70123520Y-50115706D01*
X70123517Y-50115704D01*
X70123515Y-50115702D01*
X70009395Y-50049815D01*
X70009397Y-50049815D01*
X69957751Y-50035977D01*
X69882098Y-50015706D01*
X69750314Y-50015706D01*
X69674661Y-50035977D01*
X69623015Y-50049815D01*
X69508896Y-50115702D01*
X69415702Y-50208896D01*
X69349815Y-50323015D01*
X69349814Y-50323020D01*
X69315706Y-50450314D01*
X28800500Y-50450314D01*
X28800500Y-49134108D01*
X48099500Y-49134108D01*
X48099500Y-49265892D01*
X48114927Y-49323467D01*
X48133609Y-49393190D01*
X48199496Y-49507309D01*
X48199498Y-49507311D01*
X48199500Y-49507314D01*
X48292686Y-49600500D01*
X48292688Y-49600501D01*
X48292690Y-49600503D01*
X48406810Y-49666390D01*
X48406808Y-49666390D01*
X48406812Y-49666391D01*
X48406814Y-49666392D01*
X48534108Y-49700500D01*
X48534110Y-49700500D01*
X48665890Y-49700500D01*
X48665892Y-49700500D01*
X48793186Y-49666392D01*
X48793188Y-49666390D01*
X48793190Y-49666390D01*
X48849104Y-49634108D01*
X50299500Y-49634108D01*
X50299500Y-49765892D01*
X50310598Y-49807309D01*
X50333609Y-49893190D01*
X50399496Y-50007309D01*
X50399498Y-50007311D01*
X50399500Y-50007314D01*
X50492686Y-50100500D01*
X50492688Y-50100501D01*
X50492690Y-50100503D01*
X50606810Y-50166390D01*
X50606808Y-50166390D01*
X50606812Y-50166391D01*
X50606814Y-50166392D01*
X50734108Y-50200500D01*
X50734110Y-50200500D01*
X50865890Y-50200500D01*
X50865892Y-50200500D01*
X50993186Y-50166392D01*
X50993188Y-50166390D01*
X50993190Y-50166390D01*
X51107309Y-50100503D01*
X51107309Y-50100502D01*
X51107314Y-50100500D01*
X51200500Y-50007314D01*
X51204434Y-50000500D01*
X51266390Y-49893190D01*
X51266390Y-49893188D01*
X51266392Y-49893186D01*
X51300500Y-49765892D01*
X51300500Y-49634108D01*
X51266392Y-49506814D01*
X51224415Y-49434108D01*
X58999500Y-49434108D01*
X58999500Y-49565892D01*
X59008773Y-49600500D01*
X59033609Y-49693190D01*
X59099496Y-49807309D01*
X59099498Y-49807311D01*
X59099500Y-49807314D01*
X59192686Y-49900500D01*
X59192688Y-49900501D01*
X59192690Y-49900503D01*
X59306810Y-49966390D01*
X59306808Y-49966390D01*
X59306812Y-49966391D01*
X59306814Y-49966392D01*
X59434108Y-50000500D01*
X59434110Y-50000500D01*
X59565890Y-50000500D01*
X59565892Y-50000500D01*
X59693186Y-49966392D01*
X59693188Y-49966390D01*
X59693190Y-49966390D01*
X59807309Y-49900503D01*
X59807309Y-49900502D01*
X59807314Y-49900500D01*
X59900500Y-49807314D01*
X59952298Y-49717598D01*
X59966390Y-49693190D01*
X59966390Y-49693188D01*
X59966392Y-49693186D01*
X60000500Y-49565892D01*
X60000500Y-49434108D01*
X60499500Y-49434108D01*
X60499500Y-49565892D01*
X60508773Y-49600500D01*
X60533609Y-49693190D01*
X60599496Y-49807309D01*
X60599498Y-49807311D01*
X60599500Y-49807314D01*
X60692686Y-49900500D01*
X60692688Y-49900501D01*
X60692690Y-49900503D01*
X60806810Y-49966390D01*
X60806808Y-49966390D01*
X60806812Y-49966391D01*
X60806814Y-49966392D01*
X60934108Y-50000500D01*
X60934110Y-50000500D01*
X61065890Y-50000500D01*
X61065892Y-50000500D01*
X61193186Y-49966392D01*
X61193188Y-49966390D01*
X61193190Y-49966390D01*
X61307309Y-49900503D01*
X61307309Y-49900502D01*
X61307314Y-49900500D01*
X61400500Y-49807314D01*
X61452298Y-49717598D01*
X61466390Y-49693190D01*
X61466390Y-49693188D01*
X61466392Y-49693186D01*
X61500500Y-49565892D01*
X61500500Y-49434108D01*
X61999500Y-49434108D01*
X61999500Y-49565892D01*
X62008773Y-49600500D01*
X62033609Y-49693190D01*
X62099496Y-49807309D01*
X62099498Y-49807311D01*
X62099500Y-49807314D01*
X62192686Y-49900500D01*
X62192688Y-49900501D01*
X62192690Y-49900503D01*
X62306810Y-49966390D01*
X62306808Y-49966390D01*
X62306812Y-49966391D01*
X62306814Y-49966392D01*
X62434108Y-50000500D01*
X62434110Y-50000500D01*
X62565890Y-50000500D01*
X62565892Y-50000500D01*
X62693186Y-49966392D01*
X62693188Y-49966390D01*
X62693190Y-49966390D01*
X62807309Y-49900503D01*
X62807309Y-49900502D01*
X62807314Y-49900500D01*
X62900500Y-49807314D01*
X62952298Y-49717598D01*
X62966390Y-49693190D01*
X62966390Y-49693188D01*
X62966392Y-49693186D01*
X63000500Y-49565892D01*
X63000500Y-49434108D01*
X62966392Y-49306814D01*
X62966390Y-49306811D01*
X62966390Y-49306809D01*
X62900503Y-49192690D01*
X62900501Y-49192688D01*
X62900500Y-49192686D01*
X62824346Y-49116532D01*
X66949500Y-49116532D01*
X66949500Y-49323467D01*
X66989869Y-49526418D01*
X67069058Y-49717597D01*
X67129005Y-49807314D01*
X67184023Y-49889655D01*
X67330345Y-50035977D01*
X67502402Y-50150941D01*
X67693580Y-50230130D01*
X67896535Y-50270500D01*
X67896536Y-50270500D01*
X68103464Y-50270500D01*
X68103465Y-50270500D01*
X68306420Y-50230130D01*
X68497598Y-50150941D01*
X68669655Y-50035977D01*
X68815977Y-49889655D01*
X68930941Y-49717598D01*
X69010130Y-49526420D01*
X69050500Y-49323465D01*
X69050500Y-49116535D01*
X69010130Y-48913580D01*
X68935790Y-48734108D01*
X71299500Y-48734108D01*
X71299500Y-48865892D01*
X71312278Y-48913580D01*
X71333609Y-48993190D01*
X71399496Y-49107309D01*
X71399498Y-49107311D01*
X71399500Y-49107314D01*
X71492686Y-49200500D01*
X71492688Y-49200501D01*
X71492690Y-49200503D01*
X71606810Y-49266390D01*
X71606808Y-49266390D01*
X71606812Y-49266391D01*
X71606814Y-49266392D01*
X71734108Y-49300500D01*
X71734110Y-49300500D01*
X71865890Y-49300500D01*
X71865892Y-49300500D01*
X71993186Y-49266392D01*
X71993188Y-49266390D01*
X71993190Y-49266390D01*
X72107309Y-49200503D01*
X72107309Y-49200502D01*
X72107314Y-49200500D01*
X72200500Y-49107314D01*
X72200503Y-49107309D01*
X72266390Y-48993190D01*
X72266390Y-48993188D01*
X72266392Y-48993186D01*
X72300500Y-48865892D01*
X72300500Y-48734108D01*
X72266392Y-48606814D01*
X72266390Y-48606811D01*
X72266390Y-48606809D01*
X72200503Y-48492690D01*
X72200501Y-48492688D01*
X72200500Y-48492686D01*
X72107314Y-48399500D01*
X72107311Y-48399498D01*
X72107309Y-48399496D01*
X71993189Y-48333609D01*
X71993191Y-48333609D01*
X71943799Y-48320375D01*
X71865892Y-48299500D01*
X71734108Y-48299500D01*
X71656200Y-48320375D01*
X71606809Y-48333609D01*
X71492690Y-48399496D01*
X71399496Y-48492690D01*
X71333609Y-48606809D01*
X71319189Y-48660626D01*
X71299500Y-48734108D01*
X68935790Y-48734108D01*
X68930941Y-48722402D01*
X68815977Y-48550345D01*
X68669655Y-48404023D01*
X68667919Y-48402863D01*
X68497597Y-48289058D01*
X68306418Y-48209869D01*
X68103467Y-48169500D01*
X68103465Y-48169500D01*
X67896535Y-48169500D01*
X67896532Y-48169500D01*
X67693581Y-48209869D01*
X67502402Y-48289058D01*
X67330348Y-48404020D01*
X67184020Y-48550348D01*
X67069058Y-48722402D01*
X66989869Y-48913581D01*
X66949500Y-49116532D01*
X62824346Y-49116532D01*
X62807314Y-49099500D01*
X62807311Y-49099498D01*
X62807309Y-49099496D01*
X62693189Y-49033609D01*
X62693191Y-49033609D01*
X62643799Y-49020375D01*
X62565892Y-48999500D01*
X62434108Y-48999500D01*
X62356200Y-49020375D01*
X62306809Y-49033609D01*
X62192690Y-49099496D01*
X62099496Y-49192690D01*
X62033609Y-49306809D01*
X62033608Y-49306814D01*
X61999500Y-49434108D01*
X61500500Y-49434108D01*
X61466392Y-49306814D01*
X61466390Y-49306811D01*
X61466390Y-49306809D01*
X61400503Y-49192690D01*
X61400501Y-49192688D01*
X61400500Y-49192686D01*
X61307314Y-49099500D01*
X61307311Y-49099498D01*
X61307309Y-49099496D01*
X61193189Y-49033609D01*
X61193191Y-49033609D01*
X61143799Y-49020375D01*
X61065892Y-48999500D01*
X60934108Y-48999500D01*
X60856200Y-49020375D01*
X60806809Y-49033609D01*
X60692690Y-49099496D01*
X60599496Y-49192690D01*
X60533609Y-49306809D01*
X60533608Y-49306814D01*
X60499500Y-49434108D01*
X60000500Y-49434108D01*
X59966392Y-49306814D01*
X59966390Y-49306811D01*
X59966390Y-49306809D01*
X59900503Y-49192690D01*
X59900501Y-49192688D01*
X59900500Y-49192686D01*
X59807314Y-49099500D01*
X59807311Y-49099498D01*
X59807309Y-49099496D01*
X59693189Y-49033609D01*
X59693191Y-49033609D01*
X59643799Y-49020375D01*
X59565892Y-48999500D01*
X59434108Y-48999500D01*
X59356200Y-49020375D01*
X59306809Y-49033609D01*
X59192690Y-49099496D01*
X59099496Y-49192690D01*
X59033609Y-49306809D01*
X59033608Y-49306814D01*
X58999500Y-49434108D01*
X51224415Y-49434108D01*
X51200500Y-49392686D01*
X51107314Y-49299500D01*
X51107311Y-49299498D01*
X51107309Y-49299496D01*
X50993189Y-49233609D01*
X50993191Y-49233609D01*
X50943799Y-49220375D01*
X50865892Y-49199500D01*
X50734108Y-49199500D01*
X50656200Y-49220375D01*
X50606809Y-49233609D01*
X50492690Y-49299496D01*
X50399496Y-49392690D01*
X50333609Y-49506809D01*
X50319996Y-49557615D01*
X50299500Y-49634108D01*
X48849104Y-49634108D01*
X48907309Y-49600503D01*
X48907309Y-49600502D01*
X48907314Y-49600500D01*
X49000500Y-49507314D01*
X49000789Y-49506814D01*
X49066390Y-49393190D01*
X49066390Y-49393188D01*
X49066392Y-49393186D01*
X49100500Y-49265892D01*
X49100500Y-49134108D01*
X49066392Y-49006814D01*
X49066390Y-49006811D01*
X49066390Y-49006809D01*
X49000503Y-48892690D01*
X49000501Y-48892688D01*
X49000500Y-48892686D01*
X48907314Y-48799500D01*
X48907311Y-48799498D01*
X48907309Y-48799496D01*
X48793189Y-48733609D01*
X48793191Y-48733609D01*
X48743799Y-48720375D01*
X48665892Y-48699500D01*
X48534108Y-48699500D01*
X48456200Y-48720375D01*
X48406809Y-48733609D01*
X48292690Y-48799496D01*
X48199496Y-48892690D01*
X48133609Y-49006809D01*
X48126428Y-49033609D01*
X48099500Y-49134108D01*
X28800500Y-49134108D01*
X28800500Y-47916230D01*
X29649500Y-47916230D01*
X29649500Y-48083769D01*
X29682183Y-48248079D01*
X29682185Y-48248085D01*
X29746296Y-48402862D01*
X29746297Y-48402863D01*
X29839374Y-48542162D01*
X29957838Y-48660626D01*
X30097137Y-48753703D01*
X30251918Y-48817816D01*
X30416233Y-48850500D01*
X30416234Y-48850500D01*
X30583766Y-48850500D01*
X30583767Y-48850500D01*
X30748082Y-48817816D01*
X30902863Y-48753703D01*
X31042162Y-48660626D01*
X31160626Y-48542162D01*
X31253703Y-48402863D01*
X31317816Y-48248082D01*
X31350500Y-48083767D01*
X31350500Y-47916233D01*
X31350499Y-47916230D01*
X32149500Y-47916230D01*
X32149500Y-48083769D01*
X32182183Y-48248079D01*
X32182185Y-48248085D01*
X32246296Y-48402862D01*
X32246297Y-48402863D01*
X32339374Y-48542162D01*
X32457838Y-48660626D01*
X32597137Y-48753703D01*
X32751918Y-48817816D01*
X32916233Y-48850500D01*
X32916234Y-48850500D01*
X33083766Y-48850500D01*
X33083767Y-48850500D01*
X33248082Y-48817816D01*
X33402863Y-48753703D01*
X33542162Y-48660626D01*
X33660626Y-48542162D01*
X33753703Y-48402863D01*
X33817816Y-48248082D01*
X33850500Y-48083767D01*
X33850500Y-47921155D01*
X36699500Y-47921155D01*
X36699500Y-48078844D01*
X36730263Y-48233496D01*
X36730263Y-48233498D01*
X36790603Y-48379174D01*
X36790609Y-48379185D01*
X36807204Y-48404020D01*
X36878211Y-48510289D01*
X36989711Y-48621789D01*
X37047829Y-48660622D01*
X37120814Y-48709390D01*
X37120825Y-48709396D01*
X37152225Y-48722402D01*
X37266503Y-48769737D01*
X37421158Y-48800500D01*
X37421159Y-48800500D01*
X38578841Y-48800500D01*
X38578842Y-48800500D01*
X38733497Y-48769737D01*
X38879179Y-48709394D01*
X39010289Y-48621789D01*
X39121789Y-48510289D01*
X39209394Y-48379179D01*
X39269737Y-48233497D01*
X39300500Y-48078842D01*
X39300500Y-47921158D01*
X39300499Y-47921155D01*
X90699500Y-47921155D01*
X90699500Y-48078844D01*
X90730263Y-48233496D01*
X90730263Y-48233498D01*
X90790603Y-48379174D01*
X90790609Y-48379185D01*
X90807204Y-48404020D01*
X90878211Y-48510289D01*
X90989711Y-48621789D01*
X91047829Y-48660622D01*
X91120814Y-48709390D01*
X91120825Y-48709396D01*
X91152225Y-48722402D01*
X91266503Y-48769737D01*
X91421158Y-48800500D01*
X91421159Y-48800500D01*
X92578841Y-48800500D01*
X92578842Y-48800500D01*
X92733497Y-48769737D01*
X92879179Y-48709394D01*
X93010289Y-48621789D01*
X93121789Y-48510289D01*
X93209394Y-48379179D01*
X93269737Y-48233497D01*
X93300500Y-48078842D01*
X93300500Y-47921158D01*
X93300499Y-47921155D01*
X93299519Y-47916230D01*
X96149500Y-47916230D01*
X96149500Y-48083769D01*
X96182183Y-48248079D01*
X96182185Y-48248085D01*
X96246296Y-48402862D01*
X96246297Y-48402863D01*
X96339374Y-48542162D01*
X96457838Y-48660626D01*
X96597137Y-48753703D01*
X96751918Y-48817816D01*
X96916233Y-48850500D01*
X96916234Y-48850500D01*
X97083766Y-48850500D01*
X97083767Y-48850500D01*
X97248082Y-48817816D01*
X97402863Y-48753703D01*
X97542162Y-48660626D01*
X97660626Y-48542162D01*
X97753703Y-48402863D01*
X97817816Y-48248082D01*
X97850500Y-48083767D01*
X97850500Y-47916233D01*
X97850499Y-47916230D01*
X98649500Y-47916230D01*
X98649500Y-48083769D01*
X98682183Y-48248079D01*
X98682185Y-48248085D01*
X98746296Y-48402862D01*
X98746297Y-48402863D01*
X98839374Y-48542162D01*
X98957838Y-48660626D01*
X99097137Y-48753703D01*
X99251918Y-48817816D01*
X99416233Y-48850500D01*
X99416234Y-48850500D01*
X99583766Y-48850500D01*
X99583767Y-48850500D01*
X99748082Y-48817816D01*
X99902863Y-48753703D01*
X100042162Y-48660626D01*
X100160626Y-48542162D01*
X100253703Y-48402863D01*
X100317816Y-48248082D01*
X100350500Y-48083767D01*
X100350500Y-47916233D01*
X100317816Y-47751918D01*
X100253703Y-47597137D01*
X100160626Y-47457838D01*
X100042162Y-47339374D01*
X99902863Y-47246297D01*
X99902864Y-47246297D01*
X99902862Y-47246296D01*
X99748085Y-47182185D01*
X99748079Y-47182183D01*
X99583769Y-47149500D01*
X99583767Y-47149500D01*
X99416233Y-47149500D01*
X99416230Y-47149500D01*
X99251920Y-47182183D01*
X99251914Y-47182185D01*
X99097137Y-47246296D01*
X98957838Y-47339374D01*
X98957834Y-47339377D01*
X98839377Y-47457834D01*
X98839374Y-47457838D01*
X98746296Y-47597137D01*
X98682185Y-47751914D01*
X98682183Y-47751920D01*
X98649500Y-47916230D01*
X97850499Y-47916230D01*
X97817816Y-47751918D01*
X97753703Y-47597137D01*
X97660626Y-47457838D01*
X97542162Y-47339374D01*
X97402863Y-47246297D01*
X97402864Y-47246297D01*
X97402862Y-47246296D01*
X97248085Y-47182185D01*
X97248079Y-47182183D01*
X97083769Y-47149500D01*
X97083767Y-47149500D01*
X96916233Y-47149500D01*
X96916230Y-47149500D01*
X96751920Y-47182183D01*
X96751914Y-47182185D01*
X96597137Y-47246296D01*
X96457838Y-47339374D01*
X96457834Y-47339377D01*
X96339377Y-47457834D01*
X96339374Y-47457838D01*
X96246296Y-47597137D01*
X96182185Y-47751914D01*
X96182183Y-47751920D01*
X96149500Y-47916230D01*
X93299519Y-47916230D01*
X93295395Y-47895498D01*
X93269737Y-47766503D01*
X93209394Y-47620821D01*
X93209393Y-47620819D01*
X93209390Y-47620814D01*
X93174017Y-47567876D01*
X93121789Y-47489711D01*
X93010289Y-47378211D01*
X92952170Y-47339377D01*
X92879185Y-47290609D01*
X92879174Y-47290603D01*
X92733497Y-47230263D01*
X92578844Y-47199500D01*
X92578842Y-47199500D01*
X91421158Y-47199500D01*
X91421155Y-47199500D01*
X91266503Y-47230263D01*
X91266501Y-47230263D01*
X91120825Y-47290603D01*
X91120814Y-47290609D01*
X90989711Y-47378211D01*
X90989707Y-47378214D01*
X90878214Y-47489707D01*
X90878211Y-47489711D01*
X90790609Y-47620814D01*
X90790603Y-47620825D01*
X90730263Y-47766501D01*
X90730263Y-47766503D01*
X90699500Y-47921155D01*
X39300499Y-47921155D01*
X39269737Y-47766503D01*
X39209394Y-47620821D01*
X39209393Y-47620819D01*
X39209390Y-47620814D01*
X39174017Y-47567876D01*
X39121789Y-47489711D01*
X39010289Y-47378211D01*
X38952170Y-47339377D01*
X38879185Y-47290609D01*
X38879174Y-47290603D01*
X38733497Y-47230263D01*
X38578844Y-47199500D01*
X38578842Y-47199500D01*
X37421158Y-47199500D01*
X37421155Y-47199500D01*
X37266503Y-47230263D01*
X37266501Y-47230263D01*
X37120825Y-47290603D01*
X37120814Y-47290609D01*
X36989711Y-47378211D01*
X36989707Y-47378214D01*
X36878214Y-47489707D01*
X36878211Y-47489711D01*
X36790609Y-47620814D01*
X36790603Y-47620825D01*
X36730263Y-47766501D01*
X36730263Y-47766503D01*
X36699500Y-47921155D01*
X33850500Y-47921155D01*
X33850500Y-47916233D01*
X33817816Y-47751918D01*
X33753703Y-47597137D01*
X33660626Y-47457838D01*
X33542162Y-47339374D01*
X33402863Y-47246297D01*
X33402864Y-47246297D01*
X33402862Y-47246296D01*
X33248085Y-47182185D01*
X33248079Y-47182183D01*
X33083769Y-47149500D01*
X33083767Y-47149500D01*
X32916233Y-47149500D01*
X32916230Y-47149500D01*
X32751920Y-47182183D01*
X32751914Y-47182185D01*
X32597137Y-47246296D01*
X32457838Y-47339374D01*
X32457834Y-47339377D01*
X32339377Y-47457834D01*
X32339374Y-47457838D01*
X32246296Y-47597137D01*
X32182185Y-47751914D01*
X32182183Y-47751920D01*
X32149500Y-47916230D01*
X31350499Y-47916230D01*
X31317816Y-47751918D01*
X31253703Y-47597137D01*
X31160626Y-47457838D01*
X31042162Y-47339374D01*
X30902863Y-47246297D01*
X30902864Y-47246297D01*
X30902862Y-47246296D01*
X30748085Y-47182185D01*
X30748079Y-47182183D01*
X30583769Y-47149500D01*
X30583767Y-47149500D01*
X30416233Y-47149500D01*
X30416230Y-47149500D01*
X30251920Y-47182183D01*
X30251914Y-47182185D01*
X30097137Y-47246296D01*
X29957838Y-47339374D01*
X29957834Y-47339377D01*
X29839377Y-47457834D01*
X29839374Y-47457838D01*
X29746296Y-47597137D01*
X29682185Y-47751914D01*
X29682183Y-47751920D01*
X29649500Y-47916230D01*
X28800500Y-47916230D01*
X28800500Y-45576532D01*
X55649500Y-45576532D01*
X55649500Y-45783467D01*
X55689869Y-45986418D01*
X55769058Y-46177597D01*
X55769059Y-46177598D01*
X55884023Y-46349655D01*
X56030345Y-46495977D01*
X56202402Y-46610941D01*
X56393580Y-46690130D01*
X56596535Y-46730500D01*
X56596536Y-46730500D01*
X56803464Y-46730500D01*
X56803465Y-46730500D01*
X57006420Y-46690130D01*
X57197598Y-46610941D01*
X57249095Y-46576532D01*
X66949500Y-46576532D01*
X66949500Y-46783467D01*
X66989869Y-46986418D01*
X67069058Y-47177597D01*
X67184020Y-47349651D01*
X67184023Y-47349655D01*
X67330345Y-47495977D01*
X67502402Y-47610941D01*
X67693580Y-47690130D01*
X67896535Y-47730500D01*
X67896536Y-47730500D01*
X68103464Y-47730500D01*
X68103465Y-47730500D01*
X68306420Y-47690130D01*
X68497598Y-47610941D01*
X68669655Y-47495977D01*
X68815977Y-47349655D01*
X68930941Y-47177598D01*
X69010130Y-46986420D01*
X69050500Y-46783465D01*
X69050500Y-46596532D01*
X80649500Y-46596532D01*
X80649500Y-46803467D01*
X80689869Y-47006418D01*
X80769058Y-47197597D01*
X80884020Y-47369651D01*
X80884023Y-47369655D01*
X81030345Y-47515977D01*
X81202402Y-47630941D01*
X81393580Y-47710130D01*
X81596535Y-47750500D01*
X81596536Y-47750500D01*
X81803464Y-47750500D01*
X81803465Y-47750500D01*
X82006420Y-47710130D01*
X82197598Y-47630941D01*
X82369655Y-47515977D01*
X82515977Y-47369655D01*
X82630941Y-47197598D01*
X82710130Y-47006420D01*
X82750500Y-46803465D01*
X82750500Y-46596535D01*
X82710130Y-46393580D01*
X82630941Y-46202402D01*
X82515977Y-46030345D01*
X82369655Y-45884023D01*
X82339723Y-45864023D01*
X82197597Y-45769058D01*
X82006418Y-45689869D01*
X81803467Y-45649500D01*
X81803465Y-45649500D01*
X81596535Y-45649500D01*
X81596532Y-45649500D01*
X81393581Y-45689869D01*
X81202402Y-45769058D01*
X81030348Y-45884020D01*
X80884020Y-46030348D01*
X80769058Y-46202402D01*
X80689869Y-46393581D01*
X80649500Y-46596532D01*
X69050500Y-46596532D01*
X69050500Y-46576535D01*
X69010130Y-46373580D01*
X68930941Y-46182402D01*
X68815977Y-46010345D01*
X68669655Y-45864023D01*
X68626053Y-45834889D01*
X68497597Y-45749058D01*
X68306418Y-45669869D01*
X68103467Y-45629500D01*
X68103465Y-45629500D01*
X67896535Y-45629500D01*
X67896532Y-45629500D01*
X67693581Y-45669869D01*
X67502402Y-45749058D01*
X67330348Y-45864020D01*
X67184020Y-46010348D01*
X67069058Y-46182402D01*
X66989869Y-46373581D01*
X66949500Y-46576532D01*
X57249095Y-46576532D01*
X57369655Y-46495977D01*
X57515977Y-46349655D01*
X57630941Y-46177598D01*
X57710130Y-45986420D01*
X57750500Y-45783465D01*
X57750500Y-45576535D01*
X57710130Y-45373580D01*
X57652358Y-45234108D01*
X59799500Y-45234108D01*
X59799500Y-45365892D01*
X59829579Y-45478151D01*
X59833609Y-45493190D01*
X59899496Y-45607309D01*
X59899498Y-45607311D01*
X59899500Y-45607314D01*
X59992686Y-45700500D01*
X59992688Y-45700501D01*
X59992690Y-45700503D01*
X60106810Y-45766390D01*
X60106808Y-45766390D01*
X60106812Y-45766391D01*
X60106814Y-45766392D01*
X60234108Y-45800500D01*
X60234110Y-45800500D01*
X60365890Y-45800500D01*
X60365892Y-45800500D01*
X60493186Y-45766392D01*
X60493188Y-45766390D01*
X60493190Y-45766390D01*
X60607309Y-45700503D01*
X60607309Y-45700502D01*
X60607314Y-45700500D01*
X60700500Y-45607314D01*
X60719963Y-45573603D01*
X60766390Y-45493190D01*
X60766390Y-45493188D01*
X60766392Y-45493186D01*
X60800500Y-45365892D01*
X60800500Y-45234108D01*
X60999500Y-45234108D01*
X60999500Y-45365892D01*
X61029579Y-45478151D01*
X61033609Y-45493190D01*
X61099496Y-45607309D01*
X61099498Y-45607311D01*
X61099500Y-45607314D01*
X61192686Y-45700500D01*
X61192688Y-45700501D01*
X61192690Y-45700503D01*
X61306810Y-45766390D01*
X61306808Y-45766390D01*
X61306812Y-45766391D01*
X61306814Y-45766392D01*
X61434108Y-45800500D01*
X61434110Y-45800500D01*
X61565890Y-45800500D01*
X61565892Y-45800500D01*
X61693186Y-45766392D01*
X61693188Y-45766390D01*
X61693190Y-45766390D01*
X61807309Y-45700503D01*
X61807309Y-45700502D01*
X61807314Y-45700500D01*
X61900500Y-45607314D01*
X61919963Y-45573603D01*
X61966390Y-45493190D01*
X61966390Y-45493188D01*
X61966392Y-45493186D01*
X62000500Y-45365892D01*
X62000500Y-45234108D01*
X62199500Y-45234108D01*
X62199500Y-45365892D01*
X62229579Y-45478151D01*
X62233609Y-45493190D01*
X62299496Y-45607309D01*
X62299498Y-45607311D01*
X62299500Y-45607314D01*
X62392686Y-45700500D01*
X62392688Y-45700501D01*
X62392690Y-45700503D01*
X62506810Y-45766390D01*
X62506808Y-45766390D01*
X62506812Y-45766391D01*
X62506814Y-45766392D01*
X62634108Y-45800500D01*
X62634110Y-45800500D01*
X62765890Y-45800500D01*
X62765892Y-45800500D01*
X62893186Y-45766392D01*
X62893188Y-45766390D01*
X62893190Y-45766390D01*
X63007309Y-45700503D01*
X63007309Y-45700502D01*
X63007314Y-45700500D01*
X63100500Y-45607314D01*
X63119963Y-45573603D01*
X63166390Y-45493190D01*
X63166390Y-45493188D01*
X63166392Y-45493186D01*
X63200500Y-45365892D01*
X63200500Y-45234108D01*
X63166392Y-45106814D01*
X63166390Y-45106811D01*
X63166390Y-45106809D01*
X63100503Y-44992690D01*
X63100501Y-44992688D01*
X63100500Y-44992686D01*
X63007314Y-44899500D01*
X63007311Y-44899498D01*
X63007309Y-44899496D01*
X62893189Y-44833609D01*
X62893191Y-44833609D01*
X62843799Y-44820375D01*
X62765892Y-44799500D01*
X62634108Y-44799500D01*
X62556200Y-44820375D01*
X62506809Y-44833609D01*
X62392690Y-44899496D01*
X62299496Y-44992690D01*
X62233609Y-45106809D01*
X62214539Y-45177978D01*
X62199500Y-45234108D01*
X62000500Y-45234108D01*
X61966392Y-45106814D01*
X61966390Y-45106811D01*
X61966390Y-45106809D01*
X61900503Y-44992690D01*
X61900501Y-44992688D01*
X61900500Y-44992686D01*
X61807314Y-44899500D01*
X61807311Y-44899498D01*
X61807309Y-44899496D01*
X61693189Y-44833609D01*
X61693191Y-44833609D01*
X61643799Y-44820375D01*
X61565892Y-44799500D01*
X61434108Y-44799500D01*
X61356200Y-44820375D01*
X61306809Y-44833609D01*
X61192690Y-44899496D01*
X61099496Y-44992690D01*
X61033609Y-45106809D01*
X61014539Y-45177978D01*
X60999500Y-45234108D01*
X60800500Y-45234108D01*
X60766392Y-45106814D01*
X60766390Y-45106811D01*
X60766390Y-45106809D01*
X60700503Y-44992690D01*
X60700501Y-44992688D01*
X60700500Y-44992686D01*
X60607314Y-44899500D01*
X60607311Y-44899498D01*
X60607309Y-44899496D01*
X60493189Y-44833609D01*
X60493191Y-44833609D01*
X60443799Y-44820375D01*
X60365892Y-44799500D01*
X60234108Y-44799500D01*
X60156200Y-44820375D01*
X60106809Y-44833609D01*
X59992690Y-44899496D01*
X59899496Y-44992690D01*
X59833609Y-45106809D01*
X59814539Y-45177978D01*
X59799500Y-45234108D01*
X57652358Y-45234108D01*
X57630941Y-45182402D01*
X57515977Y-45010345D01*
X57369655Y-44864023D01*
X57324137Y-44833609D01*
X57197597Y-44749058D01*
X57006418Y-44669869D01*
X56803467Y-44629500D01*
X56803465Y-44629500D01*
X56596535Y-44629500D01*
X56596532Y-44629500D01*
X56393581Y-44669869D01*
X56202402Y-44749058D01*
X56030348Y-44864020D01*
X55884020Y-45010348D01*
X55769058Y-45182402D01*
X55689869Y-45373581D01*
X55649500Y-45576532D01*
X28800500Y-45576532D01*
X28800500Y-42421155D01*
X32199500Y-42421155D01*
X32199500Y-43578844D01*
X32230263Y-43733496D01*
X32230263Y-43733498D01*
X32290603Y-43879174D01*
X32290609Y-43879185D01*
X32341921Y-43955977D01*
X32378211Y-44010289D01*
X32489711Y-44121789D01*
X32544499Y-44158397D01*
X32620814Y-44209390D01*
X32620825Y-44209396D01*
X32674638Y-44231685D01*
X32766503Y-44269737D01*
X32921158Y-44300500D01*
X32921159Y-44300500D01*
X33078841Y-44300500D01*
X33078842Y-44300500D01*
X33233497Y-44269737D01*
X33319514Y-44234108D01*
X50299500Y-44234108D01*
X50299500Y-44365892D01*
X50310341Y-44406350D01*
X50333609Y-44493190D01*
X50399496Y-44607309D01*
X50399498Y-44607311D01*
X50399500Y-44607314D01*
X50492686Y-44700500D01*
X50492688Y-44700501D01*
X50492690Y-44700503D01*
X50606810Y-44766390D01*
X50606808Y-44766390D01*
X50606812Y-44766391D01*
X50606814Y-44766392D01*
X50734108Y-44800500D01*
X50734110Y-44800500D01*
X50865890Y-44800500D01*
X50865892Y-44800500D01*
X50993186Y-44766392D01*
X50993188Y-44766390D01*
X50993190Y-44766390D01*
X51107309Y-44700503D01*
X51107309Y-44700502D01*
X51107314Y-44700500D01*
X51200500Y-44607314D01*
X51200503Y-44607309D01*
X51266390Y-44493190D01*
X51266390Y-44493188D01*
X51266392Y-44493186D01*
X51300500Y-44365892D01*
X51300500Y-44234108D01*
X51266392Y-44106814D01*
X51266390Y-44106811D01*
X51266390Y-44106809D01*
X51200503Y-43992690D01*
X51200501Y-43992688D01*
X51200500Y-43992686D01*
X51107314Y-43899500D01*
X51107311Y-43899498D01*
X51107309Y-43899496D01*
X50993189Y-43833609D01*
X50993191Y-43833609D01*
X50934241Y-43817814D01*
X50865892Y-43799500D01*
X50734108Y-43799500D01*
X50665759Y-43817814D01*
X50606809Y-43833609D01*
X50492690Y-43899496D01*
X50399496Y-43992690D01*
X50333609Y-44106809D01*
X50317645Y-44166390D01*
X50299500Y-44234108D01*
X33319514Y-44234108D01*
X33379179Y-44209394D01*
X33510289Y-44121789D01*
X33621789Y-44010289D01*
X33709394Y-43879179D01*
X33769737Y-43733497D01*
X33800500Y-43578842D01*
X33800500Y-42916230D01*
X37149500Y-42916230D01*
X37149500Y-43083769D01*
X37182183Y-43248079D01*
X37182185Y-43248085D01*
X37246296Y-43402862D01*
X37246297Y-43402863D01*
X37339374Y-43542162D01*
X37457838Y-43660626D01*
X37597137Y-43753703D01*
X37751918Y-43817816D01*
X37916233Y-43850500D01*
X37916234Y-43850500D01*
X38083766Y-43850500D01*
X38083767Y-43850500D01*
X38248082Y-43817816D01*
X38402863Y-43753703D01*
X38542162Y-43660626D01*
X38660626Y-43542162D01*
X38753703Y-43402863D01*
X38817816Y-43248082D01*
X38850500Y-43083767D01*
X38850500Y-43036532D01*
X55649500Y-43036532D01*
X55649500Y-43243467D01*
X55689869Y-43446418D01*
X55769058Y-43637597D01*
X55884020Y-43809651D01*
X55884023Y-43809655D01*
X56030345Y-43955977D01*
X56202402Y-44070941D01*
X56393580Y-44150130D01*
X56596535Y-44190500D01*
X56596536Y-44190500D01*
X56803464Y-44190500D01*
X56803465Y-44190500D01*
X57006420Y-44150130D01*
X57197598Y-44070941D01*
X57369655Y-43955977D01*
X57515977Y-43809655D01*
X57630941Y-43637598D01*
X57632387Y-43634108D01*
X59799500Y-43634108D01*
X59799500Y-43765892D01*
X59822960Y-43853448D01*
X59833609Y-43893190D01*
X59899496Y-44007309D01*
X59899498Y-44007311D01*
X59899500Y-44007314D01*
X59992686Y-44100500D01*
X59992688Y-44100501D01*
X59992690Y-44100503D01*
X60106810Y-44166390D01*
X60106808Y-44166390D01*
X60106812Y-44166391D01*
X60106814Y-44166392D01*
X60234108Y-44200500D01*
X60234110Y-44200500D01*
X60365890Y-44200500D01*
X60365892Y-44200500D01*
X60493186Y-44166392D01*
X60493188Y-44166390D01*
X60493190Y-44166390D01*
X60607309Y-44100503D01*
X60607309Y-44100502D01*
X60607314Y-44100500D01*
X60700500Y-44007314D01*
X60708946Y-43992686D01*
X60766390Y-43893190D01*
X60766390Y-43893188D01*
X60766392Y-43893186D01*
X60800500Y-43765892D01*
X60800500Y-43634108D01*
X60999500Y-43634108D01*
X60999500Y-43765892D01*
X61022960Y-43853448D01*
X61033609Y-43893190D01*
X61099496Y-44007309D01*
X61099498Y-44007311D01*
X61099500Y-44007314D01*
X61192686Y-44100500D01*
X61192688Y-44100501D01*
X61192690Y-44100503D01*
X61306810Y-44166390D01*
X61306808Y-44166390D01*
X61306812Y-44166391D01*
X61306814Y-44166392D01*
X61434108Y-44200500D01*
X61434110Y-44200500D01*
X61565890Y-44200500D01*
X61565892Y-44200500D01*
X61693186Y-44166392D01*
X61693188Y-44166390D01*
X61693190Y-44166390D01*
X61807309Y-44100503D01*
X61807309Y-44100502D01*
X61807314Y-44100500D01*
X61900500Y-44007314D01*
X61908946Y-43992686D01*
X61966390Y-43893190D01*
X61966390Y-43893188D01*
X61966392Y-43893186D01*
X62000500Y-43765892D01*
X62000500Y-43634108D01*
X62299500Y-43634108D01*
X62299500Y-43765892D01*
X62322960Y-43853448D01*
X62333609Y-43893190D01*
X62399496Y-44007309D01*
X62399498Y-44007311D01*
X62399500Y-44007314D01*
X62492686Y-44100500D01*
X62492688Y-44100501D01*
X62492690Y-44100503D01*
X62606810Y-44166390D01*
X62606808Y-44166390D01*
X62606812Y-44166391D01*
X62606814Y-44166392D01*
X62734108Y-44200500D01*
X62734110Y-44200500D01*
X62865890Y-44200500D01*
X62865892Y-44200500D01*
X62993186Y-44166392D01*
X62993188Y-44166390D01*
X62993190Y-44166390D01*
X63107309Y-44100503D01*
X63107309Y-44100502D01*
X63107314Y-44100500D01*
X63171282Y-44036532D01*
X66949500Y-44036532D01*
X66949500Y-44243467D01*
X66989869Y-44446418D01*
X67069058Y-44637597D01*
X67177895Y-44800484D01*
X67184023Y-44809655D01*
X67330345Y-44955977D01*
X67502402Y-45070941D01*
X67693580Y-45150130D01*
X67896535Y-45190500D01*
X67896536Y-45190500D01*
X68103464Y-45190500D01*
X68103465Y-45190500D01*
X68306420Y-45150130D01*
X68497598Y-45070941D01*
X68669655Y-44955977D01*
X68815977Y-44809655D01*
X68822107Y-44800480D01*
X78853448Y-44800480D01*
X78853448Y-45007415D01*
X78893817Y-45210366D01*
X78973006Y-45401545D01*
X78973007Y-45401546D01*
X79087971Y-45573603D01*
X79234293Y-45719925D01*
X79406350Y-45834889D01*
X79597528Y-45914078D01*
X79800483Y-45954448D01*
X79800484Y-45954448D01*
X80007412Y-45954448D01*
X80007413Y-45954448D01*
X80210368Y-45914078D01*
X80401546Y-45834889D01*
X80573603Y-45719925D01*
X80719925Y-45573603D01*
X80834889Y-45401546D01*
X80914078Y-45210368D01*
X80954448Y-45007413D01*
X80954448Y-44800483D01*
X80914078Y-44597528D01*
X80834889Y-44406350D01*
X80719925Y-44234293D01*
X80573603Y-44087971D01*
X80496625Y-44036536D01*
X80401545Y-43973006D01*
X80210366Y-43893817D01*
X80007415Y-43853448D01*
X80007413Y-43853448D01*
X79800483Y-43853448D01*
X79800480Y-43853448D01*
X79597529Y-43893817D01*
X79406350Y-43973006D01*
X79234296Y-44087968D01*
X79087968Y-44234296D01*
X78973006Y-44406350D01*
X78893817Y-44597529D01*
X78853448Y-44800480D01*
X68822107Y-44800480D01*
X68930941Y-44637598D01*
X69010130Y-44446420D01*
X69050500Y-44243465D01*
X69050500Y-44036535D01*
X69010130Y-43833580D01*
X68930941Y-43642402D01*
X68815977Y-43470345D01*
X68669655Y-43324023D01*
X68659514Y-43317247D01*
X68497597Y-43209058D01*
X68306418Y-43129869D01*
X68139492Y-43096666D01*
X68103467Y-43089500D01*
X68103465Y-43089500D01*
X67896535Y-43089500D01*
X67896532Y-43089500D01*
X67693581Y-43129869D01*
X67502402Y-43209058D01*
X67330348Y-43324020D01*
X67184020Y-43470348D01*
X67069058Y-43642402D01*
X66989869Y-43833581D01*
X66949500Y-44036532D01*
X63171282Y-44036532D01*
X63200500Y-44007314D01*
X63220308Y-43973007D01*
X63266390Y-43893190D01*
X63266390Y-43893188D01*
X63266392Y-43893186D01*
X63300500Y-43765892D01*
X63300500Y-43634108D01*
X63266392Y-43506814D01*
X63266390Y-43506811D01*
X63266390Y-43506809D01*
X63200503Y-43392690D01*
X63200501Y-43392688D01*
X63200500Y-43392686D01*
X63107314Y-43299500D01*
X63107311Y-43299498D01*
X63107309Y-43299496D01*
X62993189Y-43233609D01*
X62993191Y-43233609D01*
X62910169Y-43211364D01*
X62865892Y-43199500D01*
X62734108Y-43199500D01*
X62689831Y-43211364D01*
X62606809Y-43233609D01*
X62492690Y-43299496D01*
X62399496Y-43392690D01*
X62333609Y-43506809D01*
X62324136Y-43542165D01*
X62299500Y-43634108D01*
X62000500Y-43634108D01*
X61966392Y-43506814D01*
X61966390Y-43506811D01*
X61966390Y-43506809D01*
X61900503Y-43392690D01*
X61900501Y-43392688D01*
X61900500Y-43392686D01*
X61807314Y-43299500D01*
X61807311Y-43299498D01*
X61807309Y-43299496D01*
X61693189Y-43233609D01*
X61693191Y-43233609D01*
X61610169Y-43211364D01*
X61565892Y-43199500D01*
X61434108Y-43199500D01*
X61389831Y-43211364D01*
X61306809Y-43233609D01*
X61192690Y-43299496D01*
X61099496Y-43392690D01*
X61033609Y-43506809D01*
X61024136Y-43542165D01*
X60999500Y-43634108D01*
X60800500Y-43634108D01*
X60766392Y-43506814D01*
X60766390Y-43506811D01*
X60766390Y-43506809D01*
X60700503Y-43392690D01*
X60700501Y-43392688D01*
X60700500Y-43392686D01*
X60607314Y-43299500D01*
X60607311Y-43299498D01*
X60607309Y-43299496D01*
X60493189Y-43233609D01*
X60493191Y-43233609D01*
X60410169Y-43211364D01*
X60365892Y-43199500D01*
X60234108Y-43199500D01*
X60189831Y-43211364D01*
X60106809Y-43233609D01*
X59992690Y-43299496D01*
X59899496Y-43392690D01*
X59833609Y-43506809D01*
X59824136Y-43542165D01*
X59799500Y-43634108D01*
X57632387Y-43634108D01*
X57710130Y-43446420D01*
X57750500Y-43243465D01*
X57750500Y-43036535D01*
X57744114Y-43004429D01*
X77057397Y-43004429D01*
X77057397Y-43211364D01*
X77097766Y-43414315D01*
X77176955Y-43605494D01*
X77284129Y-43765892D01*
X77291920Y-43777552D01*
X77438242Y-43923874D01*
X77610299Y-44038838D01*
X77801477Y-44118027D01*
X78004432Y-44158397D01*
X78004433Y-44158397D01*
X78211361Y-44158397D01*
X78211362Y-44158397D01*
X78414317Y-44118027D01*
X78605495Y-44038838D01*
X78777552Y-43923874D01*
X78923874Y-43777552D01*
X79038838Y-43605495D01*
X79118027Y-43414317D01*
X79158397Y-43211362D01*
X79158397Y-43004432D01*
X79118027Y-42801477D01*
X79038838Y-42610299D01*
X78923874Y-42438242D01*
X78777552Y-42291920D01*
X78709272Y-42246297D01*
X78605494Y-42176955D01*
X78414315Y-42097766D01*
X78211364Y-42057397D01*
X78211362Y-42057397D01*
X78004432Y-42057397D01*
X78004429Y-42057397D01*
X77801478Y-42097766D01*
X77610299Y-42176955D01*
X77438245Y-42291917D01*
X77291917Y-42438245D01*
X77176955Y-42610299D01*
X77097766Y-42801478D01*
X77057397Y-43004429D01*
X57744114Y-43004429D01*
X57710130Y-42833580D01*
X57630941Y-42642402D01*
X57515977Y-42470345D01*
X57369655Y-42324023D01*
X57369651Y-42324020D01*
X57197597Y-42209058D01*
X57006418Y-42129869D01*
X56803467Y-42089500D01*
X56803465Y-42089500D01*
X56596535Y-42089500D01*
X56596532Y-42089500D01*
X56393581Y-42129869D01*
X56202402Y-42209058D01*
X56030348Y-42324020D01*
X55884020Y-42470348D01*
X55769058Y-42642402D01*
X55689869Y-42833581D01*
X55649500Y-43036532D01*
X38850500Y-43036532D01*
X38850500Y-42916233D01*
X38817816Y-42751918D01*
X38753703Y-42597137D01*
X38660626Y-42457838D01*
X38542162Y-42339374D01*
X38402863Y-42246297D01*
X38402864Y-42246297D01*
X38402862Y-42246296D01*
X38248085Y-42182185D01*
X38248079Y-42182183D01*
X38083769Y-42149500D01*
X38083767Y-42149500D01*
X37916233Y-42149500D01*
X37916230Y-42149500D01*
X37751920Y-42182183D01*
X37751914Y-42182185D01*
X37597137Y-42246296D01*
X37457838Y-42339374D01*
X37457834Y-42339377D01*
X37339377Y-42457834D01*
X37339374Y-42457838D01*
X37246296Y-42597137D01*
X37182185Y-42751914D01*
X37182183Y-42751920D01*
X37149500Y-42916230D01*
X33800500Y-42916230D01*
X33800500Y-42421158D01*
X33769737Y-42266503D01*
X33721273Y-42149500D01*
X33709396Y-42120825D01*
X33709390Y-42120814D01*
X33667015Y-42057397D01*
X33621789Y-41989711D01*
X33510289Y-41878211D01*
X33458059Y-41843312D01*
X33379185Y-41790609D01*
X33379174Y-41790603D01*
X33233497Y-41730263D01*
X33078844Y-41699500D01*
X33078842Y-41699500D01*
X32921158Y-41699500D01*
X32921155Y-41699500D01*
X32766503Y-41730263D01*
X32766501Y-41730263D01*
X32620825Y-41790603D01*
X32620814Y-41790609D01*
X32489711Y-41878211D01*
X32489707Y-41878214D01*
X32378214Y-41989707D01*
X32378211Y-41989711D01*
X32290609Y-42120814D01*
X32290603Y-42120825D01*
X32230263Y-42266501D01*
X32230263Y-42266503D01*
X32199500Y-42421155D01*
X28800500Y-42421155D01*
X28800500Y-39730253D01*
X55649500Y-39730253D01*
X55649500Y-41469746D01*
X55649501Y-41469758D01*
X55661132Y-41528227D01*
X55661133Y-41528231D01*
X55705448Y-41594552D01*
X55771769Y-41638867D01*
X55816231Y-41647711D01*
X55830241Y-41650498D01*
X55830246Y-41650498D01*
X55830252Y-41650500D01*
X55830253Y-41650500D01*
X57569747Y-41650500D01*
X57569748Y-41650500D01*
X57628231Y-41638867D01*
X57694552Y-41594552D01*
X57738867Y-41528231D01*
X57750500Y-41469748D01*
X57750500Y-40634108D01*
X58999500Y-40634108D01*
X58999500Y-40765892D01*
X59020683Y-40844948D01*
X59033609Y-40893190D01*
X59099496Y-41007309D01*
X59099498Y-41007311D01*
X59099500Y-41007314D01*
X59192686Y-41100500D01*
X59192688Y-41100501D01*
X59192690Y-41100503D01*
X59306810Y-41166390D01*
X59306808Y-41166390D01*
X59306812Y-41166391D01*
X59306814Y-41166392D01*
X59434108Y-41200500D01*
X59434110Y-41200500D01*
X59565890Y-41200500D01*
X59565892Y-41200500D01*
X59693186Y-41166392D01*
X59693188Y-41166390D01*
X59693190Y-41166390D01*
X59807309Y-41100503D01*
X59807309Y-41100502D01*
X59807314Y-41100500D01*
X59900500Y-41007314D01*
X59900503Y-41007309D01*
X59966390Y-40893190D01*
X59966390Y-40893188D01*
X59966392Y-40893186D01*
X60000500Y-40765892D01*
X60000500Y-40730253D01*
X66949500Y-40730253D01*
X66949500Y-42469746D01*
X66949501Y-42469758D01*
X66959180Y-42518412D01*
X66961133Y-42528231D01*
X67005448Y-42594552D01*
X67071769Y-42638867D01*
X67116231Y-42647711D01*
X67130241Y-42650498D01*
X67130246Y-42650498D01*
X67130252Y-42650500D01*
X67130253Y-42650500D01*
X68869747Y-42650500D01*
X68869748Y-42650500D01*
X68928231Y-42638867D01*
X68994552Y-42594552D01*
X69038867Y-42528231D01*
X69050500Y-42469748D01*
X69050500Y-41311845D01*
X74905337Y-41311845D01*
X74905337Y-41311846D01*
X74920897Y-41390076D01*
X74920898Y-41390077D01*
X74954026Y-41439657D01*
X76184035Y-42669666D01*
X76233615Y-42702794D01*
X76311846Y-42718355D01*
X76390077Y-42702794D01*
X76439657Y-42669666D01*
X77215614Y-41893709D01*
X83649500Y-41893709D01*
X83649500Y-42106290D01*
X83682752Y-42316238D01*
X83748443Y-42518412D01*
X83844948Y-42707815D01*
X83844950Y-42707819D01*
X83969891Y-42879786D01*
X83969893Y-42879788D01*
X83969896Y-42879792D01*
X84120208Y-43030104D01*
X84120211Y-43030106D01*
X84120213Y-43030108D01*
X84292180Y-43155049D01*
X84292184Y-43155051D01*
X84481588Y-43251557D01*
X84683757Y-43317246D01*
X84683758Y-43317246D01*
X84683761Y-43317247D01*
X84893710Y-43350500D01*
X84893713Y-43350500D01*
X85106290Y-43350500D01*
X85316238Y-43317247D01*
X85316239Y-43317246D01*
X85316243Y-43317246D01*
X85518412Y-43251557D01*
X85707816Y-43155051D01*
X85879792Y-43030104D01*
X85993666Y-42916230D01*
X91149500Y-42916230D01*
X91149500Y-43083769D01*
X91182183Y-43248079D01*
X91182185Y-43248085D01*
X91246296Y-43402862D01*
X91246297Y-43402863D01*
X91339374Y-43542162D01*
X91457838Y-43660626D01*
X91597137Y-43753703D01*
X91751918Y-43817816D01*
X91916233Y-43850500D01*
X91916234Y-43850500D01*
X92083766Y-43850500D01*
X92083767Y-43850500D01*
X92248082Y-43817816D01*
X92402863Y-43753703D01*
X92542162Y-43660626D01*
X92660626Y-43542162D01*
X92753703Y-43402863D01*
X92817816Y-43248082D01*
X92850500Y-43083767D01*
X92850500Y-42916233D01*
X92817816Y-42751918D01*
X92753703Y-42597137D01*
X92660626Y-42457838D01*
X92542162Y-42339374D01*
X92402863Y-42246297D01*
X92402864Y-42246297D01*
X92402862Y-42246296D01*
X92248085Y-42182185D01*
X92248079Y-42182183D01*
X92083769Y-42149500D01*
X92083767Y-42149500D01*
X91916233Y-42149500D01*
X91916230Y-42149500D01*
X91751920Y-42182183D01*
X91751914Y-42182185D01*
X91597137Y-42246296D01*
X91457838Y-42339374D01*
X91457834Y-42339377D01*
X91339377Y-42457834D01*
X91339374Y-42457838D01*
X91246296Y-42597137D01*
X91182185Y-42751914D01*
X91182183Y-42751920D01*
X91149500Y-42916230D01*
X85993666Y-42916230D01*
X86030104Y-42879792D01*
X86155051Y-42707816D01*
X86251557Y-42518412D01*
X86317246Y-42316243D01*
X86317247Y-42316238D01*
X86350500Y-42106290D01*
X86350500Y-41893709D01*
X86317247Y-41683761D01*
X86302660Y-41638867D01*
X86251557Y-41481588D01*
X86155051Y-41292184D01*
X86155049Y-41292180D01*
X86030108Y-41120213D01*
X86030106Y-41120211D01*
X86030104Y-41120208D01*
X85879792Y-40969896D01*
X85879788Y-40969893D01*
X85879786Y-40969891D01*
X85707819Y-40844950D01*
X85707815Y-40844948D01*
X85518412Y-40748443D01*
X85316238Y-40682752D01*
X85106290Y-40649500D01*
X85106287Y-40649500D01*
X84893713Y-40649500D01*
X84893710Y-40649500D01*
X84683761Y-40682752D01*
X84481587Y-40748443D01*
X84292184Y-40844948D01*
X84292180Y-40844950D01*
X84120213Y-40969891D01*
X83969891Y-41120213D01*
X83844950Y-41292180D01*
X83844948Y-41292184D01*
X83748443Y-41481587D01*
X83682752Y-41683761D01*
X83649500Y-41893709D01*
X77215614Y-41893709D01*
X77669666Y-41439657D01*
X77702794Y-41390077D01*
X77718355Y-41311846D01*
X77702794Y-41233615D01*
X77669666Y-41184035D01*
X76439657Y-39954026D01*
X76390077Y-39920898D01*
X76390076Y-39920897D01*
X76311846Y-39905337D01*
X76233615Y-39920897D01*
X76184038Y-39954023D01*
X74954023Y-41184038D01*
X74920897Y-41233615D01*
X74905337Y-41311845D01*
X69050500Y-41311845D01*
X69050500Y-40730252D01*
X69038867Y-40671769D01*
X68994552Y-40605448D01*
X68994548Y-40605445D01*
X68928233Y-40561134D01*
X68928231Y-40561133D01*
X68928228Y-40561132D01*
X68928227Y-40561132D01*
X68869758Y-40549501D01*
X68869748Y-40549500D01*
X67130252Y-40549500D01*
X67130251Y-40549500D01*
X67130241Y-40549501D01*
X67071772Y-40561132D01*
X67071766Y-40561134D01*
X67005451Y-40605445D01*
X67005445Y-40605451D01*
X66961134Y-40671766D01*
X66961132Y-40671772D01*
X66949501Y-40730241D01*
X66949500Y-40730253D01*
X60000500Y-40730253D01*
X60000500Y-40634108D01*
X59966392Y-40506814D01*
X59966390Y-40506811D01*
X59966390Y-40506809D01*
X59900503Y-40392690D01*
X59900501Y-40392688D01*
X59900500Y-40392686D01*
X59807314Y-40299500D01*
X59807311Y-40299498D01*
X59807309Y-40299496D01*
X59693189Y-40233609D01*
X59693191Y-40233609D01*
X59643799Y-40220375D01*
X59565892Y-40199500D01*
X59434108Y-40199500D01*
X59356200Y-40220375D01*
X59306809Y-40233609D01*
X59192690Y-40299496D01*
X59099496Y-40392690D01*
X59033609Y-40506809D01*
X59033608Y-40506814D01*
X58999500Y-40634108D01*
X57750500Y-40634108D01*
X57750500Y-39730252D01*
X57738867Y-39671769D01*
X57694552Y-39605448D01*
X57694548Y-39605445D01*
X57628233Y-39561134D01*
X57628231Y-39561133D01*
X57628228Y-39561132D01*
X57628227Y-39561132D01*
X57569758Y-39549501D01*
X57569748Y-39549500D01*
X55830252Y-39549500D01*
X55830251Y-39549500D01*
X55830241Y-39549501D01*
X55771772Y-39561132D01*
X55771766Y-39561134D01*
X55705451Y-39605445D01*
X55705445Y-39605451D01*
X55661134Y-39671766D01*
X55661132Y-39671772D01*
X55649501Y-39730241D01*
X55649500Y-39730253D01*
X28800500Y-39730253D01*
X28800500Y-37916230D01*
X29649500Y-37916230D01*
X29649500Y-38083769D01*
X29682183Y-38248079D01*
X29682185Y-38248085D01*
X29746296Y-38402862D01*
X29746297Y-38402863D01*
X29839374Y-38542162D01*
X29957838Y-38660626D01*
X30097137Y-38753703D01*
X30251918Y-38817816D01*
X30416233Y-38850500D01*
X30416234Y-38850500D01*
X30583766Y-38850500D01*
X30583767Y-38850500D01*
X30748082Y-38817816D01*
X30902863Y-38753703D01*
X31042162Y-38660626D01*
X31160626Y-38542162D01*
X31253703Y-38402863D01*
X31317816Y-38248082D01*
X31350500Y-38083767D01*
X31350500Y-37916233D01*
X31350499Y-37916230D01*
X32149500Y-37916230D01*
X32149500Y-38083769D01*
X32182183Y-38248079D01*
X32182185Y-38248085D01*
X32246296Y-38402862D01*
X32246297Y-38402863D01*
X32339374Y-38542162D01*
X32457838Y-38660626D01*
X32597137Y-38753703D01*
X32751918Y-38817816D01*
X32916233Y-38850500D01*
X32916234Y-38850500D01*
X33083766Y-38850500D01*
X33083767Y-38850500D01*
X33248082Y-38817816D01*
X33402863Y-38753703D01*
X33542162Y-38660626D01*
X33660626Y-38542162D01*
X33753703Y-38402863D01*
X33817816Y-38248082D01*
X33850500Y-38083767D01*
X33850500Y-37921155D01*
X36699500Y-37921155D01*
X36699500Y-38078844D01*
X36730263Y-38233496D01*
X36730263Y-38233498D01*
X36790603Y-38379174D01*
X36790609Y-38379185D01*
X36827308Y-38434108D01*
X36878211Y-38510289D01*
X36989711Y-38621789D01*
X37047829Y-38660622D01*
X37120814Y-38709390D01*
X37120825Y-38709396D01*
X37174638Y-38731685D01*
X37266503Y-38769737D01*
X37421158Y-38800500D01*
X37421159Y-38800500D01*
X38578841Y-38800500D01*
X38578842Y-38800500D01*
X38733497Y-38769737D01*
X38879179Y-38709394D01*
X39010289Y-38621789D01*
X39121789Y-38510289D01*
X39172692Y-38434108D01*
X67999500Y-38434108D01*
X67999500Y-38565892D01*
X68024883Y-38660622D01*
X68033609Y-38693190D01*
X68099496Y-38807309D01*
X68099498Y-38807311D01*
X68099500Y-38807314D01*
X68192686Y-38900500D01*
X68192688Y-38900501D01*
X68192690Y-38900503D01*
X68306810Y-38966390D01*
X68306808Y-38966390D01*
X68306812Y-38966391D01*
X68306814Y-38966392D01*
X68434108Y-39000500D01*
X68434110Y-39000500D01*
X68565890Y-39000500D01*
X68565892Y-39000500D01*
X68693186Y-38966392D01*
X68693188Y-38966390D01*
X68693190Y-38966390D01*
X68807309Y-38900503D01*
X68807309Y-38900502D01*
X68807314Y-38900500D01*
X68900500Y-38807314D01*
X68922196Y-38769736D01*
X68966390Y-38693190D01*
X68966390Y-38693188D01*
X68966392Y-38693186D01*
X69000500Y-38565892D01*
X69000500Y-38434108D01*
X68966392Y-38306814D01*
X68966390Y-38306811D01*
X68966390Y-38306809D01*
X68900503Y-38192690D01*
X68900501Y-38192688D01*
X68900500Y-38192686D01*
X68807314Y-38099500D01*
X68807311Y-38099498D01*
X68807309Y-38099496D01*
X68693189Y-38033609D01*
X68693191Y-38033609D01*
X68663968Y-38025779D01*
X68565892Y-37999500D01*
X68434108Y-37999500D01*
X68356200Y-38020375D01*
X68306809Y-38033609D01*
X68192690Y-38099496D01*
X68099496Y-38192690D01*
X68033609Y-38306809D01*
X68033608Y-38306814D01*
X67999500Y-38434108D01*
X39172692Y-38434108D01*
X39209394Y-38379179D01*
X39269737Y-38233497D01*
X39300500Y-38078842D01*
X39300500Y-37921158D01*
X39300499Y-37921155D01*
X90699500Y-37921155D01*
X90699500Y-38078844D01*
X90730263Y-38233496D01*
X90730263Y-38233498D01*
X90790603Y-38379174D01*
X90790609Y-38379185D01*
X90827308Y-38434108D01*
X90878211Y-38510289D01*
X90989711Y-38621789D01*
X91047829Y-38660622D01*
X91120814Y-38709390D01*
X91120825Y-38709396D01*
X91174638Y-38731685D01*
X91266503Y-38769737D01*
X91421158Y-38800500D01*
X91421159Y-38800500D01*
X92578841Y-38800500D01*
X92578842Y-38800500D01*
X92733497Y-38769737D01*
X92879179Y-38709394D01*
X93010289Y-38621789D01*
X93121789Y-38510289D01*
X93209394Y-38379179D01*
X93269737Y-38233497D01*
X93300500Y-38078842D01*
X93300500Y-37921158D01*
X93300499Y-37921155D01*
X93299519Y-37916230D01*
X96149500Y-37916230D01*
X96149500Y-38083769D01*
X96182183Y-38248079D01*
X96182185Y-38248085D01*
X96246296Y-38402862D01*
X96246297Y-38402863D01*
X96339374Y-38542162D01*
X96457838Y-38660626D01*
X96597137Y-38753703D01*
X96751918Y-38817816D01*
X96916233Y-38850500D01*
X96916234Y-38850500D01*
X97083766Y-38850500D01*
X97083767Y-38850500D01*
X97248082Y-38817816D01*
X97402863Y-38753703D01*
X97542162Y-38660626D01*
X97660626Y-38542162D01*
X97753703Y-38402863D01*
X97817816Y-38248082D01*
X97850500Y-38083767D01*
X97850500Y-37916233D01*
X97850499Y-37916230D01*
X98649500Y-37916230D01*
X98649500Y-38083769D01*
X98682183Y-38248079D01*
X98682185Y-38248085D01*
X98746296Y-38402862D01*
X98746297Y-38402863D01*
X98839374Y-38542162D01*
X98957838Y-38660626D01*
X99097137Y-38753703D01*
X99251918Y-38817816D01*
X99416233Y-38850500D01*
X99416234Y-38850500D01*
X99583766Y-38850500D01*
X99583767Y-38850500D01*
X99748082Y-38817816D01*
X99902863Y-38753703D01*
X100042162Y-38660626D01*
X100160626Y-38542162D01*
X100253703Y-38402863D01*
X100317816Y-38248082D01*
X100350500Y-38083767D01*
X100350500Y-37916233D01*
X100317816Y-37751918D01*
X100253703Y-37597137D01*
X100160626Y-37457838D01*
X100042162Y-37339374D01*
X99902863Y-37246297D01*
X99902864Y-37246297D01*
X99902862Y-37246296D01*
X99748085Y-37182185D01*
X99748079Y-37182183D01*
X99583769Y-37149500D01*
X99583767Y-37149500D01*
X99416233Y-37149500D01*
X99416230Y-37149500D01*
X99251920Y-37182183D01*
X99251914Y-37182185D01*
X99097137Y-37246296D01*
X98957838Y-37339374D01*
X98957834Y-37339377D01*
X98839377Y-37457834D01*
X98839374Y-37457838D01*
X98746296Y-37597137D01*
X98682185Y-37751914D01*
X98682183Y-37751920D01*
X98649500Y-37916230D01*
X97850499Y-37916230D01*
X97817816Y-37751918D01*
X97753703Y-37597137D01*
X97660626Y-37457838D01*
X97542162Y-37339374D01*
X97402863Y-37246297D01*
X97402864Y-37246297D01*
X97402862Y-37246296D01*
X97248085Y-37182185D01*
X97248079Y-37182183D01*
X97083769Y-37149500D01*
X97083767Y-37149500D01*
X96916233Y-37149500D01*
X96916230Y-37149500D01*
X96751920Y-37182183D01*
X96751914Y-37182185D01*
X96597137Y-37246296D01*
X96457838Y-37339374D01*
X96457834Y-37339377D01*
X96339377Y-37457834D01*
X96339374Y-37457838D01*
X96246296Y-37597137D01*
X96182185Y-37751914D01*
X96182183Y-37751920D01*
X96149500Y-37916230D01*
X93299519Y-37916230D01*
X93295395Y-37895498D01*
X93269737Y-37766503D01*
X93209394Y-37620821D01*
X93209393Y-37620819D01*
X93209390Y-37620814D01*
X93174017Y-37567876D01*
X93121789Y-37489711D01*
X93010289Y-37378211D01*
X92952170Y-37339377D01*
X92879185Y-37290609D01*
X92879174Y-37290603D01*
X92733497Y-37230263D01*
X92578844Y-37199500D01*
X92578842Y-37199500D01*
X91421158Y-37199500D01*
X91421155Y-37199500D01*
X91266503Y-37230263D01*
X91266501Y-37230263D01*
X91120825Y-37290603D01*
X91120814Y-37290609D01*
X90989711Y-37378211D01*
X90989707Y-37378214D01*
X90878214Y-37489707D01*
X90878211Y-37489711D01*
X90790609Y-37620814D01*
X90790603Y-37620825D01*
X90730263Y-37766501D01*
X90730263Y-37766503D01*
X90699500Y-37921155D01*
X39300499Y-37921155D01*
X39269737Y-37766503D01*
X39209394Y-37620821D01*
X39209393Y-37620819D01*
X39209390Y-37620814D01*
X39174017Y-37567876D01*
X39121789Y-37489711D01*
X39010289Y-37378211D01*
X38952170Y-37339377D01*
X38879185Y-37290609D01*
X38879174Y-37290603D01*
X38733497Y-37230263D01*
X38578844Y-37199500D01*
X38578842Y-37199500D01*
X37421158Y-37199500D01*
X37421155Y-37199500D01*
X37266503Y-37230263D01*
X37266501Y-37230263D01*
X37120825Y-37290603D01*
X37120814Y-37290609D01*
X36989711Y-37378211D01*
X36989707Y-37378214D01*
X36878214Y-37489707D01*
X36878211Y-37489711D01*
X36790609Y-37620814D01*
X36790603Y-37620825D01*
X36730263Y-37766501D01*
X36730263Y-37766503D01*
X36699500Y-37921155D01*
X33850500Y-37921155D01*
X33850500Y-37916233D01*
X33817816Y-37751918D01*
X33753703Y-37597137D01*
X33660626Y-37457838D01*
X33542162Y-37339374D01*
X33402863Y-37246297D01*
X33402864Y-37246297D01*
X33402862Y-37246296D01*
X33248085Y-37182185D01*
X33248079Y-37182183D01*
X33083769Y-37149500D01*
X33083767Y-37149500D01*
X32916233Y-37149500D01*
X32916230Y-37149500D01*
X32751920Y-37182183D01*
X32751914Y-37182185D01*
X32597137Y-37246296D01*
X32457838Y-37339374D01*
X32457834Y-37339377D01*
X32339377Y-37457834D01*
X32339374Y-37457838D01*
X32246296Y-37597137D01*
X32182185Y-37751914D01*
X32182183Y-37751920D01*
X32149500Y-37916230D01*
X31350499Y-37916230D01*
X31317816Y-37751918D01*
X31253703Y-37597137D01*
X31160626Y-37457838D01*
X31042162Y-37339374D01*
X30902863Y-37246297D01*
X30902864Y-37246297D01*
X30902862Y-37246296D01*
X30748085Y-37182185D01*
X30748079Y-37182183D01*
X30583769Y-37149500D01*
X30583767Y-37149500D01*
X30416233Y-37149500D01*
X30416230Y-37149500D01*
X30251920Y-37182183D01*
X30251914Y-37182185D01*
X30097137Y-37246296D01*
X29957838Y-37339374D01*
X29957834Y-37339377D01*
X29839377Y-37457834D01*
X29839374Y-37457838D01*
X29746296Y-37597137D01*
X29682185Y-37751914D01*
X29682183Y-37751920D01*
X29649500Y-37916230D01*
X28800500Y-37916230D01*
X28800500Y-36899500D01*
X28819407Y-36841309D01*
X28868907Y-36805345D01*
X28899500Y-36800500D01*
X101100499Y-36800500D01*
X101158690Y-36819407D01*
G37*
%TD.AperFunction*%
%TD*%
D23*
X48600000Y-56300000D03*
X48600000Y-49200000D03*
X66100000Y-68600000D03*
X62200000Y-84100000D03*
X33600000Y-79375001D03*
X43500000Y-76400000D03*
X50500000Y-82100000D03*
X100900000Y-53500000D03*
X61000000Y-72500000D03*
X93500000Y-88000000D03*
X93500000Y-95500000D03*
X79896446Y-111500000D03*
X61000000Y-77000000D03*
X61000000Y-80000000D03*
X67200000Y-81900000D03*
X50100000Y-107500000D03*
X60250000Y-123500000D03*
X29100000Y-103500000D03*
X85000000Y-55000000D03*
X29100000Y-112500000D03*
X39500000Y-108300000D03*
X39062500Y-108750000D03*
X75000000Y-60500000D03*
X85000000Y-62500000D03*
X29100000Y-100500000D03*
X56500000Y-98500000D03*
X60000000Y-92500000D03*
X31500000Y-88500000D03*
X29100000Y-117000000D03*
X46000000Y-95000000D03*
X81900000Y-103300000D03*
X29100000Y-114000000D03*
X93500000Y-100000000D03*
X76200000Y-75500000D03*
X76400000Y-108100000D03*
X93500000Y-69500000D03*
X29100000Y-111000000D03*
X29100000Y-97500000D03*
X91500000Y-117000000D03*
X61000000Y-74000000D03*
X29100000Y-102000000D03*
X100000000Y-129900000D03*
X51000000Y-87000000D03*
X99500000Y-68000000D03*
X72000000Y-129900000D03*
X67800000Y-83600000D03*
X77800000Y-81800000D03*
X61700000Y-116600000D03*
X58500000Y-87000000D03*
X54500000Y-98500000D03*
X39000000Y-87000000D03*
X54000000Y-87000000D03*
X33100000Y-94200000D03*
X65500000Y-85000000D03*
X32000000Y-99000000D03*
X35000000Y-100500000D03*
X77500000Y-99500000D03*
X71800000Y-72100000D03*
X73500000Y-117000000D03*
X69000000Y-98500000D03*
X52500000Y-87000000D03*
X91500000Y-109500000D03*
X92500000Y-52500000D03*
X58500000Y-123600000D03*
X69500000Y-86000000D03*
X75000000Y-62500000D03*
X39500000Y-101000000D03*
X29100000Y-126000000D03*
X87500000Y-52500000D03*
X59400000Y-110300000D03*
X68800000Y-69600000D03*
X56000000Y-129900000D03*
X29100000Y-109500000D03*
X72600000Y-70200000D03*
X54500000Y-110500000D03*
X100900000Y-59500000D03*
X77500000Y-65000000D03*
X42500000Y-97000000D03*
X34500000Y-95700000D03*
X36900000Y-91300000D03*
X80000000Y-117000000D03*
X100900000Y-117000000D03*
X29100000Y-99000000D03*
X99000000Y-117000000D03*
X64000000Y-62000000D03*
X84800000Y-112000000D03*
X29100000Y-94500000D03*
X93500000Y-74500000D03*
X88500000Y-117000000D03*
X29100000Y-121500000D03*
X65750000Y-114750000D03*
X29100000Y-106500000D03*
X91500000Y-114500000D03*
X65500000Y-100500000D03*
X84500000Y-103300000D03*
X88700000Y-80900000D03*
X75089539Y-73863072D03*
X78800000Y-77900000D03*
X52000000Y-126000000D03*
X93500000Y-85500000D03*
X100000000Y-52500000D03*
X32000000Y-97500000D03*
X29100000Y-120000000D03*
X91500000Y-112000000D03*
X90637500Y-58500000D03*
X100900000Y-128000000D03*
X64900000Y-66600000D03*
X69000000Y-100500000D03*
X29100000Y-91500000D03*
X93500000Y-90500000D03*
X30000000Y-129900000D03*
X29100000Y-127500000D03*
X97000000Y-117000000D03*
X40000000Y-129900000D03*
X40000000Y-97000000D03*
X46500000Y-87000000D03*
X72100000Y-67500000D03*
X62000000Y-91000000D03*
X85000000Y-65000000D03*
X72000000Y-64200000D03*
X64200000Y-116000000D03*
X92000000Y-123000000D03*
X70000000Y-122000000D03*
X70000000Y-126000000D03*
X81250000Y-105500000D03*
X100900000Y-57500000D03*
X38000000Y-94900000D03*
X41500000Y-99000000D03*
X29100000Y-123000000D03*
X66548527Y-111400000D03*
X80000000Y-129900000D03*
X55500000Y-87000000D03*
X45000000Y-87000000D03*
X100900000Y-61500000D03*
X100900000Y-65500000D03*
X29100000Y-90000000D03*
X38000000Y-129900000D03*
X76500000Y-117000000D03*
X39500000Y-109200000D03*
X93500000Y-98000000D03*
X42000000Y-87000000D03*
X97500000Y-52500000D03*
X61000000Y-75500000D03*
X61000000Y-83000000D03*
X34500000Y-87000000D03*
X85000000Y-117000000D03*
X65500000Y-98500000D03*
X31500000Y-87000000D03*
X66500000Y-61900000D03*
X68000000Y-129900000D03*
X69048528Y-112700000D03*
X66200000Y-60100000D03*
X77500000Y-87500000D03*
X64000000Y-129900000D03*
X88000000Y-129900000D03*
X100900000Y-67500000D03*
X88250000Y-109500000D03*
X33000000Y-129900000D03*
X46800000Y-107500000D03*
X90000000Y-52500000D03*
X36200000Y-87600000D03*
X96000000Y-129900000D03*
X63100000Y-114000000D03*
X61000000Y-84500000D03*
X55000000Y-122000000D03*
X83200000Y-103300000D03*
X29100000Y-115500000D03*
X34000000Y-99000000D03*
X55000000Y-126000000D03*
X100900000Y-63500000D03*
X52000000Y-129900000D03*
X95000000Y-117000000D03*
X85000000Y-60000000D03*
X40500000Y-87000000D03*
X53100000Y-90600000D03*
X71400000Y-83600000D03*
X31500000Y-90000000D03*
X84500000Y-107500000D03*
X36000000Y-101500000D03*
X79400000Y-81800000D03*
X67400000Y-70800000D03*
X61000000Y-81500000D03*
X100900000Y-120000000D03*
X38600000Y-108300000D03*
X37400000Y-97500000D03*
X64000000Y-89000000D03*
X93500000Y-93000000D03*
X29100000Y-118500000D03*
X85000000Y-57500000D03*
X32000000Y-96500000D03*
X100900000Y-55500000D03*
X92000000Y-129900000D03*
X77500000Y-92500000D03*
X81500000Y-80600000D03*
X58500000Y-114898528D03*
X87000000Y-103300000D03*
X82500000Y-65000000D03*
X38500000Y-89500000D03*
X93500000Y-76500000D03*
X82750000Y-107250000D03*
X85700000Y-103300000D03*
X100900000Y-124000000D03*
X44000000Y-129900000D03*
X56500000Y-97000000D03*
X65000000Y-61000000D03*
X29100000Y-105000000D03*
X38600000Y-109200000D03*
X29100000Y-129000000D03*
X33900000Y-92000000D03*
X49500000Y-87000000D03*
X62000000Y-111500000D03*
X85000000Y-52500000D03*
X48000000Y-129900000D03*
X43500000Y-87000000D03*
X48000000Y-87000000D03*
X29100000Y-88500000D03*
X61700000Y-121700000D03*
X72500000Y-86000000D03*
X60000000Y-129900000D03*
X61000000Y-78500000D03*
X59500000Y-114200000D03*
X75000000Y-65000000D03*
X96000000Y-68000000D03*
X55000000Y-117000000D03*
X29100000Y-108000000D03*
X37500000Y-99500000D03*
X70000000Y-117000000D03*
X95000000Y-52500000D03*
X80250000Y-109000000D03*
X84000000Y-129900000D03*
X77500000Y-97500000D03*
X38500000Y-91900000D03*
X29100000Y-93000000D03*
X30000000Y-87000000D03*
X29100000Y-124500000D03*
X48000000Y-126000000D03*
X76000000Y-129900000D03*
X56000000Y-112000000D03*
X53100000Y-94200000D03*
X57000000Y-87000000D03*
X80000000Y-65000000D03*
X29100000Y-96000000D03*
X93500000Y-72500000D03*
X39000000Y-103000000D03*
X41600000Y-109500000D03*
X39050000Y-106150000D03*
X88500000Y-82400000D03*
X69700000Y-82000000D03*
X71200000Y-63200000D03*
X39500000Y-95100000D03*
X68800000Y-82600000D03*
X70500000Y-62300000D03*
X87300000Y-82400000D03*
X39500000Y-94300000D03*
X35307619Y-91212953D03*
X33100000Y-91900000D03*
X89800000Y-76600000D03*
X65850000Y-82050000D03*
X55000000Y-108500000D03*
X62219778Y-112269222D03*
X66200000Y-113900000D03*
X70900000Y-51400000D03*
X68500000Y-38500000D03*
X74100000Y-56900000D03*
X30000000Y-86000000D03*
X29100000Y-74500000D03*
X29100000Y-46000000D03*
X60000000Y-68200000D03*
X63000000Y-60800000D03*
X67500000Y-58500000D03*
X29100000Y-58000000D03*
X64100000Y-45600000D03*
X59980386Y-66294822D03*
X43100000Y-71400000D03*
X29100000Y-64000000D03*
X42000000Y-37100000D03*
X62200000Y-37100000D03*
X29100000Y-56500000D03*
X29100000Y-37100000D03*
X80500000Y-61500000D03*
X63700000Y-41600000D03*
X45500000Y-71400000D03*
X59600000Y-61900000D03*
X55000000Y-40000000D03*
X50300000Y-75400000D03*
X29100000Y-70000000D03*
X58300000Y-45500000D03*
X29100000Y-85000000D03*
X84000000Y-54000000D03*
X58000000Y-56000000D03*
X50000000Y-37100000D03*
X45500000Y-48000000D03*
X60000000Y-77000000D03*
X74100000Y-61100000D03*
X95000000Y-37100000D03*
X29100000Y-59500000D03*
X77000000Y-44500000D03*
X29100000Y-55000000D03*
X100900000Y-51500000D03*
X60000000Y-74000000D03*
X55000000Y-37100000D03*
X68000000Y-55600000D03*
X45000000Y-37100000D03*
X55500000Y-86000000D03*
X29100000Y-76000000D03*
X29100000Y-40000000D03*
X69900000Y-56900000D03*
X37900000Y-52700000D03*
X29100000Y-47500000D03*
X47400000Y-66000000D03*
X58300000Y-48000000D03*
X91500000Y-51500000D03*
X77500000Y-53500000D03*
X80000000Y-63500000D03*
X69900000Y-61100000D03*
X100900000Y-45000000D03*
X40000000Y-59000000D03*
X63400000Y-47400000D03*
X63700000Y-52400000D03*
X56000000Y-59000000D03*
X52500000Y-86000000D03*
X80000000Y-37100000D03*
X29100000Y-67000000D03*
X29100000Y-38500000D03*
X94000000Y-51500000D03*
X29100000Y-77500000D03*
X36500000Y-66000000D03*
X51000000Y-86000000D03*
X66000000Y-48500000D03*
X60000000Y-78500000D03*
X57000000Y-86000000D03*
X99000000Y-51500000D03*
X60541942Y-40658058D03*
X70000000Y-37100000D03*
X43500000Y-86000000D03*
X75000000Y-37100000D03*
X54500000Y-56000000D03*
X100900000Y-37100000D03*
X84000000Y-59500000D03*
X36500000Y-71500000D03*
X60000000Y-86000000D03*
X49500000Y-86000000D03*
X46500000Y-86000000D03*
X29100000Y-62500000D03*
X29100000Y-61000000D03*
X48000000Y-86000000D03*
X69500000Y-49400000D03*
X42000000Y-86000000D03*
X100900000Y-49000000D03*
X95000000Y-40000000D03*
X49500000Y-59000000D03*
X74700000Y-48800000D03*
X63700000Y-50500000D03*
X38000000Y-41000000D03*
X60000000Y-84500000D03*
X35000000Y-59000000D03*
X72000000Y-51900000D03*
X55200000Y-75500000D03*
X58300000Y-43200000D03*
X56800000Y-51400000D03*
X38000000Y-45500000D03*
X96500000Y-51500000D03*
X71400000Y-43700000D03*
X76500000Y-63500000D03*
X65900000Y-51400000D03*
X29100000Y-71500000D03*
X29100000Y-82000000D03*
X29100000Y-83500000D03*
X29100000Y-52000000D03*
X60000000Y-37100000D03*
X88000000Y-51500000D03*
X66000000Y-59000000D03*
X36200000Y-84700000D03*
X50500000Y-66000000D03*
X29100000Y-79000000D03*
X83500000Y-63500000D03*
X58500000Y-86000000D03*
X73500000Y-50300000D03*
X31500000Y-86000000D03*
X60000000Y-80000000D03*
X43500000Y-66000000D03*
X29100000Y-50500000D03*
X60000000Y-72500000D03*
X29100000Y-73000000D03*
X78300000Y-59400000D03*
X45500000Y-44000000D03*
X84000000Y-62000000D03*
X45000000Y-86000000D03*
X51000000Y-55500000D03*
X57000000Y-71500000D03*
X58700000Y-64000000D03*
X72000000Y-59000000D03*
X29100000Y-43000000D03*
X39000000Y-86000000D03*
X29100000Y-41500000D03*
X55300000Y-66000000D03*
X50500000Y-71500000D03*
X40500000Y-86000000D03*
X65000000Y-42900000D03*
X82500000Y-40000000D03*
X29100000Y-65500000D03*
X29100000Y-49000000D03*
X54000000Y-86000000D03*
X45100000Y-52100000D03*
X64000000Y-59600000D03*
X87000000Y-40000000D03*
X29100000Y-44500000D03*
X33000000Y-86000000D03*
X76500000Y-62000000D03*
X60000000Y-83000000D03*
X54000000Y-80900000D03*
X74300000Y-53900000D03*
X70800000Y-47900000D03*
X68000000Y-53800000D03*
X76500000Y-50000000D03*
X60000000Y-69500000D03*
X100900000Y-40500000D03*
X84000000Y-57000000D03*
X29100000Y-68500000D03*
X55100000Y-77600000D03*
X84000000Y-51500000D03*
X60000000Y-81500000D03*
X60000000Y-71000000D03*
X53700000Y-44300000D03*
X29100000Y-80500000D03*
X29100000Y-53500000D03*
X60000000Y-75500000D03*
X77425000Y-79900000D03*
X84200000Y-70425000D03*
X76575000Y-79900000D03*
X84200000Y-69575000D03*
X62500000Y-49500000D03*
X62500000Y-55800000D03*
X50800000Y-44300000D03*
X50800000Y-49700000D03*
X70030593Y-67342352D03*
X66100000Y-65200000D03*
X72249685Y-55600000D03*
X72900000Y-55100000D03*
X73514579Y-54587851D03*
X74061037Y-56100949D03*
X44900000Y-51000000D03*
X48700000Y-60300000D03*
X61000000Y-55800000D03*
X61000000Y-49500000D03*
X59500000Y-49500000D03*
X59500000Y-40700000D03*
X59500000Y-55800000D03*
X69816206Y-50516206D03*
X62800000Y-43700000D03*
X61500000Y-43700000D03*
X60300000Y-45300000D03*
X60300000Y-43700000D03*
X61500000Y-45300000D03*
X62700000Y-45300000D03*
X71800000Y-48800000D03*
X79455000Y-60350000D03*
X76316590Y-59935160D03*
X90000000Y-62500000D03*
X89500000Y-54500000D03*
X34000000Y-106500000D03*
X87000000Y-58500000D03*
X60800000Y-68600000D03*
X62800000Y-68600000D03*
X62500000Y-110000000D03*
X60500000Y-116250000D03*
D24*
X34900000Y-94000000D03*
X35950000Y-94000000D03*
X37000000Y-94000000D03*
X34900000Y-92900002D03*
X35950000Y-92900002D03*
X37000000Y-92900002D03*
D25*
X85000000Y-42000000D03*
X71511846Y-74688154D03*
X73307897Y-72892103D03*
X75103948Y-71096052D03*
X76900000Y-69300000D03*
X76311846Y-41311846D03*
X78107897Y-43107897D03*
X79903948Y-44903948D03*
X81700000Y-46700000D03*
X66300000Y-76600000D03*
X63760000Y-76600000D03*
X78000000Y-57500000D03*
X30500000Y-112100000D03*
X30500000Y-118900000D03*
X43000000Y-117000000D03*
X47100000Y-90500000D03*
D26*
X85700000Y-89600000D03*
X84300000Y-89600000D03*
X86400000Y-90300000D03*
X85000000Y-90300000D03*
X83600000Y-90300000D03*
X85700000Y-91000000D03*
X84300000Y-91000000D03*
X86400000Y-91700000D03*
X85000000Y-91700000D03*
X83600000Y-91700000D03*
X85700000Y-92400000D03*
X84300000Y-92400000D03*
D25*
X33000000Y-38000000D03*
X30500000Y-38000000D03*
X38000000Y-43000000D03*
X33000000Y-48000000D03*
X30500000Y-48000000D03*
D27*
X38000000Y-38000000D03*
D28*
X33000000Y-43000000D03*
D27*
X38000000Y-48000000D03*
D24*
X53500000Y-79150000D03*
X52549999Y-78575000D03*
X54450001Y-78575000D03*
X53500000Y-78000000D03*
D25*
X58360000Y-57800000D03*
X60900000Y-57800000D03*
X63440000Y-57800000D03*
X68000000Y-41600000D03*
X68000000Y-44140000D03*
X68000000Y-46680000D03*
X68000000Y-49220000D03*
X56700000Y-40600000D03*
X56700000Y-43140000D03*
X56700000Y-45680000D03*
X56700000Y-48220000D03*
D23*
X35450000Y-81350001D03*
X36950000Y-81350001D03*
X36200000Y-80850001D03*
X35450000Y-80350001D03*
X36950000Y-80350001D03*
D25*
X97475000Y-127475000D03*
X47100000Y-82600000D03*
D26*
X46000000Y-99000000D03*
X45425000Y-99950000D03*
X45425000Y-98050000D03*
X44850000Y-99000000D03*
D25*
X32000000Y-55000000D03*
X97000000Y-48000000D03*
X99500000Y-48000000D03*
X92000000Y-43000000D03*
X97000000Y-38000000D03*
X99500000Y-38000000D03*
D27*
X92000000Y-48000000D03*
D28*
X97000000Y-43000000D03*
D27*
X92000000Y-38000000D03*
D25*
X95000000Y-61500000D03*
X95000000Y-55720000D03*
D29*
X94500000Y-62930000D03*
D30*
X98680000Y-62930000D03*
D29*
X94500000Y-54290000D03*
D30*
X98680000Y-54290000D03*
M02*
