%TF.GenerationSoftware,KiCad,Pcbnew,10.0.1*%
%TF.CreationDate,2026-06-03T20:29:48+02:00*%
%TF.ProjectId,WirelessBERA,57697265-6c65-4737-9342-4552412e6b69,rev?*%
%TF.SameCoordinates,Original*%
%TF.FileFunction,Paste,Top*%
%TF.FilePolarity,Positive*%
%FSLAX46Y46*%
G04 Gerber Fmt 4.6, Leading zero omitted, Abs format (unit mm)*
G04 Created by KiCad (PCBNEW 10.0.1) date 2026-06-03 20:29:48*
%MOMM*%
%LPD*%
G01*
G04 APERTURE LIST*
G04 Aperture macros list*
%AMRoundRect*
0 Rectangle with rounded corners*
0 $1 Rounding radius*
0 $2 $3 $4 $5 $6 $7 $8 $9 X,Y pos of 4 corners*
0 Add a 4 corners polygon primitive as box body*
4,1,4,$2,$3,$4,$5,$6,$7,$8,$9,$2,$3,0*
0 Add four circle primitives for the rounded corners*
1,1,$1+$1,$2,$3*
1,1,$1+$1,$4,$5*
1,1,$1+$1,$6,$7*
1,1,$1+$1,$8,$9*
0 Add four rect primitives between the rounded corners*
20,1,$1+$1,$2,$3,$4,$5,0*
20,1,$1+$1,$4,$5,$6,$7,0*
20,1,$1+$1,$6,$7,$8,$9,0*
20,1,$1+$1,$8,$9,$2,$3,0*%
G04 Aperture macros list end*
%ADD10C,0.000000*%
%ADD11C,0.400000*%
%ADD12RoundRect,0.200000X0.275000X-0.200000X0.275000X0.200000X-0.275000X0.200000X-0.275000X-0.200000X0*%
%ADD13RoundRect,0.218750X-0.381250X0.218750X-0.381250X-0.218750X0.381250X-0.218750X0.381250X0.218750X0*%
%ADD14RoundRect,0.218750X0.381250X-0.218750X0.381250X0.218750X-0.381250X0.218750X-0.381250X-0.218750X0*%
%ADD15O,0.200000X0.599999*%
%ADD16O,0.599999X0.200000*%
%ADD17R,2.600000X1.599999*%
%ADD18RoundRect,0.200000X-0.200000X-0.275000X0.200000X-0.275000X0.200000X0.275000X-0.200000X0.275000X0*%
%ADD19RoundRect,0.250000X0.250000X-0.475000X0.250000X0.475000X-0.250000X0.475000X-0.250000X-0.475000X0*%
%ADD20RoundRect,0.225000X-0.225000X-0.250000X0.225000X-0.250000X0.225000X0.250000X-0.225000X0.250000X0*%
%ADD21RoundRect,0.120000X-0.180000X0.430000X-0.180000X-0.430000X0.180000X-0.430000X0.180000X0.430000X0*%
%ADD22RoundRect,0.225000X-0.250000X0.225000X-0.250000X-0.225000X0.250000X-0.225000X0.250000X0.225000X0*%
%ADD23RoundRect,0.200000X0.200000X0.275000X-0.200000X0.275000X-0.200000X-0.275000X0.200000X-0.275000X0*%
%ADD24RoundRect,0.225000X0.225000X0.250000X-0.225000X0.250000X-0.225000X-0.250000X0.225000X-0.250000X0*%
%ADD25RoundRect,0.250000X-0.475000X0.250000X-0.475000X-0.250000X0.475000X-0.250000X0.475000X0.250000X0*%
%ADD26R,0.254000X0.812800*%
%ADD27R,3.479800X2.673200*%
%ADD28RoundRect,0.200000X-0.275000X0.200000X-0.275000X-0.200000X0.275000X-0.200000X0.275000X0.200000X0*%
%ADD29RoundRect,0.250000X-0.250000X-0.475000X0.250000X-0.475000X0.250000X0.475000X-0.250000X0.475000X0*%
%ADD30RoundRect,0.250000X-1.000000X0.375000X-1.000000X-0.375000X1.000000X-0.375000X1.000000X0.375000X0*%
%ADD31RoundRect,0.218750X-0.218750X-0.381250X0.218750X-0.381250X0.218750X0.381250X-0.218750X0.381250X0*%
%ADD32RoundRect,0.087500X0.087500X-0.425000X0.087500X0.425000X-0.087500X0.425000X-0.087500X-0.425000X0*%
%ADD33RoundRect,0.250000X0.250000X0.475000X-0.250000X0.475000X-0.250000X-0.475000X0.250000X-0.475000X0*%
%ADD34RoundRect,0.225000X0.250000X-0.225000X0.250000X0.225000X-0.250000X0.225000X-0.250000X-0.225000X0*%
%ADD35R,0.900000X0.900000*%
%ADD36R,0.900000X1.500000*%
%ADD37R,1.500000X0.900000*%
%ADD38R,0.240000X0.599999*%
%ADD39RoundRect,0.218750X0.218750X0.256250X-0.218750X0.256250X-0.218750X-0.256250X0.218750X-0.256250X0*%
%ADD40RoundRect,0.250000X-0.250000X-1.500000X0.250000X-1.500000X0.250000X1.500000X-0.250000X1.500000X0*%
%ADD41RoundRect,0.250001X-0.499999X-1.449999X0.499999X-1.449999X0.499999X1.449999X-0.499999X1.449999X0*%
%ADD42R,0.800000X1.500000*%
%ADD43R,1.450000X2.000000*%
%ADD44RoundRect,0.218750X-0.218750X-0.256250X0.218750X-0.256250X0.218750X0.256250X-0.218750X0.256250X0*%
%ADD45RoundRect,0.150000X-0.512500X-0.150000X0.512500X-0.150000X0.512500X0.150000X-0.512500X0.150000X0*%
%ADD46R,0.230000X0.230000*%
%ADD47O,0.230000X0.800000*%
%ADD48R,1.050000X0.680000*%
%ADD49R,0.500000X0.260000*%
%ADD50RoundRect,0.250000X0.475000X-0.250000X0.475000X0.250000X-0.475000X0.250000X-0.475000X-0.250000X0*%
%ADD51R,0.711200X0.254000*%
%ADD52R,0.254000X0.711200*%
%ADD53R,0.254000X0.254000*%
%ADD54R,2.209800X2.209800*%
%ADD55RoundRect,0.150000X0.512500X0.150000X-0.512500X0.150000X-0.512500X-0.150000X0.512500X-0.150000X0*%
%ADD56RoundRect,0.250000X-0.475000X-0.250000X0.475000X-0.250000X0.475000X0.250000X-0.475000X0.250000X0*%
%ADD57RoundRect,0.025000X0.100000X0.145000X-0.100000X0.145000X-0.100000X-0.145000X0.100000X-0.145000X0*%
%ADD58RoundRect,0.106000X0.644000X0.424000X-0.644000X0.424000X-0.644000X-0.424000X0.644000X-0.424000X0*%
%ADD59RoundRect,0.060000X0.240000X0.060000X-0.240000X0.060000X-0.240000X-0.060000X0.240000X-0.060000X0*%
%ADD60RoundRect,0.250000X0.375000X0.850000X-0.375000X0.850000X-0.375000X-0.850000X0.375000X-0.850000X0*%
%ADD61RoundRect,0.160000X0.160000X-0.160000X0.160000X0.160000X-0.160000X0.160000X-0.160000X-0.160000X0*%
%ADD62RoundRect,0.062500X0.062500X-0.375000X0.062500X0.375000X-0.062500X0.375000X-0.062500X-0.375000X0*%
%ADD63RoundRect,0.062500X0.375000X-0.062500X0.375000X0.062500X-0.375000X0.062500X-0.375000X-0.062500X0*%
%ADD64RoundRect,0.150000X0.425000X-0.150000X0.425000X0.150000X-0.425000X0.150000X-0.425000X-0.150000X0*%
%ADD65RoundRect,0.075000X0.500000X-0.075000X0.500000X0.075000X-0.500000X0.075000X-0.500000X-0.075000X0*%
%ADD66O,2.100000X1.000000*%
%ADD67O,1.800000X1.000000*%
%ADD68C,0.203200*%
%ADD69C,0.350000*%
%ADD70C,0.200000*%
%ADD71O,1.400000X0.400000*%
%ADD72O,0.400000X1.400000*%
%ADD73C,0.300000*%
%ADD74O,1.700000X0.600000*%
%ADD75O,1.400000X0.600000*%
G04 APERTURE END LIST*
D10*
%TO.C,U5*%
G36*
X35850000Y-94185001D02*
G01*
X34700000Y-94185001D01*
X34700000Y-92715001D01*
X35850000Y-92715001D01*
X35850000Y-94185001D01*
G37*
G36*
X37200000Y-94185001D02*
G01*
X36050000Y-94185001D01*
X36050000Y-92715001D01*
X37200000Y-92715001D01*
X37200000Y-94185001D01*
G37*
%TO.C,U10*%
G36*
X61400000Y-44400000D02*
G01*
X59860100Y-44400000D01*
X59860100Y-43228400D01*
X61400000Y-43228400D01*
X61400000Y-44400000D01*
G37*
G36*
X61400000Y-45771600D02*
G01*
X59860100Y-45771600D01*
X59860100Y-44600000D01*
X61400000Y-44600000D01*
X61400000Y-45771600D01*
G37*
G36*
X63139900Y-44400000D02*
G01*
X61600000Y-44400000D01*
X61600000Y-43228400D01*
X63139900Y-43228400D01*
X63139900Y-44400000D01*
G37*
G36*
X63139900Y-45771600D02*
G01*
X61600000Y-45771600D01*
X61600000Y-44600000D01*
X63139900Y-44600000D01*
X63139900Y-45771600D01*
G37*
%TO.C,MK1*%
D11*
X79480000Y-56550000D02*
X79480000Y-56750000D01*
X79480000Y-58250000D02*
X79480000Y-58450000D01*
X80180000Y-56550000D02*
X80180000Y-56750000D01*
X80180000Y-58250000D02*
X80180000Y-58450000D01*
X77216554Y-57661902D02*
G75*
G02*
X77216554Y-57338098I783446J161902D01*
G01*
X77468065Y-56902467D02*
G75*
G02*
X77748489Y-56740564I531935J-597533D01*
G01*
X77748489Y-58259435D02*
G75*
G02*
X77468066Y-58097532I251511J759435D01*
G01*
X78251511Y-56740565D02*
G75*
G02*
X78531934Y-56902468I-251511J-759435D01*
G01*
X78531935Y-58097533D02*
G75*
G02*
X78251511Y-58259435I-531915J597503D01*
G01*
X78783446Y-57338098D02*
G75*
G02*
X78783446Y-57661902I-783446J-161902D01*
G01*
D10*
%TO.C,U3*%
G36*
X53400000Y-77874999D02*
G01*
X53400000Y-79275001D01*
X53350000Y-79325001D01*
X52390000Y-79325001D01*
X52340000Y-79275001D01*
X52340000Y-77874999D01*
X52390000Y-77824999D01*
X53350000Y-77824999D01*
X53400000Y-77874999D01*
G37*
G36*
X54660000Y-77874999D02*
G01*
X54660000Y-79275001D01*
X54610000Y-79325001D01*
X53650000Y-79325001D01*
X53600000Y-79275001D01*
X53600000Y-77874999D01*
X53650000Y-77824999D01*
X54610000Y-77824999D01*
X54660000Y-77874999D01*
G37*
%TD*%
D12*
%TO.C,R17*%
X46000000Y-67525000D03*
X46000000Y-65875000D03*
%TD*%
D13*
%TO.C,FB1*%
X51500000Y-113437500D03*
X51500000Y-115562500D03*
%TD*%
D14*
%TO.C,FB5*%
X44100000Y-75062500D03*
X44100000Y-72937500D03*
%TD*%
D15*
%TO.C,U5*%
X34700000Y-94850001D03*
X35199999Y-94850001D03*
X35700000Y-94850001D03*
X36200000Y-94850001D03*
X36700001Y-94850001D03*
X37200000Y-94850001D03*
D16*
X37849999Y-94200002D03*
X37849999Y-93700001D03*
X37849999Y-93200001D03*
X37849999Y-92700000D03*
D15*
X37200000Y-92050001D03*
X36700001Y-92050001D03*
X36200000Y-92050001D03*
X35700000Y-92050001D03*
X35199999Y-92050001D03*
X34700000Y-92050001D03*
D16*
X34050001Y-92700000D03*
X34050001Y-93200001D03*
X34050001Y-93700001D03*
X34050001Y-94200002D03*
D17*
X35950000Y-93450001D03*
%TD*%
D18*
%TO.C,R25*%
X66175000Y-113039155D03*
X67825000Y-113039155D03*
%TD*%
D19*
%TO.C,SW2*%
X85960315Y-77535845D03*
X85960315Y-72385845D03*
X87660315Y-77535845D03*
X87660315Y-72385845D03*
%TD*%
D12*
%TO.C,R24*%
X93173733Y-104787177D03*
X93173733Y-103137177D03*
%TD*%
D20*
%TO.C,C11*%
X52224999Y-66650000D03*
X53774999Y-66650000D03*
%TD*%
D21*
%TO.C,L3*%
X88000000Y-64650000D03*
X88000000Y-67350000D03*
X87000000Y-67350000D03*
X87000000Y-64650000D03*
%TD*%
D13*
%TO.C,L2*%
X48675000Y-97967500D03*
X48675000Y-100092500D03*
%TD*%
D22*
%TO.C,C46*%
X62500000Y-50725000D03*
X62500000Y-52275000D03*
%TD*%
D18*
%TO.C,R42*%
X42175000Y-53500000D03*
X43825000Y-53500000D03*
%TD*%
D12*
%TO.C,R1*%
X66100000Y-67825000D03*
X66100000Y-66175000D03*
%TD*%
D23*
%TO.C,R31*%
X67435000Y-80000000D03*
X65785000Y-80000000D03*
%TD*%
D20*
%TO.C,C13*%
X30925000Y-75800001D03*
X32475000Y-75800001D03*
%TD*%
D18*
%TO.C,R2*%
X33850000Y-104500000D03*
X35500000Y-104500000D03*
%TD*%
D24*
%TO.C,C43*%
X62000000Y-114539155D03*
X60450000Y-114539155D03*
%TD*%
D25*
%TO.C,C18*%
X37400000Y-96450002D03*
X37400000Y-98350002D03*
%TD*%
D18*
%TO.C,R48*%
X86175000Y-38000000D03*
X87825000Y-38000000D03*
%TD*%
D24*
%TO.C,C30*%
X45975000Y-64400000D03*
X44425000Y-64400000D03*
%TD*%
%TO.C,C48*%
X63875000Y-48000000D03*
X62325000Y-48000000D03*
%TD*%
D20*
%TO.C,C32*%
X47025000Y-72700000D03*
X48575000Y-72700000D03*
%TD*%
D23*
%TO.C,R9*%
X32150000Y-106500000D03*
X30500000Y-106500000D03*
%TD*%
D26*
%TO.C,U10*%
X60250000Y-46443100D03*
X60749999Y-46443100D03*
X61250000Y-46443100D03*
X61750000Y-46443100D03*
X62250001Y-46443100D03*
X62750000Y-46443100D03*
X62750000Y-42556900D03*
X62250001Y-42556900D03*
X61750000Y-42556900D03*
X61250000Y-42556900D03*
X60749999Y-42556900D03*
X60250000Y-42556900D03*
D27*
X61500000Y-44500000D03*
%TD*%
D28*
%TO.C,R10*%
X55999999Y-76825000D03*
X55999999Y-78475000D03*
%TD*%
D29*
%TO.C,C58*%
X82550000Y-38000000D03*
X84450000Y-38000000D03*
%TD*%
%TO.C,C10*%
X52049999Y-64650000D03*
X53949999Y-64650000D03*
%TD*%
D12*
%TO.C,R18*%
X47000000Y-75825000D03*
X47000000Y-74175000D03*
%TD*%
D30*
%TO.C,SW1*%
X33250000Y-113000000D03*
X33250000Y-115500000D03*
X33250000Y-118000000D03*
%TD*%
D18*
%TO.C,R12*%
X30875000Y-77300001D03*
X32525000Y-77300001D03*
%TD*%
D29*
%TO.C,C31*%
X47050000Y-70900000D03*
X48950000Y-70900000D03*
%TD*%
D31*
%TO.C,FB6*%
X44837500Y-77600000D03*
X46962500Y-77600000D03*
%TD*%
D28*
%TO.C,R49*%
X83800000Y-48700000D03*
X83800000Y-50350000D03*
%TD*%
D25*
%TO.C,C2*%
X35500000Y-106550000D03*
X35500000Y-108450000D03*
%TD*%
D18*
%TO.C,R27*%
X62175000Y-113039155D03*
X63825000Y-113039155D03*
%TD*%
D28*
%TO.C,R22*%
X89610000Y-78175000D03*
X89610000Y-79825000D03*
%TD*%
D32*
%TO.C,D3*%
X41850000Y-43037500D03*
X42500000Y-43037500D03*
X43150000Y-43037500D03*
X43150000Y-41362500D03*
X42500000Y-41362500D03*
X41850000Y-41362500D03*
%TD*%
D20*
%TO.C,C51*%
X42225000Y-55000000D03*
X43775000Y-55000000D03*
%TD*%
D33*
%TO.C,C17*%
X34650000Y-84300001D03*
X32750000Y-84300001D03*
%TD*%
D24*
%TO.C,C61*%
X79455000Y-60350000D03*
X77905000Y-60350000D03*
%TD*%
D18*
%TO.C,R3*%
X54075000Y-84000000D03*
X55725000Y-84000000D03*
%TD*%
D28*
%TO.C,R38*%
X52500000Y-37675000D03*
X52500000Y-39325000D03*
%TD*%
D34*
%TO.C,C54*%
X61750000Y-40775000D03*
X61750000Y-39225000D03*
%TD*%
D23*
%TO.C,R29*%
X59325000Y-113039155D03*
X57675000Y-113039155D03*
%TD*%
D18*
%TO.C,R41*%
X42175000Y-50000000D03*
X43825000Y-50000000D03*
%TD*%
D20*
%TO.C,C16*%
X31425000Y-63850001D03*
X32975000Y-63850001D03*
%TD*%
D33*
%TO.C,C24*%
X32350000Y-92900002D03*
X30450000Y-92900002D03*
%TD*%
D25*
%TO.C,C3*%
X51500000Y-106550000D03*
X51500000Y-108450000D03*
%TD*%
D33*
%TO.C,C8*%
X53949999Y-82150000D03*
X52049999Y-82150000D03*
%TD*%
D18*
%TO.C,R15*%
X39875000Y-77300001D03*
X41525000Y-77300001D03*
%TD*%
D33*
%TO.C,C25*%
X41650000Y-72800001D03*
X39750000Y-72800001D03*
%TD*%
D12*
%TO.C,R37*%
X59900000Y-64850000D03*
X59900000Y-63200000D03*
%TD*%
D18*
%TO.C,R13*%
X33875000Y-77300001D03*
X35525000Y-77300001D03*
%TD*%
D35*
%TO.C,U7*%
X86400000Y-89600000D03*
X85000000Y-89600000D03*
X83600000Y-89600000D03*
X86400000Y-91000000D03*
X85000000Y-91000000D03*
X83600000Y-91000000D03*
X86400000Y-92400000D03*
X85000000Y-92400000D03*
X83600000Y-92400000D03*
D36*
X92720000Y-83750000D03*
X91450000Y-83750000D03*
X90180000Y-83750000D03*
X88910000Y-83750000D03*
X87640000Y-83750000D03*
X86370000Y-83750000D03*
X85100000Y-83750000D03*
X83830000Y-83750000D03*
X82560000Y-83750000D03*
X81290000Y-83750000D03*
X80020000Y-83750000D03*
X78750000Y-83750000D03*
X77480000Y-83750000D03*
X76210000Y-83750000D03*
D37*
X74960000Y-85515000D03*
X74960000Y-86785000D03*
X74960000Y-88055000D03*
X74960000Y-89325000D03*
X74960000Y-90595000D03*
X74960000Y-91865000D03*
X74960000Y-93135000D03*
X74960000Y-94405000D03*
X74960000Y-95675000D03*
X74960000Y-96945000D03*
X74960000Y-98215000D03*
X74960000Y-99485000D03*
D36*
X76210000Y-101250000D03*
X77480000Y-101250000D03*
X78750000Y-101250000D03*
X80020000Y-101250000D03*
X81290000Y-101250000D03*
X82560000Y-101250000D03*
X83830000Y-101250000D03*
X85100000Y-101250000D03*
X86370000Y-101250000D03*
X87640000Y-101250000D03*
X88910000Y-101250000D03*
X90180000Y-101250000D03*
X91450000Y-101250000D03*
X92720000Y-101250000D03*
%TD*%
D29*
%TO.C,C5*%
X69600000Y-66000000D03*
X71500000Y-66000000D03*
%TD*%
%TO.C,C1*%
X39050000Y-105000000D03*
X40950000Y-105000000D03*
%TD*%
D18*
%TO.C,R46*%
X77675000Y-38700000D03*
X79325000Y-38700000D03*
%TD*%
D38*
%TO.C,U3*%
X52499999Y-79975000D03*
X53000001Y-79975000D03*
X53500000Y-79975000D03*
X53999999Y-79975000D03*
X54500001Y-79975000D03*
X54500001Y-77175000D03*
X53999999Y-77175000D03*
X53500000Y-77175000D03*
X53000001Y-77175000D03*
X52499999Y-77175000D03*
%TD*%
D24*
%TO.C,C27*%
X40975000Y-63850001D03*
X39425000Y-63850001D03*
%TD*%
D34*
%TO.C,C39*%
X43675000Y-96305000D03*
X43675000Y-94755000D03*
%TD*%
D29*
%TO.C,C22*%
X37750000Y-84300001D03*
X39650000Y-84300001D03*
%TD*%
D20*
%TO.C,C50*%
X63325000Y-40000000D03*
X64875000Y-40000000D03*
%TD*%
D18*
%TO.C,R50*%
X82675000Y-67100000D03*
X84325000Y-67100000D03*
%TD*%
D33*
%TO.C,C9*%
X54449999Y-75500000D03*
X52549999Y-75500000D03*
%TD*%
D12*
%TO.C,R5*%
X52499999Y-69975000D03*
X52499999Y-68325000D03*
%TD*%
D14*
%TO.C,FB4*%
X41200000Y-70800001D03*
X41200000Y-68675001D03*
%TD*%
D20*
%TO.C,C28*%
X36125000Y-90400002D03*
X37675000Y-90400002D03*
%TD*%
D18*
%TO.C,R40*%
X63275000Y-38500000D03*
X64925000Y-38500000D03*
%TD*%
D12*
%TO.C,R16*%
X41200000Y-67125001D03*
X41200000Y-65475001D03*
%TD*%
D20*
%TO.C,C6*%
X69600000Y-64200000D03*
X71150000Y-64200000D03*
%TD*%
D12*
%TO.C,R35*%
X61400000Y-64850000D03*
X61400000Y-63200000D03*
%TD*%
D29*
%TO.C,C14*%
X30750000Y-72800001D03*
X32650000Y-72800001D03*
%TD*%
D23*
%TO.C,R6*%
X36325000Y-111000000D03*
X34675000Y-111000000D03*
%TD*%
D18*
%TO.C,R30*%
X62785000Y-80000000D03*
X64435000Y-80000000D03*
%TD*%
D23*
%TO.C,R32*%
X71425000Y-95700000D03*
X69775000Y-95700000D03*
%TD*%
D18*
%TO.C,R26*%
X63175000Y-111539155D03*
X64825000Y-111539155D03*
%TD*%
D28*
%TO.C,R45*%
X52500000Y-48675000D03*
X52500000Y-50325000D03*
%TD*%
D29*
%TO.C,C62*%
X79850000Y-53400000D03*
X81750000Y-53400000D03*
%TD*%
D39*
%TO.C,D1*%
X32287500Y-104500000D03*
X30712500Y-104500000D03*
%TD*%
D28*
%TO.C,R39*%
X52500000Y-41675000D03*
X52500000Y-43325000D03*
%TD*%
D12*
%TO.C,R8*%
X37500000Y-104325000D03*
X37500000Y-102675000D03*
%TD*%
D40*
%TO.C,J1*%
X37850000Y-122750000D03*
X39850000Y-122750000D03*
D41*
X35500000Y-128500000D03*
X42200000Y-128500000D03*
%TD*%
D28*
%TO.C,R44*%
X52500000Y-45175000D03*
X52500000Y-46825000D03*
%TD*%
D25*
%TO.C,C36*%
X50175000Y-102080000D03*
X50175000Y-103980000D03*
%TD*%
D33*
%TO.C,C38*%
X55175000Y-104175000D03*
X53275000Y-104175000D03*
%TD*%
D42*
%TO.C,J4*%
X65700000Y-125589155D03*
X64600000Y-125589155D03*
X63500000Y-125589155D03*
X62400000Y-125589155D03*
X61300000Y-125589155D03*
X60200000Y-125589155D03*
X59100000Y-125589155D03*
X58000000Y-125589155D03*
D43*
X69375000Y-128189155D03*
X69375000Y-119889155D03*
X55625000Y-128189155D03*
X55625000Y-119889155D03*
%TD*%
D24*
%TO.C,C57*%
X70749685Y-55539155D03*
X69199685Y-55539155D03*
%TD*%
D44*
%TO.C,D2*%
X66812500Y-95700000D03*
X68387500Y-95700000D03*
%TD*%
D22*
%TO.C,C12*%
X57499999Y-76875000D03*
X57499999Y-78425000D03*
%TD*%
D34*
%TO.C,C53*%
X65000000Y-45775000D03*
X65000000Y-44225000D03*
%TD*%
D23*
%TO.C,R7*%
X33500000Y-109500000D03*
X31850000Y-109500000D03*
%TD*%
D45*
%TO.C,U9*%
X46362500Y-50050000D03*
X46362500Y-51000000D03*
X46362500Y-51950000D03*
X48637500Y-51950000D03*
X48637500Y-50050000D03*
%TD*%
D25*
%TO.C,C35*%
X48175000Y-102080000D03*
X48175000Y-103980000D03*
%TD*%
D31*
%TO.C,FB7*%
X53367500Y-102030000D03*
X55492500Y-102030000D03*
%TD*%
D29*
%TO.C,C7*%
X38100000Y-113000000D03*
X40000000Y-113000000D03*
%TD*%
D46*
%TO.C,U4*%
X35200000Y-82610001D03*
D47*
X35200000Y-82325001D03*
D46*
X35700000Y-82610001D03*
D47*
X35700000Y-82325001D03*
D46*
X36200000Y-82610001D03*
D47*
X36200000Y-82325001D03*
D46*
X36700000Y-82610001D03*
D47*
X36700000Y-82325001D03*
D46*
X37200000Y-82610001D03*
D47*
X37200000Y-82325001D03*
X37200000Y-79375001D03*
D46*
X37200000Y-79090001D03*
D47*
X36700000Y-79375001D03*
D46*
X36700000Y-79090001D03*
D47*
X36200000Y-79375001D03*
D46*
X36200000Y-79090001D03*
D47*
X35700000Y-79375001D03*
D46*
X35700000Y-79090001D03*
D47*
X35200000Y-79375001D03*
D46*
X35200000Y-79090001D03*
D48*
X35565000Y-81300001D03*
X36835000Y-81300001D03*
D49*
X34570000Y-81100001D03*
X37830000Y-81100001D03*
X34570000Y-80600001D03*
X37830000Y-80600001D03*
D48*
X35565000Y-80400001D03*
X36835000Y-80400001D03*
%TD*%
D50*
%TO.C,C4*%
X51500000Y-111950000D03*
X51500000Y-110050000D03*
%TD*%
D29*
%TO.C,C40*%
X91160000Y-78000000D03*
X93060000Y-78000000D03*
%TD*%
D20*
%TO.C,C52*%
X47750000Y-46800000D03*
X49300000Y-46800000D03*
%TD*%
D22*
%TO.C,C44*%
X65800000Y-104550000D03*
X65800000Y-106100000D03*
%TD*%
D18*
%TO.C,R43*%
X56875000Y-38000000D03*
X58525000Y-38000000D03*
%TD*%
D51*
%TO.C,U11*%
X70107700Y-57749685D03*
X70107700Y-58249811D03*
X70107700Y-58749937D03*
X70107700Y-59250063D03*
X70107700Y-59750189D03*
X70107700Y-60250315D03*
D52*
X70749685Y-60892300D03*
X71249811Y-60892300D03*
X71749937Y-60892300D03*
X72250063Y-60892300D03*
X72750189Y-60892300D03*
X73250315Y-60892300D03*
D51*
X73892300Y-60250315D03*
X73892300Y-59750189D03*
X73892300Y-59250063D03*
X73892300Y-58749937D03*
X73892300Y-58249811D03*
X73892300Y-57749685D03*
D52*
X73250315Y-57107700D03*
X72750189Y-57107700D03*
X72250063Y-57107700D03*
X71749937Y-57107700D03*
X71249811Y-57107700D03*
X70749685Y-57107700D03*
D53*
X70274000Y-57273943D03*
X70274000Y-60726057D03*
D54*
X72000000Y-59000000D03*
D53*
X73726000Y-57273943D03*
X73726000Y-60726057D03*
%TD*%
D18*
%TO.C,R47*%
X90675000Y-50500000D03*
X92325000Y-50500000D03*
%TD*%
D50*
%TO.C,C33*%
X48675000Y-96480000D03*
X48675000Y-94580000D03*
%TD*%
D55*
%TO.C,U1*%
X49137500Y-110450000D03*
X49137500Y-109500000D03*
X49137500Y-108550000D03*
X46862500Y-108550000D03*
X46862500Y-110450000D03*
%TD*%
D29*
%TO.C,C21*%
X39450000Y-92900002D03*
X41350000Y-92900002D03*
%TD*%
D20*
%TO.C,C41*%
X91335000Y-80000000D03*
X92885000Y-80000000D03*
%TD*%
D33*
%TO.C,C56*%
X70749685Y-53539155D03*
X68849685Y-53539155D03*
%TD*%
D23*
%TO.C,R20*%
X46000000Y-102530000D03*
X44350000Y-102530000D03*
%TD*%
D12*
%TO.C,R23*%
X93200000Y-108150000D03*
X93200000Y-106500000D03*
%TD*%
D29*
%TO.C,C55*%
X87050000Y-50500000D03*
X88950000Y-50500000D03*
%TD*%
D14*
%TO.C,FB2*%
X52499999Y-73712500D03*
X52499999Y-71587500D03*
%TD*%
D56*
%TO.C,SW3*%
X68525000Y-104450000D03*
X73675000Y-104450000D03*
X68525000Y-106150000D03*
X73675000Y-106150000D03*
%TD*%
D33*
%TO.C,C26*%
X41150000Y-61850001D03*
X39250000Y-61850001D03*
%TD*%
D24*
%TO.C,C59*%
X68799685Y-57539155D03*
X67249685Y-57539155D03*
%TD*%
D23*
%TO.C,R19*%
X46825000Y-96277504D03*
X45175000Y-96277504D03*
%TD*%
D29*
%TO.C,C15*%
X31250000Y-61850001D03*
X33150000Y-61850001D03*
%TD*%
D24*
%TO.C,C37*%
X55000000Y-106175000D03*
X53450000Y-106175000D03*
%TD*%
D57*
%TO.C,U6*%
X45675000Y-100530000D03*
X45675000Y-97470000D03*
D58*
X45425000Y-99630000D03*
X45425000Y-98370000D03*
D57*
X45175000Y-100530000D03*
X45175000Y-97470000D03*
D59*
X46825000Y-100000000D03*
X46825000Y-99500000D03*
X46825000Y-99000000D03*
X46825000Y-98500000D03*
X46825000Y-98000000D03*
X44025000Y-98000000D03*
X44025000Y-98500000D03*
X44025000Y-99000000D03*
X44025000Y-99500000D03*
X44025000Y-100000000D03*
%TD*%
D14*
%TO.C,FB3*%
X31200000Y-70862501D03*
X31200000Y-68737501D03*
%TD*%
D28*
%TO.C,R34*%
X92105000Y-61785000D03*
X92105000Y-63435000D03*
%TD*%
D20*
%TO.C,C23*%
X39925000Y-75800001D03*
X41475000Y-75800001D03*
%TD*%
D12*
%TO.C,R21*%
X42175000Y-102355000D03*
X42175000Y-100705000D03*
%TD*%
D23*
%TO.C,R28*%
X60825000Y-111539155D03*
X59175000Y-111539155D03*
%TD*%
D60*
%TO.C,L1*%
X35475000Y-97400002D03*
X33325000Y-97400002D03*
%TD*%
D61*
%TO.C,U2*%
X38662500Y-109150000D03*
X39462500Y-109150000D03*
X38662500Y-108350000D03*
X39462500Y-108350000D03*
D62*
X38312500Y-110187500D03*
X38812500Y-110187500D03*
X39312500Y-110187500D03*
X39812500Y-110187500D03*
D63*
X40500000Y-109500000D03*
X40500000Y-109000000D03*
X40500000Y-108500000D03*
X40500000Y-108000000D03*
D62*
X39812500Y-107312500D03*
X39312500Y-107312500D03*
X38812500Y-107312500D03*
X38312500Y-107312500D03*
D63*
X37625000Y-108000000D03*
X37625000Y-108500000D03*
X37625000Y-109000000D03*
X37625000Y-109500000D03*
%TD*%
D22*
%TO.C,C47*%
X59500000Y-50725000D03*
X59500000Y-52275000D03*
%TD*%
D33*
%TO.C,C29*%
X45950000Y-62400000D03*
X44050000Y-62400000D03*
%TD*%
D24*
%TO.C,C34*%
X45950000Y-104030000D03*
X44400000Y-104030000D03*
%TD*%
D20*
%TO.C,C42*%
X86035315Y-79960845D03*
X87585315Y-79960845D03*
%TD*%
D22*
%TO.C,C45*%
X61000000Y-50725000D03*
X61000000Y-52275000D03*
%TD*%
D12*
%TO.C,R36*%
X62900000Y-64850000D03*
X62900000Y-63200000D03*
%TD*%
%TO.C,R33*%
X92105000Y-55935000D03*
X92105000Y-54285000D03*
%TD*%
D29*
%TO.C,C60*%
X77550000Y-62100000D03*
X79450000Y-62100000D03*
%TD*%
D50*
%TO.C,C20*%
X34400000Y-90350002D03*
X34400000Y-88450002D03*
%TD*%
D20*
%TO.C,C49*%
X47725000Y-41700000D03*
X49275000Y-41700000D03*
%TD*%
D55*
%TO.C,U8*%
X90637500Y-59450000D03*
X90637500Y-58500000D03*
X90637500Y-57550000D03*
X88362500Y-57550000D03*
X88362500Y-58500000D03*
X88362500Y-59450000D03*
%TD*%
D18*
%TO.C,R4*%
X55775000Y-82000000D03*
X57425000Y-82000000D03*
%TD*%
D12*
%TO.C,R11*%
X31200000Y-67125001D03*
X31200000Y-65475001D03*
%TD*%
D18*
%TO.C,R14*%
X36875000Y-77300001D03*
X38525000Y-77300001D03*
%TD*%
D64*
%TO.C,J5*%
X93925000Y-61810000D03*
X93925000Y-61010000D03*
D65*
X93925000Y-59860000D03*
X93925000Y-58860000D03*
X93925000Y-58360000D03*
X93925000Y-57360000D03*
D64*
X93925000Y-56210000D03*
X93925000Y-55410000D03*
X93925000Y-55410000D03*
X93925000Y-56210000D03*
D65*
X93925000Y-56860000D03*
X93925000Y-57860000D03*
X93925000Y-59360000D03*
X93925000Y-60360000D03*
D64*
X93925000Y-61010000D03*
X93925000Y-61810000D03*
D66*
X94500000Y-62930000D03*
D67*
X98680000Y-62930000D03*
D66*
X94500000Y-54290000D03*
D67*
X98680000Y-54290000D03*
%TD*%
D34*
%TO.C,C19*%
X36200000Y-85275000D03*
X36200000Y-83725000D03*
%TD*%
D68*
X34900000Y-94000000D03*
X35950000Y-94000000D03*
X37000000Y-94000000D03*
X34900000Y-92900002D03*
X35950000Y-92900002D03*
X37000000Y-92900002D03*
D69*
X85000000Y-42000000D03*
X71511846Y-74688154D03*
X73307897Y-72892103D03*
X75103948Y-71096052D03*
X76900000Y-69300000D03*
X76311846Y-41311846D03*
X78107897Y-43107897D03*
X79903948Y-44903948D03*
X81700000Y-46700000D03*
X66300000Y-76600000D03*
X63760000Y-76600000D03*
X78000000Y-57500000D03*
X30500000Y-112100000D03*
X30500000Y-118900000D03*
X43000000Y-117000000D03*
X47100000Y-90500000D03*
D70*
X85700000Y-89600000D03*
X84300000Y-89600000D03*
X86400000Y-90300000D03*
X85000000Y-90300000D03*
X83600000Y-90300000D03*
X85700000Y-91000000D03*
X84300000Y-91000000D03*
X86400000Y-91700000D03*
X85000000Y-91700000D03*
X83600000Y-91700000D03*
X85700000Y-92400000D03*
X84300000Y-92400000D03*
D69*
X33000000Y-38000000D03*
X30500000Y-38000000D03*
X38000000Y-43000000D03*
X33000000Y-48000000D03*
X30500000Y-48000000D03*
D71*
X38000000Y-38000000D03*
D72*
X33000000Y-43000000D03*
D71*
X38000000Y-48000000D03*
D68*
X53500000Y-79150000D03*
X52549999Y-78575000D03*
X54450001Y-78575000D03*
X53500000Y-78000000D03*
D69*
X58360000Y-57800000D03*
X60900000Y-57800000D03*
X63440000Y-57800000D03*
X68000000Y-41600000D03*
X68000000Y-44140000D03*
X68000000Y-46680000D03*
X68000000Y-49220000D03*
X56700000Y-40600000D03*
X56700000Y-43140000D03*
X56700000Y-45680000D03*
X56700000Y-48220000D03*
D73*
X35450000Y-81350001D03*
X36950000Y-81350001D03*
X36200000Y-80850001D03*
X35450000Y-80350001D03*
X36950000Y-80350001D03*
D69*
X97475000Y-127475000D03*
X47100000Y-82600000D03*
D70*
X46000000Y-99000000D03*
X45425000Y-99950000D03*
X45425000Y-98050000D03*
X44850000Y-99000000D03*
D69*
X32000000Y-55000000D03*
X97000000Y-48000000D03*
X99500000Y-48000000D03*
X92000000Y-43000000D03*
X97000000Y-38000000D03*
X99500000Y-38000000D03*
D71*
X92000000Y-48000000D03*
D72*
X97000000Y-43000000D03*
D71*
X92000000Y-38000000D03*
D69*
X95000000Y-61500000D03*
X95000000Y-55720000D03*
D74*
X94500000Y-62930000D03*
D75*
X98680000Y-62930000D03*
D74*
X94500000Y-54290000D03*
D75*
X98680000Y-54290000D03*
M02*
