%TF.GenerationSoftware,KiCad,Pcbnew,10.0.1*%
%TF.CreationDate,2026-05-30T01:01:22+02:00*%
%TF.ProjectId,LTC6373_Daughterboard,4c544336-3337-4335-9f44-617567687465,rev?*%
%TF.SameCoordinates,Original*%
%TF.FileFunction,Copper,L1,Top*%
%TF.FilePolarity,Positive*%
%FSLAX46Y46*%
G04 Gerber Fmt 4.6, Leading zero omitted, Abs format (unit mm)*
G04 Created by KiCad (PCBNEW 10.0.1) date 2026-05-30 01:01:22*
%MOMM*%
%LPD*%
G01*
G04 APERTURE LIST*
G04 Aperture macros list*
%AMRoundRect*
0 Rectangle with rounded corners*
0 $1 Rounding radius*
0 $2 $3 $4 $5 $6 $7 $8 $9 X,Y pos of 4 corners*
0 Add a 4 corners polygon primitive as box body*
4,1,4,$2,$3,$4,$5,$6,$7,$8,$9,$2,$3,0*
0 Add four circle primitives for the rounded corners*
1,1,$1+$1,$2,$3*
1,1,$1+$1,$4,$5*
1,1,$1+$1,$6,$7*
1,1,$1+$1,$8,$9*
0 Add four rect primitives between the rounded corners*
20,1,$1+$1,$2,$3,$4,$5,0*
20,1,$1+$1,$4,$5,$6,$7,0*
20,1,$1+$1,$6,$7,$8,$9,0*
20,1,$1+$1,$8,$9,$2,$3,0*%
G04 Aperture macros list end*
%TA.AperFunction,SMDPad,CuDef*%
%ADD10RoundRect,0.225000X-0.250000X0.225000X-0.250000X-0.225000X0.250000X-0.225000X0.250000X0.225000X0*%
%TD*%
%TA.AperFunction,ComponentPad*%
%ADD11C,1.800000*%
%TD*%
%TA.AperFunction,SMDPad,CuDef*%
%ADD12RoundRect,0.225000X0.225000X0.250000X-0.225000X0.250000X-0.225000X-0.250000X0.225000X-0.250000X0*%
%TD*%
%TA.AperFunction,SMDPad,CuDef*%
%ADD13R,0.254000X0.812800*%
%TD*%
%TA.AperFunction,SMDPad,CuDef*%
%ADD14R,3.479800X2.673200*%
%TD*%
%TA.AperFunction,SMDPad,CuDef*%
%ADD15RoundRect,0.225000X0.250000X-0.225000X0.250000X0.225000X-0.250000X0.225000X-0.250000X-0.225000X0*%
%TD*%
%TA.AperFunction,ViaPad*%
%ADD16C,0.600000*%
%TD*%
%TA.AperFunction,Conductor*%
%ADD17C,0.250000*%
%TD*%
%TA.AperFunction,Conductor*%
%ADD18C,0.200000*%
%TD*%
%TA.AperFunction,Conductor*%
%ADD19C,0.300000*%
%TD*%
%TA.AperFunction,Conductor*%
%ADD20C,0.350000*%
%TD*%
%ADD21C,0.300000*%
%ADD22C,0.350000*%
G04 APERTURE END LIST*
D10*
%TO.P,C5,1*%
%TO.N,A1*%
X101000000Y-106225000D03*
%TO.P,C5,2*%
%TO.N,GNDA*%
X101000000Y-107775000D03*
%TD*%
D11*
%TO.P,H7,1,1_1*%
%TO.N,LTN*%
X106600000Y-94100000D03*
%TD*%
D12*
%TO.P,C2,1*%
%TO.N,GNDA*%
X102375000Y-103500000D03*
%TO.P,C2,2*%
%TO.N,+5V*%
X100825000Y-103500000D03*
%TD*%
D11*
%TO.P,H6,1,1_1*%
%TO.N,LTP*%
X106600000Y-102000000D03*
%TD*%
D13*
%TO.P,U1,1,IN-_1*%
%TO.N,INA-*%
X98750000Y-101943100D03*
%TO.P,U1,2,A0-_2*%
%TO.N,A0*%
X99249999Y-101943100D03*
%TO.P,U1,3,A1_3*%
%TO.N,A1*%
X99750000Y-101943100D03*
%TO.P,U1,4,V+_4*%
%TO.N,+5V*%
X100250000Y-101943100D03*
%TO.P,U1,5,V+OUT_5*%
X100750001Y-101943100D03*
%TO.P,U1,6,OUT+_6*%
%TO.N,LTP*%
X101250000Y-101943100D03*
%TO.P,U1,7,OUT-_7*%
%TO.N,LTN*%
X101250000Y-98056900D03*
%TO.P,U1,8,VOCM_8*%
%TO.N,GNDA*%
X100750001Y-98056900D03*
%TO.P,U1,9,CAP_9*%
%TO.N,CAP*%
X100250000Y-98056900D03*
%TO.P,U1,10,DGND_10*%
%TO.N,GNDA*%
X99750000Y-98056900D03*
%TO.P,U1,11,A2_11*%
%TO.N,A2*%
X99249999Y-98056900D03*
%TO.P,U1,12,IN+_12*%
%TO.N,INA+*%
X98750000Y-98056900D03*
D14*
%TO.P,U1,13,V-_13*%
%TO.N,-5V*%
X100000000Y-100000000D03*
%TD*%
D15*
%TO.P,C1,1*%
%TO.N,CAP*%
X100250000Y-96275000D03*
%TO.P,C1,2*%
%TO.N,GNDA*%
X100250000Y-94725000D03*
%TD*%
D11*
%TO.P,H2,1,1_1*%
%TO.N,INA-*%
X94000000Y-102000000D03*
%TD*%
%TO.P,H3,1,1_1*%
%TO.N,GNDA*%
X94000000Y-106000000D03*
%TD*%
%TO.P,H4,1,1_1*%
%TO.N,+5V*%
X106600000Y-106000000D03*
%TD*%
D15*
%TO.P,C3,1*%
%TO.N,GNDA*%
X103500000Y-101275000D03*
%TO.P,C3,2*%
%TO.N,-5V*%
X103500000Y-99725000D03*
%TD*%
D11*
%TO.P,H1,1,1_1*%
%TO.N,INA+*%
X94000000Y-98000000D03*
%TD*%
%TO.P,H5,1,1_1*%
%TO.N,-5V*%
X106600000Y-98000000D03*
%TD*%
D10*
%TO.P,C6,1*%
%TO.N,A2*%
X98000000Y-106225000D03*
%TO.P,C6,2*%
%TO.N,GNDA*%
X98000000Y-107775000D03*
%TD*%
%TO.P,C4,1*%
%TO.N,A0*%
X99500000Y-106225000D03*
%TO.P,C4,2*%
%TO.N,GNDA*%
X99500000Y-107775000D03*
%TD*%
D16*
%TO.N,GNDA*%
X99041900Y-96158100D03*
X96500000Y-107775000D03*
X99000000Y-94725000D03*
X101800000Y-96200000D03*
X103575000Y-103500000D03*
X104700000Y-101275000D03*
%TO.N,A2*%
X98000000Y-96200000D03*
X98000000Y-105000000D03*
%TD*%
%TO.N,A1*%
D17*
X99750000Y-101943100D02*
X99750000Y-103750000D01*
X99750000Y-103750000D02*
X101000000Y-105000000D01*
X101000000Y-105000000D02*
X101000000Y-106225000D01*
%TO.N,GNDA*%
D18*
X99750000Y-96998700D02*
X99041900Y-96290600D01*
D19*
X98000000Y-107775000D02*
X96500000Y-107775000D01*
D18*
X99041900Y-96290600D02*
X99041900Y-96158100D01*
X100750000Y-98056900D02*
X100750000Y-97250000D01*
D19*
X103500000Y-101275000D02*
X104700000Y-101275000D01*
X102375000Y-103500000D02*
X103575000Y-103500000D01*
D18*
X99750000Y-98056900D02*
X99750000Y-96998700D01*
X100750000Y-97250000D02*
X101800000Y-96200000D01*
D19*
X98000000Y-107775000D02*
X101000000Y-107775000D01*
X100250000Y-94725000D02*
X99000000Y-94725000D01*
%TO.N,LTN*%
D17*
X102656900Y-98056900D02*
X106600000Y-94100000D01*
X101250000Y-98056900D02*
X102656900Y-98056900D01*
%TO.N,+5V*%
D18*
X100750000Y-101943100D02*
X100750000Y-103425000D01*
D20*
X103425000Y-106100000D02*
X106500000Y-106100000D01*
X106500000Y-106100000D02*
X106600000Y-106000000D01*
D18*
X100750000Y-103425000D02*
X100825000Y-103500000D01*
D20*
X100825000Y-103500000D02*
X103425000Y-106100000D01*
D18*
X100250000Y-101943100D02*
X100750000Y-101943100D01*
%TO.N,LTP*%
D17*
X106500000Y-102100000D02*
X106600000Y-102000000D01*
X102143100Y-101943100D02*
X102300000Y-102100000D01*
X101250000Y-101943100D02*
X102143100Y-101943100D01*
X102300000Y-102100000D02*
X106500000Y-102100000D01*
%TO.N,INA-*%
X98750000Y-101943100D02*
X94000000Y-101943100D01*
X94000000Y-101943100D02*
X94000000Y-102000000D01*
%TO.N,A0*%
D18*
X99250000Y-104750000D02*
X99500000Y-105000000D01*
X99500000Y-105000000D02*
X99500000Y-106225000D01*
X99250000Y-101943100D02*
X99250000Y-104750000D01*
%TO.N,CAP*%
D17*
X100250000Y-98056900D02*
X100250000Y-96275000D01*
%TO.N,A2*%
D18*
X99250000Y-98056900D02*
X99250000Y-97450000D01*
D17*
X98000000Y-105000000D02*
X98000000Y-106225000D01*
D18*
X99250000Y-97450000D02*
X98000000Y-96200000D01*
%TO.N,INA+*%
D17*
X94000000Y-98056900D02*
X94000000Y-98000000D01*
X98750000Y-98056900D02*
X94000000Y-98056900D01*
%TO.N,-5V*%
D20*
X104875000Y-99725000D02*
X106600000Y-98000000D01*
X102275000Y-99725000D02*
X103500000Y-99725000D01*
X102000000Y-100000000D02*
X102275000Y-99725000D01*
X103500000Y-99725000D02*
X104875000Y-99725000D01*
X100000000Y-100000000D02*
X102000000Y-100000000D01*
%TD*%
%TA.AperFunction,Conductor*%
%TO.N,GNDA*%
G36*
X106120888Y-92570185D02*
G01*
X106166643Y-92622989D01*
X106176587Y-92692147D01*
X106147562Y-92755703D01*
X106092167Y-92792431D01*
X106062396Y-92802103D01*
X106062393Y-92802104D01*
X105865974Y-92902187D01*
X105687641Y-93031752D01*
X105687636Y-93031756D01*
X105531756Y-93187636D01*
X105531752Y-93187641D01*
X105402187Y-93365974D01*
X105302104Y-93562393D01*
X105302103Y-93562396D01*
X105233985Y-93772047D01*
X105199500Y-93989778D01*
X105199500Y-94210221D01*
X105233985Y-94427952D01*
X105248946Y-94473998D01*
X105250941Y-94543840D01*
X105218849Y-94599844D01*
X104234813Y-95587324D01*
X102522747Y-97305383D01*
X102433514Y-97394928D01*
X102372250Y-97428520D01*
X102345680Y-97431400D01*
X101900256Y-97431400D01*
X101833217Y-97411715D01*
X101800990Y-97381712D01*
X101734546Y-97292954D01*
X101698508Y-97265976D01*
X101619335Y-97206706D01*
X101619328Y-97206702D01*
X101484486Y-97156410D01*
X101484485Y-97156409D01*
X101484483Y-97156409D01*
X101424873Y-97150000D01*
X101424864Y-97150000D01*
X101173360Y-97150000D01*
X101106321Y-97130315D01*
X101060566Y-97077511D01*
X101050622Y-97008353D01*
X101071222Y-96960452D01*
X101069177Y-96959191D01*
X101161998Y-96808705D01*
X101161997Y-96808705D01*
X101162003Y-96808697D01*
X101215349Y-96647708D01*
X101225500Y-96548345D01*
X101225499Y-96001656D01*
X101215349Y-95902292D01*
X101162003Y-95741303D01*
X101161999Y-95741297D01*
X101161998Y-95741294D01*
X101072970Y-95596959D01*
X101072967Y-95596955D01*
X101063339Y-95587327D01*
X101029854Y-95526004D01*
X101034838Y-95456312D01*
X101063345Y-95411959D01*
X101072573Y-95402731D01*
X101161542Y-95258492D01*
X101161547Y-95258481D01*
X101214855Y-95097606D01*
X101224999Y-94998322D01*
X101225000Y-94998309D01*
X101225000Y-94975000D01*
X99275001Y-94975000D01*
X99275001Y-94998322D01*
X99285144Y-95097607D01*
X99338452Y-95258481D01*
X99338457Y-95258492D01*
X99427424Y-95402728D01*
X99427427Y-95402732D01*
X99436660Y-95411965D01*
X99470145Y-95473288D01*
X99465161Y-95542980D01*
X99436663Y-95587324D01*
X99427033Y-95596953D01*
X99427029Y-95596959D01*
X99338001Y-95741294D01*
X99337996Y-95741305D01*
X99284651Y-95902290D01*
X99274500Y-96001647D01*
X99274500Y-96325903D01*
X99254815Y-96392942D01*
X99202011Y-96438697D01*
X99132853Y-96448641D01*
X99069297Y-96419616D01*
X99062819Y-96413584D01*
X98834574Y-96185339D01*
X98801089Y-96124016D01*
X98800638Y-96121849D01*
X98782595Y-96031147D01*
X98769737Y-95966503D01*
X98743140Y-95902292D01*
X98709397Y-95820827D01*
X98709390Y-95820814D01*
X98621789Y-95689711D01*
X98621786Y-95689707D01*
X98510292Y-95578213D01*
X98510288Y-95578210D01*
X98379185Y-95490609D01*
X98379172Y-95490602D01*
X98233501Y-95430264D01*
X98233489Y-95430261D01*
X98078845Y-95399500D01*
X98078842Y-95399500D01*
X97921158Y-95399500D01*
X97921155Y-95399500D01*
X97766510Y-95430261D01*
X97766498Y-95430264D01*
X97620827Y-95490602D01*
X97620814Y-95490609D01*
X97489711Y-95578210D01*
X97489707Y-95578213D01*
X97378213Y-95689707D01*
X97378210Y-95689711D01*
X97290609Y-95820814D01*
X97290602Y-95820827D01*
X97230264Y-95966498D01*
X97230261Y-95966510D01*
X97199500Y-96121153D01*
X97199500Y-96278846D01*
X97230261Y-96433489D01*
X97230264Y-96433501D01*
X97290602Y-96579172D01*
X97290609Y-96579185D01*
X97378210Y-96710288D01*
X97378213Y-96710292D01*
X97489707Y-96821786D01*
X97489711Y-96821789D01*
X97620814Y-96909390D01*
X97620827Y-96909397D01*
X97744087Y-96960452D01*
X97766503Y-96969737D01*
X97831147Y-96982595D01*
X97921849Y-97000638D01*
X97983760Y-97033023D01*
X97985339Y-97034574D01*
X98170484Y-97219719D01*
X98203969Y-97281042D01*
X98198985Y-97350734D01*
X98157113Y-97406667D01*
X98091649Y-97431084D01*
X98082803Y-97431400D01*
X95358090Y-97431400D01*
X95291051Y-97411715D01*
X95247606Y-97363696D01*
X95197814Y-97265976D01*
X95068247Y-97087641D01*
X95068243Y-97087636D01*
X94912363Y-96931756D01*
X94912358Y-96931752D01*
X94734025Y-96802187D01*
X94734024Y-96802186D01*
X94734022Y-96802185D01*
X94671096Y-96770122D01*
X94537606Y-96702104D01*
X94537603Y-96702103D01*
X94327952Y-96633985D01*
X94219086Y-96616742D01*
X94110222Y-96599500D01*
X93889778Y-96599500D01*
X93817201Y-96610995D01*
X93672047Y-96633985D01*
X93462396Y-96702103D01*
X93462393Y-96702104D01*
X93265974Y-96802187D01*
X93087641Y-96931752D01*
X93087636Y-96931756D01*
X92931756Y-97087636D01*
X92931752Y-97087641D01*
X92802187Y-97265974D01*
X92702104Y-97462393D01*
X92702103Y-97462396D01*
X92633985Y-97672047D01*
X92599500Y-97889778D01*
X92599500Y-98110221D01*
X92633985Y-98327952D01*
X92702103Y-98537603D01*
X92702104Y-98537606D01*
X92751539Y-98634625D01*
X92799105Y-98727978D01*
X92802187Y-98734025D01*
X92931752Y-98912358D01*
X92931756Y-98912363D01*
X93087636Y-99068243D01*
X93087641Y-99068247D01*
X93243192Y-99181260D01*
X93265978Y-99197815D01*
X93394375Y-99263237D01*
X93462393Y-99297895D01*
X93462396Y-99297896D01*
X93567221Y-99331955D01*
X93672049Y-99366015D01*
X93889778Y-99400500D01*
X93889779Y-99400500D01*
X94110221Y-99400500D01*
X94110222Y-99400500D01*
X94327951Y-99366015D01*
X94537606Y-99297895D01*
X94734022Y-99197815D01*
X94912365Y-99068242D01*
X95068242Y-98912365D01*
X95106182Y-98860145D01*
X95198184Y-98733515D01*
X95253513Y-98690849D01*
X95298502Y-98682400D01*
X97635600Y-98682400D01*
X97702639Y-98702085D01*
X97748394Y-98754889D01*
X97759600Y-98806400D01*
X97759601Y-101193600D01*
X97739916Y-101260639D01*
X97687113Y-101306394D01*
X97635601Y-101317600D01*
X95298502Y-101317600D01*
X95231463Y-101297915D01*
X95198184Y-101266485D01*
X95068247Y-101087641D01*
X95068243Y-101087636D01*
X94912363Y-100931756D01*
X94912358Y-100931752D01*
X94734025Y-100802187D01*
X94734024Y-100802186D01*
X94734022Y-100802185D01*
X94614958Y-100741518D01*
X94537606Y-100702104D01*
X94537603Y-100702103D01*
X94327952Y-100633985D01*
X94219086Y-100616742D01*
X94110222Y-100599500D01*
X93889778Y-100599500D01*
X93817201Y-100610995D01*
X93672047Y-100633985D01*
X93462396Y-100702103D01*
X93462393Y-100702104D01*
X93265974Y-100802187D01*
X93087641Y-100931752D01*
X93087636Y-100931756D01*
X92931756Y-101087636D01*
X92931752Y-101087641D01*
X92802187Y-101265974D01*
X92702104Y-101462393D01*
X92702103Y-101462396D01*
X92633985Y-101672047D01*
X92599500Y-101889778D01*
X92599500Y-102110221D01*
X92633985Y-102327952D01*
X92702103Y-102537603D01*
X92702104Y-102537606D01*
X92761570Y-102654312D01*
X92788440Y-102707047D01*
X92802187Y-102734025D01*
X92931752Y-102912358D01*
X92931756Y-102912363D01*
X93087636Y-103068243D01*
X93087641Y-103068247D01*
X93243192Y-103181260D01*
X93265978Y-103197815D01*
X93368396Y-103250000D01*
X93462393Y-103297895D01*
X93462396Y-103297896D01*
X93567221Y-103331955D01*
X93672049Y-103366015D01*
X93889778Y-103400500D01*
X93889779Y-103400500D01*
X94110221Y-103400500D01*
X94110222Y-103400500D01*
X94327951Y-103366015D01*
X94537606Y-103297895D01*
X94734022Y-103197815D01*
X94912365Y-103068242D01*
X95068242Y-102912365D01*
X95197815Y-102734022D01*
X95247606Y-102636304D01*
X95295580Y-102585509D01*
X95358090Y-102568600D01*
X98099744Y-102568600D01*
X98166783Y-102588285D01*
X98199009Y-102618287D01*
X98265454Y-102707046D01*
X98301489Y-102734022D01*
X98380664Y-102793293D01*
X98380671Y-102793297D01*
X98515516Y-102843591D01*
X98538757Y-102846090D01*
X98603307Y-102872829D01*
X98643155Y-102930221D01*
X98649500Y-102969379D01*
X98649500Y-104239240D01*
X98629815Y-104306279D01*
X98577011Y-104352034D01*
X98507853Y-104361978D01*
X98456610Y-104342342D01*
X98379190Y-104290612D01*
X98379172Y-104290602D01*
X98233501Y-104230264D01*
X98233489Y-104230261D01*
X98078845Y-104199500D01*
X98078842Y-104199500D01*
X97921158Y-104199500D01*
X97921155Y-104199500D01*
X97766510Y-104230261D01*
X97766498Y-104230264D01*
X97620827Y-104290602D01*
X97620814Y-104290609D01*
X97489711Y-104378210D01*
X97489707Y-104378213D01*
X97378213Y-104489707D01*
X97378210Y-104489711D01*
X97290609Y-104620814D01*
X97290602Y-104620827D01*
X97230264Y-104766498D01*
X97230261Y-104766510D01*
X97199500Y-104921153D01*
X97199500Y-105078846D01*
X97229671Y-105230521D01*
X97230263Y-105233497D01*
X97274775Y-105340959D01*
X97282244Y-105410428D01*
X97250969Y-105472907D01*
X97247896Y-105476092D01*
X97177029Y-105546959D01*
X97088001Y-105691294D01*
X97087996Y-105691305D01*
X97034651Y-105852290D01*
X97024500Y-105951647D01*
X97024500Y-106498337D01*
X97024501Y-106498355D01*
X97034650Y-106597707D01*
X97034651Y-106597710D01*
X97087996Y-106758694D01*
X97088001Y-106758705D01*
X97177029Y-106903040D01*
X97177032Y-106903044D01*
X97186660Y-106912672D01*
X97220145Y-106973995D01*
X97215161Y-107043687D01*
X97186663Y-107088031D01*
X97177428Y-107097265D01*
X97177424Y-107097271D01*
X97088457Y-107241507D01*
X97088452Y-107241518D01*
X97035144Y-107402393D01*
X97025000Y-107501677D01*
X97025000Y-107525000D01*
X101974999Y-107525000D01*
X101974999Y-107501692D01*
X101974998Y-107501677D01*
X101964855Y-107402392D01*
X101911547Y-107241518D01*
X101911542Y-107241507D01*
X101822575Y-107097271D01*
X101822572Y-107097267D01*
X101813339Y-107088034D01*
X101779854Y-107026711D01*
X101784838Y-106957019D01*
X101813343Y-106912668D01*
X101822968Y-106903044D01*
X101912003Y-106758697D01*
X101965349Y-106597708D01*
X101975500Y-106498345D01*
X101975499Y-105951656D01*
X101971570Y-105913192D01*
X101984340Y-105844500D01*
X102032221Y-105793615D01*
X102100010Y-105776695D01*
X102166187Y-105799111D01*
X102182609Y-105812910D01*
X102900305Y-106530606D01*
X102994394Y-106624695D01*
X102994397Y-106624697D01*
X102994398Y-106624698D01*
X103105020Y-106698613D01*
X103105023Y-106698614D01*
X103105031Y-106698620D01*
X103200833Y-106738302D01*
X103200836Y-106738303D01*
X103200837Y-106738304D01*
X103227959Y-106749538D01*
X103227964Y-106749540D01*
X103227968Y-106749540D01*
X103227969Y-106749541D01*
X103358466Y-106775500D01*
X103358469Y-106775500D01*
X103491531Y-106775500D01*
X105369139Y-106775500D01*
X105436178Y-106795185D01*
X105469455Y-106826612D01*
X105524983Y-106903040D01*
X105531758Y-106912365D01*
X105687636Y-107068243D01*
X105687641Y-107068247D01*
X105727590Y-107097271D01*
X105865978Y-107197815D01*
X105994375Y-107263237D01*
X106062393Y-107297895D01*
X106062396Y-107297896D01*
X106167221Y-107331955D01*
X106272049Y-107366015D01*
X106489778Y-107400500D01*
X106489779Y-107400500D01*
X106710221Y-107400500D01*
X106710222Y-107400500D01*
X106927951Y-107366015D01*
X107137606Y-107297895D01*
X107334022Y-107197815D01*
X107512365Y-107068242D01*
X107668242Y-106912365D01*
X107797815Y-106734022D01*
X107897895Y-106537606D01*
X107966015Y-106327951D01*
X108000500Y-106110222D01*
X108000500Y-105889778D01*
X107966015Y-105672049D01*
X107931955Y-105567221D01*
X107897896Y-105462396D01*
X107897895Y-105462393D01*
X107860081Y-105388181D01*
X107797815Y-105265978D01*
X107751685Y-105202485D01*
X107668247Y-105087641D01*
X107668243Y-105087636D01*
X107512363Y-104931756D01*
X107512358Y-104931752D01*
X107334025Y-104802187D01*
X107334024Y-104802186D01*
X107334022Y-104802185D01*
X107263983Y-104766498D01*
X107137606Y-104702104D01*
X107137603Y-104702103D01*
X106927952Y-104633985D01*
X106819086Y-104616742D01*
X106710222Y-104599500D01*
X106489778Y-104599500D01*
X106417201Y-104610995D01*
X106272047Y-104633985D01*
X106062396Y-104702103D01*
X106062393Y-104702104D01*
X105865974Y-104802187D01*
X105687641Y-104931752D01*
X105687636Y-104931756D01*
X105531756Y-105087636D01*
X105531752Y-105087641D01*
X105402187Y-105265974D01*
X105355911Y-105356795D01*
X105307936Y-105407591D01*
X105245426Y-105424500D01*
X103756163Y-105424500D01*
X103689124Y-105404815D01*
X103668482Y-105388181D01*
X102885385Y-104605084D01*
X102851900Y-104543761D01*
X102856884Y-104474069D01*
X102898756Y-104418136D01*
X102907969Y-104411865D01*
X103052728Y-104322575D01*
X103052732Y-104322572D01*
X103172572Y-104202732D01*
X103172575Y-104202728D01*
X103261542Y-104058492D01*
X103261547Y-104058481D01*
X103314855Y-103897606D01*
X103324999Y-103798322D01*
X103325000Y-103798309D01*
X103325000Y-103750000D01*
X102499000Y-103750000D01*
X102431961Y-103730315D01*
X102386206Y-103677511D01*
X102375000Y-103626000D01*
X102375000Y-103374000D01*
X102394685Y-103306961D01*
X102447489Y-103261206D01*
X102499000Y-103250000D01*
X103324999Y-103250000D01*
X103324999Y-103201692D01*
X103324998Y-103201677D01*
X103314855Y-103102392D01*
X103261547Y-102941518D01*
X103261544Y-102941512D01*
X103244943Y-102914598D01*
X103226502Y-102847206D01*
X103247423Y-102780542D01*
X103301065Y-102735772D01*
X103350481Y-102725500D01*
X105332812Y-102725500D01*
X105399851Y-102745185D01*
X105433129Y-102776613D01*
X105503034Y-102872829D01*
X105531758Y-102912365D01*
X105687636Y-103068243D01*
X105687641Y-103068247D01*
X105843192Y-103181260D01*
X105865978Y-103197815D01*
X105968396Y-103250000D01*
X106062393Y-103297895D01*
X106062396Y-103297896D01*
X106167221Y-103331955D01*
X106272049Y-103366015D01*
X106489778Y-103400500D01*
X106489779Y-103400500D01*
X106710221Y-103400500D01*
X106710222Y-103400500D01*
X106927951Y-103366015D01*
X107137606Y-103297895D01*
X107334022Y-103197815D01*
X107512365Y-103068242D01*
X107668242Y-102912365D01*
X107797815Y-102734022D01*
X107897895Y-102537606D01*
X107966015Y-102327951D01*
X108000500Y-102110222D01*
X108000500Y-101889778D01*
X107966015Y-101672049D01*
X107931955Y-101567221D01*
X107897896Y-101462396D01*
X107897895Y-101462393D01*
X107843402Y-101355447D01*
X107797815Y-101265978D01*
X107745230Y-101193600D01*
X107668247Y-101087641D01*
X107668243Y-101087636D01*
X107512363Y-100931756D01*
X107512358Y-100931752D01*
X107334025Y-100802187D01*
X107334024Y-100802186D01*
X107334022Y-100802185D01*
X107214958Y-100741518D01*
X107137606Y-100702104D01*
X107137603Y-100702103D01*
X106927952Y-100633985D01*
X106819086Y-100616742D01*
X106710222Y-100599500D01*
X106489778Y-100599500D01*
X106417201Y-100610995D01*
X106272047Y-100633985D01*
X106062396Y-100702103D01*
X106062393Y-100702104D01*
X105865974Y-100802187D01*
X105687641Y-100931752D01*
X105687636Y-100931756D01*
X105531756Y-101087636D01*
X105531752Y-101087641D01*
X105402187Y-101265974D01*
X105402185Y-101265978D01*
X105330433Y-101406796D01*
X105282460Y-101457591D01*
X105219950Y-101474500D01*
X102605277Y-101474500D01*
X102587133Y-101469172D01*
X102568224Y-101468835D01*
X102540009Y-101455335D01*
X102538238Y-101454815D01*
X102536387Y-101453602D01*
X102490610Y-101423015D01*
X102490609Y-101423015D01*
X102439386Y-101388788D01*
X102439383Y-101388786D01*
X102439380Y-101388785D01*
X102359287Y-101355610D01*
X102359209Y-101355578D01*
X102358892Y-101355447D01*
X102325552Y-101341637D01*
X102324275Y-101341383D01*
X102317717Y-101338718D01*
X102294624Y-101320363D01*
X102269949Y-101304186D01*
X102267578Y-101298867D01*
X102263020Y-101295244D01*
X102253517Y-101267318D01*
X102241505Y-101240368D01*
X102240809Y-101229976D01*
X102240511Y-101229099D01*
X102240699Y-101228337D01*
X102240399Y-101223841D01*
X102240399Y-100714432D01*
X102260084Y-100647393D01*
X102312888Y-100601638D01*
X102316929Y-100599878D01*
X102319969Y-100598620D01*
X102430606Y-100524695D01*
X102441379Y-100513922D01*
X102502701Y-100480435D01*
X102572393Y-100485417D01*
X102628328Y-100527286D01*
X102652747Y-100592750D01*
X102637897Y-100661023D01*
X102634602Y-100666697D01*
X102588454Y-100741513D01*
X102588452Y-100741518D01*
X102535144Y-100902393D01*
X102525000Y-101001677D01*
X102525000Y-101025000D01*
X104474999Y-101025000D01*
X104474999Y-101001692D01*
X104474998Y-101001677D01*
X104464855Y-100902392D01*
X104411547Y-100741518D01*
X104411542Y-100741507D01*
X104318782Y-100591121D01*
X104321116Y-100589681D01*
X104299708Y-100536612D01*
X104312750Y-100467971D01*
X104360832Y-100417277D01*
X104423115Y-100400500D01*
X104941532Y-100400500D01*
X104941533Y-100400499D01*
X105072036Y-100374541D01*
X105194969Y-100323620D01*
X105305606Y-100249695D01*
X106156206Y-99399093D01*
X106217527Y-99365610D01*
X106267095Y-99366144D01*
X106267237Y-99365253D01*
X106272863Y-99366144D01*
X106489778Y-99400500D01*
X106489779Y-99400500D01*
X106710221Y-99400500D01*
X106710222Y-99400500D01*
X106927951Y-99366015D01*
X107137606Y-99297895D01*
X107334022Y-99197815D01*
X107512365Y-99068242D01*
X107668242Y-98912365D01*
X107797815Y-98734022D01*
X107897895Y-98537606D01*
X107966015Y-98327951D01*
X108000500Y-98110222D01*
X108000500Y-97889778D01*
X107966015Y-97672049D01*
X107897895Y-97462394D01*
X107897895Y-97462393D01*
X107863237Y-97394375D01*
X107797815Y-97265978D01*
X107718209Y-97156409D01*
X107668247Y-97087641D01*
X107668243Y-97087636D01*
X107512363Y-96931756D01*
X107512358Y-96931752D01*
X107334025Y-96802187D01*
X107334024Y-96802186D01*
X107334022Y-96802185D01*
X107271096Y-96770122D01*
X107137606Y-96702104D01*
X107137603Y-96702103D01*
X106927952Y-96633985D01*
X106819086Y-96616742D01*
X106710222Y-96599500D01*
X106489778Y-96599500D01*
X106417201Y-96610995D01*
X106272047Y-96633985D01*
X106062396Y-96702103D01*
X106062393Y-96702104D01*
X105865974Y-96802187D01*
X105687641Y-96931752D01*
X105687636Y-96931756D01*
X105531756Y-97087636D01*
X105531752Y-97087641D01*
X105402187Y-97265974D01*
X105302104Y-97462393D01*
X105302103Y-97462396D01*
X105233985Y-97672047D01*
X105199500Y-97889778D01*
X105199500Y-98110221D01*
X105234747Y-98332763D01*
X105233511Y-98332958D01*
X105230298Y-98396970D01*
X105200903Y-98443794D01*
X104631518Y-99013181D01*
X104604590Y-99027884D01*
X104578772Y-99044477D01*
X104572571Y-99045368D01*
X104570195Y-99046666D01*
X104543837Y-99049500D01*
X104376874Y-99049500D01*
X104309835Y-99029815D01*
X104289193Y-99013181D01*
X104203044Y-98927032D01*
X104203040Y-98927029D01*
X104058705Y-98838001D01*
X104058699Y-98837998D01*
X104058697Y-98837997D01*
X103963343Y-98806400D01*
X103897709Y-98784651D01*
X103798346Y-98774500D01*
X103201662Y-98774500D01*
X103201641Y-98774502D01*
X103116144Y-98783235D01*
X103111087Y-98782294D01*
X103106183Y-98783849D01*
X103077086Y-98775974D01*
X103047451Y-98770465D01*
X103043704Y-98766939D01*
X103038740Y-98765596D01*
X103018521Y-98743241D01*
X102996568Y-98722583D01*
X102995322Y-98717591D01*
X102991872Y-98713777D01*
X102986948Y-98684041D01*
X102979648Y-98654793D01*
X102981298Y-98649921D01*
X102980458Y-98644846D01*
X102992394Y-98617163D01*
X103002065Y-98588617D01*
X103006637Y-98584133D01*
X103008124Y-98580687D01*
X103033256Y-98558034D01*
X103034300Y-98557012D01*
X103034336Y-98556987D01*
X103055633Y-98542758D01*
X103055957Y-98542432D01*
X103056355Y-98542165D01*
X103056468Y-98542072D01*
X103056477Y-98542062D01*
X103056481Y-98542060D01*
X103099341Y-98499049D01*
X103142758Y-98455633D01*
X103142760Y-98455630D01*
X103146095Y-98452295D01*
X103147706Y-98450513D01*
X106104806Y-95483064D01*
X106166068Y-95449474D01*
X106230958Y-95452664D01*
X106272041Y-95466013D01*
X106272044Y-95466013D01*
X106272049Y-95466015D01*
X106489778Y-95500500D01*
X106489779Y-95500500D01*
X106710221Y-95500500D01*
X106710222Y-95500500D01*
X106927951Y-95466015D01*
X107137606Y-95397895D01*
X107334022Y-95297815D01*
X107512365Y-95168242D01*
X107668242Y-95012365D01*
X107797815Y-94834022D01*
X107897895Y-94637606D01*
X107966015Y-94427951D01*
X108000500Y-94210222D01*
X108000500Y-93989778D01*
X107966015Y-93772049D01*
X107897895Y-93562394D01*
X107897895Y-93562393D01*
X107863237Y-93494375D01*
X107797815Y-93365978D01*
X107781260Y-93343192D01*
X107668247Y-93187641D01*
X107668243Y-93187636D01*
X107512363Y-93031756D01*
X107512358Y-93031752D01*
X107334025Y-92902187D01*
X107334024Y-92902186D01*
X107334022Y-92902185D01*
X107271096Y-92870122D01*
X107137606Y-92802104D01*
X107137603Y-92802103D01*
X107107833Y-92792431D01*
X107050158Y-92752994D01*
X107022959Y-92688636D01*
X107034873Y-92619789D01*
X107082117Y-92568313D01*
X107146151Y-92550500D01*
X109575500Y-92550500D01*
X109642539Y-92570185D01*
X109688294Y-92622989D01*
X109699500Y-92674500D01*
X109699500Y-108825500D01*
X109679815Y-108892539D01*
X109627011Y-108938294D01*
X109575500Y-108949500D01*
X101457923Y-108949500D01*
X101390884Y-108929815D01*
X101345129Y-108877011D01*
X101335185Y-108807853D01*
X101364210Y-108744297D01*
X101418919Y-108707794D01*
X101558481Y-108661547D01*
X101558492Y-108661542D01*
X101702728Y-108572575D01*
X101702732Y-108572572D01*
X101822572Y-108452732D01*
X101822575Y-108452728D01*
X101911542Y-108308492D01*
X101911547Y-108308481D01*
X101964855Y-108147606D01*
X101974999Y-108048322D01*
X101975000Y-108048309D01*
X101975000Y-108025000D01*
X97025001Y-108025000D01*
X97025001Y-108048322D01*
X97035144Y-108147607D01*
X97088452Y-108308481D01*
X97088457Y-108308492D01*
X97177424Y-108452728D01*
X97177427Y-108452732D01*
X97297267Y-108572572D01*
X97297271Y-108572575D01*
X97441507Y-108661542D01*
X97441518Y-108661547D01*
X97581081Y-108707794D01*
X97638526Y-108747567D01*
X97665349Y-108812083D01*
X97653034Y-108880858D01*
X97605491Y-108932058D01*
X97542077Y-108949500D01*
X92174500Y-108949500D01*
X92107461Y-108929815D01*
X92061706Y-108877011D01*
X92050500Y-108825500D01*
X92050500Y-105889818D01*
X92600000Y-105889818D01*
X92600000Y-106110181D01*
X92634473Y-106327835D01*
X92702567Y-106537410D01*
X92802611Y-106733756D01*
X92848932Y-106797513D01*
X93557861Y-106088584D01*
X93580667Y-106173694D01*
X93639910Y-106276306D01*
X93723694Y-106360090D01*
X93826306Y-106419333D01*
X93911414Y-106442137D01*
X93202485Y-107151065D01*
X93202485Y-107151066D01*
X93266243Y-107197388D01*
X93462589Y-107297432D01*
X93672164Y-107365526D01*
X93889819Y-107400000D01*
X94110181Y-107400000D01*
X94327835Y-107365526D01*
X94537410Y-107297432D01*
X94733760Y-107197386D01*
X94797513Y-107151066D01*
X94797514Y-107151066D01*
X94088585Y-106442138D01*
X94173694Y-106419333D01*
X94276306Y-106360090D01*
X94360090Y-106276306D01*
X94419333Y-106173694D01*
X94442137Y-106088585D01*
X95151066Y-106797514D01*
X95151066Y-106797513D01*
X95197386Y-106733760D01*
X95297432Y-106537410D01*
X95365526Y-106327835D01*
X95400000Y-106110181D01*
X95400000Y-105889818D01*
X95365526Y-105672164D01*
X95297432Y-105462589D01*
X95197388Y-105266243D01*
X95151066Y-105202485D01*
X95151065Y-105202485D01*
X94442137Y-105911413D01*
X94419333Y-105826306D01*
X94360090Y-105723694D01*
X94276306Y-105639910D01*
X94173694Y-105580667D01*
X94088583Y-105557861D01*
X94797513Y-104848932D01*
X94733756Y-104802611D01*
X94537410Y-104702567D01*
X94327835Y-104634473D01*
X94110181Y-104600000D01*
X93889819Y-104600000D01*
X93672164Y-104634473D01*
X93462589Y-104702567D01*
X93266233Y-104802616D01*
X93202485Y-104848931D01*
X93202485Y-104848932D01*
X93911414Y-105557861D01*
X93826306Y-105580667D01*
X93723694Y-105639910D01*
X93639910Y-105723694D01*
X93580667Y-105826306D01*
X93557861Y-105911414D01*
X92848932Y-105202485D01*
X92848931Y-105202485D01*
X92802616Y-105266233D01*
X92702567Y-105462589D01*
X92634473Y-105672164D01*
X92600000Y-105889818D01*
X92050500Y-105889818D01*
X92050500Y-94451677D01*
X99275000Y-94451677D01*
X99275000Y-94475000D01*
X100000000Y-94475000D01*
X100500000Y-94475000D01*
X101224999Y-94475000D01*
X101224999Y-94451692D01*
X101224998Y-94451677D01*
X101214855Y-94352392D01*
X101161547Y-94191518D01*
X101161542Y-94191507D01*
X101072575Y-94047271D01*
X101072572Y-94047267D01*
X100952732Y-93927427D01*
X100952728Y-93927424D01*
X100808492Y-93838457D01*
X100808481Y-93838452D01*
X100647606Y-93785144D01*
X100548322Y-93775000D01*
X100500000Y-93775000D01*
X100500000Y-94475000D01*
X100000000Y-94475000D01*
X100000000Y-93775000D01*
X99999999Y-93774999D01*
X99951693Y-93775000D01*
X99951675Y-93775001D01*
X99852392Y-93785144D01*
X99691518Y-93838452D01*
X99691507Y-93838457D01*
X99547271Y-93927424D01*
X99547267Y-93927427D01*
X99427427Y-94047267D01*
X99427424Y-94047271D01*
X99338457Y-94191507D01*
X99338452Y-94191518D01*
X99285144Y-94352393D01*
X99275000Y-94451677D01*
X92050500Y-94451677D01*
X92050500Y-92674500D01*
X92070185Y-92607461D01*
X92122989Y-92561706D01*
X92174500Y-92550500D01*
X106053849Y-92550500D01*
X106120888Y-92570185D01*
G37*
%TD.AperFunction*%
%TD*%
D21*
X99041900Y-96158100D03*
X96500000Y-107775000D03*
X99000000Y-94725000D03*
X101800000Y-96200000D03*
X103575000Y-103500000D03*
X104700000Y-101275000D03*
X98000000Y-96200000D03*
X98000000Y-105000000D03*
D22*
X106600000Y-94100000D03*
X106600000Y-102000000D03*
X94000000Y-102000000D03*
X94000000Y-106000000D03*
X106600000Y-106000000D03*
X94000000Y-98000000D03*
X106600000Y-98000000D03*
M02*
