%TF.GenerationSoftware,KiCad,Pcbnew,10.0.1*%
%TF.CreationDate,2026-05-30T01:01:22+02:00*%
%TF.ProjectId,LTC6373_Daughterboard,4c544336-3337-4335-9f44-617567687465,rev?*%
%TF.SameCoordinates,Original*%
%TF.FileFunction,Paste,Top*%
%TF.FilePolarity,Positive*%
%FSLAX46Y46*%
G04 Gerber Fmt 4.6, Leading zero omitted, Abs format (unit mm)*
G04 Created by KiCad (PCBNEW 10.0.1) date 2026-05-30 01:01:22*
%MOMM*%
%LPD*%
G01*
G04 APERTURE LIST*
G04 Aperture macros list*
%AMRoundRect*
0 Rectangle with rounded corners*
0 $1 Rounding radius*
0 $2 $3 $4 $5 $6 $7 $8 $9 X,Y pos of 4 corners*
0 Add a 4 corners polygon primitive as box body*
4,1,4,$2,$3,$4,$5,$6,$7,$8,$9,$2,$3,0*
0 Add four circle primitives for the rounded corners*
1,1,$1+$1,$2,$3*
1,1,$1+$1,$4,$5*
1,1,$1+$1,$6,$7*
1,1,$1+$1,$8,$9*
0 Add four rect primitives between the rounded corners*
20,1,$1+$1,$2,$3,$4,$5,0*
20,1,$1+$1,$4,$5,$6,$7,0*
20,1,$1+$1,$6,$7,$8,$9,0*
20,1,$1+$1,$8,$9,$2,$3,0*%
G04 Aperture macros list end*
%ADD10C,0.000000*%
%ADD11RoundRect,0.225000X-0.250000X0.225000X-0.250000X-0.225000X0.250000X-0.225000X0.250000X0.225000X0*%
%ADD12RoundRect,0.225000X0.225000X0.250000X-0.225000X0.250000X-0.225000X-0.250000X0.225000X-0.250000X0*%
%ADD13R,0.254000X0.812800*%
%ADD14R,3.479800X2.673200*%
%ADD15RoundRect,0.225000X0.250000X-0.225000X0.250000X0.225000X-0.250000X0.225000X-0.250000X-0.225000X0*%
%ADD16C,0.350000*%
G04 APERTURE END LIST*
D10*
%TO.C,U1*%
G36*
X99900000Y-99900000D02*
G01*
X98360100Y-99900000D01*
X98360100Y-98728400D01*
X99900000Y-98728400D01*
X99900000Y-99900000D01*
G37*
G36*
X99900000Y-101271600D02*
G01*
X98360100Y-101271600D01*
X98360100Y-100100000D01*
X99900000Y-100100000D01*
X99900000Y-101271600D01*
G37*
G36*
X101639900Y-99900000D02*
G01*
X100100000Y-99900000D01*
X100100000Y-98728400D01*
X101639900Y-98728400D01*
X101639900Y-99900000D01*
G37*
G36*
X101639900Y-101271600D02*
G01*
X100100000Y-101271600D01*
X100100000Y-100100000D01*
X101639900Y-100100000D01*
X101639900Y-101271600D01*
G37*
%TD*%
D11*
%TO.C,C5*%
X101000000Y-106225000D03*
X101000000Y-107775000D03*
%TD*%
D12*
%TO.C,C2*%
X102375000Y-103500000D03*
X100825000Y-103500000D03*
%TD*%
D13*
%TO.C,U1*%
X98750000Y-101943100D03*
X99249999Y-101943100D03*
X99750000Y-101943100D03*
X100250000Y-101943100D03*
X100750001Y-101943100D03*
X101250000Y-101943100D03*
X101250000Y-98056900D03*
X100750001Y-98056900D03*
X100250000Y-98056900D03*
X99750000Y-98056900D03*
X99249999Y-98056900D03*
X98750000Y-98056900D03*
D14*
X100000000Y-100000000D03*
%TD*%
D15*
%TO.C,C1*%
X100250000Y-96275000D03*
X100250000Y-94725000D03*
%TD*%
%TO.C,C3*%
X103500000Y-101275000D03*
X103500000Y-99725000D03*
%TD*%
D11*
%TO.C,C6*%
X98000000Y-106225000D03*
X98000000Y-107775000D03*
%TD*%
%TO.C,C4*%
X99500000Y-106225000D03*
X99500000Y-107775000D03*
%TD*%
D16*
X106600000Y-94100000D03*
X106600000Y-102000000D03*
X94000000Y-102000000D03*
X94000000Y-106000000D03*
X106600000Y-106000000D03*
X94000000Y-98000000D03*
X106600000Y-98000000D03*
M02*
