%TF.GenerationSoftware,KiCad,Pcbnew,10.0.1*%
%TF.CreationDate,2026-05-30T01:01:22+02:00*%
%TF.ProjectId,LTC6373_Daughterboard,4c544336-3337-4335-9f44-617567687465,rev?*%
%TF.SameCoordinates,Original*%
%TF.FileFunction,Legend,Top*%
%TF.FilePolarity,Positive*%
%FSLAX46Y46*%
G04 Gerber Fmt 4.6, Leading zero omitted, Abs format (unit mm)*
G04 Created by KiCad (PCBNEW 10.0.1) date 2026-05-30 01:01:22*
%MOMM*%
%LPD*%
G01*
G04 APERTURE LIST*
%ADD10C,0.150000*%
%ADD11C,0.120000*%
%ADD12C,0.152400*%
%ADD13C,0.350000*%
G04 APERTURE END LIST*
D10*
X104486104Y-107133332D02*
X104524200Y-107171428D01*
X104524200Y-107171428D02*
X104562295Y-107285713D01*
X104562295Y-107285713D02*
X104562295Y-107361904D01*
X104562295Y-107361904D02*
X104524200Y-107476190D01*
X104524200Y-107476190D02*
X104448009Y-107552380D01*
X104448009Y-107552380D02*
X104371819Y-107590475D01*
X104371819Y-107590475D02*
X104219438Y-107628571D01*
X104219438Y-107628571D02*
X104105152Y-107628571D01*
X104105152Y-107628571D02*
X103952771Y-107590475D01*
X103952771Y-107590475D02*
X103876580Y-107552380D01*
X103876580Y-107552380D02*
X103800390Y-107476190D01*
X103800390Y-107476190D02*
X103762295Y-107361904D01*
X103762295Y-107361904D02*
X103762295Y-107285713D01*
X103762295Y-107285713D02*
X103800390Y-107171428D01*
X103800390Y-107171428D02*
X103838485Y-107133332D01*
X103762295Y-106409523D02*
X103762295Y-106790475D01*
X103762295Y-106790475D02*
X104143247Y-106828571D01*
X104143247Y-106828571D02*
X104105152Y-106790475D01*
X104105152Y-106790475D02*
X104067057Y-106714285D01*
X104067057Y-106714285D02*
X104067057Y-106523809D01*
X104067057Y-106523809D02*
X104105152Y-106447618D01*
X104105152Y-106447618D02*
X104143247Y-106409523D01*
X104143247Y-106409523D02*
X104219438Y-106371428D01*
X104219438Y-106371428D02*
X104409914Y-106371428D01*
X104409914Y-106371428D02*
X104486104Y-106409523D01*
X104486104Y-106409523D02*
X104524200Y-106447618D01*
X104524200Y-106447618D02*
X104562295Y-106523809D01*
X104562295Y-106523809D02*
X104562295Y-106714285D01*
X104562295Y-106714285D02*
X104524200Y-106790475D01*
X104524200Y-106790475D02*
X104486104Y-106828571D01*
X109662295Y-94576190D02*
X109662295Y-94957142D01*
X109662295Y-94957142D02*
X108862295Y-94957142D01*
X108862295Y-94423809D02*
X108862295Y-93966666D01*
X109662295Y-94195238D02*
X108862295Y-94195238D01*
X109662295Y-93699999D02*
X108862295Y-93699999D01*
X108862295Y-93699999D02*
X109662295Y-93242856D01*
X109662295Y-93242856D02*
X108862295Y-93242856D01*
X101466667Y-104986104D02*
X101428571Y-105024200D01*
X101428571Y-105024200D02*
X101314286Y-105062295D01*
X101314286Y-105062295D02*
X101238095Y-105062295D01*
X101238095Y-105062295D02*
X101123809Y-105024200D01*
X101123809Y-105024200D02*
X101047619Y-104948009D01*
X101047619Y-104948009D02*
X101009524Y-104871819D01*
X101009524Y-104871819D02*
X100971428Y-104719438D01*
X100971428Y-104719438D02*
X100971428Y-104605152D01*
X100971428Y-104605152D02*
X101009524Y-104452771D01*
X101009524Y-104452771D02*
X101047619Y-104376580D01*
X101047619Y-104376580D02*
X101123809Y-104300390D01*
X101123809Y-104300390D02*
X101238095Y-104262295D01*
X101238095Y-104262295D02*
X101314286Y-104262295D01*
X101314286Y-104262295D02*
X101428571Y-104300390D01*
X101428571Y-104300390D02*
X101466667Y-104338485D01*
X101771428Y-104338485D02*
X101809524Y-104300390D01*
X101809524Y-104300390D02*
X101885714Y-104262295D01*
X101885714Y-104262295D02*
X102076190Y-104262295D01*
X102076190Y-104262295D02*
X102152381Y-104300390D01*
X102152381Y-104300390D02*
X102190476Y-104338485D01*
X102190476Y-104338485D02*
X102228571Y-104414676D01*
X102228571Y-104414676D02*
X102228571Y-104490866D01*
X102228571Y-104490866D02*
X102190476Y-104605152D01*
X102190476Y-104605152D02*
X101733333Y-105062295D01*
X101733333Y-105062295D02*
X102228571Y-105062295D01*
X109562295Y-102457142D02*
X109562295Y-102838094D01*
X109562295Y-102838094D02*
X108762295Y-102838094D01*
X108762295Y-102304761D02*
X108762295Y-101847618D01*
X109562295Y-102076190D02*
X108762295Y-102076190D01*
X109562295Y-101580951D02*
X108762295Y-101580951D01*
X108762295Y-101580951D02*
X108762295Y-101276189D01*
X108762295Y-101276189D02*
X108800390Y-101199999D01*
X108800390Y-101199999D02*
X108838485Y-101161904D01*
X108838485Y-101161904D02*
X108914676Y-101123808D01*
X108914676Y-101123808D02*
X109028961Y-101123808D01*
X109028961Y-101123808D02*
X109105152Y-101161904D01*
X109105152Y-101161904D02*
X109143247Y-101199999D01*
X109143247Y-101199999D02*
X109181342Y-101276189D01*
X109181342Y-101276189D02*
X109181342Y-101580951D01*
X97790476Y-96562295D02*
X97790476Y-97209914D01*
X97790476Y-97209914D02*
X97828571Y-97286104D01*
X97828571Y-97286104D02*
X97866666Y-97324200D01*
X97866666Y-97324200D02*
X97942857Y-97362295D01*
X97942857Y-97362295D02*
X98095238Y-97362295D01*
X98095238Y-97362295D02*
X98171428Y-97324200D01*
X98171428Y-97324200D02*
X98209523Y-97286104D01*
X98209523Y-97286104D02*
X98247619Y-97209914D01*
X98247619Y-97209914D02*
X98247619Y-96562295D01*
X99047618Y-97362295D02*
X98590475Y-97362295D01*
X98819047Y-97362295D02*
X98819047Y-96562295D01*
X98819047Y-96562295D02*
X98742856Y-96676580D01*
X98742856Y-96676580D02*
X98666666Y-96752771D01*
X98666666Y-96752771D02*
X98590475Y-96790866D01*
X101686104Y-95633332D02*
X101724200Y-95671428D01*
X101724200Y-95671428D02*
X101762295Y-95785713D01*
X101762295Y-95785713D02*
X101762295Y-95861904D01*
X101762295Y-95861904D02*
X101724200Y-95976190D01*
X101724200Y-95976190D02*
X101648009Y-96052380D01*
X101648009Y-96052380D02*
X101571819Y-96090475D01*
X101571819Y-96090475D02*
X101419438Y-96128571D01*
X101419438Y-96128571D02*
X101305152Y-96128571D01*
X101305152Y-96128571D02*
X101152771Y-96090475D01*
X101152771Y-96090475D02*
X101076580Y-96052380D01*
X101076580Y-96052380D02*
X101000390Y-95976190D01*
X101000390Y-95976190D02*
X100962295Y-95861904D01*
X100962295Y-95861904D02*
X100962295Y-95785713D01*
X100962295Y-95785713D02*
X101000390Y-95671428D01*
X101000390Y-95671428D02*
X101038485Y-95633332D01*
X101762295Y-94871428D02*
X101762295Y-95328571D01*
X101762295Y-95099999D02*
X100962295Y-95099999D01*
X100962295Y-95099999D02*
X101076580Y-95176190D01*
X101076580Y-95176190D02*
X101152771Y-95252380D01*
X101152771Y-95252380D02*
X101190866Y-95328571D01*
X96862295Y-103257141D02*
X96062295Y-103257141D01*
X96862295Y-102876189D02*
X96062295Y-102876189D01*
X96062295Y-102876189D02*
X96862295Y-102419046D01*
X96862295Y-102419046D02*
X96062295Y-102419046D01*
X96633723Y-102076190D02*
X96633723Y-101695237D01*
X96862295Y-102152380D02*
X96062295Y-101885713D01*
X96062295Y-101885713D02*
X96862295Y-101619047D01*
X96557533Y-101352380D02*
X96557533Y-100742857D01*
X96100390Y-106952380D02*
X96062295Y-107028570D01*
X96062295Y-107028570D02*
X96062295Y-107142856D01*
X96062295Y-107142856D02*
X96100390Y-107257142D01*
X96100390Y-107257142D02*
X96176580Y-107333332D01*
X96176580Y-107333332D02*
X96252771Y-107371427D01*
X96252771Y-107371427D02*
X96405152Y-107409523D01*
X96405152Y-107409523D02*
X96519438Y-107409523D01*
X96519438Y-107409523D02*
X96671819Y-107371427D01*
X96671819Y-107371427D02*
X96748009Y-107333332D01*
X96748009Y-107333332D02*
X96824200Y-107257142D01*
X96824200Y-107257142D02*
X96862295Y-107142856D01*
X96862295Y-107142856D02*
X96862295Y-107066665D01*
X96862295Y-107066665D02*
X96824200Y-106952380D01*
X96824200Y-106952380D02*
X96786104Y-106914284D01*
X96786104Y-106914284D02*
X96519438Y-106914284D01*
X96519438Y-106914284D02*
X96519438Y-107066665D01*
X96862295Y-106571427D02*
X96062295Y-106571427D01*
X96062295Y-106571427D02*
X96862295Y-106114284D01*
X96862295Y-106114284D02*
X96062295Y-106114284D01*
X96862295Y-105733332D02*
X96062295Y-105733332D01*
X96062295Y-105733332D02*
X96062295Y-105542856D01*
X96062295Y-105542856D02*
X96100390Y-105428570D01*
X96100390Y-105428570D02*
X96176580Y-105352380D01*
X96176580Y-105352380D02*
X96252771Y-105314285D01*
X96252771Y-105314285D02*
X96405152Y-105276189D01*
X96405152Y-105276189D02*
X96519438Y-105276189D01*
X96519438Y-105276189D02*
X96671819Y-105314285D01*
X96671819Y-105314285D02*
X96748009Y-105352380D01*
X96748009Y-105352380D02*
X96824200Y-105428570D01*
X96824200Y-105428570D02*
X96862295Y-105542856D01*
X96862295Y-105542856D02*
X96862295Y-105733332D01*
X96633723Y-104971428D02*
X96633723Y-104590475D01*
X96862295Y-105047618D02*
X96062295Y-104780951D01*
X96062295Y-104780951D02*
X96862295Y-104514285D01*
X109357533Y-107028570D02*
X109357533Y-106419047D01*
X109662295Y-106723808D02*
X109052771Y-106723808D01*
X108862295Y-105657142D02*
X108862295Y-106038094D01*
X108862295Y-106038094D02*
X109243247Y-106076190D01*
X109243247Y-106076190D02*
X109205152Y-106038094D01*
X109205152Y-106038094D02*
X109167057Y-105961904D01*
X109167057Y-105961904D02*
X109167057Y-105771428D01*
X109167057Y-105771428D02*
X109205152Y-105695237D01*
X109205152Y-105695237D02*
X109243247Y-105657142D01*
X109243247Y-105657142D02*
X109319438Y-105619047D01*
X109319438Y-105619047D02*
X109509914Y-105619047D01*
X109509914Y-105619047D02*
X109586104Y-105657142D01*
X109586104Y-105657142D02*
X109624200Y-105695237D01*
X109624200Y-105695237D02*
X109662295Y-105771428D01*
X109662295Y-105771428D02*
X109662295Y-105961904D01*
X109662295Y-105961904D02*
X109624200Y-106038094D01*
X109624200Y-106038094D02*
X109586104Y-106076190D01*
X108862295Y-105390475D02*
X109662295Y-105123808D01*
X109662295Y-105123808D02*
X108862295Y-104857142D01*
X103786104Y-98433332D02*
X103824200Y-98471428D01*
X103824200Y-98471428D02*
X103862295Y-98585713D01*
X103862295Y-98585713D02*
X103862295Y-98661904D01*
X103862295Y-98661904D02*
X103824200Y-98776190D01*
X103824200Y-98776190D02*
X103748009Y-98852380D01*
X103748009Y-98852380D02*
X103671819Y-98890475D01*
X103671819Y-98890475D02*
X103519438Y-98928571D01*
X103519438Y-98928571D02*
X103405152Y-98928571D01*
X103405152Y-98928571D02*
X103252771Y-98890475D01*
X103252771Y-98890475D02*
X103176580Y-98852380D01*
X103176580Y-98852380D02*
X103100390Y-98776190D01*
X103100390Y-98776190D02*
X103062295Y-98661904D01*
X103062295Y-98661904D02*
X103062295Y-98585713D01*
X103062295Y-98585713D02*
X103100390Y-98471428D01*
X103100390Y-98471428D02*
X103138485Y-98433332D01*
X103062295Y-98166666D02*
X103062295Y-97671428D01*
X103062295Y-97671428D02*
X103367057Y-97938094D01*
X103367057Y-97938094D02*
X103367057Y-97823809D01*
X103367057Y-97823809D02*
X103405152Y-97747618D01*
X103405152Y-97747618D02*
X103443247Y-97709523D01*
X103443247Y-97709523D02*
X103519438Y-97671428D01*
X103519438Y-97671428D02*
X103709914Y-97671428D01*
X103709914Y-97671428D02*
X103786104Y-97709523D01*
X103786104Y-97709523D02*
X103824200Y-97747618D01*
X103824200Y-97747618D02*
X103862295Y-97823809D01*
X103862295Y-97823809D02*
X103862295Y-98052380D01*
X103862295Y-98052380D02*
X103824200Y-98128571D01*
X103824200Y-98128571D02*
X103786104Y-98166666D01*
X96862295Y-99257141D02*
X96062295Y-99257141D01*
X96862295Y-98876189D02*
X96062295Y-98876189D01*
X96062295Y-98876189D02*
X96862295Y-98419046D01*
X96862295Y-98419046D02*
X96062295Y-98419046D01*
X96633723Y-98076190D02*
X96633723Y-97695237D01*
X96862295Y-98152380D02*
X96062295Y-97885713D01*
X96062295Y-97885713D02*
X96862295Y-97619047D01*
X96557533Y-97352380D02*
X96557533Y-96742857D01*
X96862295Y-97047618D02*
X96252771Y-97047618D01*
X109257533Y-99028570D02*
X109257533Y-98419047D01*
X108762295Y-97657142D02*
X108762295Y-98038094D01*
X108762295Y-98038094D02*
X109143247Y-98076190D01*
X109143247Y-98076190D02*
X109105152Y-98038094D01*
X109105152Y-98038094D02*
X109067057Y-97961904D01*
X109067057Y-97961904D02*
X109067057Y-97771428D01*
X109067057Y-97771428D02*
X109105152Y-97695237D01*
X109105152Y-97695237D02*
X109143247Y-97657142D01*
X109143247Y-97657142D02*
X109219438Y-97619047D01*
X109219438Y-97619047D02*
X109409914Y-97619047D01*
X109409914Y-97619047D02*
X109486104Y-97657142D01*
X109486104Y-97657142D02*
X109524200Y-97695237D01*
X109524200Y-97695237D02*
X109562295Y-97771428D01*
X109562295Y-97771428D02*
X109562295Y-97961904D01*
X109562295Y-97961904D02*
X109524200Y-98038094D01*
X109524200Y-98038094D02*
X109486104Y-98076190D01*
X108762295Y-97390475D02*
X109562295Y-97123808D01*
X109562295Y-97123808D02*
X108762295Y-96857142D01*
X102386104Y-107133332D02*
X102424200Y-107171428D01*
X102424200Y-107171428D02*
X102462295Y-107285713D01*
X102462295Y-107285713D02*
X102462295Y-107361904D01*
X102462295Y-107361904D02*
X102424200Y-107476190D01*
X102424200Y-107476190D02*
X102348009Y-107552380D01*
X102348009Y-107552380D02*
X102271819Y-107590475D01*
X102271819Y-107590475D02*
X102119438Y-107628571D01*
X102119438Y-107628571D02*
X102005152Y-107628571D01*
X102005152Y-107628571D02*
X101852771Y-107590475D01*
X101852771Y-107590475D02*
X101776580Y-107552380D01*
X101776580Y-107552380D02*
X101700390Y-107476190D01*
X101700390Y-107476190D02*
X101662295Y-107361904D01*
X101662295Y-107361904D02*
X101662295Y-107285713D01*
X101662295Y-107285713D02*
X101700390Y-107171428D01*
X101700390Y-107171428D02*
X101738485Y-107133332D01*
X101662295Y-106447618D02*
X101662295Y-106599999D01*
X101662295Y-106599999D02*
X101700390Y-106676190D01*
X101700390Y-106676190D02*
X101738485Y-106714285D01*
X101738485Y-106714285D02*
X101852771Y-106790475D01*
X101852771Y-106790475D02*
X102005152Y-106828571D01*
X102005152Y-106828571D02*
X102309914Y-106828571D01*
X102309914Y-106828571D02*
X102386104Y-106790475D01*
X102386104Y-106790475D02*
X102424200Y-106752380D01*
X102424200Y-106752380D02*
X102462295Y-106676190D01*
X102462295Y-106676190D02*
X102462295Y-106523809D01*
X102462295Y-106523809D02*
X102424200Y-106447618D01*
X102424200Y-106447618D02*
X102386104Y-106409523D01*
X102386104Y-106409523D02*
X102309914Y-106371428D01*
X102309914Y-106371428D02*
X102119438Y-106371428D01*
X102119438Y-106371428D02*
X102043247Y-106409523D01*
X102043247Y-106409523D02*
X102005152Y-106447618D01*
X102005152Y-106447618D02*
X101967057Y-106523809D01*
X101967057Y-106523809D02*
X101967057Y-106676190D01*
X101967057Y-106676190D02*
X102005152Y-106752380D01*
X102005152Y-106752380D02*
X102043247Y-106790475D01*
X102043247Y-106790475D02*
X102119438Y-106828571D01*
X103486104Y-107133332D02*
X103524200Y-107171428D01*
X103524200Y-107171428D02*
X103562295Y-107285713D01*
X103562295Y-107285713D02*
X103562295Y-107361904D01*
X103562295Y-107361904D02*
X103524200Y-107476190D01*
X103524200Y-107476190D02*
X103448009Y-107552380D01*
X103448009Y-107552380D02*
X103371819Y-107590475D01*
X103371819Y-107590475D02*
X103219438Y-107628571D01*
X103219438Y-107628571D02*
X103105152Y-107628571D01*
X103105152Y-107628571D02*
X102952771Y-107590475D01*
X102952771Y-107590475D02*
X102876580Y-107552380D01*
X102876580Y-107552380D02*
X102800390Y-107476190D01*
X102800390Y-107476190D02*
X102762295Y-107361904D01*
X102762295Y-107361904D02*
X102762295Y-107285713D01*
X102762295Y-107285713D02*
X102800390Y-107171428D01*
X102800390Y-107171428D02*
X102838485Y-107133332D01*
X103028961Y-106447618D02*
X103562295Y-106447618D01*
X102724200Y-106638094D02*
X103295628Y-106828571D01*
X103295628Y-106828571D02*
X103295628Y-106333332D01*
%TO.C,C5*%
D11*
X100490000Y-106859420D02*
X100490000Y-107140580D01*
X101510000Y-106859420D02*
X101510000Y-107140580D01*
%TO.C,H7*%
X108300000Y-94100000D02*
G75*
G02*
X104900000Y-94100000I-1700000J0D01*
G01*
X104900000Y-94100000D02*
G75*
G02*
X108300000Y-94100000I1700000J0D01*
G01*
%TO.C,C2*%
X101740580Y-102990000D02*
X101459420Y-102990000D01*
X101740580Y-104010000D02*
X101459420Y-104010000D01*
%TO.C,H6*%
X108300000Y-102000000D02*
G75*
G02*
X104900000Y-102000000I-1700000J0D01*
G01*
X104900000Y-102000000D02*
G75*
G02*
X108300000Y-102000000I1700000J0D01*
G01*
%TO.C,U1*%
D12*
X97828300Y-97828300D02*
X97828300Y-102171700D01*
X97828300Y-102171700D02*
X98290260Y-102171700D01*
X98290260Y-97828300D02*
X97828300Y-97828300D01*
X101709740Y-102171700D02*
X102171700Y-102171700D01*
X102171700Y-97828300D02*
X101709740Y-97828300D01*
X102171700Y-102171700D02*
X102171700Y-97828300D01*
X98851600Y-102900300D02*
G75*
G02*
X98648400Y-102900300I-101600J0D01*
G01*
X98648400Y-102900300D02*
G75*
G02*
X98851600Y-102900300I101600J0D01*
G01*
%TO.C,C1*%
D11*
X99740000Y-95640580D02*
X99740000Y-95359420D01*
X100760000Y-95640580D02*
X100760000Y-95359420D01*
%TO.C,H2*%
X95700000Y-102000000D02*
G75*
G02*
X92300000Y-102000000I-1700000J0D01*
G01*
X92300000Y-102000000D02*
G75*
G02*
X95700000Y-102000000I1700000J0D01*
G01*
%TO.C,H3*%
X95700000Y-106000000D02*
G75*
G02*
X92300000Y-106000000I-1700000J0D01*
G01*
X92300000Y-106000000D02*
G75*
G02*
X95700000Y-106000000I1700000J0D01*
G01*
%TO.C,H4*%
X108300000Y-106000000D02*
G75*
G02*
X104900000Y-106000000I-1700000J0D01*
G01*
X104900000Y-106000000D02*
G75*
G02*
X108300000Y-106000000I1700000J0D01*
G01*
%TO.C,C3*%
X102990000Y-100640580D02*
X102990000Y-100359420D01*
X104010000Y-100640580D02*
X104010000Y-100359420D01*
%TO.C,H1*%
X95700000Y-98000000D02*
G75*
G02*
X92300000Y-98000000I-1700000J0D01*
G01*
X92300000Y-98000000D02*
G75*
G02*
X95700000Y-98000000I1700000J0D01*
G01*
%TO.C,H5*%
X108300000Y-98000000D02*
G75*
G02*
X104900000Y-98000000I-1700000J0D01*
G01*
X104900000Y-98000000D02*
G75*
G02*
X108300000Y-98000000I1700000J0D01*
G01*
%TO.C,C6*%
X97490000Y-106859420D02*
X97490000Y-107140580D01*
X98510000Y-106859420D02*
X98510000Y-107140580D01*
%TO.C,C4*%
X98990000Y-106859420D02*
X98990000Y-107140580D01*
X100010000Y-106859420D02*
X100010000Y-107140580D01*
%TD*%
D13*
X106600000Y-94100000D03*
X106600000Y-102000000D03*
X94000000Y-102000000D03*
X94000000Y-106000000D03*
X106600000Y-106000000D03*
X94000000Y-98000000D03*
X106600000Y-98000000D03*
M02*
